<?xml version="1.0" encoding="UTF-8"?>
<svg width="149px" height="150px" viewBox="0 0 149 150" version="1.1" xmlns="http://www.w3.org/2000/svg" xmlns:xlink="http://www.w3.org/1999/xlink">
    <title>Combined Shape</title>
    <g id="Brand" stroke="none" stroke-width="1" fill="none" fill-rule="evenodd">
        <path d="M105.951484,0 C129.726523,-4.36740384e-15 149,19.2734773 149,43.0485165 L149,43.2835821 L149,43.2835821 C149,63.5646027 135.656716,70.266243 135.656716,75 C135.656716,79.733757 149,86.4353973 149,106.716418 L149,106.951484 L149,106.951484 C149,130.726523 129.726523,150 105.951484,150 L28.2042004,150 C12.6274507,150 1.90760168e-15,137.372549 0,121.7958 L0,28.2042004 C-1.90760168e-15,12.6274507 12.6274507,-6.91311165e-16 28.2042004,0 L105.951484,0 Z M107.318412,30.8035714 L37.2914103,30.8035714 C33.5948602,30.8035714 30.5982143,33.8002174 30.5982143,37.4967675 L30.5982143,37.4967675 L30.5982143,112.503233 C30.5982143,116.199783 33.5948602,119.196429 37.2914103,119.196429 L37.2914103,119.196429 L107.318412,119.196429 C111.014962,119.196429 114.011608,116.199783 114.011608,112.503233 L114.011608,112.503233 L114.011608,37.4967675 C114.011608,33.8002174 111.014962,30.8035714 107.318412,30.8035714 L107.318412,30.8035714 Z M83.1205357,89.7321429 C85.3395369,89.7321429 87.1383929,91.5309988 87.1383929,93.75 C87.1383929,95.9690012 85.3395369,97.7678571 83.1205357,97.7678571 L62.5535714,97.7678571 C60.3345702,97.7678571 58.5357143,95.9690012 58.5357143,93.75 C58.5357143,91.5309988 60.3345702,89.7321429 62.5535714,89.7321429 L83.1205357,89.7321429 Z M93.9629485,70.9821429 C96.1819497,70.9821429 97.9808056,72.7809988 97.9808056,75 C97.9808056,77.2190012 96.1819497,79.0178571 93.9629485,79.0178571 L50.5803571,79.0178571 C48.3613559,79.0178571 46.5625,77.2190012 46.5625,75 C46.5625,72.7809988 48.3613559,70.9821429 50.5803571,70.9821429 L93.9629485,70.9821429 Z M93.9629485,52.2321429 C96.1819497,52.2321429 97.9808056,54.0309988 97.9808056,56.25 C97.9808056,58.4690012 96.1819497,60.2678571 93.9629485,60.2678571 L50.5803571,60.2678571 C48.3613559,60.2678571 46.5625,58.4690012 46.5625,56.25 C46.5625,54.0309988 48.3613559,52.2321429 50.5803571,52.2321429 L93.9629485,52.2321429 Z" id="Combined-Shape" fill="#20C98B"></path>
    </g>
</svg>