<svg width="56" height="62" viewBox="0 0 56 62" fill="none" xmlns="http://www.w3.org/2000/svg">
<path fill-rule="evenodd" clip-rule="evenodd" d="M6.10935 15.4278C6.01935 15.4578 5.92935 15.4678 5.83935 15.4678C5.40935 15.4678 5.00935 15.1778 4.87935 14.7378C4.72935 14.2078 5.03935 13.6578 5.56935 13.5078L53.2894 0.0377976C53.8094 -0.112202 54.3694 0.197798 54.5194 0.727798C54.6694 1.2578 54.3594 1.8078 53.8294 1.9578L6.10935 15.4278ZM4.99934 17.1178L54.1393 10.5378C54.6793 10.4678 55.1893 10.8478 55.2493 11.3878C55.3193 11.9278 54.9393 12.4378 54.3893 12.5078L33.5393 15.2978C36.4593 19.3178 35.0093 22.8678 33.7093 26.0178C32.5693 28.7878 31.5793 31.1978 33.1593 33.8978H50.5593C50.8493 33.8978 51.1193 34.0278 51.3093 34.2378C51.4993 34.4578 51.5893 34.7478 51.5493 35.0278C50.3793 44.3778 44.0693 51.9878 35.6793 55.1678C35.8193 55.3378 35.9093 55.5478 35.9093 55.7778V60.9978C35.9093 61.5478 35.4593 61.9978 34.9093 61.9978H16.6493C16.0993 61.9978 15.6493 61.5478 15.6493 60.9978V55.7878C15.6493 55.5478 15.7493 55.3478 15.8793 55.1778C7.48934 51.9978 1.17934 44.3878 0.00934303 35.0378C-0.030657 34.7478 0.059343 34.4578 0.249343 34.2478C0.439343 34.0278 0.709343 33.9078 0.999343 33.9078H15.2693C13.9293 30.7378 15.1193 27.8278 16.1893 25.2278L16.1915 25.2226C17.3006 22.5148 18.2585 20.1761 16.9193 17.5378L5.25934 19.0978C5.21934 19.1078 5.16934 19.1078 5.12934 19.1078C4.63934 19.1078 4.20934 18.7378 4.13934 18.2378C4.06934 17.6978 4.44934 17.1878 4.99934 17.1178ZM25.7193 33.9078C24.3993 30.7478 25.5793 27.8578 26.6493 25.2678C27.9293 22.1578 29.0293 19.4678 26.5293 16.2578L23.9093 16.6078C25.6993 20.0878 24.4393 23.2378 23.2993 26.0478C22.1793 28.8178 21.2093 31.2278 22.7393 33.9078H25.7193ZM18.9993 17.2678C20.3093 20.4678 19.1193 23.3878 18.0493 25.9878C16.8993 28.7678 15.9093 31.1878 17.5193 33.9178H20.5293C19.2493 30.7778 20.4093 27.8978 21.4593 25.3078L21.46 25.3062C22.6397 22.3669 23.659 19.8273 21.7793 16.8978L18.9993 17.2678ZM33.9193 59.9978V56.7778H26.9293H24.6493H17.6593V59.9978H33.9193ZM24.6493 54.7778H26.9293C38.0393 54.7778 47.5093 46.7478 49.4193 35.9078H2.16934C4.06934 46.7378 13.5393 54.7778 24.6493 54.7778ZM31.8789 25.2444C33.1849 22.0544 34.3126 19.2997 31.5393 15.9778L31.2393 15.6178L28.7593 15.9478C31.0893 19.6978 29.7293 23.0378 28.4993 26.0278C27.3593 28.7978 26.3693 31.2078 27.9493 33.9078H30.9393C29.6193 30.7478 30.7993 27.8578 31.8693 25.2678L31.8789 25.2444Z" fill="url(#paint0_linear)"/>
<defs>
<linearGradient id="paint0_linear" x1="43.8377" y1="25.9119" x2="46.7543" y2="49.9896" gradientUnits="userSpaceOnUse">
<stop stop-color="#9253BE"/>
<stop offset="1" stop-color="#F0954D"/>
</linearGradient>
</defs>
</svg>
