<svg xmlns="http://www.w3.org/2000/svg" viewBox="0 0 32.79 26.39"><defs><style>.cls-1{fill:#ea4335;}.cls-2{fill:#4285f4;}.cls-3{fill:#34a853;}.cls-4{fill:#fbbc05;}</style></defs><title>google-cloud</title><g id="Layer_2" data-name="Layer 2"><g id="Art"><path class="cls-1" d="M20.8,7.27h1l2.85-2.85.14-1.21A12.81,12.81,0,0,0,6.71,4.33,12.93,12.93,0,0,0,4,9.46,1.5,1.5,0,0,1,5,9.4l5.7-.94s.29-.48.44-.45a7.1,7.1,0,0,1,9.73-.74Z"/><path class="cls-2" d="M28.71,9.46a12.77,12.77,0,0,0-3.87-6.24l-4,4a7.08,7.08,0,0,1,2.61,5.64v.71a3.56,3.56,0,1,1,0,7.12H16.33l-.71.72v4.27l.71.71h7.12A9.26,9.26,0,0,0,28.71,9.46Z"/><path class="cls-3" d="M9.2,26.35h7.12v-5.7H9.2a3.61,3.61,0,0,1-1.47-.32l-1,.31L3.86,23.49l-.25,1A9.32,9.32,0,0,0,9.2,26.35Z"/><path class="cls-4" d="M9.2,7.86a9.26,9.26,0,0,0-5.59,16.6l4.13-4.13a3.56,3.56,0,0,1,2.94-6.49,3.49,3.49,0,0,1,1.77,1.78l4.13-4.13A9.22,9.22,0,0,0,9.2,7.86Z"/></g></g></svg>