<svg id="Layer_1" data-name="Layer 1" xmlns="http://www.w3.org/2000/svg" viewBox="0 0 600 260"><defs><style>.cls-1{fill:#f05a22;}.cls-2{fill:none;}</style></defs><title>kk-logo-hor-color-pos-sz-rgb</title><path class="cls-1" d="M91.34,71.7v56.7a2.15,2.15,0,0,1-1.74,2.12c-7.23,1.37-34.46,5-34.46-18V72c0-22.32,36.2-22.82,36.2-.26"/><path class="cls-1" d="M140.88,110.79V167.5a2.14,2.14,0,0,1-1.75,2.11c-7.23,1.38-34.46,5-34.46-18V111.05c0-22.31,36.21-22.81,36.21-.26"/><path class="cls-1" d="M190.41,145.1v56.71a2.15,2.15,0,0,1-1.75,2.12c-7.23,1.37-34.46,5-34.46-18v-40.6c0-22.31,36.21-22.81,36.21-.26"/><path d="M261.27,142.37l21.58,27.71H267.71l-18.06-24.25v24.25H236.94V115.14h12.71v24.41l18.13-24.41h15.07Z"/><path d="M282.38,151.16c0-11.53,8-19.93,21-19.93s21,8.4,21,19.93-8,19.94-21,19.94S282.38,162.7,282.38,151.16Zm30.07,0c0-5.73-3.38-9.81-9-9.81s-9,4.08-9,9.81,3.3,9.82,9,9.82S312.45,156.89,312.45,151.16Z"/><path d="M331.28,132.25h12v5.49c2.2-4.24,6.52-6.51,12.25-6.51,9.18,0,13.81,5.18,13.81,15.46v23.39H357.26V150.61c0-6.35-1.8-9.26-6.67-9.26s-7.3,3.14-7.3,9v19.78h-12Z"/><path d="M402.24,160.5v9.58a47.22,47.22,0,0,1-8,.63c-5.66,0-13.43-1.26-13.43-13.89V141.75h-6v-9.5h6V121h12v11.23h8.56v9.5h-8.56V154.3c0,5.58,2.28,6.44,5.26,6.44A33.32,33.32,0,0,0,402.24,160.5Z"/><path d="M446,154.46H418.1c.23,4.95,3.53,7.61,8.87,7.61,3.69,0,6-1,7.06-3.37H445.8c-1.17,7.46-8.79,12.4-18.83,12.4-12.88,0-20.8-7.3-20.8-19.94,0-12.4,8.08-19.93,20.4-19.93,11.78,0,19.78,7.3,19.78,18A40.23,40.23,0,0,1,446,154.46ZM434.5,147c-.08-5-2.9-7.69-8-7.69s-8.32,3.06-8.4,7.69Z"/><path d="M453.26,132.25h12v5.49c2.2-4.24,6.52-6.51,12.24-6.51,9.19,0,13.82,5.18,13.82,15.46v23.39H479.24V150.61c0-6.35-1.8-9.26-6.67-9.26s-7.3,3.14-7.3,9v19.78h-12Z"/><path d="M524.22,160.5v9.58a47.26,47.26,0,0,1-8,.63c-5.65,0-13.42-1.26-13.42-13.89V141.75h-6v-9.5h6V121h12v11.23h8.56v9.5H514.8V154.3c0,5.58,2.28,6.44,5.26,6.44A33.44,33.44,0,0,0,524.22,160.5Z"/><path class="cls-1" d="M530.66,163.17a7.77,7.77,0,1,1,7.77,7.7A7.67,7.67,0,0,1,530.66,163.17Z"/><rect class="cls-2" width="600" height="260"/></svg>