<svg id="Layer_1" data-name="Layer 1" xmlns="http://www.w3.org/2000/svg" viewBox="0 0 496 150"><defs><style>.cls-1{fill:#f05a22;}</style></defs><title>kk-logo-hor-color-pos-rgb</title><path class="cls-1" d="M36.34,16.7V73.4a2.15,2.15,0,0,1-1.74,2.12c-7.23,1.37-34.46,5-34.46-18V17c0-22.32,36.2-22.82,36.2-.26"/><path class="cls-1" d="M85.88,55.79V112.5a2.14,2.14,0,0,1-1.75,2.11c-7.23,1.38-34.46,5-34.46-18V56.05c0-22.31,36.21-22.81,36.21-.26"/><path class="cls-1" d="M135.41,90.1v56.71a2.15,2.15,0,0,1-1.75,2.12c-7.23,1.37-34.46,5-34.46-18V90.36c0-22.31,36.21-22.81,36.21-.26"/><path d="M206.27,87.37l21.58,27.71H212.71L194.65,90.83v24.25H181.94V60.14h12.71V84.55l18.13-24.41h15.07Z"/><path d="M227.38,96.16c0-11.53,8-19.93,21-19.93s21,8.4,21,19.93-8,19.94-21,19.94S227.38,107.7,227.38,96.16Zm30.07,0c0-5.73-3.38-9.81-9-9.81s-9,4.08-9,9.81,3.3,9.82,9,9.82S257.45,101.89,257.45,96.16Z"/><path d="M276.28,77.25h12v5.49c2.2-4.24,6.52-6.51,12.25-6.51,9.18,0,13.81,5.18,13.81,15.46v23.39H302.26V95.61c0-6.35-1.8-9.26-6.67-9.26s-7.3,3.14-7.3,9v19.78h-12Z"/><path d="M347.24,105.5v9.58a47.22,47.22,0,0,1-8,.63c-5.66,0-13.43-1.26-13.43-13.89V86.75h-6v-9.5h6V66h12V77.25h8.56v9.5h-8.56V99.3c0,5.58,2.28,6.44,5.26,6.44A33.32,33.32,0,0,0,347.24,105.5Z"/><path d="M391,99.46H363.1c.23,5,3.53,7.61,8.87,7.61,3.69,0,6-1,7.06-3.37H390.8c-1.17,7.46-8.79,12.4-18.83,12.4-12.88,0-20.8-7.3-20.8-19.94,0-12.4,8.08-19.93,20.4-19.93,11.78,0,19.78,7.3,19.78,18A40.23,40.23,0,0,1,391,99.46ZM379.5,92c-.08-5-2.9-7.69-8-7.69s-8.32,3.06-8.4,7.69Z"/><path d="M398.26,77.25h12v5.49c2.2-4.24,6.52-6.51,12.24-6.51,9.19,0,13.82,5.18,13.82,15.46v23.39H424.24V95.61c0-6.35-1.8-9.26-6.67-9.26s-7.3,3.14-7.3,9v19.78h-12Z"/><path d="M469.22,105.5v9.58a47.26,47.26,0,0,1-8,.63c-5.65,0-13.42-1.26-13.42-13.89V86.75h-6v-9.5h6V66h12V77.25h8.56v9.5H459.8V99.3c0,5.58,2.28,6.44,5.26,6.44A33.44,33.44,0,0,0,469.22,105.5Z"/><path class="cls-1" d="M475.66,108.17a7.77,7.77,0,1,1,7.77,7.7A7.67,7.67,0,0,1,475.66,108.17Z"/></svg>