<svg width="65" height="62" viewBox="0 0 65 62" fill="none" xmlns="http://www.w3.org/2000/svg">
<path d="M56.64 43.61C58.95 42.17 60.5 39.62 60.5 36.7C60.5 32.22 56.85 28.57 52.37 28.57C47.88 28.57 44.24 32.22 44.24 36.7C44.24 39.61 45.78 42.16 48.09 43.6C46.14 44.32 44.39 45.54 43.01 47.13C41.38 45.88 39.53 44.89 37.51 44.28C41.18 42.41 43.7 38.6 43.7 34.21C43.7 27.98 38.63 22.91 32.39 22.91C26.15 22.91 21.08 27.98 21.08 34.21C21.08 38.6 23.6 42.41 27.27 44.28C25.26 44.9 23.4 45.88 21.77 47.13C20.39 45.54 18.64 44.32 16.69 43.6C19 42.16 20.54 39.61 20.54 36.7C20.54 32.22 16.89 28.57 12.41 28.57C7.93 28.57 4.28 32.22 4.28 36.7C4.28 39.62 5.83 42.17 8.14 43.61C3.4 45.36 0 49.91 0 55.25C0 55.8 0.45 56.25 1 56.25H15.58C15.15 57.76 14.91 59.35 14.91 61C14.91 61.55 15.36 62 15.91 62H48.88C49.43 62 49.88 61.55 49.88 61C49.88 59.35 49.64 57.76 49.21 56.25H63.79C64.34 56.25 64.79 55.8 64.79 55.25C64.78 49.91 61.38 45.36 56.64 43.61ZM46.23 36.7C46.23 33.32 48.98 30.57 52.36 30.57C55.74 30.57 58.49 33.32 58.49 36.7C58.49 40.08 55.74 42.83 52.36 42.83C48.98 42.83 46.23 40.08 46.23 36.7ZM23.08 34.21C23.08 29.08 27.25 24.91 32.39 24.91C37.53 24.91 41.7 29.08 41.7 34.21C41.7 39.34 37.53 43.51 32.39 43.51C27.25 43.51 23.08 39.34 23.08 34.21ZM6.28 36.7C6.28 33.32 9.03 30.57 12.41 30.57C15.79 30.57 18.54 33.32 18.54 36.7C18.54 40.08 15.79 42.83 12.41 42.83C9.03 42.83 6.28 40.08 6.28 36.7ZM2.05 54.25C2.55 48.98 7.01 44.84 12.42 44.84C15.43 44.84 18.3 46.18 20.27 48.43C18.57 50.07 17.2 52.04 16.27 54.25H2.05ZM16.94 60C17.46 51.92 24.19 45.51 32.39 45.51C40.59 45.51 47.33 51.92 47.84 60H16.94ZM48.52 54.25C47.59 52.04 46.22 50.07 44.52 48.43C46.49 46.17 49.36 44.84 52.37 44.84C57.78 44.84 62.23 48.98 62.74 54.25H48.52Z" fill="url(#paint0_linear)"/>
<path d="M32.3901 14.27C26.3001 14.27 20.6601 17.03 16.9301 21.85C16.5901 22.29 16.6701 22.91 17.1101 23.25C17.2901 23.39 17.5101 23.46 17.7201 23.46C18.0201 23.46 18.3101 23.33 18.5101 23.07C21.8601 18.75 26.9201 16.26 32.3901 16.26C37.8501 16.26 42.9101 18.74 46.2601 23.06C46.6001 23.5 47.2301 23.58 47.6601 23.24C48.1001 22.9 48.1801 22.27 47.8401 21.84C44.1101 17.03 38.4801 14.27 32.3901 14.27Z" fill="url(#paint1_linear)"/>
<path d="M51.6 18.32C51.95 18.75 52.58 18.82 53.01 18.47C53.44 18.12 53.51 17.49 53.16 17.06C48.06 10.75 40.49 7.13 32.39 7.13C24.27 7.13 16.69 10.76 11.6 17.08C11.25 17.51 11.32 18.14 11.75 18.49C11.94 18.64 12.16 18.71 12.38 18.71C12.67 18.71 12.96 18.58 13.16 18.34C17.87 12.49 24.89 9.13 32.4 9.13C39.88 9.13 46.89 12.48 51.6 18.32Z" fill="url(#paint2_linear)"/>
<path d="M7.44996 14.05C13.52 6.39 22.61 2 32.39 2C42.17 2 51.27 6.4 57.35 14.08C57.55 14.33 57.84 14.46 58.13 14.46C58.35 14.46 58.57 14.39 58.75 14.24C59.18 13.9 59.26 13.27 58.91 12.84C52.46 4.68 42.79 0 32.39 0C22 0 12.34 4.67 5.87997 12.81C5.53997 13.24 5.60996 13.87 6.03996 14.22C6.47996 14.56 7.10996 14.49 7.44996 14.05Z" fill="url(#paint3_linear)"/>
<defs>
<linearGradient id="paint0_linear" x1="51.4" y1="39.2476" x2="52.3992" y2="54.5865" gradientUnits="userSpaceOnUse">
<stop stop-color="#9253BE"/>
<stop offset="1" stop-color="#F0954D"/>
</linearGradient>
<linearGradient id="paint1_linear" x1="41.5755" y1="18.111" x2="41.6901" y2="21.7288" gradientUnits="userSpaceOnUse">
<stop stop-color="#9253BE"/>
<stop offset="1" stop-color="#F0954D"/>
</linearGradient>
<linearGradient id="paint2_linear" x1="44.7019" y1="11.9699" x2="44.8376" y2="16.5291" gradientUnits="userSpaceOnUse">
<stop stop-color="#9253BE"/>
<stop offset="1" stop-color="#F0954D"/>
</linearGradient>
<linearGradient id="paint3_linear" x1="48.08" y1="6.04354" x2="48.2462" y2="11.7368" gradientUnits="userSpaceOnUse">
<stop stop-color="#9253BE"/>
<stop offset="1" stop-color="#F0954D"/>
</linearGradient>
</defs>
</svg>
