<svg width="17" height="916" viewBox="0 0 17 916" fill="none" xmlns="http://www.w3.org/2000/svg">
<path d="M8.80737 0C10.2774 20.02 11.2574 40.04 12.0474 60.06C12.9074 80.08 13.4574 100.1 13.8974 120.12C14.3274 140.14 14.6174 160.16 14.7274 180.18C14.9074 200.2 14.7974 220.22 14.3074 240.24C13.3374 280.28 10.9274 320.32 10.4674 360.37C9.94736 400.41 10.7674 440.45 12.1574 480.49L13.1674 510.52L13.6674 525.54L14.0674 540.56C14.5874 560.58 14.8574 580.6 15.1374 600.62L15.5574 630.65L15.8874 660.68C16.1474 680.7 16.1374 700.72 16.0574 720.74C15.9274 740.76 15.7174 760.78 15.3174 780.8L14.7374 810.83L13.9574 840.86C13.7174 850.87 13.3574 860.88 13.0174 870.89L12.4974 885.91L11.8874 900.93C11.0674 920.95 10.1074 940.97 8.79737 960.99H7.29737C5.99736 940.98 5.03736 920.96 4.21736 900.94L3.60737 885.92L3.08737 870.9C2.75737 860.89 2.38737 850.88 2.14737 840.87L1.36737 810.84L0.787365 780.81C0.387365 760.79 0.177365 740.77 0.0473652 720.75C-0.0326348 700.73 -0.0326348 680.71 0.217365 660.69L0.547365 630.66L0.967365 600.63C1.24737 580.61 1.51737 560.59 2.03737 540.57L2.43737 525.55L2.93737 510.53L3.94737 480.5C5.33737 440.46 6.15736 400.42 5.63736 360.38C5.18737 320.34 2.77737 280.3 1.79737 240.25C1.30737 220.23 1.19737 200.21 1.37737 180.19C1.49737 160.17 1.77737 140.15 2.20737 120.13C2.64737 100.11 3.19736 80.09 4.05736 60.07C4.84736 40.04 5.83737 20.02 7.30736 0H8.80737Z" fill="#150934"/>
</svg>
