<svg width="12" height="12" viewBox="0 0 12 12" xmlns="http://www.w3.org/2000/svg">
<path fill-rule="evenodd" clip-rule="evenodd" d="M10.9707 1.45859C10.9404 1.36069 10.8865 1.26853 10.809 1.19102C10.7415 1.1235 10.6628 1.07389 10.579 1.04217C10.5066 1.01477 10.4302 1.00073 10.3538 1.00003C10.3518 1.00001 10.3498 1 10.3478 1C10.3478 1 10.3478 1 10.3478 1H3.82604C3.46586 1 3.17387 1.29199 3.17387 1.65217C3.17387 2.01236 3.46586 2.30435 3.82604 2.30435H8.77334L1.19102 9.88667C0.936328 10.1414 0.936328 10.5543 1.19102 10.809C1.44571 11.0637 1.85864 11.0637 2.11333 10.809L9.69561 3.2267V8.17391C9.69561 8.5341 9.9876 8.82609 10.3478 8.82609C10.708 8.82609 11 8.5341 11 8.17391V1.6598V1.65217C11 1.62118 10.9978 1.59069 10.9936 1.56084" />
</svg>
