<svg width="49" height="62" viewBox="0 0 49 62" fill="none" xmlns="http://www.w3.org/2000/svg">
<path d="M47.96 5.22H41.13V1C41.13 0.45 40.68 0 40.13 0H29.7C29.15 0 28.7 0.45 28.7 1V5.22H8.83H3.61C1.62 5.22 0 6.84 0 8.83V58.39C0 60.38 1.62 62 3.61 62H8.83H47.96C48.51 62 48.96 61.55 48.96 61V6.22C48.96 5.67 48.51 5.22 47.96 5.22ZM30.7 2H39.13V24.67L35.62 21.16C35.43 20.97 35.18 20.87 34.91 20.87C34.64 20.87 34.39 20.98 34.2 21.16L30.69 24.67V2H30.7ZM2 58.39V8.83C2 7.94 2.72 7.22 3.61 7.22H7.83V60H3.61C2.72 60 2 59.28 2 58.39ZM46.96 60H9.83V7.22H28.7V27.09C28.7 27.49 28.94 27.86 29.32 28.01C29.44 28.06 29.57 28.09 29.7 28.09C29.96 28.09 30.22 27.99 30.41 27.8L34.92 23.29L39.43 27.8C39.72 28.09 40.15 28.17 40.52 28.02C40.89 27.87 41.14 27.5 41.14 27.1V7.22H46.97V60H46.96Z" fill="url(#paint0_linear)"/>
<defs>
<linearGradient id="paint0_linear" x1="38.8416" y1="25.9128" x2="42.1206" y2="49.8964" gradientUnits="userSpaceOnUse">
<stop stop-color="#9253BE"/>
<stop offset="1" stop-color="#F0954D"/>
</linearGradient>
</defs>
</svg>
