<svg viewBox="0 0 1604 632" 
    xmlns="http://www.w3.org/2000/svg">
    <g transform="translate(157 157)" fill="none">
        <path d="M144.06 155a12.82 12.82 0 0 0 12.82-12.83V7.53c0-5.42-6.52-9.29-11.28-6.71L11.27 73.67A21.59 21.59 0 0 0 0 92.61v62.79c0 5.71 6.17.62 11.12-2.22l66.5-42.81a7.42 7.42 0 0 1 11.11 6.43v25.39c.011 7.078 5.752 12.81 12.83 12.81h42.5z" fill="#47C486"/>
        <path d="M12.92 163.56C5.838 163.566.1 169.308.1 176.39v134.66c0 5.42 6.52 9.3 11.28 6.72l134.34-72.85A21.59 21.59 0 0 0 157 226v-46.33c-.1-16.33-7-14-12-11.15l-65.64 39.69a7.41 7.41 0 0 1-11.11-6.43v-25.39a12.83 12.83 0 0 0-12.83-12.83h-42.5z" fill="#2196F3"/>
        <path d="M311.4 204.15a3 3 0 0 0-4.41.22 34.72 34.72 0 0 1-20.19 11.87h-.21a45.67 45.67 0 0 1-7.35.65h-.58c-.847 0-1.687-.02-2.52-.06-11.187-.54-20.34-4.74-27.46-12.6-.39-.43-.76-.86-1.13-1.3-6.667-7.947-10.113-17.643-10.34-29.09v-2.85a43.88 43.88 0 0 1 11.22-26.08c7.12-7.86 16.273-12.06 27.46-12.6.833-.04 1.673-.06 2.52-.06h.59a45.67 45.67 0 0 1 7.35.65h.21a34.72 34.72 0 0 1 20.19 11.87c.22.25.43.5.64.76a3 3 0 0 0 4.39.24l1.24-1.2 3.13-3 12.76-12.3.13-.12a3 3 0 0 0 .14-4.18c-.11-.13-.23-.26-.35-.38a69.336 69.336 0 0 0-4.56-4.52l-.15-.13a72.58 72.58 0 0 0-7.27-5.54l-.56-.37a70.52 70.52 0 0 0-23.66-9.88 93.69 93.69 0 0 0-16-1.42 78.43 78.43 0 0 0-26.24 6 72 72 0 0 0-13.16 7.26 78.12 78.12 0 0 0-8.3 6.64C214.31 136.07 207 153.457 207 174.79c0 21.333 7 38.6 21 51.8a77.57 77.57 0 0 0 9.25 7.49 68.45 68.45 0 0 0 23.45 10.39h.12a77.16 77.16 0 0 0 17.28 1.9c1.39 0 2.76 0 4.13-.1.46 0 .92-.05 1.37-.09l.91-.07.77-.07 1.36-.14.91-.11h.34l.65-.08.9-.12.81-.12 1-.14h.67l.39-.06h.63a70.52 70.52 0 0 0 23.66-9.88l.56-.37a72.58 72.58 0 0 0 7.27-5.54l.15-.13a66.207 66.207 0 0 0 4.56-4.52 2.51 2.51 0 0 0-.11-3.5l-.09-.08-17.54-17.1zm86.48-34.86v74.1a3 3 0 0 1-3 3h-24a3 3 0 0 1-3-3V57.2a3 3 0 0 1 3-3h24a3 3 0 0 1 3 3v64.09c14.16-16.56 28.48-18.62 38.28-18.62 16.09 0 30.63 3.31 42 13.06 10.59 9.08 20.92 24.83 20.92 43.38v84.28a3 3 0 0 1-3 3h-24a3 3 0 0 1-3-3v-75.17c0-26.24-13.83-36.08-35.6-36.08-10.36 0-18.26 2.66-25.7 9.84-6.99 6.75-9.9 14.1-9.9 27.31zm386.74-40.21a3 3 0 0 1-3 3c-14.133.287-24.83 5.1-32.09 14.44-7.453 9.653-11.183 22.597-11.19 38.83v61h-30v-140.7a3 3 0 0 1 3-3h24a3 3 0 0 1 3 3v15.6c11.33-15.72 32.19-18.07 43-18.51a3 3 0 0 1 3.12 3c.01 5.64.11 17.71.16 23.34zm222.69 117.32h-24a3 3 0 0 1-3-3.06V105.71a3 3 0 0 1 3-3.06h24a3 3 0 0 1 3 3.06v137.63a3 3 0 0 1-3 3.06zm-367.76.02h30.34V102.91h-28.67a1.66 1.66 0 0 0-.32 0 1.92 1.92 0 0 0-.57.24 1.43 1.43 0 0 0-.23.2c-.07.07-.13.15-.2.23a.94.94 0 0 0-.14.26c0 .1-.07.2-.1.3a1.66 1.66 0 0 0 0 .32v16.73c-15.38-25.22-52.36-17.51-55.41-17.11a70.52 70.52 0 0 0-23.69 9.92l-.56.37a72.58 72.58 0 0 0-7.27 5.54l-.15.13a63.322 63.322 0 0 0-4.56 4.52 67.23 67.23 0 0 0-17 34.55 83.75 83.75 0 0 0-1.5 16.11c0 19.64 6.07 36.06 18.21 49.26a69.336 69.336 0 0 0 4.56 4.52l.15.13a72.58 72.58 0 0 0 7.27 5.54l.56.37a70.52 70.52 0 0 0 23.73 9.88c3.06.4 40.43 8.19 55.67-17.52l-.12 19.02zm.08-73.74v1.11c-.213 11.453-3.66 21.15-10.34 29.09-.37.44-.74.87-1.13 1.3-7.12 7.86-15.86 12.5-27 13h-3.92a40.49 40.49 0 0 1-7-1h-.21a34.72 34.72 0 0 1-20.19-11.87C562.613 195.817 559 185.713 559 174a43.9 43.9 0 0 1 11.1-29.25 34.72 34.72 0 0 1 20.19-11.87h.21a45.67 45.67 0 0 1 7.35-.65h.58c.847 0 1.687.02 2.52.06 11.187.54 20.34 4.74 27.46 12.6a43.88 43.88 0 0 1 11.22 26.08v1.71zm646.46-70.03a3 3 0 0 1 3 3v129.87c-.06 2.73-.22 5.38-.45 8 0 .56-.1 1.12-.16 1.67-.28 2.71-.64 5.33-1.1 7.87-.08.41-.15.82-.23 1.22-.12.63-.24 1.26-.37 1.88l-.12.51c-.12.57-.25 1.14-.39 1.7a70.41 70.41 0 0 1-12.12 26.56c-.36.47-.72.93-1.09 1.39-.7.89-1.43 1.75-2.2 2.59a1.14 1.14 0 0 0-.15.17c-.37.41-.75.82-1.14 1.22-.39.4-.82.84-1.24 1.25-.42.41-.86.84-1.3 1.25-.44.41-.86.8-1.3 1.18-.44.38-.87.78-1.32 1.15-.45.37-.89.75-1.34 1.11-.9.73-1.82 1.43-2.76 2.09-.46.33-.93.66-1.41 1-.35.23-.7.47-1 .69a63.08 63.08 0 0 1-10.07 5.29l-1.18.48c-1.19.47-2.39.9-3.61 1.29l-1.46.46-.59.17-.55.16-1.14.31c-.66.18-1.33.34-2 .5l-.53.12c-.65.15-1.3.29-2 .41s-1.31.25-2 .36l-1 .15-1.71.25c-.58.08-1.17.15-1.77.21l-1 .1-1.16.1c-.82.07-1.66.13-2.5.17l-1.09.05c-.46 0-.92 0-1.38.05h-2.34c-15.84 0-29.747-3.853-41.72-11.56-.64-.41-1.27-.83-1.88-1.26-.32-.22-.64-.44-1-.68-.36-.24-.52-.36-.77-.56-.26-.18-.52-.38-.77-.57l-.07-.06c-.58-.44-1.16-.9-1.72-1.36-.56-.46-1.09-.91-1.62-1.39-.31-.27-.62-.55-.92-.84-.3-.29-.82-.74-1.22-1.13-.6-.587-1.19-1.187-1.77-1.8-.58-.6-1.15-1.22-1.7-1.86-.55-.64-1-1.16-1.49-1.76a69.69 69.69 0 0 1-3.18-4.26c-.49-.71-1-1.42-1.41-2.15-.41-.73-.9-1.46-1.34-2.21-.43-.75-.85-1.51-1.26-2.29-.41-.78-.76-1.46-1.13-2.21a1 1 0 0 0-.07-.15 90.603 90.603 0 0 1-2.18-4.95 1.65 1.65 0 0 1 .15-1.5c.04-.067.088-.13.14-.19l.17-.17a2 2 0 0 1 .42-.26l23.51-10.27a1.52 1.52 0 0 1 1.45.12c.078.051.151.108.22.17a1.65 1.65 0 0 1 .42.59c.23.57.46 1.13.71 1.68.25.55.49 1.1.74 1.63.25.53.45.93.68 1.38l.18.35c.23.47.49.92.74 1.37.55 1 1.14 2 1.74 2.88.26.41.54.81.81 1.2.67.95 1.36 1.86 2.08 2.73.34.42.68.81 1 1.2.35.38.7.76 1 1.12.73.75 1.48 1.46 2.26 2.14.38.33.78.66 1.18 1 .4.34.8.64 1.22.94.42.3.83.6 1.25.88.42.28 1 .67 1.56 1 .35.22.7.42 1.06.62a38.838 38.838 0 0 0 2.76 1.39c.48.21.78.35 1.18.51l.7.28a38.36 38.36 0 0 0 4.4 1.43c.38.11.77.2 1.16.3 2.239.52 4.51.884 6.8 1.09.58.05 1.17.1 1.76.13.59.03 1.2.07 1.8.08.6.01 1.22 0 1.84 0 25.86 0 39.173-16.49 39.94-49.47v-6.34c-15.24 25.71-52.61 17.92-55.67 17.52-29.947-6.51-52.327-31.517-55.49-62-.04-.34-.07-.673-.09-1a99.772 99.772 0 0 1-.29-7.41v-69a3 3 0 0 1 3-3h24a3 3 0 0 1 3 3v61.68c-.1 1.19-.09 4.71 0 8 .07 2.39.19 4.65.36 5.76a45.81 45.81 0 0 0 10.55 22.73c7.26 8.74 17.053 13.11 29.38 13.11.847 0 1.687-.02 2.52-.06 11.187-.54 20.34-4.74 27.46-12.6.39-.43.76-.86 1.13-1.3 6.667-7.947 10.113-17.643 10.34-29.09v-68.3a3 3 0 0 1 3-3h24.26zm-204.62.27v18.31h35.89a1.6 1.6 0 0 1 1.6 1.59v20.92a1.6 1.6 0 0 1-1.6 1.59h-35.89v99.5a1.59 1.59 0 0 1-1.59 1.59h-26.8a1.6 1.6 0 0 1-1.6-1.59V103.72c0-15.333 4.777-27.333 14.33-36 9.51-8.62 20.48-13.25 35.31-13.51h24.34a3 3 0 0 1 2.59 4.49l-12.92 22.38a3 3 0 0 1-2.59 1.5h-8.84c-14.82-.007-22.23 6.773-22.23 20.34zm-171.73 2.78v15.57c-15.38-25.22-52.36-17.51-55.41-17.11a70.52 70.52 0 0 0-23.66 9.84l-.56.37a72.58 72.58 0 0 0-7.27 5.54l-.15.13a63.322 63.322 0 0 0-4.56 4.52 67.23 67.23 0 0 0-17 34.55 83.75 83.75 0 0 0-1.5 16.11c0 19.64 6.07 36.06 18.21 49.26a69.336 69.336 0 0 0 4.56 4.52l.15.13a72.58 72.58 0 0 0 7.27 5.54l.56.37a70.52 70.52 0 0 0 23.69 9.96c3.06.4 40.43 8.19 55.67-17.52v6.34a83.48 83.48 0 0 1-3.47 23.18c-.18.6-.38 1.18-.58 1.76.01.03.01.06 0 .09-5.78 16.253-17.747 24.377-35.9 24.37h-1.84c-.61 0-1.2 0-1.8-.08-.6-.08-1.18-.08-1.76-.13a49.76 49.76 0 0 1-6.8-1.09c-.39-.1-.78-.19-1.16-.3a38.36 38.36 0 0 1-4.4-1.43l-.7-.28c-.4-.16-.79-.33-1.18-.51-.39-.18-.94-.43-1.4-.67-.46-.24-.92-.47-1.36-.72-.44-.25-.71-.4-1.06-.62-.54-.31-1-.64-1.56-1s-.84-.57-1.25-.88c-.41-.31-.82-.62-1.22-.94-.4-.32-.8-.65-1.18-1-.78-.68-1.53-1.39-2.26-2.14-.35-.36-.7-.74-1.05-1.12-.36-.39-.7-.78-1-1.2-.72-.87-1.41-1.78-2.08-2.73-.27-.39-.55-.79-.81-1.2-.6-.92-1.19-1.88-1.74-2.88-.25-.45-.51-.9-.74-1.37l-.18-.35c-.23-.45-.46-.91-.68-1.38-.22-.47-.5-1.07-.74-1.63-.24-.56-.48-1.11-.71-1.68a1.65 1.65 0 0 0-.42-.59 1.84 1.84 0 0 0-.22-.17A1.52 1.52 0 0 0 827 255l-23 10-.15.07-.37.16a2 2 0 0 0-.42.26l-.17.17c-.052.06-.1.123-.14.19a1.65 1.65 0 0 0-.15 1.5c.34.85.69 1.69 1.06 2.51.37.82.74 1.64 1.12 2.44a1 1 0 0 1 .07.15c.37.75.75 1.49 1.13 2.21.38.72.83 1.54 1.26 2.29.44.75.88 1.49 1.34 2.21.46.72.93 1.45 1.41 2.15.48.7 1 1.4 1.49 2.08.49.68 1.11 1.47 1.69 2.18.58.71 1 1.19 1.49 1.76a45.8 45.8 0 0 0 1.7 1.86c.58.6 1.17 1.21 1.77 1.8.4.39.81.77 1.22 1.13.41.36.61.57.92.84.53.48 1.07.94 1.62 1.39.55.45 1.14.92 1.72 1.36l.07.06c.25.19.51.39.77.57.25.2.51.39.77.56.26.17.63.46.95.68.61.43 1.24.85 1.88 1.26 12 7.707 25.907 11.56 41.72 11.56h2.34c.46 0 .92 0 1.38-.05l1.09-.05c.84 0 1.68-.1 2.5-.17l1.16-.1 1-.1c.6-.06 1.19-.13 1.77-.21l1.71-.25 1-.15c.66-.11 1.32-.23 2-.36.68-.13 1.3-.26 1.95-.41l.53-.12c.68-.16 1.35-.32 2-.5l1.14-.31.55-.16.59-.17 1.46-.46c1.22-.39 2.42-.82 3.61-1.29l1.18-.48a63.08 63.08 0 0 0 10.07-5.29l1-.69c.48-.32 1-.65 1.41-1 .94-.66 1.86-1.36 2.76-2.09.45-.36.9-.73 1.34-1.11.44-.38.89-.76 1.32-1.15.43-.39.87-.78 1.3-1.18.43-.4.87-.83 1.3-1.25.43-.42.83-.83 1.24-1.25.41-.42.77-.81 1.14-1.22a1.14 1.14 0 0 1 .15-.17c.77-.84 1.5-1.7 2.2-2.59.37-.46.73-.92 1.09-1.39a70.41 70.41 0 0 0 12.12-26.56c.14-.56.27-1.13.39-1.7 0-.16.08-.33.11-.49a1.29 1.29 0 0 0 0-.19c.12-.56.23-1.14.34-1.71.08-.4.15-.81.23-1.22.15-.82.29-1.66.42-2.5.27-1.75.49-3.54.68-5.37.06-.55.11-1.11.16-1.67.23-2.58.39-5.23.45-8V105.73a3 3 0 0 0-3-3h-24.26a3 3 0 0 0-2.95 2.97zm-42 111.56a45.67 45.67 0 0 1-7.35-.65h-.21A34.72 34.72 0 0 1 840 204.7c-7.233-8.467-10.847-18.55-10.84-30.25a45.79 45.79 0 0 1 10.57-29.71 36.19 36.19 0 0 1 20.88-12.11 38.69 38.69 0 0 1 7.37-.49h3.13a38.48 38.48 0 0 1 27.46 13.11 43.88 43.88 0 0 1 11.22 26.08v2.85c-.213 11.447-3.66 21.143-10.34 29.09-.37.44-.74.87-1.13 1.3-7.12 7.86-16.273 12.06-27.46 12.6l-3.12.09z" fill="#37474F"/>
        <rect fill="#37474F" x="980.34" y="54.21" width="29.99" height="29.99" rx="3"/>
    </g>
</svg>