<svg width="100" height="100" viewBox="0 0 100 100" fill="none" xmlns="http://www.w3.org/2000/svg">
<g clip-path="url(#clip0)">
<path d="M13.0954 32.3292C12.6234 32.0596 12.2108 31.6972 11.8825 31.2639C11.5543 30.8307 11.3171 30.3354 11.1852 29.8081C11.0534 29.2807 11.0296 28.7321 11.1154 28.1954C11.2012 27.6586 11.3947 27.1447 11.6842 26.6847C12.1328 25.8444 12.8546 25.1823 13.7304 24.8079C13.855 24.7595 13.989 24.74 14.1222 24.751C14.2555 24.762 14.3845 24.8032 14.4995 24.8714C14.5967 24.928 14.6816 25.0036 14.7491 25.0936C14.8166 25.1837 14.8652 25.2864 14.8922 25.3957C14.9192 25.505 14.924 25.6185 14.9062 25.7297C14.8884 25.8408 14.8485 25.9472 14.7887 26.0426C14.6923 26.2033 14.5497 26.3312 14.3795 26.4095C13.8189 26.6142 13.3456 27.0053 13.0389 27.5172C12.8836 27.7918 12.7849 28.0947 12.7488 28.4081C12.7127 28.7214 12.7398 29.0389 12.8287 29.3415C12.9175 29.6442 13.0662 29.926 13.2659 30.1701C13.4657 30.4143 13.7124 30.6158 13.9914 30.7629C14.2538 30.9397 14.5491 31.062 14.8597 31.1223C15.1703 31.1826 15.4898 31.1797 15.7993 31.1139C16.1087 31.048 16.4018 30.9206 16.6609 30.739C16.9201 30.5575 17.14 30.3256 17.3076 30.0573C17.6555 29.5134 17.7865 28.8587 17.6745 28.2228C17.6483 28.0708 17.6661 27.9144 17.7256 27.7721C17.7852 27.6297 17.884 27.5073 18.0107 27.4192C18.1373 27.3311 18.2865 27.2809 18.4406 27.2745C18.5948 27.2681 18.7475 27.3058 18.881 27.3832C18.9825 27.4455 19.0696 27.5286 19.1366 27.6272C19.2035 27.7257 19.2486 27.8374 19.2691 27.9547C19.4024 28.7339 19.3123 29.5349 19.0092 30.265C18.706 30.995 18.2022 31.6243 17.5562 32.0799C16.9101 32.5354 16.1483 32.7986 15.3588 32.839C14.5693 32.8794 13.7845 32.6953 13.0954 32.308V32.3292Z" fill="white"/>
<path d="M21.5268 25.217C21.3986 25.2351 21.268 25.2228 21.1454 25.1812C21.0228 25.1395 20.9118 25.0696 20.8212 24.9771C20.7449 24.9028 20.6841 24.8139 20.6427 24.7157C20.6012 24.6176 20.5799 24.5121 20.5799 24.4055C20.5799 24.299 20.6012 24.1935 20.6427 24.0954C20.6841 23.9972 20.7449 23.9083 20.8212 23.834C20.9463 23.7056 21.1098 23.6214 21.2869 23.5941C22.0375 23.5248 22.742 23.2012 23.2837 22.6769C23.7917 22.176 23.9046 21.675 23.5729 21.3434C23.2625 21.0259 22.9097 21.0541 21.7244 21.7456C20.3132 22.5781 19.2619 22.9874 18.1542 21.8655C17.1452 20.8424 17.3004 19.3537 18.4505 18.2107C19.0568 17.5848 19.827 17.1423 20.6731 16.9336C20.8088 16.9034 20.95 16.9083 21.0833 16.9478C21.2166 16.9873 21.3377 17.0601 21.4351 17.1594C21.5115 17.2337 21.5722 17.3225 21.6136 17.4207C21.6551 17.5189 21.6764 17.6243 21.6764 17.7309C21.6764 17.8374 21.6551 17.9429 21.6136 18.0411C21.5722 18.1392 21.5115 18.2281 21.4351 18.3024C21.3243 18.4131 21.1851 18.4912 21.0329 18.5282C20.4516 18.6467 19.9129 18.9197 19.4736 19.3184C19.0009 19.7911 18.9656 20.2498 19.2337 20.5249C19.6006 20.8918 19.9393 20.7719 21.1811 20.0593C22.5922 19.2267 23.6717 19.0009 24.6454 19.9887C25.7531 21.1106 25.5203 22.5852 24.3067 23.7846C23.5506 24.5383 22.5793 25.0387 21.5268 25.217Z" fill="white"/>
<path d="M28.2226 19.1631C28.0463 19.1529 27.8782 19.0855 27.7437 18.9711C27.6092 18.8566 27.5157 18.7014 27.4774 18.5291C27.4391 18.3567 27.458 18.1765 27.5314 18.0159C27.6048 17.8553 27.7286 17.723 27.884 17.6391C28.0362 17.5461 28.2142 17.5041 28.392 17.5191C29.1257 17.6132 29.8699 17.4619 30.5087 17.0887C31.1225 16.7218 31.3483 16.2562 31.1084 15.854C30.8826 15.48 30.5298 15.4236 29.2175 15.8117C27.637 16.2844 26.5222 16.4396 25.6896 15.1061C24.9841 13.8713 25.4497 12.4602 26.8397 11.6206C27.5937 11.1474 28.4685 10.9023 29.3586 10.915C29.5334 10.9197 29.7021 10.9808 29.8394 11.0892C29.9767 11.1976 30.0753 11.3474 30.1205 11.5164C30.1657 11.6853 30.1551 11.8644 30.0903 12.0268C30.0255 12.1893 29.9099 12.3265 29.7608 12.4179C29.6268 12.4996 29.4732 12.5435 29.3163 12.5449C28.7242 12.5206 28.1366 12.6571 27.6158 12.94C27.0373 13.2857 26.9103 13.7302 27.0937 14.0618C27.3618 14.5064 27.7428 14.4781 29.0975 14.0618C30.6992 13.6032 31.7505 13.6315 32.456 14.8168C33.2674 16.1715 32.6959 17.5474 31.2213 18.4293C30.3219 18.9786 29.2741 19.235 28.2226 19.1631Z" fill="white"/>
<path d="M35.1796 12.4535C35.1098 12.2457 35.1247 12.0188 35.2211 11.822C35.3176 11.6252 35.4877 11.4744 35.6946 11.4022L37.5573 10.7601C37.765 10.6881 37.9929 10.7015 38.1907 10.7974C38.3885 10.8934 38.5401 11.064 38.6122 11.2717C38.6842 11.4794 38.6708 11.7072 38.5748 11.905C38.4789 12.1028 38.3083 12.2544 38.1006 12.3265L36.2379 12.9686C36.0292 13.0386 35.8013 13.0239 35.6034 12.9275C35.4054 12.8312 35.2532 12.6609 35.1796 12.4535Z" fill="white"/>
<path d="M42.8137 7.45765L41.1486 7.7046C40.9372 7.73454 40.7225 7.67926 40.5518 7.55091C40.3811 7.42256 40.2684 7.23166 40.2384 7.0202C40.2085 6.80875 40.2638 6.59406 40.3921 6.42337C40.5205 6.25268 40.7114 6.13996 40.9228 6.11002L45.9747 5.40445C46.1861 5.37358 46.4012 5.42797 46.5725 5.55565C46.7439 5.68334 46.8575 5.87387 46.8884 6.08533C46.9193 6.29678 46.8649 6.51184 46.7372 6.68319C46.6095 6.85455 46.419 6.96816 46.2075 6.99904L44.5424 7.23893L45.3397 12.7C45.3601 12.9229 45.2943 13.1451 45.1559 13.3209C45.0175 13.4967 44.817 13.6129 44.5956 13.6454C44.3742 13.6779 44.1488 13.6244 43.9656 13.4958C43.7825 13.3672 43.6556 13.1733 43.611 12.954L42.8137 7.45765Z" fill="white"/>
<path d="M51.6193 6.05395C51.6316 5.93943 51.6664 5.82847 51.7217 5.72743C51.777 5.62639 51.8517 5.53726 51.9415 5.46515C52.0313 5.39304 52.1345 5.33938 52.2451 5.30723C52.3556 5.27508 52.4715 5.26509 52.586 5.27782L55.3236 5.57416C55.7436 5.59286 56.1557 5.6948 56.5361 5.87406C56.9164 6.05331 57.2573 6.30632 57.5391 6.6184C57.9341 7.14839 58.1062 7.81179 58.0188 8.46699C57.9932 8.9864 57.8009 9.48373 57.4705 9.88532C57.1401 10.2869 56.6891 10.5714 56.1844 10.6966L57.2357 12.2912C57.3877 12.4935 57.4604 12.7444 57.4403 12.9967C57.4281 13.1034 57.3948 13.2065 57.3421 13.3C57.2895 13.3935 57.2187 13.4756 57.1339 13.5413C57.0491 13.6071 56.952 13.6552 56.8483 13.6829C56.7446 13.7105 56.6364 13.7171 56.5301 13.7023C56.3693 13.6862 56.2143 13.6333 56.0773 13.5477C55.9402 13.462 55.8247 13.3459 55.7399 13.2084L54.2582 10.8871L52.847 10.7389L52.6565 12.4605C52.6524 12.5806 52.6237 12.6985 52.572 12.807C52.5203 12.9154 52.4469 13.0121 52.3562 13.0909C52.2656 13.1698 52.1596 13.2291 52.045 13.2652C51.9305 13.3013 51.8096 13.3134 51.6902 13.3008C51.5707 13.2882 51.4551 13.2511 51.3506 13.1918C51.2461 13.1325 51.1549 13.0524 51.0827 12.9563C51.0105 12.8603 50.9589 12.7504 50.9311 12.6335C50.9032 12.5167 50.8997 12.3953 50.9208 12.277L51.6193 6.05395ZM54.7944 9.39128C55.6411 9.483 56.2055 9.08788 56.2479 8.42465C56.3325 7.68381 55.8527 7.24636 55.0061 7.15463L53.2845 6.96413L53.0375 9.17255L54.7944 9.39128Z" fill="white"/>
<path d="M62.9508 8.00094C62.9796 7.88397 63.0322 7.7742 63.1053 7.6785C63.1785 7.58281 63.2706 7.50325 63.3759 7.44481C63.4813 7.38638 63.5975 7.35032 63.7174 7.3389C63.8374 7.32748 63.9583 7.34095 64.0728 7.37845C64.1873 7.41596 64.2928 7.4767 64.3827 7.55687C64.4726 7.63703 64.5449 7.7349 64.5953 7.84434C64.6456 7.95378 64.6728 8.07243 64.6751 8.19286C64.6775 8.3133 64.6549 8.43291 64.6089 8.54423L62.6262 14.5557C62.5919 14.6654 62.5359 14.7672 62.4616 14.855C62.3873 14.9428 62.2962 15.0147 62.1936 15.0667C62.091 15.1187 61.979 15.1495 61.8642 15.1575C61.7495 15.1655 61.6343 15.1503 61.5255 15.1131C61.4161 15.0771 61.3148 15.02 61.2274 14.9448C61.1401 14.8696 61.0685 14.7779 61.0167 14.675C60.9649 14.5721 60.934 14.4599 60.9256 14.345C60.9173 14.2301 60.9318 14.1146 60.9682 14.0053L62.9508 8.00094Z" fill="white"/>
<path d="M67.5721 13.0458C67.8432 12.5753 68.2062 12.1642 68.6397 11.837C69.0731 11.5099 69.568 11.2734 70.0948 11.1417C70.6216 11.01 71.1695 10.9858 71.7059 11.0705C72.2422 11.1552 72.7561 11.347 73.2167 11.6347C74.0533 12.0845 74.7144 12.8027 75.0935 13.6737C75.1429 13.7978 75.1635 13.9316 75.1538 14.0648C75.144 14.198 75.1041 14.3273 75.037 14.4428C74.9803 14.5409 74.9045 14.6266 74.8141 14.6949C74.7236 14.7631 74.6204 14.8125 74.5105 14.8401C74.4007 14.8678 74.2864 14.8731 74.1744 14.8557C74.0624 14.8384 73.9551 14.7987 73.8587 14.7392C73.698 14.6449 73.5718 14.5014 73.4989 14.3299C73.2826 13.7812 72.8906 13.3197 72.3841 13.0176C72.112 12.862 71.8116 12.7622 71.5004 12.7242C71.1893 12.6861 70.8737 12.7105 70.5721 12.7959C70.2706 12.8814 69.9891 13.0261 69.7441 13.2216C69.4991 13.4172 69.2956 13.6596 69.1455 13.9348C68.9695 14.198 68.8479 14.4938 68.788 14.8048C68.7282 15.1158 68.7312 15.4356 68.797 15.7453C68.8627 16.0551 68.9899 16.3485 69.171 16.6084C69.352 16.8682 69.5833 17.0891 69.8511 17.258C70.3908 17.59 71.035 17.7082 71.6574 17.5896C71.8444 17.5609 72.0357 17.5957 72.2006 17.6884C72.3858 17.7988 72.5205 17.9772 72.5758 18.1855C72.6312 18.3938 72.6029 18.6155 72.497 18.8032C72.434 18.9042 72.3506 18.9908 72.2522 19.0576C72.1538 19.1245 72.0425 19.17 71.9255 19.1913C71.1463 19.3255 70.3451 19.2366 69.6144 18.9348C68.8836 18.6331 68.2531 18.1308 67.7957 17.4859C67.3383 16.8411 67.0726 16.08 67.0292 15.2906C66.9859 14.5012 67.1668 13.7156 67.5509 13.0246L67.5721 13.0458Z" fill="white"/>
<path d="M79.3339 17.1452C79.4142 17.0627 79.5101 16.997 79.6162 16.9522C79.7222 16.9074 79.8362 16.8843 79.9513 16.8843C80.0664 16.8843 80.1804 16.9074 80.2864 16.9522C80.3925 16.997 80.4884 17.0627 80.5687 17.1452C80.6504 17.2259 80.7152 17.3221 80.7595 17.4281C80.8038 17.534 80.8266 17.6477 80.8266 17.7626C80.8266 17.8774 80.8038 17.9912 80.7595 18.0971C80.7152 18.2031 80.6504 18.2992 80.5687 18.38L78.6566 20.2427L83.1934 20.3132C83.3339 20.3076 83.4742 20.331 83.6053 20.382C83.7364 20.4329 83.8556 20.5104 83.9554 20.6096C84.0325 20.6827 84.0938 20.7708 84.1358 20.8685C84.1777 20.9661 84.1993 21.0713 84.1993 21.1775C84.1993 21.2838 84.1777 21.389 84.1358 21.4866C84.0938 21.5843 84.0325 21.6723 83.9554 21.7455C83.8629 21.835 83.7514 21.9024 83.6293 21.9427C83.5071 21.983 83.3774 21.9952 83.2498 21.9784L80.1735 21.8725L79.6797 25.7602C79.6661 25.986 79.5708 26.1992 79.4115 26.3599C79.3296 26.4405 79.2321 26.5036 79.125 26.5453C79.0179 26.587 78.9035 26.6065 78.7886 26.6025C78.6737 26.5986 78.5609 26.5712 78.4569 26.5223C78.3529 26.4733 78.26 26.4036 78.1838 26.3176C78.0805 26.2098 78.0068 26.0772 77.9697 25.9326C77.9326 25.788 77.9335 25.6363 77.9722 25.4921L78.5155 21.7949L77.1537 21.7314L76.0178 22.8391C75.8475 23.0019 75.6195 23.0904 75.384 23.0851C75.1484 23.0798 74.9246 22.9812 74.7618 22.8109C74.599 22.6406 74.5106 22.4127 74.5158 22.1771C74.5211 21.9416 74.6198 21.7178 74.7901 21.555L79.3339 17.1452Z" fill="white"/>
<path d="M81.26 28.8436C81.2765 28.7167 81.3219 28.5953 81.3929 28.4889C81.4639 28.3824 81.5584 28.2938 81.6692 28.2298C81.7619 28.1769 81.864 28.1427 81.9698 28.1293C82.0757 28.116 82.1831 28.1236 82.286 28.1518C82.3889 28.1799 82.4852 28.2281 82.5695 28.2936C82.6537 28.359 82.7242 28.4404 82.777 28.5332C82.8674 28.6887 82.9046 28.8696 82.8828 29.0482C82.7759 29.7781 82.9149 30.5228 83.2779 31.1649C83.6307 31.7858 84.0893 32.0187 84.4986 31.7858C84.8866 31.56 84.9431 31.2143 84.5832 29.8949C84.1387 28.3003 84.0117 27.1855 85.3805 26.3671C86.6364 25.6615 88.0334 26.1836 88.8448 27.5877C89.2975 28.3555 89.5204 29.2371 89.4869 30.1277C89.4798 30.304 89.4155 30.4732 89.3036 30.6096C89.1917 30.7461 89.0384 30.8423 88.8669 30.8838C88.6954 30.9253 88.5151 30.9097 88.3532 30.8395C88.1914 30.7693 88.0568 30.6482 87.9699 30.4946C87.8925 30.3595 87.8534 30.2058 87.857 30.0501C87.8926 29.4559 87.7657 28.8632 87.4902 28.3356C87.1585 27.757 86.7211 27.63 86.3824 27.7994C85.9309 28.0604 85.952 28.4414 86.333 29.8032C86.7705 31.4119 86.7211 32.4843 85.5216 33.1758C84.1528 33.966 82.784 33.3592 81.9373 31.8776C81.4049 30.96 81.1684 29.9005 81.26 28.8436Z" fill="white"/>
<path d="M10.8588 41.8259C11.2663 41.9308 11.6202 42.1838 11.8514 42.5354C12.0826 42.8871 12.1746 43.3123 12.1094 43.728C12.0442 44.1438 11.8265 44.5204 11.4988 44.7844C11.1711 45.0484 10.7568 45.181 10.3366 45.1562C9.91442 45.0626 9.54401 44.811 9.30138 44.453C9.05875 44.095 8.96229 43.6577 9.03177 43.2309C9.10126 42.804 9.33143 42.4199 9.67508 42.1574C10.0187 41.8948 10.4498 41.7737 10.8799 41.8188L10.8588 41.8259Z" fill="white"/>
<path d="M13.3353 54.731C13.4495 54.7065 13.5675 54.7056 13.6821 54.7282C13.7967 54.7508 13.9055 54.7965 14.0019 54.8625C14.0983 54.9285 14.1802 55.0135 14.2427 55.1122C14.3052 55.2108 14.347 55.3212 14.3654 55.4365L14.817 57.7296C15.198 59.5853 14.3302 60.94 12.7426 61.2575C10.9434 61.6244 9.72281 60.4179 9.36297 58.6751L9.09486 57.3769L7.54966 57.6944C7.43708 57.7175 7.32105 57.7183 7.20817 57.6966C7.0953 57.6749 6.9878 57.6312 6.89182 57.568C6.79584 57.5048 6.71325 57.4233 6.64876 57.3281C6.58428 57.233 6.53917 57.1261 6.51601 57.0135C6.49284 56.9009 6.49208 56.7849 6.51376 56.672C6.53544 56.5591 6.57914 56.4516 6.64237 56.3557C6.70559 56.2597 6.7871 56.1771 6.88224 56.1126C6.97739 56.0481 7.0843 56.003 7.19688 55.9798L13.3353 54.731ZM10.9011 58.4282C10.914 58.6006 10.9631 58.7684 11.0453 58.9206C11.1276 59.0727 11.241 59.2057 11.3782 59.311C11.5155 59.4162 11.6734 59.4913 11.8416 59.5313C12.0099 59.5713 12.1847 59.5752 12.3546 59.543C13.1166 59.3877 13.42 58.7668 13.2436 57.9131L12.9684 56.5937L10.5907 57.0805L10.9011 58.4282Z" fill="white"/>
<path d="M15.6143 63.6633C15.7165 63.6112 15.8281 63.58 15.9425 63.5713C16.0569 63.5627 16.1719 63.5768 16.2809 63.6129C16.3898 63.649 16.4905 63.7063 16.5771 63.7816C16.6637 63.8568 16.7346 63.9485 16.7855 64.0513L18.0203 66.5138C18.2331 66.8764 18.3714 67.2779 18.4271 67.6946C18.4829 68.1114 18.4549 68.5351 18.3448 68.9409C18.23 69.2521 18.0541 69.5373 17.8275 69.7796C17.6009 70.0219 17.3282 70.2166 17.0254 70.352C16.5729 70.6272 16.0425 70.7459 15.5159 70.6898C14.9893 70.6337 14.4958 70.4059 14.1114 70.0416L13.3353 71.7843C13.2532 72.0211 13.0842 72.2178 12.8626 72.3347C12.7669 72.3826 12.6626 72.4109 12.5558 72.418C12.449 72.4251 12.3419 72.4108 12.2407 72.376C12.1395 72.3412 12.0463 72.2865 11.9665 72.2152C11.8867 72.1439 11.8219 72.0574 11.776 71.9607C11.6957 71.811 11.6537 71.6438 11.6537 71.4739C11.6537 71.304 11.6957 71.1368 11.776 70.9871L12.9472 68.4964L12.3193 67.2475L10.767 68.0237C10.5629 68.1078 10.3346 68.1116 10.1278 68.0344C9.92097 67.9572 9.75099 67.8047 9.65191 67.6074C9.55284 67.4102 9.53199 67.1827 9.59355 66.9707C9.65511 66.7588 9.79453 66.5779 9.98385 66.4644L15.6143 63.6633ZM14.5206 68.1436C14.5694 68.3023 14.6518 68.4486 14.7622 68.5727C14.8725 68.6967 15.0083 68.7956 15.1602 68.8625C15.3121 68.9294 15.4767 68.9629 15.6427 68.9606C15.8087 68.9583 15.9723 68.9203 16.1223 68.8492C16.7926 68.5176 16.9055 67.8755 16.5245 67.1205L15.7413 65.5683L13.7022 66.5843L14.5206 68.1436Z" fill="white"/>
<path d="M15.7978 76.307L20.4475 72.2147C20.5332 72.1379 20.6334 72.0789 20.7422 72.0411C20.851 72.0034 20.9662 71.9877 21.0811 71.9949C21.196 72.0021 21.3083 72.0321 21.4115 72.0832C21.5147 72.1343 21.6067 72.2053 21.6822 72.2923L24.5891 75.5944C24.7253 75.7512 24.7943 75.9554 24.7811 76.1627C24.7679 76.37 24.6736 76.5638 24.5186 76.7021C24.3632 76.8366 24.1607 76.904 23.9557 76.8895C23.7507 76.8749 23.5598 76.7796 23.4249 76.6245L21.0825 73.9645L19.8759 75.0299L21.8727 77.3018C22.0072 77.4595 22.075 77.6632 22.0618 77.87C22.0487 78.0768 21.9555 78.2703 21.8021 78.4096C21.6456 78.5445 21.442 78.6121 21.2358 78.5975C21.0296 78.583 20.8376 78.4875 20.7015 78.332L18.7047 76.0601L17.4488 77.1607L19.8266 79.856C19.9628 80.0129 20.0317 80.217 20.0185 80.4243C20.0053 80.6317 19.911 80.8254 19.756 80.9637C19.6006 81.0983 19.3982 81.1656 19.1931 81.1511C18.9881 81.1365 18.7972 81.0412 18.6624 80.8861L15.7131 77.5417C15.6376 77.4551 15.5798 77.3545 15.5432 77.2455C15.5066 77.1366 15.4917 77.0215 15.4996 76.9068C15.5075 76.7922 15.5379 76.6802 15.589 76.5773C15.6402 76.4743 15.7111 76.3825 15.7978 76.307Z" fill="white"/>
<path d="M23.2273 83.8778C23.191 83.7598 23.1817 83.6351 23.2001 83.513C23.2184 83.3909 23.2638 83.2745 23.3331 83.1723C23.3938 83.0845 23.4712 83.0097 23.561 82.9522C23.6508 82.8947 23.7512 82.8556 23.8562 82.8372C23.9613 82.8188 24.0689 82.8215 24.1729 82.8451C24.2769 82.8687 24.3752 82.9128 24.462 82.9747C24.6117 83.0738 24.7236 83.2204 24.7795 83.391C25.0012 84.0931 25.4474 84.703 26.0496 85.1267C26.6352 85.5359 27.1502 85.543 27.4184 85.1267C27.6724 84.7598 27.5806 84.4211 26.7128 83.3839C25.6262 82.1421 25.0335 81.1896 25.9226 79.8561C26.741 78.6707 28.2368 78.5437 29.5703 79.461C30.3092 79.9569 30.8897 80.655 31.2425 81.4718C31.2999 81.5976 31.3229 81.7363 31.3092 81.8739C31.2956 82.0114 31.2458 82.1429 31.1649 82.255C31.1048 82.3433 31.0278 82.4188 30.9382 82.477C30.8487 82.5352 30.7485 82.575 30.6434 82.594C30.5383 82.613 30.4305 82.611 30.3262 82.5879C30.2219 82.5648 30.1233 82.5212 30.036 82.4596C29.9099 82.37 29.81 82.2481 29.7467 82.1069C29.5261 81.5466 29.155 81.0583 28.6743 80.6957C28.1239 80.3147 27.6583 80.3712 27.4395 80.6957C27.1432 81.1261 27.3266 81.4648 28.2509 82.5302C29.3446 83.7861 29.7608 84.781 28.9565 85.9169C28.0604 87.2152 26.5646 87.2575 25.1605 86.2909C24.2823 85.7055 23.607 84.8626 23.2273 83.8778Z" fill="white"/>
<path d="M32.315 89.3669L34.4811 83.5672C34.5196 83.4587 34.5794 83.3591 34.6571 83.2741C34.7347 83.1892 34.8286 83.1207 34.9332 83.0726C35.0378 83.0246 35.151 82.9981 35.266 82.9945C35.381 82.991 35.4956 83.0106 35.6029 83.0521L39.7235 84.5903C39.8199 84.6263 39.9082 84.6811 39.9834 84.7513C40.0587 84.8216 40.1193 84.906 40.1619 84.9997C40.2045 85.0934 40.2282 85.1946 40.2317 85.2974C40.2351 85.4003 40.2183 85.5029 40.1821 85.5992C40.1461 85.6947 40.0916 85.782 40.0216 85.8562C39.9515 85.9304 39.8674 85.9899 39.7742 86.0313C39.681 86.0726 39.5804 86.095 39.4784 86.0972C39.3765 86.0993 39.2751 86.0811 39.1802 86.0437L35.864 84.809L35.2784 86.3189L38.1007 87.3772C38.1971 87.4133 38.2854 87.4681 38.3606 87.5383C38.4359 87.6086 38.4965 87.6929 38.5391 87.7867C38.5817 87.8804 38.6054 87.9815 38.6089 88.0844C38.6123 88.1873 38.5955 88.2898 38.5593 88.3862C38.5233 88.4817 38.4688 88.569 38.3987 88.6432C38.3287 88.7174 38.2446 88.7769 38.1514 88.8183C38.0582 88.8596 37.9576 88.882 37.8556 88.8842C37.7537 88.8863 37.6523 88.8681 37.5574 88.8307L34.7351 87.7724L34.1495 89.3387L37.5221 90.5946C37.6185 90.6307 37.7068 90.6854 37.7821 90.7557C37.8573 90.8259 37.918 90.9103 37.9606 91.004C38.0031 91.0977 38.0269 91.1989 38.0303 91.3018C38.0338 91.4047 38.0169 91.5072 37.9807 91.6036C37.9066 91.7952 37.7595 91.9496 37.5716 92.0329C37.3838 92.1163 37.1706 92.1217 36.9788 92.0481L32.8018 90.4888C32.6959 90.4475 32.5992 90.3857 32.5172 90.3068C32.4353 90.228 32.3698 90.1337 32.3246 90.0294C32.2793 89.925 32.2551 89.8128 32.2535 89.6991C32.2519 89.5854 32.2728 89.4725 32.315 89.3669Z" fill="white"/>
<path d="M43.2443 86.3757C43.2532 86.261 43.2848 86.1491 43.3373 86.0467C43.3898 85.9443 43.4621 85.8533 43.5501 85.7791C43.6381 85.7049 43.74 85.649 43.8498 85.6145C43.9596 85.5801 44.0752 85.5678 44.1898 85.5784H44.3662C44.5477 85.5975 44.7216 85.6618 44.8719 85.7653C45.0223 85.8688 45.1443 86.0083 45.227 86.1711L48.1974 90.8702L48.5502 86.792C48.5599 86.679 48.5918 86.5689 48.644 86.4682C48.6963 86.3675 48.7679 86.2781 48.8547 86.205C48.9415 86.132 49.0418 86.0767 49.15 86.0425C49.2582 86.0082 49.372 85.9956 49.4851 86.0053C49.5981 86.015 49.7081 86.0469 49.8088 86.0992C49.9095 86.1514 49.999 86.223 50.072 86.3098C50.1451 86.3966 50.2003 86.497 50.2346 86.6051C50.2689 86.7133 50.2815 86.8271 50.2718 86.9402L49.7144 93.2338C49.7046 93.3479 49.6724 93.459 49.6195 93.5606C49.5666 93.6623 49.4941 93.7524 49.4062 93.8259C49.3183 93.8993 49.2168 93.9546 49.1074 93.9887C48.998 94.0227 48.883 94.0347 48.7689 94.024H48.6842C48.5039 94.0071 48.3308 93.9444 48.1815 93.8419C48.0321 93.7394 47.9113 93.6006 47.8305 93.4384L44.7472 88.57L44.3803 92.8034C44.3606 93.0317 44.2511 93.2429 44.0758 93.3904C43.9005 93.5379 43.6737 93.6098 43.4454 93.5901C43.2171 93.5705 43.006 93.4609 42.8584 93.2856C42.7109 93.1103 42.6391 92.8835 42.6587 92.6553L43.2443 86.3757Z" fill="white"/>
<path d="M55.7397 87.173L54.0887 87.4693C53.9844 87.4878 53.8776 87.4857 53.7742 87.4629C53.6708 87.4401 53.5729 87.3972 53.4861 87.3366C53.3993 87.276 53.3252 87.1989 53.2682 87.1097C53.2112 87.0205 53.1723 86.9209 53.1538 86.8167C53.1353 86.7124 53.1375 86.6056 53.1602 86.5022C53.183 86.3988 53.2259 86.3009 53.2865 86.2141C53.3471 86.1273 53.4242 86.0532 53.5134 85.9962C53.6026 85.9392 53.7022 85.9003 53.8065 85.8818L58.8301 84.9928C58.9369 84.9667 59.0478 84.9627 59.1562 84.9811C59.2646 84.9996 59.368 85.04 59.4601 85.1C59.5522 85.1599 59.6311 85.2381 59.6918 85.3298C59.7525 85.4214 59.7938 85.5245 59.8131 85.6327C59.8324 85.7409 59.8294 85.8519 59.8041 85.9589C59.7789 86.0658 59.732 86.1665 59.6663 86.2546C59.6006 86.3428 59.5176 86.4165 59.4223 86.4713C59.327 86.5261 59.2215 86.5608 59.1123 86.5732L57.4613 86.8696L58.4209 92.3024C58.4413 92.415 58.4393 92.5305 58.415 92.6423C58.3908 92.7541 58.3447 92.8601 58.2795 92.9541C58.2144 93.0481 58.1313 93.1284 58.0351 93.1903C57.9389 93.2522 57.8314 93.2945 57.7188 93.3149C57.6063 93.3353 57.4908 93.3333 57.379 93.3091C57.2671 93.2848 57.1612 93.2388 57.0672 93.1736C56.9732 93.1084 56.8929 93.0253 56.831 92.9291C56.7691 92.8329 56.7267 92.7255 56.7063 92.6129L55.7397 87.173Z" fill="white"/>
<path d="M65.1521 90.4112L62.598 84.7667C62.5486 84.6627 62.5205 84.5499 62.5155 84.4349C62.5104 84.3199 62.5285 84.2051 62.5687 84.0972C62.6088 83.9893 62.6701 83.8905 62.7491 83.8068C62.8281 83.723 62.923 83.656 63.0283 83.6095L67.0289 81.8033C67.1224 81.755 67.2246 81.7263 67.3295 81.7188C67.4344 81.7113 67.5397 81.7251 67.6391 81.7596C67.7385 81.794 67.8298 81.8483 67.9076 81.9191C67.9853 81.9899 68.0479 82.0758 68.0914 82.1715C68.135 82.2672 68.1586 82.3708 68.1609 82.4759C68.1632 82.5811 68.1441 82.6856 68.1048 82.7831C68.0655 82.8806 68.0068 82.9692 67.9322 83.0433C67.8576 83.1175 67.7687 83.1757 67.671 83.2144L64.4606 84.6679L65.1239 86.1355L67.8826 84.8866C67.9765 84.8351 68.08 84.8036 68.1867 84.7941C68.2933 84.7845 68.4008 84.7972 68.5023 84.8312C68.6039 84.8652 68.6972 84.9198 68.7766 84.9916C68.856 85.0635 68.9197 85.151 68.9636 85.2486C69.0076 85.3463 69.0308 85.4519 69.032 85.559C69.0331 85.6661 69.012 85.7722 68.9701 85.8707C68.9283 85.9693 68.8664 86.0581 68.7886 86.1316C68.7107 86.2051 68.6185 86.2616 68.5177 86.2978L65.7659 87.5537L66.4715 89.0706L69.7453 87.5819C69.9346 87.4978 70.1493 87.4913 70.3433 87.5639C70.5373 87.6364 70.695 87.7823 70.7825 87.97C70.8659 88.1591 70.8712 88.3734 70.7972 88.5664C70.7231 88.7594 70.5759 88.9152 70.3874 89.0001L66.3233 90.8487C66.2179 90.8981 66.1037 90.926 65.9873 90.9307C65.871 90.9354 65.7549 90.9169 65.6458 90.8761C65.5367 90.8354 65.4368 90.7733 65.3521 90.6934C65.2673 90.6136 65.1993 90.5177 65.1521 90.4112Z" fill="white"/>
<path d="M70.8318 80.6181C70.758 80.5297 70.7022 80.4276 70.6679 80.3176C70.6336 80.2076 70.6213 80.092 70.6318 79.9772C70.6423 79.8625 70.6753 79.751 70.729 79.6491C70.7827 79.5472 70.856 79.4568 70.9447 79.3833L72.6593 77.9722C74.5784 76.3847 76.9985 76.6034 78.4238 78.325C78.7715 78.7419 79.03 79.2257 79.1835 79.7465C79.3369 80.2673 79.3819 80.814 79.3158 81.3529C79.2497 81.8918 79.0738 82.4114 78.799 82.8796C78.5242 83.3479 78.1564 83.7548 77.7182 84.0753L76.0107 85.4865C75.8338 85.6331 75.6059 85.7036 75.3771 85.6824C75.1482 85.6612 74.9371 85.5502 74.7901 85.3736L70.8318 80.6181ZM76.7163 82.8688C76.9722 82.6807 77.1856 82.4409 77.3428 82.1649C77.5 81.889 77.5974 81.583 77.6287 81.267C77.66 80.9509 77.6244 80.6318 77.5244 80.3304C77.4243 80.029 77.262 79.752 77.0479 79.5174C76.8567 79.2619 76.6141 79.0493 76.3358 78.8933C76.0575 78.7372 75.7496 78.6411 75.432 78.6112C75.1143 78.5813 74.7939 78.6182 74.4913 78.7196C74.1888 78.821 73.9108 78.9846 73.6753 79.1999L72.6381 80.0607L75.6932 83.7508L76.7163 82.8688Z" fill="white"/>
<path d="M81.6129 69.223C81.5095 69.1726 81.4171 69.1023 81.3411 69.0159C81.2651 68.9296 81.2071 68.829 81.1703 68.72C81.1335 68.611 81.1188 68.4958 81.1269 68.3811C81.1351 68.2664 81.166 68.1544 81.2178 68.0517L82.4737 65.5328C82.7689 64.832 83.3295 64.2765 84.033 63.9877C84.2692 63.9061 84.5198 63.8747 84.7688 63.8953C85.0178 63.916 85.2598 63.9883 85.4794 64.1076C85.8024 64.2577 86.0749 64.4982 86.264 64.8C86.4531 65.1018 86.5507 65.4519 86.5448 65.808C86.8316 65.4638 87.229 65.2299 87.6691 65.1462C88.1093 65.0626 88.5648 65.1344 88.9578 65.3494C90.2561 65.9985 90.369 67.3744 89.5787 68.9831L88.2805 71.5796C88.2309 71.6836 88.1609 71.7767 88.0747 71.8532C87.9885 71.9298 87.8877 71.9882 87.7785 72.025C87.6693 72.0619 87.5537 72.0764 87.4388 72.0678C87.3238 72.0591 87.2117 72.0275 87.1092 71.9747L81.6129 69.223ZM85.1831 67.3038C85.5217 66.5983 85.5217 66.062 84.9925 65.801C84.5269 65.5611 84.0753 65.801 83.7507 66.4571L82.9817 68.0023L84.4845 68.7502L85.1831 67.3038ZM88.2523 68.3128C88.598 67.6072 88.5557 67.0851 88.0335 66.824C87.5537 66.5841 87.081 66.824 86.6859 67.6002L85.7828 69.4064L87.3491 70.1825L88.2523 68.3128Z" fill="white"/>
<path d="M89.8116 59.2678L85.8746 61.06C85.6738 61.1601 85.4452 61.1899 85.2254 61.1446C85.1151 61.1214 85.0106 61.0762 84.9182 61.0117C84.8257 60.9473 84.7472 60.8648 84.6873 60.7694C84.6274 60.6739 84.5873 60.5673 84.5694 60.456C84.5516 60.3447 84.5563 60.231 84.5834 60.1216C84.6271 59.9516 84.7156 59.7965 84.8397 59.6724C84.9638 59.5482 85.119 59.4597 85.2889 59.416L88.4005 58.0966L86.0792 55.5989C85.949 55.4862 85.8497 55.3422 85.7904 55.1805C85.7312 55.0188 85.714 54.8447 85.7405 54.6746C85.7586 54.5625 85.7998 54.4554 85.8615 54.36C85.9232 54.2647 86.0041 54.1832 86.099 54.1209C86.1939 54.0585 86.3007 54.0165 86.4127 53.9977C86.5247 53.9788 86.6394 53.9835 86.7495 54.0114C86.9661 54.0666 87.1592 54.1903 87.2998 54.3642L90.1644 57.5815L92.4081 58.0472C92.6354 58.0949 92.8345 58.231 92.9616 58.4255C93.0886 58.62 93.1331 58.857 93.0854 59.0844C93.0377 59.3118 92.9016 59.5108 92.7071 59.6379C92.5126 59.7649 92.2756 59.8095 92.0483 59.7617L89.8116 59.2678Z" fill="white"/>
<path d="M89.6916 45.1562C89.26 45.2051 88.8262 45.0864 88.4797 44.8245C88.1332 44.5626 87.9006 44.1776 87.8299 43.7491C87.7593 43.3206 87.856 42.8813 88.1 42.522C88.3441 42.1628 88.7168 41.911 89.1412 41.8188C89.5713 41.7737 90.0024 41.8948 90.3461 42.1574C90.6897 42.4199 90.9199 42.804 90.9894 43.2309C91.0589 43.6577 90.9624 44.095 90.7198 44.453C90.4771 44.811 90.1067 45.0626 89.6845 45.1562H89.6916Z" fill="white"/>
<path d="M46.9625 55.7752L36.1179 64.1361C34.8126 65.0463 33.8036 65.6531 32.5054 65.6531C29.9019 65.6531 27.7217 63.233 27.7217 60.4954C27.7217 58.2094 29.4573 56.5442 31.0519 55.7893L43.7521 50.0177L31.0449 44.0698C30.0906 43.6967 29.2666 43.0521 28.6747 42.2157C28.0828 41.3793 27.749 40.3877 27.7146 39.3637C27.7289 38.0523 28.2518 36.7977 29.1732 35.8644C30.0947 34.9312 31.3425 34.3922 32.6536 34.3612C33.9589 34.3612 34.8267 34.8128 36.132 35.8782L46.9625 44.2392L45.5513 30.7064C45.1209 27.5243 47.1459 24.9419 50.0317 24.9419C52.9175 24.9419 54.9707 27.369 54.5191 30.5864L53.108 44.2603L63.882 35.8782C65.1873 34.8198 66.1962 34.3612 67.4945 34.3612C68.7883 34.4054 70.0131 34.9559 70.9052 35.8941C71.7972 36.8324 72.2852 38.0833 72.2641 39.3778C72.2503 40.4071 71.9246 41.4079 71.33 42.2482C70.7354 43.0884 69.8999 43.7285 68.9338 44.0839L56.2336 50.0036L68.9762 55.7752C69.9496 56.1656 70.7855 56.8358 71.3782 57.701C71.9709 58.5663 72.294 59.5878 72.3064 60.6365C72.294 61.9498 71.7721 63.207 70.8507 64.1429C69.9293 65.0788 68.6804 65.6202 67.3675 65.6531C66.2103 65.6531 65.1943 65.0463 63.889 64.1361L53.0374 55.7752L54.4485 69.2938C54.8789 72.4759 52.861 75.0583 49.9611 75.0583C47.0612 75.0583 45.0222 72.6312 45.4808 69.4138L46.9625 55.7752Z" fill="#F79A44"/>
<g opacity="0.5">
<path opacity="0.5" d="M49.996 99.9998C40.1062 99.9998 30.4385 97.0671 22.2155 91.5726C13.9925 86.0782 7.58339 78.2687 3.79875 69.1318C0.0140971 59.9948 -0.976139 49.9408 0.953258 40.241C2.88265 30.5413 7.64503 21.6315 14.6381 14.6384C21.6313 7.64528 30.541 2.8829 40.2408 0.953502C49.9405 -0.975895 59.9945 0.0143412 69.1315 3.79899C78.2684 7.58364 86.0779 13.9927 91.5724 22.2158C97.0668 30.4388 99.9995 40.1065 99.9995 49.9962C99.9846 63.2534 94.7116 75.9633 85.3373 85.3376C75.9631 94.7118 63.2532 99.9848 49.996 99.9998ZM49.996 1.09338C40.3225 1.09478 30.8667 3.96466 22.8243 9.34011C14.7819 14.7156 8.51407 22.3551 4.81348 31.2928C1.1129 40.2304 0.145738 50.0647 2.03431 59.5521C3.92287 69.0394 8.58235 77.7536 15.4235 84.5928C22.2647 91.432 30.9802 96.0889 40.4681 97.9748C49.956 99.8606 59.79 98.8906 68.7266 95.1874C77.6631 91.4843 85.3009 85.2143 90.674 77.1703C96.0472 69.1263 98.9143 59.6697 98.9129 49.9962C98.898 37.0285 93.739 24.5964 84.5681 15.4282C75.3973 6.25999 62.9637 1.10459 49.996 1.09338Z" fill="#434C62"/>
</g>
</g>
<defs>
<clipPath id="clip0">
<rect width="100" height="100" fill="white"/>
</clipPath>
</defs>
</svg>
