<svg xmlns="http://www.w3.org/2000/svg" xmlns:xlink="http://www.w3.org/1999/xlink" viewBox="0 0 182.06 159.06"><defs><style>.cls-1{fill:#62645f;}.cls-2{fill:url(#Gradient_bez_nazwy_260);}</style><linearGradient id="Gradient_bez_nazwy_260" x1="64.86" y1="85.27" x2="117.2" y2="-5.4" gradientUnits="userSpaceOnUse"><stop offset="0" stop-color="#99cca0"/><stop offset="1" stop-color="#289aaa"/></linearGradient></defs><title>Zasób 20</title><g id="Warstwa_2" data-name="Warstwa 2"><g id="Warstwa_1-2" data-name="Warstwa 1"><path class="cls-1" d="M2.65,119.83H17.94a2.66,2.66,0,0,1,2.66,2.66v.09a2.65,2.65,0,0,1-2.66,2.65H7.26a.58.58,0,0,0-.57.58v7.4a.58.58,0,0,0,.57.58h7.43a2.65,2.65,0,0,1,2.66,2.65h0a2.66,2.66,0,0,1-2.66,2.65H7.26a.58.58,0,0,0-.57.57v10.88A2.65,2.65,0,0,1,4,153.19H2.65A2.65,2.65,0,0,1,0,150.54v-28A2.66,2.66,0,0,1,2.65,119.83Z"/><path class="cls-1" d="M36.8,122.49v24.65a.74.74,0,0,0,.74.74h7.59a2.66,2.66,0,0,1,2.66,2.66h0a2.66,2.66,0,0,1-2.66,2.65H32.76a2.66,2.66,0,0,1-2.66-2.65v-28a2.66,2.66,0,0,1,2.66-2.66h1.38A2.66,2.66,0,0,1,36.8,122.49Z"/><path class="cls-1" d="M72.3,153.52a17.08,17.08,0,1,1,0-34.16,17.08,17.08,0,0,1,0,34.16Zm0-6c6,0,10.18-4.35,10.18-11.14s-4.16-11-10.18-11-10.23,4.25-10.23,11S66.23,147.55,72.3,147.55Z"/><path class="cls-1" d="M100,119.83h19.16a2.65,2.65,0,0,1,2.65,2.66v.09a2.64,2.64,0,0,1-2.65,2.65h-5.76a.47.47,0,0,0-.47.47v24.84a2.66,2.66,0,0,1-2.66,2.65h-1.38a2.65,2.65,0,0,1-2.65-2.65V125.7a.47.47,0,0,0-.47-.47H100a2.65,2.65,0,0,1-2.65-2.65v-.09A2.66,2.66,0,0,1,100,119.83Z"/><path class="cls-1" d="M134.11,119.83h1.39a2.66,2.66,0,0,1,2.65,2.66v28.05a2.65,2.65,0,0,1-2.65,2.65h-1.39a2.65,2.65,0,0,1-2.65-2.65v-28A2.65,2.65,0,0,1,134.11,119.83Z"/><path class="cls-1" d="M175.51,151l3.25,3.65a2.65,2.65,0,0,1-2,4.41h-1.17a2.64,2.64,0,0,1-2-.95l-4-4.78a.71.71,0,0,0-.7-.23,18.23,18.23,0,0,1-3.88.42A16.65,16.65,0,1,1,175.61,150,.67.67,0,0,0,175.51,151ZM165,147.55c6,0,10.18-4.35,10.18-11.14s-4.16-11-10.18-11-10.22,4.25-10.22,11S158.93,147.55,165,147.55Z"/><path class="cls-2" d="M124.93,0H57.13a6,6,0,0,0-6,6v67.8a6,6,0,0,0,6,6h67.8a6,6,0,0,0,6-6V6A6,6,0,0,0,124.93,0ZM96.59,46.56a6.15,6.15,0,0,1-3.94,1.19h0l-8.14-.07.19,10.74A5.22,5.22,0,0,1,79.08,64h0A5.53,5.53,0,0,1,75,62.49h0a5.53,5.53,0,0,1-1.51-4.08l-.13-25.92c0-4,1.26-7.26,3.73-9.6s5.8-3.5,10-3.5h.07l14.72.06a6.21,6.21,0,0,1,4.05,1.21,4.52,4.52,0,0,1,1.53,3.67,4.31,4.31,0,0,1-1.64,3.47A6.17,6.17,0,0,1,101.88,29h0l-14-.06h0a3,3,0,0,0-2.39.95,4,4,0,0,0-.93,2.82l0,5.35,8.17.07a6.24,6.24,0,0,1,4,1.2A4.51,4.51,0,0,1,98.23,43,4.37,4.37,0,0,1,96.59,46.56Zm9.74,1.25a4.57,4.57,0,1,1,4.57-4.56A4.57,4.57,0,0,1,106.33,47.81Zm9.29-18.45a4.76,4.76,0,1,1,4.76-4.76A4.77,4.77,0,0,1,115.62,29.36Z"/></g></g></svg>