<svg width="400" height="3" viewBox="0 0 400 3" fill="none" xmlns="http://www.w3.org/2000/svg">
<path d="M400 1.64039C391.667 1.91418 383.334 2.09671 375.001 2.24385C366.668 2.40402 358.335 2.50646 350.002 2.58841C341.668 2.6685 333.335 2.72251 325.002 2.743C316.669 2.77653 308.336 2.75604 300.003 2.66477C283.337 2.48411 266.671 2.03524 250.001 1.94956C233.334 1.85271 216.668 2.00544 200.002 2.26433L187.502 2.45244L181.251 2.54557L174.999 2.62007C166.666 2.71692 158.333 2.76721 149.999 2.81936L137.5 2.89758L125 2.95904C116.667 3.00747 108.334 3.00561 100.001 2.99071C91.668 2.96649 83.3349 2.92738 75.0018 2.85288L62.5022 2.74485L50.0026 2.59957C45.8361 2.55487 41.6695 2.48782 37.503 2.4245L31.2511 2.32765L24.9992 2.21403C16.6662 2.0613 8.3331 1.8825 -7.16224e-08 1.63851L-5.94104e-08 1.35913C8.32892 1.11701 16.662 0.938203 24.9951 0.785477L31.2469 0.671863L37.4988 0.575013C41.6654 0.51355 45.8319 0.444637 49.9984 0.399936L62.498 0.25466L74.9977 0.146634C83.3307 0.0721338 91.6638 0.0330212 99.9969 0.00880876C108.33 -0.00609105 116.663 -0.00609069 124.996 0.0404727L137.496 0.101936L149.995 0.180163C158.328 0.232314 166.661 0.282602 174.995 0.379454L181.246 0.453955L187.498 0.547081L199.998 0.735197C216.664 0.994088 233.33 1.14682 249.996 1.04996C266.663 0.966152 283.329 0.517285 299.999 0.334759C308.332 0.243496 316.665 0.223008 324.998 0.256534C333.331 0.278885 341.664 0.331036 349.997 0.411124C358.33 0.493076 366.664 0.595515 374.997 0.755692C383.334 0.902832 391.667 1.08722 400 1.36101L400 1.64039Z" fill="white" fill-opacity="0.1"/>
</svg>
