<svg width="399" height="10" viewBox="0 0 399 10" fill="none" xmlns="http://www.w3.org/2000/svg">
<path d="M400 5.46795C391.667 6.38058 383.334 6.989 375.001 7.47946C366.668 8.01338 358.335 8.35484 350.002 8.62801C341.668 8.89497 333.335 9.07501 325.002 9.14331C316.669 9.25506 308.336 9.18676 300.003 8.88255C283.337 8.28034 266.671 6.78412 250.001 6.49853C233.334 6.1757 216.668 6.68478 200.002 7.54775L187.502 8.17479L181.251 8.48521L174.999 8.73355C166.666 9.05638 158.333 9.22401 149.999 9.39784L137.5 9.65859L125 9.86347C116.667 10.0249 108.334 10.0187 100.001 9.96901C91.668 9.8883 83.3349 9.75792 75.0018 9.50959L62.5022 9.1495L50.0026 8.66525C45.8361 8.51625 41.6695 8.29275 37.503 8.08166L31.2511 7.75882L24.9992 7.38011C16.6662 6.87102 8.3331 6.27502 -2.3874e-07 5.46172L-1.98034e-07 4.53046C8.32892 3.72338 16.662 3.12737 24.9951 2.61828L31.2469 2.23957L37.4988 1.91674C41.6654 1.71186 45.8319 1.48215 49.9984 1.33315L62.498 0.848898L74.9977 0.488812C83.3307 0.240477 91.6638 0.110102 99.9969 0.029393C108.33 -0.0202737 116.663 -0.0202733 124.996 0.134937L137.496 0.339814L149.995 0.600566C158.328 0.774401 166.661 0.942028 174.995 1.26486L181.246 1.5132L187.498 1.82362L199.998 2.45067C216.664 3.31363 233.33 3.82272 249.996 3.49988C266.663 3.22051 283.329 1.72429 299.999 1.11587C308.332 0.811658 316.665 0.743366 324.998 0.855117C333.331 0.929618 341.664 1.10345 349.997 1.37041C358.33 1.64358 366.664 1.98504 374.997 2.51897C383.334 3.00943 391.667 3.62406 400 4.53669L400 5.46795Z" fill="#150934"/>
</svg>
