<?xml version="1.0" encoding="UTF-8"?>
<svg width="286px" height="39px" viewBox="0 0 286 39" version="1.1" xmlns="http://www.w3.org/2000/svg" xmlns:xlink="http://www.w3.org/1999/xlink">
    <title>Artboard</title>
    <g id="Artboard" stroke="none" stroke-width="1" fill="none" fill-rule="evenodd">
        <g id="LexasCMS" fill-rule="nonzero">
            <path d="M26.432,38.114 C27.14,38.114 27.6906667,37.9173333 28.084,37.524 C28.4773333,37.1306667 28.674,36.6783333 28.674,36.167 C28.674,35.6163333 28.4773333,35.1541667 28.084,34.7805 C27.6906667,34.4068333 27.14,34.22 26.432,34.22 L26.432,34.22 L4.366,34.22 L4.366,2.655 C4.366,1.98633333 4.14966667,1.475 3.717,1.121 C3.28433333,0.767 2.773,0.59 2.183,0.59 C1.593,0.59 1.08166667,0.767 0.649,1.121 C0.216333333,1.475 5.68434189e-14,1.98633333 5.68434189e-14,2.655 L5.68434189e-14,2.655 L5.68434189e-14,35.931 C5.68434189e-14,37.3863333 0.747333333,38.114 2.242,38.114 L2.242,38.114 L26.432,38.114 Z M45.961,38.704 C47.967,38.7433333 49.8943333,38.468 51.743,37.878 C53.5916667,37.288 55.165,36.3833333 56.463,35.164 C57.0136667,34.6133333 57.289,34.043 57.289,33.453 C57.289,32.9416667 57.0923333,32.509 56.699,32.155 C56.3056667,31.801 55.8336667,31.624 55.283,31.624 C54.6536667,31.624 54.103,31.8403333 53.631,32.273 C51.4676667,33.925 48.852,34.751 45.784,34.751 C43.896,34.751 42.1751667,34.338 40.6215,33.512 C39.0678333,32.686 37.8091667,31.5945 36.8455,30.2375 C35.8818333,28.8805 35.2623333,27.376 34.987,25.724 L34.987,25.724 L58.292,25.724 C60.2193333,25.724 61.183,24.8193333 61.183,23.01 C61.1436667,19.588 60.4061667,16.7265 58.9705,14.4255 C57.5348333,12.1245 55.6468333,10.4233333 53.3065,9.322 C50.9661667,8.22066667 48.4193333,7.67 45.666,7.67 C43.07,7.67 40.6215,8.27966667 38.3205,9.499 C36.0195,10.7183333 34.161,12.4883333 32.745,14.809 C31.329,17.1296667 30.621,19.883 30.621,23.069 C30.621,26.019 31.2503333,28.6838333 32.509,31.0635 C33.7676667,33.4431667 35.5671667,35.3115 37.9075,36.6685 C40.2478333,38.0255 42.9323333,38.704 45.961,38.704 Z M57.053,22.125 L34.81,22.125 C35.046,18.7423333 36.226,16.1561667 38.35,14.3665 C40.474,12.5768333 43.011,11.682 45.961,11.682 C47.6916667,11.682 49.3731667,12.0753333 51.0055,12.862 C52.6378333,13.6486667 54.0046667,14.8286667 55.106,16.402 C56.2073333,17.9753333 56.8563333,19.883 57.053,22.125 L57.053,22.125 Z M91.214,38.114 C91.7646667,38.114 92.2563333,37.9075 92.689,37.4945 C93.1216667,37.0815 93.338,36.5996667 93.338,36.049 C93.338,35.5376667 93.161,35.105 92.807,34.751 L92.807,34.751 L82.069,22.951 L92.453,11.387 C92.7283333,11.0723333 92.866,10.7183333 92.866,10.325 C92.866,9.77433333 92.63,9.2925 92.158,8.8795 C91.686,8.4665 91.155,8.26 90.565,8.26 C89.8963333,8.26 89.3653333,8.53533333 88.972,9.086 L88.972,9.086 L79.178,20.296 L70.033,9.027 C69.561,8.51566667 69.0103333,8.26 68.381,8.26 C67.791,8.26 67.2796667,8.44683333 66.847,8.8205 C66.4143333,9.19416667 66.198,9.63666667 66.198,10.148 C66.198,10.62 66.375,11.092 66.729,11.564 L66.729,11.564 L76.287,22.951 L66.434,34.515 C65.962,35.0263333 65.726,35.5573333 65.726,36.108 C65.726,36.6193333 65.9423333,37.0815 66.375,37.4945 C66.8076667,37.9075 67.2993333,38.114 67.85,38.114 C68.4793333,38.114 69.0496667,37.8386667 69.561,37.288 L69.561,37.288 L79.237,25.488 L89.562,37.347 C90.034,37.8583333 90.5846667,38.114 91.214,38.114 Z M112.69,38.704 C114.578,38.704 116.4365,38.232 118.2655,37.288 C120.0945,36.344 121.422,35.0656667 122.248,33.453 L122.248,33.453 L122.248,35.99 C122.248,36.6586667 122.434833,37.1798333 122.8085,37.5535 C123.182167,37.9271667 123.703333,38.114 124.372,38.114 C125.040667,38.114 125.571667,37.9173333 125.965,37.524 C126.358333,37.1306667 126.555,36.6193333 126.555,35.99 L126.555,35.99 L126.555,10.384 C126.555,9.75466667 126.3485,9.24333333 125.9355,8.85 C125.5225,8.45666667 125.001333,8.26 124.372,8.26 C123.703333,8.26 123.182167,8.45666667 122.8085,8.85 C122.434833,9.24333333 122.248,9.75466667 122.248,10.384 L122.248,10.384 L122.248,12.331 C121.264667,10.7183333 119.937167,9.53833333 118.2655,8.791 C116.593833,8.04366667 114.814,7.67 112.926,7.67 C110.094,7.67 107.507833,8.26 105.1675,9.44 C102.827167,10.62 100.9785,12.3605 99.6215,14.6615 C98.2645,16.9625 97.586,19.7453333 97.586,23.01 C97.586,26.196 98.2448333,28.9788333 99.5625,31.3585 C100.880167,33.7381667 102.679667,35.5573333 104.961,36.816 C107.242333,38.0746667 109.818667,38.704 112.69,38.704 Z M112.749,34.633 C111.293667,34.633 109.720333,34.2298333 108.029,33.4235 C106.337667,32.6171667 104.892167,31.3486667 103.6925,29.618 C102.492833,27.8873333 101.893,25.6846667 101.893,23.01 C101.893,20.9646667 102.325667,19.0766667 103.191,17.346 C104.056333,15.6153333 105.315,14.2386667 106.967,13.216 C108.619,12.1933333 110.585667,11.7016667 112.867,11.741 C115.659667,11.859 117.921333,12.7046667 119.652,14.278 C121.382667,15.8513333 122.248,18.054 122.248,20.886 L122.248,20.886 L122.248,25.547 C122.248,28.3003333 121.343333,30.4833333 119.534,32.096 C117.724667,33.7086667 115.463,34.5543333 112.749,34.633 Z M147.087,38.704 C149.014333,38.704 151.000667,38.409 153.046,37.819 C155.091333,37.229 156.841667,36.2358333 158.297,34.8395 C159.752333,33.4431667 160.48,31.6043333 160.48,29.323 C160.48,27.0416667 159.8605,25.311 158.6215,24.131 C157.3825,22.951 155.887833,22.1643333 154.1375,21.771 C152.387167,21.3776667 150.037,21.0433333 147.087,20.768 C146.811667,20.7286667 146.418333,20.709 145.907,20.709 C144.097667,20.591 142.671833,20.4336667 141.6295,20.237 C140.587167,20.0403333 139.721833,19.6666667 139.0335,19.116 C138.345167,18.5653333 138.001,17.759 138.001,16.697 C138.001,15.045 138.9155,13.7765 140.7445,12.8915 C142.5735,12.0065 144.510667,11.564 146.556,11.564 C151.551333,11.564 154.521,12.7833333 155.465,15.222 C155.779667,16.048 156.389333,16.461 157.294,16.461 C157.884,16.461 158.415,16.2643333 158.887,15.871 C159.359,15.4776667 159.595,14.986 159.595,14.396 C159.595,14.2386667 159.555667,14.0026667 159.477,13.688 C158.572333,11.328 156.94,9.735 154.58,8.909 C152.22,8.083 149.545333,7.67 146.556,7.67 C144.510667,7.67 142.504667,7.9945 140.538,8.6435 C138.571333,9.2925 136.939,10.2955 135.641,11.6525 C134.343,13.0095 133.694,14.6713333 133.694,16.638 C133.694,18.88 134.303667,20.5811667 135.523,21.7415 C136.742333,22.9018333 138.217333,23.6688333 139.948,24.0425 C141.678667,24.4161667 143.999333,24.7406667 146.91,25.016 C149.152,25.1733333 150.843333,25.3503333 151.984,25.547 C153.124667,25.7436667 154.108,26.1271667 154.934,26.6975 C155.76,27.2678333 156.173,28.143 156.173,29.323 C156.173,30.5816667 155.651833,31.624 154.6095,32.45 C153.567167,33.276 152.338,33.8856667 150.922,34.279 C149.506,34.6723333 148.227667,34.869 147.087,34.869 C144.805667,34.869 142.721,34.4855 140.833,33.7185 C138.945,32.9515 137.863333,31.9386667 137.588,30.68 C137.47,30.09 137.234,29.6573333 136.88,29.382 C136.526,29.1066667 136.113,28.969 135.641,28.969 C135.051,28.969 134.529833,29.1558333 134.0775,29.5295 C133.625167,29.9031667 133.399,30.3653333 133.399,30.916 C133.399,31.152 133.418667,31.329 133.458,31.447 C133.969333,34.0823333 135.582,35.9506667 138.296,37.052 C141.01,38.1533333 143.940333,38.704 147.087,38.704 Z" id="Lexas" fill="#55BAA0"></path>
            <path d="M184.847,38.704 C187.718333,38.704 190.550333,38.0451667 193.343,36.7275 C196.135667,35.4098333 198.318667,33.63 199.892,31.388 C200.128,31.034 200.246,30.6603333 200.246,30.267 C200.246,29.7163333 200.01,29.2443333 199.538,28.851 C199.066,28.4576667 198.554667,28.261 198.004,28.261 C197.374667,28.261 196.883,28.5166667 196.529,29.028 C195.152333,30.798 193.451167,32.1746667 191.4255,33.158 C189.399833,34.1413333 187.246333,34.633 184.965,34.633 C182.290333,34.633 179.812333,33.9348333 177.531,32.5385 C175.249667,31.1421667 173.4305,29.2443333 172.0735,26.845 C170.7165,24.4456667 170.038,21.7906667 170.038,18.88 C170.038,15.2613333 170.824667,12.3408333 172.398,10.1185 C173.971333,7.89616667 175.918333,6.32283333 178.239,5.3985 C180.559667,4.47416667 182.919667,4.012 185.319,4.012 C187.403667,4.012 189.331,4.35616667 191.101,5.0445 C192.871,5.73283333 194.523,6.88333333 196.057,8.496 C196.489667,8.92866667 196.942,9.145 197.414,9.145 C197.964667,9.145 198.466167,8.9385 198.9185,8.5255 C199.370833,8.1125 199.597,7.65033333 199.597,7.139 C199.597,6.667 199.42,6.23433333 199.066,5.841 C195.408,1.947 190.786333,3.55271368e-15 185.201,3.55271368e-15 C182.290333,3.55271368e-15 179.350167,0.668666667 176.3805,2.006 C173.410833,3.34333333 170.913167,5.428 168.8875,8.26 C166.861833,11.092 165.849,14.6123333 165.849,18.821 C165.849,22.5576667 166.724167,25.9501667 168.4745,28.9985 C170.224833,32.0468333 172.555333,34.4265 175.466,36.1375 C178.376667,37.8485 181.503667,38.704 184.847,38.704 Z M241.959,38.114 C242.549,38.114 243.0505,37.9271667 243.4635,37.5535 C243.8765,37.1798333 244.083,36.6586667 244.083,35.99 L244.083,35.99 L244.083,2.891 C244.083,2.183 243.886333,1.6225 243.493,1.2095 C243.099667,0.7965 242.627667,0.59 242.077,0.59 C241.211667,0.59 240.523333,1.003 240.012,1.829 L240.012,1.829 L225.734,24.249 L211.338,1.888 C211.102,1.45533333 210.807,1.13083333 210.453,0.9145 C210.099,0.698166667 209.745,0.59 209.391,0.59 C208.840333,0.59 208.3585,0.806333333 207.9455,1.239 C207.5325,1.67166667 207.326,2.242 207.326,2.95 L207.326,2.95 L207.326,35.99 C207.326,36.6586667 207.542333,37.1798333 207.975,37.5535 C208.407667,37.9271667 208.919,38.114 209.509,38.114 C210.099,38.114 210.6005,37.9271667 211.0135,37.5535 C211.4265,37.1798333 211.633,36.6586667 211.633,35.99 L211.633,35.99 L211.633,10.148 L223.669,28.851 C224.219667,29.677 224.908,30.09 225.734,30.09 C226.56,30.09 227.228667,29.677 227.74,28.851 L227.74,28.851 L239.776,10.03 L239.776,35.99 C239.776,36.6586667 239.992333,37.1798333 240.425,37.5535 C240.857667,37.9271667 241.369,38.114 241.959,38.114 Z M268.509,38.704 C271.262333,38.704 273.956667,38.35 276.592,37.642 C279.227333,36.934 281.43,35.7146667 283.2,33.984 C284.97,32.2533333 285.855,29.9916667 285.855,27.199 C285.855,24.4456667 285.078167,22.3905 283.5245,21.0335 C281.970833,19.6765 280.141833,18.7915 278.0375,18.3785 C275.933167,17.9655 272.953667,17.582 269.099,17.228 C266.188333,16.992 263.887333,16.7166667 262.196,16.402 C260.504667,16.0873333 259.108333,15.517 258.007,14.691 C256.905667,13.865 256.355,12.6456667 256.355,11.033 C256.355,9.381 257.004,8.06333333 258.302,7.08 C259.6,6.09666667 261.134,5.3985 262.904,4.9855 C264.674,4.5725 266.365333,4.366 267.978,4.366 C270.888667,4.366 273.474833,4.70033333 275.7365,5.369 C277.998167,6.03766667 279.522333,7.35533333 280.309,9.322 C280.623667,10.03 281.233333,10.384 282.138,10.384 C282.728,10.384 283.259,10.2168333 283.731,9.8825 C284.203,9.54816667 284.439,9.10566667 284.439,8.555 C284.439,8.437 284.399667,8.22066667 284.321,7.906 C282.393667,2.63533333 276.926333,3.55271368e-15 267.919,3.55271368e-15 C265.323,3.55271368e-15 262.786,0.393333333 260.308,1.18 C257.83,1.96666667 255.784667,3.186 254.172,4.838 C252.559333,6.49 251.753,8.53533333 251.753,10.974 C251.753,13.688 252.539667,15.753 254.113,17.169 C255.686333,18.585 257.594,19.5388333 259.836,20.0305 C262.078,20.5221667 265.008333,20.9056667 268.627,21.181 C271.577,21.417 273.868167,21.6825 275.5005,21.9775 C277.132833,22.2725 278.5095,22.8231667 279.6305,23.6295 C280.7515,24.4358333 281.312,25.6453333 281.312,27.258 C281.312,29.8933333 280.004167,31.7518333 277.3885,32.8335 C274.772833,33.9151667 271.813,34.456 268.509,34.456 C261.153667,34.456 256.886,32.568 255.706,28.792 C255.627333,28.32 255.401167,27.966 255.0275,27.73 C254.653833,27.494 254.231,27.376 253.759,27.376 C253.090333,27.376 252.510167,27.553 252.0185,27.907 C251.526833,28.261 251.281,28.733 251.281,29.323 C251.281,29.559 251.300667,29.736 251.34,29.854 C252.205333,33.04 254.329333,35.3115 257.712,36.6685 C261.094667,38.0255 264.693667,38.704 268.509,38.704 Z" id="CMS" fill="#000000"></path>
        </g>
    </g>
</svg>