<?xml version="1.0" encoding="utf-8"?>
<!-- Generator: Adobe Illustrator 21.1.0, SVG Export Plug-In . SVG Version: 6.00 Build 0)  -->
<!DOCTYPE svg PUBLIC "-//W3C//DTD SVG 1.1//EN" "http://www.w3.org/Graphics/SVG/1.1/DTD/svg11.dtd">
<svg version="1.1" id="Calque_1" xmlns="http://www.w3.org/2000/svg" xmlns:xlink="http://www.w3.org/1999/xlink" x="0px" y="0px"
	 viewBox="0 0 317.7 73" style="enable-background:new 0 0 317.7 73;" xml:space="preserve">
<style type="text/css">
	.st0{fill:#1A202C;}
</style>
<g id="Page-1">
	<g id="Scaled---All-Outlines-Copy">
		<g id="Mark">
			<g id="Group">
				<polygon id="Line" class="st0" points="8.6,47.4 45.4,7.8 37.1,0.1 0.3,39.6 				"/>
				<polygon id="Line-Copy" class="st0" points="14.8,72.6 51.6,33.1 43.4,25.3 6.5,64.9 				"/>
			</g>
		</g>
		<path id="StaticKit" class="st0" d="M92.9,27.1c-0.9-1.2-2.1-2.1-3.6-2.8c-1.5-0.7-2.9-1-4.3-1c-0.7,0-1.4,0.1-2.2,0.2
			c-0.7,0.1-1.4,0.4-2,0.7c-0.6,0.4-1.1,0.8-1.5,1.4c-0.4,0.6-0.6,1.3-0.6,2.2c0,0.8,0.2,1.4,0.5,1.9c0.3,0.5,0.8,0.9,1.4,1.3
			c0.6,0.4,1.3,0.7,2.2,1c0.8,0.3,1.8,0.6,2.8,1c1.5,0.5,3.1,1.1,4.7,1.7c1.6,0.6,3.1,1.4,4.5,2.4c1.3,1,2.4,2.2,3.3,3.7
			c0.9,1.5,1.3,3.3,1.3,5.5c0,2.5-0.5,4.8-1.4,6.6s-2.2,3.4-3.8,4.6c-1.6,1.2-3.4,2.1-5.5,2.7c-2,0.6-4.2,0.9-6.3,0.9
			c-3.2,0-6.2-0.6-9.2-1.7c-3-1.1-5.4-2.7-7.4-4.7l7-7.1c1.1,1.3,2.5,2.5,4.3,3.4c1.8,0.9,3.5,1.3,5.3,1.3c0.8,0,1.6-0.1,2.3-0.3
			c0.8-0.2,1.4-0.4,2-0.8c0.6-0.4,1-0.9,1.3-1.5c0.3-0.6,0.5-1.4,0.5-2.3c0-0.8-0.2-1.5-0.6-2.1c-0.4-0.6-1-1.1-1.8-1.6
			s-1.7-0.9-2.9-1.3c-1.1-0.4-2.5-0.8-3.9-1.3c-1.4-0.5-2.8-1-4.2-1.6c-1.4-0.6-2.6-1.4-3.6-2.4c-1.1-1-1.9-2.2-2.6-3.6
			c-0.6-1.4-1-3.1-1-5.1c0-2.5,0.5-4.6,1.5-6.3c1-1.8,2.3-3.2,3.9-4.3c1.6-1.1,3.5-2,5.5-2.5s4.1-0.8,6.2-0.8c2.5,0,5.1,0.5,7.7,1.4
			c2.6,0.9,4.9,2.3,6.9,4.1L92.9,27.1z M117.1,36.4v11.9c0,1.5,0.3,2.6,0.8,3.3s1.6,1.1,3,1.1c0.5,0,1,0,1.6-0.1
			c0.6-0.1,1-0.2,1.4-0.4l0.1,7.5c-0.7,0.3-1.6,0.5-2.7,0.7c-1.1,0.2-2.2,0.3-3.3,0.3c-2.1,0-3.8-0.3-5.3-0.8
			c-1.4-0.5-2.6-1.3-3.4-2.3c-0.9-1-1.5-2.2-1.8-3.5c-0.4-1.4-0.6-2.9-0.6-4.5V36.4h-5v-7.7h5v-8.2h10.1v8.2h7.3v7.7H117.1z
			 M147.7,46.3h-1.3c-1.1,0-2.3,0.1-3.4,0.2s-2.2,0.3-3.1,0.6s-1.6,0.7-2.2,1.3c-0.6,0.6-0.9,1.3-0.9,2.2c0,0.6,0.1,1.1,0.4,1.5
			c0.3,0.4,0.6,0.8,1,1c0.4,0.3,0.9,0.4,1.4,0.5c0.5,0.1,1.1,0.2,1.6,0.2c2.1,0,3.7-0.6,4.8-1.7c1.1-1.1,1.7-2.7,1.7-4.7V46.3z
			 M128.8,32.9c1.8-1.8,4-3.1,6.4-3.9c2.4-0.9,4.9-1.3,7.5-1.3c2.6,0,4.9,0.3,6.7,1c1.8,0.6,3.3,1.7,4.4,3c1.1,1.4,2,3.1,2.5,5.1
			s0.8,4.5,0.8,7.4v15.7h-9.4v-3.3h-0.2c-0.8,1.3-2,2.3-3.6,3c-1.6,0.7-3.4,1.1-5.2,1.1c-1.3,0-2.5-0.2-3.9-0.5
			c-1.3-0.3-2.6-0.9-3.7-1.6c-1.1-0.8-2-1.8-2.7-3c-0.7-1.3-1.1-2.8-1.1-4.6c0-2.3,0.6-4.1,1.8-5.5c1.2-1.4,2.8-2.4,4.8-3.2
			c1.9-0.8,4.1-1.3,6.5-1.5s4.7-0.4,7-0.4v-0.5c0-1.5-0.5-2.7-1.6-3.4c-1.1-0.7-2.4-1.1-4-1.1c-1.5,0-2.9,0.3-4.2,0.9
			c-1.4,0.6-2.5,1.4-3.5,2.3L128.8,32.9z M175.6,36.4v11.9c0,1.5,0.3,2.6,0.8,3.3s1.6,1.1,3,1.1c0.5,0,1,0,1.6-0.1s1-0.2,1.4-0.4
			l0.1,7.5c-0.7,0.3-1.6,0.5-2.7,0.7s-2.2,0.3-3.3,0.3c-2.1,0-3.8-0.3-5.3-0.8c-1.4-0.5-2.6-1.3-3.4-2.3c-0.9-1-1.5-2.2-1.8-3.5
			c-0.4-1.4-0.6-2.9-0.6-4.5V36.4h-5v-7.7h5v-8.2h10.1v8.2h7.3v7.7H175.6z M198.9,18.7c0,0.8-0.2,1.5-0.5,2.2
			c-0.3,0.7-0.7,1.3-1.3,1.8c-0.5,0.5-1.1,0.9-1.9,1.2c-0.7,0.3-1.5,0.4-2.3,0.4c-1.7,0-3.1-0.6-4.2-1.7c-1.1-1.1-1.7-2.4-1.7-4
			c0-0.8,0.1-1.5,0.4-2.2s0.7-1.3,1.3-1.8s1.2-0.9,1.9-1.2c0.7-0.3,1.5-0.5,2.3-0.5c0.8,0,1.6,0.1,2.3,0.4c0.7,0.3,1.4,0.7,1.9,1.2
			s0.9,1.1,1.3,1.8C198.7,17.2,198.9,17.9,198.9,18.7z M187.8,59.9V28.7h10.3v31.2H187.8z M226,38.8c-0.6-0.8-1.4-1.4-2.4-1.8
			c-1-0.5-2-0.7-3.1-0.7c-1.1,0-2.1,0.2-2.9,0.7c-0.9,0.4-1.6,1-2.3,1.8c-0.6,0.7-1.1,1.6-1.5,2.5c-0.4,1-0.5,2-0.5,3.1
			c0,1.1,0.2,2.1,0.5,3.1s0.8,1.8,1.5,2.5c0.6,0.7,1.4,1.3,2.3,1.7c0.9,0.4,1.9,0.6,3,0.6c1,0,2.1-0.2,3.1-0.6c1-0.4,1.8-1,2.5-1.7
			l5.7,7c-1.3,1.3-3,2.2-5,2.9c-2,0.7-4.2,1.1-6.5,1.1c-2.5,0-4.8-0.4-6.9-1.1c-2.1-0.8-4-1.8-5.5-3.3c-1.6-1.4-2.8-3.2-3.7-5.2
			c-0.9-2-1.3-4.4-1.3-7c0-2.5,0.4-4.8,1.3-6.9c0.9-2,2.1-3.8,3.7-5.2c1.6-1.4,3.4-2.5,5.5-3.3c2.1-0.8,4.4-1.2,6.8-1.2
			c1.1,0,2.2,0.1,3.4,0.3c1.1,0.2,2.2,0.5,3.2,0.8c1,0.4,2,0.8,2.8,1.3c0.9,0.5,1.6,1.1,2.2,1.7L226,38.8z M263.8,59.9l-16.5-20.4
			h-0.1v20.4h-10.5V15.5h10.5v18.1h0.2l15.9-18.1h13.4L257.5,36l20.2,23.9H263.8z M291.8,18.7c0,0.8-0.2,1.5-0.5,2.2
			c-0.3,0.7-0.7,1.3-1.3,1.8c-0.5,0.5-1.1,0.9-1.9,1.2c-0.7,0.3-1.5,0.4-2.3,0.4c-1.7,0-3.1-0.6-4.2-1.7c-1.1-1.1-1.7-2.4-1.7-4
			c0-0.8,0.1-1.5,0.4-2.2s0.7-1.3,1.3-1.8c0.5-0.5,1.2-0.9,1.9-1.2c0.7-0.3,1.5-0.5,2.3-0.5c0.8,0,1.6,0.1,2.3,0.4
			c0.7,0.3,1.4,0.7,1.9,1.2c0.5,0.5,0.9,1.1,1.3,1.8C291.6,17.2,291.8,17.9,291.8,18.7z M280.7,59.9V28.7H291v31.2H280.7z
			 M310.3,36.4v11.9c0,1.5,0.3,2.6,0.8,3.3c0.6,0.7,1.6,1.1,3,1.1c0.5,0,1,0,1.6-0.1s1-0.2,1.4-0.4l0.1,7.5
			c-0.7,0.3-1.6,0.5-2.7,0.7s-2.2,0.3-3.3,0.3c-2.1,0-3.8-0.3-5.3-0.8c-1.4-0.5-2.6-1.3-3.4-2.3c-0.9-1-1.5-2.2-1.8-3.5
			c-0.4-1.4-0.6-2.9-0.6-4.5V36.4h-5v-7.7h5v-8.2h10.1v8.2h7.3v7.7H310.3z"/>
	</g>
</g>
</svg>
