<?xml version="1.0" encoding="UTF-8"?>
<svg width="125px" height="39px" viewBox="0 0 125 39" version="1.1" xmlns="http://www.w3.org/2000/svg" xmlns:xlink="http://www.w3.org/1999/xlink">
    <!-- Generator: sketchtool 52.2 (67145) - http://www.bohemiancoding.com/sketch -->
    <title>C31D2291-3255-413C-B70A-2078CDB8266D</title>
    <desc>Created with sketchtool.</desc>
    <g id="Page-1" stroke="none" stroke-width="1" fill="none" fill-rule="evenodd">
        <g id="Home-Page" transform="translate(-200.000000, -5124.000000)" fill-rule="nonzero">
            <g id="8base-logo" transform="translate(200.000000, 5124.000000)">
                <g id="Group" transform="translate(43.988270, 5.886792)" fill="#2C3339">
                    <path d="M4.03225806,10.2283019 C5.31524927,8.05754717 7.99120235,6.91698113 10.7771261,6.91698113 C16.0923754,6.91698113 20.4545455,10.7801887 20.4545455,16.9245283 C20.4545455,23.0320755 15.9824047,26.9688679 10.7038123,26.9688679 C8.02785924,26.9688679 5.27859238,25.7915094 3.99560117,23.5839623 L3.99560117,24.8716981 C3.99560117,25.9018868 3.18914956,26.7849057 2.08944282,26.7849057 C1.06304985,26.7849057 0.25659824,25.9018868 0.25659824,24.8716981 L0.25659824,2.20754717 C0.25659824,1.17735849 1.06304985,0.294339623 2.08944282,0.294339623 C3.15249267,0.294339623 3.99560117,1.17735849 3.99560117,2.20754717 L3.99560117,10.2283019 L4.03225806,10.2283019 Z M10.4105572,23.3264151 C13.856305,23.3264151 16.6055718,20.6773585 16.6055718,16.8877358 C16.6055718,13.0613208 13.856305,10.5962264 10.4105572,10.5962264 C7.3313783,10.5962264 4.03225806,12.7669811 4.03225806,16.8877358 C4.06891496,21.0084906 7.00146628,23.3264151 10.4105572,23.3264151 Z" id="Shape"></path>
                    <path d="M39.1495601,23.6207547 C37.8665689,25.7915094 35.0806452,27.0056604 32.4046921,27.0056604 C27.1627566,27.0056604 22.6539589,23.0320755 22.6539589,16.9613208 C22.6539589,10.8169811 27.1260997,6.95377358 32.4046921,6.95377358 C35.0806452,6.95377358 37.8665689,8.05754717 39.1495601,10.2650943 L39.1495601,9.08773585 C39.1495601,8.05754717 39.9560117,7.1745283 40.9824047,7.1745283 C42.0454545,7.1745283 42.888563,8.05754717 42.888563,9.08773585 L42.888563,24.945283 C42.888563,25.9754717 42.0821114,26.8584906 40.9824047,26.8584906 C39.9560117,26.8584906 39.1495601,25.9754717 39.1495601,24.945283 L39.1495601,23.6207547 Z M32.771261,10.5962264 C29.3255132,10.5962264 26.5395894,13.0613208 26.5395894,16.8877358 C26.5395894,20.6773585 29.3255132,23.3264151 32.771261,23.3264151 C36.1803519,23.3264151 39.1495601,20.9716981 39.1495601,16.8877358 C39.1129032,12.8037736 35.8504399,10.5962264 32.771261,10.5962264 Z" id="Shape"></path>
                    <path d="M53.0058651,23.6943396 C54.9486804,23.6943396 56.3782991,22.6641509 56.3782991,21.1556604 C56.3782991,19.7575472 55.2785924,19.0584906 53.8489736,18.7273585 L51.2096774,18.1018868 C47.983871,17.2188679 46.0410557,15.6367925 46.0410557,12.5830189 C46.0410557,9.41886792 48.8636364,6.95377358 52.7492669,6.95377358 C55.2419355,6.95377358 57.6612903,7.87358491 58.797654,10.0811321 C58.9442815,10.3754717 59.0175953,10.7066038 59.0175953,10.9641509 C59.0175953,12.2150943 57.8445748,12.6566038 57.2580645,12.6566038 C56.7082111,12.6566038 56.3049853,12.3622642 55.9017595,11.8471698 C55.0219941,10.7066038 54.068915,10.2283019 52.8592375,10.2283019 C51.0630499,10.2283019 49.8533724,11.295283 49.8533724,12.7301887 C49.8533724,13.9811321 51.026393,14.6801887 52.2727273,14.9377358 L55.0953079,15.6367925 C59.0909091,16.6301887 60.0806452,19.0584906 60.0806452,21.2292453 C60.0806452,24.7981132 56.6348974,27.0056604 52.6392962,27.0056604 C49.670088,27.0056604 46.627566,25.35 45.7478006,22.4066038 C45.7111437,22.1858491 45.6744868,22.0018868 45.6744868,21.8179245 C45.6744868,20.8245283 46.627566,20.3462264 47.4706745,20.3462264 C48.1304985,20.3462264 48.7903226,20.6773585 49.0835777,21.4132075 C49.5601173,22.8113208 51.0630499,23.6943396 53.0058651,23.6943396 Z" id="Shape"></path>
                    <path d="M79.3255132,18.3962264 L65.21261,18.3962264 C65.6524927,21.5971698 68.1818182,23.6207547 71.4076246,23.6207547 C73.7170088,23.6207547 74.9633431,23.0320755 76.2829912,21.5971698 C76.9794721,20.8245283 78.042522,20.5669811 78.7756598,21.1188679 C79.5087977,21.7075472 79.6920821,22.8113208 79.1055718,23.4735849 C77.2727273,25.8650943 74.3768328,27.0056604 71.2609971,27.0056604 C65.7991202,27.0056604 61.4369501,22.995283 61.4369501,16.9245283 C61.4369501,10.8169811 65.7991202,6.95377358 71.2609971,6.95377358 C76.7228739,6.95377358 80.7917889,10.8169811 80.7917889,16.9245283 C80.7917889,17.7707547 80.0953079,18.3962264 79.3255132,18.3962264 Z M77.1260997,15.4528302 C76.686217,12.2518868 74.3768328,10.3018868 71.297654,10.3018868 C68.1451613,10.3018868 65.6891496,12.2518868 65.21261,15.4528302 L77.1260997,15.4528302 Z" id="Shape"></path>
                </g>
                <ellipse id="Oval" fill="#EA4235" cx="19.3914956" cy="19.5735849" rx="19.2082111" ry="19.2792453"></ellipse>
                <path d="M19.3548387,32.8352114 C14.8288926,32.8352114 10.8504399,29.1717568 10.8504399,24.5558041 C10.8504399,21.7349441 12.1644243,19.4636023 14.6463947,18.1447587 C13.2229117,16.752646 12.3834216,15.3605332 12.3834216,13.3089987 C12.3834216,9.35246781 15.4128856,6.27516601 19.3548387,6.27516601 C23.2967918,6.27516601 26.3627553,9.35246781 26.3627553,13.3089987 C26.3627553,15.3605332 25.4867658,16.752646 24.0632827,18.1447587 C26.5452532,19.4636023 27.8592375,21.7349441 27.8592375,24.5558041 C27.822738,29.1717568 23.8807849,32.8352114 19.3548387,32.8352114 Z M19.3548387,20.6359078 C17.2013643,20.6359078 15.4493852,22.3943659 15.4493852,24.5558041 C15.4493852,26.7172423 17.2013643,28.4757005 19.3548387,28.4757005 C21.5083131,28.4757005 23.2602922,26.7172423 23.2602922,24.5558041 C23.2602922,22.3943659 21.5083131,20.6359078 19.3548387,20.6359078 Z M19.3548387,10.6346769 C17.8583565,10.6346769 16.6903704,11.916886 16.6903704,13.3822678 C16.6903704,14.8476496 17.8948561,16.0932241 19.3548387,16.0932241 C20.8148213,16.0932241 22.0558066,14.8476496 22.0558066,13.3822678 C22.0558066,11.8802514 20.8513209,10.6346769 19.3548387,10.6346769 Z" id="Shape" fill="#FFFFFF"></path>
            </g>
        </g>
    </g>
</svg>