<?xml version="1.0" encoding="UTF-8" standalone="no"?>
<svg
   xmlns:dc="http://purl.org/dc/elements/1.1/"
   xmlns:cc="http://creativecommons.org/ns#"
   xmlns:rdf="http://www.w3.org/1999/02/22-rdf-syntax-ns#"
   xmlns:svg="http://www.w3.org/2000/svg"
   xmlns="http://www.w3.org/2000/svg"
   id="svg324"
   version="1.1"
   viewBox="0 0 17.115011 17.115129"
   height="17.115129mm"
   width="17.115011mm">
  <defs
     id="defs318" />
  <metadata
     id="metadata321">
    <rdf:RDF>
      <cc:Work
         rdf:about="">
        <dc:format>image/svg+xml</dc:format>
        <dc:type
           rdf:resource="http://purl.org/dc/dcmitype/StillImage" />
        <dc:title></dc:title>
      </cc:Work>
    </rdf:RDF>
  </metadata>
  <g
     id="layer3">
    <path
       id="path1203"
       d="m 3.3870198,6.27279 5.8398812,10.84227 1.34405,7e-5 6.544031,-6.54402 3e-5,-1.3441601 L 6.2730908,3.3870698 Z"
       style="fill:#ffffff;stroke:none;stroke-width:0.26458332px;stroke-linecap:butt;stroke-linejoin:miter;stroke-opacity:1" />
  </g>
  <g
     transform="translate(-91.984159,-111.54955)"
     id="layer1">
    <path
       id="path86"
       style="fill:#736cc7;fill-opacity:1;fill-rule:nonzero;stroke:none;stroke-width:0.35277775"
       d="m 109.06284,128.628 0.0363,-6.50734 -1.05798,1.05762 -2.52872,-1.33385 c -1.07773,1.07809 -2.15547,2.15583 -3.2332,3.23356 l 1.3335,2.52871 -1.05763,1.05798 z" />
    <path
       id="path90"
       style="fill:#736cc7;fill-opacity:1;fill-rule:evenodd;stroke:none;stroke-width:0.35277775"
       d="m 100.93448,122.5598 2.06023,-2.06023 -4.135261,-2.07468 z m -8.931271,2.05845 c 0.004,2.22568 1.82069,4.04636 4.04601,4.04636 h 5.161841 l -5.839881,-10.84227 c 0.96202,-0.96167 1.92405,-1.92369 2.88607,-2.88572 l 10.841921,5.83988 v -5.16184 c 0,-2.22497 -1.82068,-4.04248 -4.04636,-4.04601 l -13.068651,-0.0191 z" />
  </g>
</svg>
