<?xml version="1.0" encoding="utf-8"?>
<!-- Generator: Adobe Illustrator 23.0.3, SVG Export Plug-In . SVG Version: 6.00 Build 0)  -->
<svg version="1.1" id="Ebene_1" xmlns="http://www.w3.org/2000/svg" xmlns:xlink="http://www.w3.org/1999/xlink" x="0px" y="0px"
	 viewBox="0 0 398 91.8" style="enable-background:new 0 0 398 91.8;" xml:space="preserve">
<style type="text/css">
	.st0{display:none;}
	.st1{display:inline;}
	.st2{fill:#21409A;}
	.st3{display:inline;fill:#21409A;}
	.st4{display:inline;fill:#009444;}
	.st5{display:inline;fill:#FBB040;}
	.st6{display:inline;fill:#F15A29;}
	.st7{display:inline;fill:#603913;}
	.st8{display:inline;fill:#392315;}
	.st9{display:inline;fill:#BE1E2D;}
	.st10{fill:#D85930;}
</style>
<g id="Layer_1" class="st0">
	<g id="Subline_white_1_" class="st1">
		<path class="st2" d="M12.1,98.5c-0.9,0-1.5,0.7-1.5,1.5v6H3v-6c0-0.9-0.7-1.5-1.5-1.5S0,99.2,0,100v15.2c0,0.8,0.7,1.5,1.5,1.5
			S3,116,3,115.2v-6.4h7.6v6.4c0,0.8,0.7,1.5,1.5,1.5c0.9,0,1.5-0.7,1.5-1.5V100C13.7,99.2,13,98.5,12.1,98.5z"/>
		<path class="st2" d="M24.6,98.3c-5.4,0-8.4,3-8.4,9.3c0,6.2,3.1,9.3,8.4,9.3s8.4-3.1,8.4-9.3C33,101.3,30,98.3,24.6,98.3z
			 M24.6,114.2c-3.5,0-5.2-2.2-5.2-6.5c0-4.4,1.7-6.6,5.2-6.6s5.2,2.2,5.2,6.6C29.8,112,28.1,114.2,24.6,114.2z"/>
		<path class="st2" d="M43.3,98.3c-5.4,0-8.4,3-8.4,9.3c0,6.2,3.1,9.3,8.4,9.3s8.4-3.1,8.4-9.3C51.7,101.3,48.6,98.3,43.3,98.3z
			 M43.3,114.2c-3.5,0-5.2-2.2-5.2-6.5c0-4.4,1.7-6.6,5.2-6.6s5.2,2.2,5.2,6.6C48.5,112,46.8,114.2,43.3,114.2z"/>
		<path class="st2" d="M59.3,98.7h-3.6c-0.8,0-1.5,0.7-1.5,1.5V115c0,0.8,0.7,1.5,1.5,1.5h3.6c5.3,0,8.6-2.4,8.6-8.9
			S64.6,98.7,59.3,98.7z M59.3,113.8h-2v-12.4h2c3.4,0,5.4,1.6,5.4,6.2C64.8,112.3,62.7,113.8,59.3,113.8z"/>
		<path class="st2" d="M70.4,113.3c-1.1,0-1.8,0.6-1.8,1.8c0,1.2,0.6,1.7,1.8,1.7s1.7-0.6,1.7-1.7C72.2,113.9,71.6,113.3,70.4,113.3
			z"/>
		<path class="st2" d="M75.3,98.5c-0.9,0-1.5,0.7-1.5,1.5v15.2c0,0.8,0.7,1.5,1.5,1.5s1.5-0.7,1.5-1.5V100
			C76.8,99.2,76.1,98.5,75.3,98.5z"/>
		<path class="st2" d="M90.4,113.8h-7v-4.9h5c0.7,0,1.4-0.6,1.4-1.4c0-0.7-0.6-1.4-1.4-1.4h-5v-4.8h6.7c0.8,0,1.4-0.6,1.4-1.4
			s-0.6-1.4-1.4-1.4h-8.3c-0.9,0-1.5,0.7-1.5,1.5v14.8c0,0.8,0.7,1.5,1.5,1.5h8.6c0.8,0,1.4-0.6,1.4-1.4
			C91.8,114.4,91.2,113.8,90.4,113.8z"/>
	</g>
	<path class="st3" d="M87.6,76.6c1.3,1.2,2.6,2.2,4,3.2V11.9c-1.4,1-2.7,2.1-4,3.2V76.6z"/>
	<path class="st3" d="M10.8,4.1h17.5c3.7,0,6.8,3,6.8,6.8c0,5.9,4.8,10.8,10.8,10.8s10.8-4.8,10.8-10.8c0-3.7,3-6.8,6.8-6.8H81
		c3.4,0,6.2,2.6,6.7,5.9c1.1-0.9,2.3-1.7,3.5-2.5c-1.6-4.3-5.6-7.4-10.4-7.4H63.3c-5.9,0-10.8,4.8-10.8,10.8c0,3.7-3,6.8-6.8,6.8
		s-6.8-3-6.8-6.8c0.2-6-4.7-10.8-10.6-10.8H10.8C4.9,0.1,0,4.9,0,10.9v70c0,5.9,4.8,10.8,10.8,10.8h17.5c5.9,0,10.8-4.8,10.8-10.8
		c0-3.7,3-6.8,6.8-6.8s6.8,3,6.8,6.8c0,5.9,4.8,10.8,10.8,10.8H81c4.7,0,8.8-3.1,10.2-7.3c-1.2-0.8-2.4-1.6-3.5-2.5
		c-0.4,3.3-3.3,5.9-6.7,5.9H63.3c-3.7,0-6.8-3-6.8-6.8c0-5.9-4.8-10.8-10.8-10.8S34.9,75,34.9,81c0,3.7-3,6.8-6.8,6.8H10.8
		c-3.7,0-6.8-3-6.8-6.8V11C4,7.1,7.1,4.1,10.8,4.1z"/>
	<path class="st4" d="M87.6,15.1c1.3-1.2,2.6-2.2,4-3.2c6.8-4.9,15.2-7.8,24.3-7.8c13.1,0,24.9,6.1,32.5,15.6
		c0.8-1.1,1.6-2.2,2.5-3.3c-8.4-10-21-16.3-35-16.3c-9.1,0-17.7,2.7-24.8,7.3c-1.2,0.8-2.4,1.6-3.5,2.5C77,18.3,70.2,31.3,70.2,45.8
		S77,73.3,87.6,81.7c1.1,0.9,2.3,1.7,3.5,2.5c7.2,4.6,15.7,7.3,24.8,7.3c14,0,26.6-6.4,35-16.3c-0.9-1-1.7-2.1-2.5-3.3
		c-7.7,9.5-19.4,15.6-32.5,15.6c-9,0-17.4-2.9-24.3-7.8c-1.4-1-2.7-2.1-4-3.2c-8.3-7.6-13.5-18.6-13.5-30.7S79.3,22.8,87.6,15.1z"/>
	<path class="st4" d="M150.8,23.1c4.3,6.5,6.8,14.4,6.8,22.7s-2.5,16.2-6.8,22.7c0.8,1.2,1.6,2.3,2.5,3.4c5.2-7.4,8.3-16.4,8.3-26.2
		s-3.1-18.7-8.3-26.2C152.4,20.8,151.6,21.9,150.8,23.1z"/>
	<path class="st5" d="M153.3,19.7c7.7-9.5,19.4-15.6,32.6-15.6c9,0,17.4,2.9,24.3,7.8v-1c0-1.2,0.3-2.3,0.7-3.3
		c-7.2-4.7-15.8-7.4-25-7.4c-14,0-26.6,6.4-35,16.3c-0.9,1-1.7,2.1-2.5,3.3c-5.2,7.4-8.3,16.4-8.3,26.2s3.1,18.7,8.3,26.2
		c0.8,1.1,1.6,2.2,2.5,3.3c8.4,10,21,16.3,35,16.3c9.2,0,17.8-2.7,25-7.4c-0.5-1-0.7-2.2-0.7-3.3v-1c-6.8,4.9-15.2,7.8-24.3,7.8
		c-13.1,0-24.9-6.1-32.5-15.6c-0.9-1.1-1.7-2.3-2.5-3.4c-4.3-6.5-6.8-14.3-6.8-22.7s2.5-16.2,6.8-22.7
		C151.6,21.9,152.4,20.8,153.3,19.7z"/>
	<path class="st5" d="M214.2,10c-0.1,0.3-0.1,0.6-0.1,0.9v4.2c8.3,7.6,13.5,18.6,13.5,30.7s-5.2,23.1-13.5,30.7v4.3
		c0,0.3,0,0.6,0.1,0.9c10.6-8.4,17.4-21.3,17.4-35.9C231.6,31.3,224.8,18.4,214.2,10z"/>
	<path class="st6" d="M214.1,15.1v-4.3c0-0.3,0-0.6,0.1-0.9c0.7-3.3,5.5-5.9,11-5.9h30.6c9,0,17.4,2.9,24.3,7.8v-1
		c0-1.2,0.2-2.3,0.7-3.4c-7.2-4.6-15.7-7.3-24.9-7.3h-30.7c-6.9,0-12.5,3.1-14.4,7.4c-0.5,1-0.7,2.2-0.7,3.3v1v67.9v1
		c0,1.2,0.3,2.3,0.7,3.3c1.9,4.4,7.6,7.4,14.4,7.4h30.6c9.2,0,17.7-2.7,24.9-7.4c-0.4-1.1-0.7-2.2-0.7-3.3v-1
		c-6.8,4.9-15.2,7.8-24.3,7.8h-30.5c-5.6,0-10.3-2.6-11-5.9c-0.1-0.3-0.1-0.6-0.1-0.9v-4.3V15.1z"/>
	<path class="st6" d="M284.2,10c0,0.3-0.1,0.6-0.1,0.9v4.2c8.3,7.6,13.5,18.6,13.5,30.7s-5.2,23.1-13.5,30.7v4.3
		c0,0.3,0,0.6,0.1,0.9c10.6-8.4,17.4-21.4,17.4-35.9S294.8,18.4,284.2,10z"/>
	<path class="st7" d="M323.9,76.6c1.3,1.2,2.6,2.2,4,3.2V11.9c-1.4,1-2.7,2.1-4,3.2V76.6z"/>
	<path class="st8" d="M284.1,15.1v-4.3c0-0.3,0-0.6,0.1-0.9c0.6-3.3,4.3-5.9,8.9-5.9H315c4.5,0,8.3,2.6,8.9,5.9
		c1.1-0.9,2.2-1.7,3.4-2.5C325.6,3.1,320.7,0,315,0h-21.9c-5.7,0-10.6,3.1-12.3,7.4c-0.4,1.1-0.7,2.2-0.7,3.4v1v67.9v1
		c0,1.2,0.2,2.3,0.7,3.3c1.7,4.3,6.6,7.4,12.3,7.4H315c5.7,0,10.6-3.1,12.3-7.4c-1.2-0.8-2.3-1.6-3.4-2.5c-0.6,3.3-4.3,5.9-8.9,5.9
		h-21.9c-4.5,0-8.3-2.6-8.9-5.9c0-0.3-0.1-0.6-0.1-0.9v-4.3V15.1L284.1,15.1z"/>
	<path class="st9" d="M387.2,0.1h-35c-9.2,0-17.7,2.7-24.9,7.4c-1.2,0.8-2.3,1.6-3.4,2.5c-10.6,8.4-17.4,21.4-17.4,35.9
		s6.8,27.5,17.4,35.9c1.1,0.9,2.2,1.7,3.4,2.5c7.2,4.7,15.7,7.4,24.9,7.4h35c5.9,0,10.8-4.8,10.8-10.8V67.7c0-3.6-1.8-6.8-4.5-8.7
		c2.7-1.9,4.5-5.1,4.5-8.8v-8.8c0-3.8-1.9-6.8-4.6-8.7c2.8-1.9,4.6-5.2,4.6-8.8v-13C397.9,4.9,393.1,0.1,387.2,0.1z M393.9,24
		c0,3.7-3,6.8-6.8,6.8v4c3.2,0,6.8,2.8,6.8,6.8v8.8c0,3.8-3,6.8-6.8,6.8v4c3.7,0,6.8,3,6.8,6.8v13.1c0,3.7-3,6.8-6.8,6.8h-35
		c-9,0-17.4-2.9-24.3-7.8c-1.4-1-2.7-2.1-4-3.2c-8.3-7.6-13.5-18.6-13.5-30.7s5.2-23.1,13.5-30.7c1.3-1.2,2.6-2.2,4-3.2
		c6.9-5.3,15.3-8.2,24.4-8.2h35c3.7,0,6.8,3,6.8,6.8L393.9,24L393.9,24z"/>
</g>
<path class="st10" d="M87.6,15.1v61.4c1.3,1.2,2.6,2.2,4,3.2V11.9C90.2,12.9,88.8,14,87.6,15.1z"/>
<path class="st10" d="M80.8,87.6H63.3c-3.7,0-6.8-3-6.8-6.8c0-5.9-4.8-10.8-10.8-10.8s-10.8,4.8-10.8,10.8c0,3.7-3,6.8-6.8,6.8H10.8
	c-3.7,0-6.8-3-6.8-6.8v-70c0-3.7,3.1-6.7,6.8-6.7h17.5c3.7,0,6.8,3,6.8,6.8c0,5.9,4.8,10.8,10.8,10.8s10.8-4.8,10.8-10.8
	c0-3.7,3-6.8,6.8-6.8H81c3.4,0,6.2,2.6,6.7,5.9c1.1-0.9,2.3-1.7,3.5-2.5c-1.6-4.3-5.6-7.4-10.4-7.4H63.3c-5.9,0-10.8,4.8-10.8,10.8
	c0,3.7-3,6.8-6.8,6.8s-6.8-3-6.8-6.8c0.2-6-4.7-10.8-10.6-10.8H10.8C4.9,0.1,0,4.9,0,10.9v70c0,5.9,4.8,10.8,10.8,10.8h17.5
	c5.9,0,10.8-4.8,10.8-10.8c0-3.7,3-6.8,6.8-6.8s6.8,3,6.8,6.8c0,5.9,4.8,10.8,10.8,10.8H81c4.7,0,8.8-3.1,10.2-7.3
	c-1.2-0.8-2.4-1.6-3.5-2.5C87.1,85.1,84.2,87.6,80.8,87.6z"/>
<path class="st10" d="M115.8,87.6c-9,0-17.4-2.9-24.3-7.8c-1.4-1-2.7-2.1-4-3.2C79.2,69,74,58,74,45.9s5.3-23.1,13.6-30.8
	c1.3-1.2,2.6-2.2,4-3.2c6.8-4.9,15.2-7.8,24.3-7.8c13.1,0,24.9,6.1,32.5,15.6c0.8-1.1,1.6-2.2,2.5-3.3c-8.4-10-21-16.3-35-16.3
	c-9.1,0-17.7,2.7-24.8,7.3c-1.2,0.8-2.4,1.6-3.5,2.5C77,18.3,70.2,31.3,70.2,45.8S77,73.3,87.6,81.7c1.1,0.9,2.3,1.7,3.5,2.5
	c7.2,4.6,15.7,7.3,24.8,7.3c14,0,26.6-6.4,35-16.3c-0.9-1-1.7-2.1-2.5-3.3C140.7,81.5,129,87.6,115.8,87.6z"/>
<path class="st10" d="M153.3,19.7c-0.9,1.1-1.7,2.3-2.5,3.4c4.3,6.5,6.8,14.4,6.8,22.7s-2.5,16.2-6.8,22.7c0.8,1.2,1.6,2.3,2.5,3.4
	c5.2-7.4,8.3-16.4,8.3-26.2S158.5,27.1,153.3,19.7z"/>
<path class="st10" d="M210.1,79.8c-6.8,4.9-15.2,7.8-24.3,7.8c-13.1,0-24.9-6.1-32.5-15.6c-0.9-1.1-1.7-2.3-2.5-3.4
	c-4.3-6.5-6.8-14.3-6.8-22.7s2.5-16.2,6.8-22.7c0.8-1.2,1.6-2.3,2.5-3.4c7.7-9.6,19.4-15.7,32.6-15.7c9,0,17.4,2.9,24.3,7.8v-1
	c0-1.2,0.3-2.3,0.7-3.3c-7.2-4.7-15.8-7.4-25-7.4c-14,0-26.6,6.4-35,16.3c-0.9,1-1.7,2.1-2.5,3.3c-5.2,7.4-8.3,16.4-8.3,26.2
	s3.1,18.7,8.3,26.2c0.8,1.1,1.6,2.2,2.5,3.3c8.4,10,21,16.3,35,16.3c9.2,0,17.8-2.7,25-7.4c-0.5-1-0.7-2.2-0.7-3.3L210.1,79.8
	L210.1,79.8z"/>
<path class="st10" d="M231.6,45.9c0-14.5-6.8-27.5-17.4-35.9c-0.1,0.3-0.1,0.6-0.1,0.9v4.2c8.3,7.6,13.5,18.6,13.5,30.7
	s-5.2,23.1-13.5,30.7v4.3c0,0.3,0,0.6,0.1,0.9C224.8,73.3,231.6,60.4,231.6,45.9z"/>
<path class="st10" d="M225.2,4.1c-5.6,0-10.3,2.6-11,5.9c-0.1,0.3-0.1,0.6-0.1,0.9v4.2v61.4v4.3c0,0.3,0,0.6,0.1,0.9
	c0.7,3.3,5.5,5.9,11,5.9h30.6c9,0,17.4-2.9,24.3-7.8v1c0,1.2,0.2,2.3,0.7,3.3c-7.2,4.7-15.7,7.4-24.9,7.4h-30.7
	c-6.9,0-12.5-3.1-14.4-7.4c-0.5-1-0.7-2.2-0.7-3.3v-1V11.9v-1c0-1.2,0.3-2.3,0.7-3.3c1.9-4.4,7.6-7.5,14.4-7.5h30.6
	c9.2,0,17.7,2.7,24.9,7.4c-0.4,1.1-0.7,2.2-0.7,3.4v1c-6.7-4.9-15.1-7.8-24.1-7.8H225.2z"/>
<path class="st10" d="M301.6,45.9c0-14.5-6.8-27.5-17.4-35.9c0,0.3-0.1,0.6-0.1,0.9v4.2c8.3,7.6,13.5,18.6,13.5,30.7
	s-5.2,23.1-13.5,30.7v4.3c0,0.3,0,0.6,0.1,0.9C294.8,73.4,301.6,60.4,301.6,45.9z"/>
<path class="st10" d="M323.9,15.1v61.4c1.3,1.2,2.6,2.2,4,3.2V11.9C326.5,12.9,325.2,14,323.9,15.1z"/>
<path class="st10" d="M315,87.6h-21.9c-4.5,0-8.3-2.6-8.9-5.9c0-0.3-0.1-0.6-0.1-0.9v-4.3V15.1v-4.3c0-0.3,0-0.6,0.1-0.9
	c0.6-3.3,4.3-5.9,8.9-5.9H315c4.5,0,8.3,2.6,8.9,5.9c1.1-0.9,2.2-1.7,3.4-2.5C325.6,3.1,320.7,0,315,0h-21.9
	c-5.7,0-10.6,3.1-12.3,7.4c-0.4,1.1-0.7,2.2-0.7,3.4v1v67.9v1c0,1.2,0.2,2.3,0.7,3.3c1.7,4.3,6.6,7.4,12.3,7.4H315
	c5.7,0,10.6-3.1,12.3-7.4c-1.2-0.8-2.3-1.6-3.4-2.5C323.2,85.1,319.5,87.6,315,87.6z"/>
<path class="st10" d="M397.9,24V10.9c0-6-4.8-10.8-10.7-10.8h-35c-9.2,0-17.7,2.7-24.9,7.4c-1.2,0.8-2.3,1.6-3.4,2.5
	c-10.6,8.4-17.4,21.4-17.4,35.9s6.8,27.5,17.4,35.9c1.1,0.9,2.2,1.7,3.4,2.5c7.2,4.7,15.7,7.4,24.9,7.4h35c5.9,0,10.8-4.8,10.8-10.8
	V67.7c0-3.6-1.8-6.8-4.5-8.7c2.7-1.9,4.5-5.1,4.5-8.8v-8.8c0-3.8-1.9-6.8-4.6-8.7C396.1,30.8,397.9,27.6,397.9,24z M393.9,24
	c0,3.7-3,6.8-6.8,6.8v4c3.2,0,6.8,2.8,6.8,6.8v8.8c0,3.8-3,6.8-6.8,6.8v4c3.7,0,6.8,3,6.8,6.8v13.1c0,3.7-3,6.8-6.8,6.8h-35
	c-9,0-17.4-2.9-24.3-7.8c-1.4-1-2.7-2.1-4-3.2c-8.3-7.6-13.5-18.6-13.5-30.7s5.2-23.1,13.5-30.7c1.3-1.2,2.6-2.2,4-3.2
	c6.9-5.3,15.3-8.2,24.4-8.2h35c3.7,0,6.8,3,6.8,6.8L393.9,24L393.9,24z"/>
</svg>
