<svg width="35" height="39" viewBox="0 0 35 39" fill="none" xmlns="http://www.w3.org/2000/svg">
<path d="M9.267 4.275V18.79C9.26773 18.9182 9.22366 19.0426 9.14241 19.1417C9.06115 19.2409 8.94783 19.3085 8.822 19.333C6.968 19.683 0 20.618 0 14.733V4.352C0 -1.372 9.267 -1.5 9.267 4.275ZM21.95 14.282V28.8C21.95 28.9278 21.9055 29.0516 21.8241 29.1502C21.7427 29.2487 21.6295 29.3158 21.504 29.34C19.654 29.693 12.682 30.62 12.682 24.732V14.35C12.682 8.638 21.952 8.51 21.952 14.283L21.95 14.282ZM34.63 23.066V37.583C34.6306 37.7117 34.5859 37.8366 34.5039 37.9358C34.4218 38.0351 34.3076 38.1024 34.181 38.126C32.331 38.476 25.359 39.406 25.359 33.518V23.132C25.359 17.421 34.629 17.292 34.629 23.066" fill="#F05A22"/>
</svg>
