<svg xmlns="http://www.w3.org/2000/svg" viewBox="0 0 400 340"><defs><style>.cls-1{fill:#f3c55f;}.cls-2{fill-opacity:0.45;}.cls-3{fill:#fff;}</style></defs><title>middleman</title><g id="Layer_2" data-name="Layer 2"><g id="Layer_1-2" data-name="Layer 1"><rect class="cls-1" width="400" height="340" rx="12"/><path class="cls-2" d="M24.71,56.06,200,21V47.29L24.71,73.59Z"/><path class="cls-3" d="M200,21,375.29,56.06V73.59L200,47.29Z"/><path class="cls-2" d="M24.71,89.36V250.64L64.15,255V154.22L103.59,227l41.19-72.75V267.29l46.46,6.13V66.58l-50,7-37.69,72.75L65.9,85Z"/><path class="cls-3" d="M375.29,89.36V250.64L335.85,255V154.22L296.41,227l-41.19-72.75V267.29l-46.46,6.13V66.58l50,7,37.69,72.75L334.1,85Z"/><path class="cls-2" d="M24.71,283.94,200,319V292.71L24.71,266.41Z"/><path class="cls-3" d="M200,319l175.29-35.06V266.41L200,292.71Z"/></g></g></svg>