<svg xmlns="http://www.w3.org/2000/svg" viewBox="0 0 22 22"><defs><style>.cls-1,.cls-2{fill:#3e4348;}.cls-1{fill-rule:evenodd;}</style></defs><g id="Layer_2" data-name="Layer 2"><g id="Layer_1-2" data-name="Layer 1"><path class="cls-1" d="M3.68,0H18.32A3.69,3.69,0,0,1,22,3.68V18.32A3.68,3.68,0,0,1,18.32,22H3.68A3.68,3.68,0,0,1,0,18.32V3.68A3.68,3.68,0,0,1,3.68,0ZM16.84,18A1.16,1.16,0,0,0,18,16.84V5.16A1.16,1.16,0,0,0,16.84,4H5.16A1.16,1.16,0,0,0,4,5.16V16.84A1.16,1.16,0,0,0,5.16,18Z"/><path class="cls-2" d="M8.67,14A.66.66,0,0,1,8,13.32V8.65a.62.62,0,0,1,.19-.47A.67.67,0,0,1,8.67,8h4.67a.67.67,0,0,1,.67.66v4.67a.67.67,0,0,1-.67.66Z"/></g></g></svg>