<svg xmlns="http://www.w3.org/2000/svg" viewBox="0 0 61.3 27.2"><defs><style>.cls-1{fill:#2d3641;}</style></defs><title>tito-logo</title><g id="Layer_2" data-name="Layer 2"><g id="Layer_1-2" data-name="Layer 1"><polygon class="cls-1" points="17.6 0 0 0 0 5 6.1 5 6.1 26.6 11.6 26.6 11.6 5 17.6 5 17.6 0"/><rect class="cls-1" x="20.3" width="5" height="4.8"/><rect class="cls-1" x="20.3" y="7.4" width="5" height="19.3"/><path class="cls-1" d="M51,6.7A10.25,10.25,0,1,0,61.3,17,10.35,10.35,0,0,0,51,6.7ZM45.4,17A5.8,5.8,0,1,1,57,17v.7a5,5,0,0,0-5-4.2,2.53,2.53,0,0,0-2.1.6v4a2.32,2.32,0,0,1,1.3-.5,2.28,2.28,0,0,1,2.3,2.3,2.41,2.41,0,0,1-2.6,2.6C48.1,22.8,45.4,20,45.4,17Z"/><path class="cls-1" d="M38.7,11.3V7H35V0H30.2V7H27.9v4.3h2.3v11c0,.1,0,4.4,8.1,4.3V22.3s-3.4.3-3.4-1.8V11.3Z"/></g></g></svg>