<svg width="343" height="95" viewBox="0 0 343 95" fill="none" xmlns="http://www.w3.org/2000/svg">
<path fill-rule="evenodd" clip-rule="evenodd" d="M25.3006 37.6525C19.0645 31.4165 19.0645 21.3058 25.3006 15.0698C31.5366 8.83373 41.6473 8.83373 47.8833 15.0698L48.6625 15.8489L48.6671 15.8535C54.8807 22.0914 54.8732 32.1852 48.6447 38.4138L37.3533 49.7052L25.3006 37.6525Z" fill="#00FFA3"/>
<path d="M37.28 49.6321L21.4681 65.444C15.232 71.6801 15.232 81.7908 21.4681 88.0268C27.7041 94.2629 37.8148 94.2629 44.0508 88.0268L75.2159 56.8617C79.2066 52.871 79.207 46.4008 75.2167 42.4096L48.6624 15.8489C54.8806 22.0864 54.8747 32.1837 48.6445 38.4138L37.3532 49.7052L37.28 49.6321Z" fill="#8F00FF"/>
<path d="M109.039 70.8431H116.89V31.9328H130.928V24.9892H95V31.9328H109.039V70.8431Z" fill="#454346"/>
<path d="M137.881 70.8431H146.996L153.849 45.951H154.115L160.702 70.8431H169.817L178.933 37.6973V37.0422H171.414L165.293 61.9343H165.027L158.44 37.0422H149.325L142.738 61.9343H142.472L136.351 37.0422H128.766V37.6973L137.881 70.8431Z" fill="#454346"/>
<path d="M185.661 31.8673C188.789 31.8673 190.518 30.0331 190.518 27.1509C190.518 24.2686 188.789 22.5 185.661 22.5C182.468 22.5 180.804 24.2686 180.804 27.1509C180.804 30.0331 182.468 31.8673 185.661 31.8673ZM181.869 70.8431H189.454V37.0422H181.869V70.8431Z" fill="#454346"/>
<path d="M209.614 71.4326C218.995 71.4326 223.785 66.0612 224.384 58.5935H216.799C216.4 62.4584 213.739 64.8821 209.414 64.8821C203.559 64.8821 200.964 60.6242 200.964 53.9426C200.964 47.3921 203.559 43.0687 209.414 43.0687C213.672 43.0687 216.4 45.5579 216.733 49.3573H224.318C223.852 42.0862 219.061 36.4527 209.414 36.4527C198.902 36.4527 193.246 43.5273 193.246 53.9426C193.246 64.4235 199.035 71.4326 209.614 71.4326Z" fill="#454346"/>
<path d="M229.767 70.8431H237.551V54.7942H248.662C258.044 54.7942 264.032 48.5057 264.032 39.728C264.032 31.2122 258.177 24.9892 248.662 24.9892H229.767V70.8431ZM237.551 47.8506V31.8673H247.332C252.721 31.8673 256.048 34.684 256.048 39.728C256.048 45.0339 252.921 47.8506 247.332 47.8506H237.551Z" fill="#454346"/>
<path d="M272.842 31.8673C275.969 31.8673 277.699 30.0331 277.699 27.1509C277.699 24.2686 275.969 22.5 272.842 22.5C269.648 22.5 267.985 24.2686 267.985 27.1509C267.985 30.0331 269.648 31.8673 272.842 31.8673ZM269.049 70.8431H276.634V37.0422H269.049V70.8431Z" fill="#454346"/>
<path d="M296.794 71.4326C306.175 71.4326 310.966 66.0612 311.565 58.5935H303.98C303.58 62.4584 300.919 64.8821 296.594 64.8821C290.739 64.8821 288.145 60.6242 288.145 53.9426C288.145 47.3921 290.739 43.0687 296.594 43.0687C300.853 43.0687 303.58 45.5579 303.913 49.3573H311.498C311.032 42.0862 306.242 36.4527 296.594 36.4527C286.082 36.4527 280.427 43.5273 280.427 53.9426C280.427 64.4235 286.215 71.4326 296.794 71.4326Z" fill="#454346"/>
<path d="M328.324 71.4326C336.308 71.4326 342.563 67.7643 342.563 61.2138C342.563 54.7942 338.571 52.3705 332.583 51.1259L326.728 50.0123C323.867 49.5538 322.203 48.3747 322.203 46.344C322.203 43.8548 324.532 42.4792 327.925 42.4792C331.851 42.4792 334.179 44.4443 334.312 47.5231H341.764C341.764 40.9726 336.308 36.4527 328.058 36.4527C319.741 36.4527 314.818 40.7105 314.818 46.2785C314.818 52.043 318.743 55.1217 324.332 56.2353L330.387 57.3489C333.514 58.004 334.911 59.3141 334.911 61.2138C334.911 63.572 332.649 65.0131 328.324 65.0131C324 65.0131 321.338 62.9169 321.338 59.5761H313.753C313.953 66.7162 319.076 71.4326 328.324 71.4326Z" fill="#454346"/>
</svg>
