<svg width="1055" height="304" viewBox="0 0 1055 304" fill="none" xmlns="http://www.w3.org/2000/svg">
<path d="M295.314 196L271.129 106.214H288.046L306.78 176.201L327.582 106.214H341.492L362.231 176.201L381.153 106.214H398.007L373.822 196H353.271L334.537 136.101L315.803 196H295.314ZM464.172 163.231L463.921 167.116H416.052C416.345 172.796 418.141 177.161 421.441 180.211C424.741 183.218 428.834 184.722 433.721 184.722C437.146 184.722 440.154 183.907 442.744 182.278C445.375 180.649 447.38 178.31 448.759 175.261L463.044 177.579C460.914 183.761 457.238 188.586 452.017 192.053C446.795 195.52 440.739 197.253 433.846 197.253C423.78 197.253 415.739 194.329 409.724 188.481C403.709 182.633 400.702 174.572 400.702 164.296C400.702 154.062 403.709 146.001 409.724 140.111C415.781 134.18 423.654 131.214 433.345 131.214C437.815 131.214 441.887 131.882 445.563 133.219C449.281 134.514 452.518 136.456 455.275 139.046C458.073 141.594 460.245 144.935 461.791 149.071C463.337 153.164 464.13 157.884 464.172 163.231ZM433.408 142.492C428.897 142.492 425.179 143.682 422.255 146.063C419.331 148.402 417.431 151.932 416.553 156.652H448.633C448.216 152.057 446.628 148.549 443.871 146.126C441.156 143.703 437.669 142.492 433.408 142.492ZM515.048 131.277C519.184 131.277 523.089 132.049 526.765 133.595C530.441 135.14 533.636 137.312 536.351 140.111C539.108 142.91 541.28 146.397 542.868 150.575C544.497 154.752 545.311 159.346 545.311 164.359C545.311 169.371 544.518 173.966 542.93 178.143C541.343 182.32 539.171 185.808 536.414 188.607C533.657 191.405 530.441 193.577 526.765 195.123C523.089 196.668 519.184 197.441 515.048 197.441C510.454 197.441 506.298 196.48 502.58 194.559C498.862 192.637 496.106 189.964 494.309 186.539L493.871 196H478.959V99.7606H494.56L494.623 141.615C496.502 138.357 499.259 135.83 502.893 134.033C506.527 132.195 510.579 131.277 515.048 131.277ZM511.477 184.346C516.657 184.346 520.98 182.529 524.447 178.895C527.914 175.219 529.647 170.374 529.647 164.359C529.647 158.344 527.914 153.519 524.447 149.885C520.98 146.209 516.657 144.372 511.477 144.372C506.381 144.372 502.1 146.251 498.633 150.011C495.166 153.728 493.432 158.511 493.432 164.359C493.432 170.207 495.145 175.01 498.57 178.77C502.037 182.487 506.339 184.346 511.477 184.346ZM587.416 197.253C576.597 197.253 568.64 194.538 563.544 189.108C558.49 183.636 555.963 175.407 555.963 164.421L571.94 163.67C571.94 167.095 572.149 169.956 572.567 172.253C572.984 174.509 573.736 176.535 574.822 178.331C575.95 180.085 577.537 181.38 579.584 182.216C581.673 183.051 584.283 183.469 587.416 183.469C592.387 183.469 596.271 182.132 599.07 179.459C601.91 176.786 603.331 173.277 603.331 168.933C603.331 164.338 601.973 160.787 599.258 158.281C596.543 155.775 593.013 154.522 588.669 154.522H584.847V142.116H588.481C591.739 142.116 594.475 140.946 596.689 138.607C598.903 136.268 600.01 133.344 600.01 129.835C600.01 126.368 598.798 123.633 596.376 121.628C593.995 119.623 590.904 118.62 587.103 118.62C584.638 118.62 582.55 119.038 580.837 119.873C579.166 120.709 577.892 121.899 577.015 123.445C576.18 124.99 575.595 126.64 575.261 128.394C574.927 130.107 574.759 132.091 574.759 134.347L558.908 133.657C558.908 124.426 561.372 117.346 566.301 112.417C571.23 107.488 578.122 105.024 586.977 105.024C594.956 105.024 601.555 107.279 606.777 111.791C611.998 116.302 614.609 121.899 614.609 128.582C614.609 133.01 613.439 136.874 611.1 140.174C608.761 143.474 606.025 145.813 602.892 147.191C607.528 148.486 611.413 151.034 614.546 154.835C617.679 158.594 619.245 163.523 619.245 169.622C619.245 177.976 616.321 184.68 610.473 189.734C604.625 194.747 596.94 197.253 587.416 197.253Z" fill="#64748B"/>
<path d="M686.851 117.993H650.636V146.815H682.214V156.965H650.636V196H639.17V107.781H686.851V117.993ZM726.324 197.19C720.476 197.19 715.213 195.916 710.535 193.368C705.856 190.82 702.139 187.103 699.382 182.216C696.667 177.287 695.309 171.606 695.309 165.173C695.309 155.524 698.212 147.797 704.018 141.991C709.866 136.143 717.301 133.219 726.324 133.219C735.388 133.219 742.823 136.143 748.629 141.991C754.436 147.797 757.339 155.524 757.339 165.173C757.339 174.864 754.415 182.633 748.567 188.481C742.761 194.287 735.346 197.19 726.324 197.19ZM726.261 188.168C732.109 188.168 736.955 186.059 740.797 181.84C744.682 177.621 746.624 172.065 746.624 165.173C746.624 158.323 744.682 152.788 740.797 148.57C736.955 144.351 732.109 142.241 726.261 142.241C720.455 142.241 715.631 144.351 711.788 148.57C707.987 152.788 706.086 158.323 706.086 165.173C706.086 172.065 707.987 177.621 711.788 181.84C715.631 186.059 720.455 188.168 726.261 188.168ZM784.907 145.249C786.453 141.865 789.001 139.109 792.551 136.978C796.102 134.848 800.049 133.762 804.393 133.72V143.933C798.128 143.933 793.345 145.458 790.045 148.507C786.787 151.556 785.158 156.422 785.158 163.106V196H774.318V134.409H784.907V145.249ZM880.144 133.219C886.075 133.219 890.858 134.973 894.492 138.482C898.126 141.949 899.943 146.836 899.943 153.143V196H889.104V155.963C889.104 151.493 887.976 148.11 885.72 145.813C883.465 143.515 880.603 142.367 877.137 142.367C873.252 142.367 870.119 143.661 867.738 146.251C865.357 148.841 864.167 152.726 864.167 157.905V196H853.139V156.402C853.139 151.765 851.991 148.277 849.693 145.938C847.438 143.557 844.535 142.367 840.984 142.367C837.141 142.367 834.008 143.703 831.586 146.377C829.205 149.008 828.014 152.976 828.014 158.281V196H817.175V134.409H828.014V142.367C829.81 139.443 832.15 137.187 835.032 135.6C837.956 134.012 841.235 133.219 844.869 133.219C848.837 133.219 852.346 134.096 855.395 135.85C858.444 137.563 860.721 140.048 862.224 143.306C864.062 140.048 866.527 137.563 869.618 135.85C872.709 134.096 876.218 133.219 880.144 133.219ZM940.419 197.19C933.777 197.19 928.243 195.708 923.815 192.742C919.387 189.776 916.693 185.557 915.733 180.085L925.194 177.391C925.862 181.067 927.533 183.928 930.206 185.975C932.921 187.98 936.305 188.983 940.356 188.983C942.528 188.983 944.492 188.711 946.246 188.168C948.042 187.625 949.567 186.623 950.82 185.161C952.073 183.657 952.679 181.777 952.637 179.522C952.595 178.603 952.428 177.767 952.136 177.015C951.843 176.222 951.509 175.532 951.133 174.948C950.757 174.363 950.172 173.799 949.379 173.256C948.585 172.713 947.875 172.274 947.248 171.94C946.622 171.606 945.682 171.23 944.429 170.812C943.218 170.353 942.236 170.019 941.484 169.81C940.732 169.559 939.583 169.225 938.038 168.807C936.492 168.348 935.302 167.993 934.467 167.742C931.877 166.949 929.747 166.197 928.076 165.487C926.405 164.777 924.671 163.795 922.875 162.542C921.079 161.247 919.722 159.618 918.803 157.655C917.925 155.691 917.487 153.394 917.487 150.762C917.487 146.878 918.489 143.599 920.494 140.926C922.499 138.252 925.089 136.331 928.264 135.161C931.48 133.95 935.135 133.344 939.228 133.344C945.16 133.344 950.151 134.681 954.203 137.354C958.297 140.027 960.803 144.037 961.722 149.384L952.825 151.64C952.156 148.173 950.59 145.583 948.126 143.87C945.661 142.116 942.716 141.239 939.291 141.239C936.075 141.239 933.318 141.97 931.021 143.432C928.723 144.852 927.574 147.045 927.574 150.011C927.574 151.264 927.867 152.412 928.452 153.457C929.078 154.459 929.705 155.253 930.331 155.838C930.958 156.422 932.086 157.049 933.715 157.717C935.344 158.344 936.555 158.782 937.349 159.033C938.142 159.242 939.646 159.618 941.86 160.161C942.278 160.286 942.591 160.37 942.8 160.411C945.223 161.038 947.186 161.602 948.689 162.103C950.235 162.563 952.01 163.315 954.015 164.359C956.062 165.361 957.67 166.468 958.84 167.68C960.009 168.891 961.012 170.478 961.847 172.441C962.683 174.405 963.1 176.618 963.1 179.083C963.1 182.216 962.474 184.993 961.221 187.416C960.009 189.797 958.338 191.677 956.208 193.055C954.078 194.434 951.676 195.457 949.003 196.125C946.371 196.835 943.51 197.19 940.419 197.19Z" fill="#667EEA"/>
<path d="M150.989 159.028L218.784 120.288V180.013L150.989 223.596V159.028Z" fill="url(#paint0_linear)"/>
<path d="M84.4036 119.884L150.989 159.028V223.192L84.4036 184.452V119.884Z" fill="url(#paint1_linear)"/>
<rect width="77.7589" height="77.7589" transform="matrix(0.866044 0.499967 -0.866044 0.499967 151.343 81.4043)" fill="url(#paint2_linear)"/>
<defs>
<linearGradient id="paint0_linear" x1="253.086" y1="206.647" x2="157.445" y2="206.647" gradientUnits="userSpaceOnUse">
<stop stop-color="#2742CC"/>
<stop offset="1" stop-color="#344DCF"/>
</linearGradient>
<linearGradient id="paint1_linear" x1="164.709" y1="192.119" x2="14.9936" y2="192.119" gradientUnits="userSpaceOnUse">
<stop stop-color="#546ADE"/>
<stop offset="1" stop-color="#4A61DD"/>
</linearGradient>
<linearGradient id="paint2_linear" x1="77.5546" y1="-0.204376" x2="8.59174" y2="75.282" gradientUnits="userSpaceOnUse">
<stop stop-color="#8898EA"/>
<stop offset="1" stop-color="#B5C0F8"/>
</linearGradient>
</defs>
</svg>
