<svg width="62" height="62" viewBox="0 0 62 62" fill="none" xmlns="http://www.w3.org/2000/svg">
<path d="M27.09 28.09H50.76L44.64 34.21C44.25 34.6 44.25 35.23 44.64 35.62C44.84 35.82 45.09 35.91 45.35 35.91C45.61 35.91 45.86 35.81 46.06 35.62L53.88 27.8C53.97 27.71 54.05 27.6 54.1 27.47C54.2 27.23 54.2 26.95 54.1 26.71C54.05 26.59 53.98 26.48 53.88 26.38L46.06 18.56C45.67 18.17 45.04 18.17 44.65 18.56C44.26 18.95 44.26 19.58 44.65 19.97L50.77 26.09H27.09C26.54 26.09 26.09 26.54 26.09 27.09C26.09 27.64 26.53 28.09 27.09 28.09Z" fill="url(#paint0_linear)"/>
<path d="M8.11996 38.23L15.94 46.05C16.14 46.25 16.39 46.34 16.65 46.34C16.91 46.34 17.16 46.24 17.36 46.05C17.75 45.66 17.75 45.03 17.36 44.64L11.24 38.52H34.91C35.46 38.52 35.91 38.07 35.91 37.52C35.91 36.97 35.46 36.52 34.91 36.52H11.24L17.36 30.4C17.75 30.01 17.75 29.38 17.36 28.99C16.97 28.6 16.34 28.6 15.95 28.99L8.12996 36.81C8.03996 36.9 7.95996 37.01 7.90996 37.14C7.80996 37.38 7.80996 37.66 7.90996 37.9C7.94996 38.03 8.02996 38.14 8.11996 38.23Z" fill="url(#paint1_linear)"/>
<path d="M61 0H1C0.45 0 0 0.45 0 1V61C0 61.55 0.45 62 1 62H61C61.55 62 62 61.55 62 61V1C62 0.45 61.55 0 61 0ZM60 60H2V2H60V60Z" fill="url(#paint2_linear)"/>
<defs>
<linearGradient id="paint0_linear" x1="48.3707" y1="25.6411" x2="48.8401" y2="32.5615" gradientUnits="userSpaceOnUse">
<stop stop-color="#9253BE"/>
<stop offset="1" stop-color="#F0954D"/>
</linearGradient>
<linearGradient id="paint1_linear" x1="30.1078" y1="36.0712" x2="30.5773" y2="42.9916" gradientUnits="userSpaceOnUse">
<stop stop-color="#9253BE"/>
<stop offset="1" stop-color="#F0954D"/>
</linearGradient>
<linearGradient id="paint2_linear" x1="49.1866" y1="25.9128" x2="51.794" y2="50.0632" gradientUnits="userSpaceOnUse">
<stop stop-color="#9253BE"/>
<stop offset="1" stop-color="#F0954D"/>
</linearGradient>
</defs>
</svg>
