<svg width="67" height="63" viewBox="0 0 67 63" fill="none" xmlns="http://www.w3.org/2000/svg">
<path d="M66.0176 48.5855L62.7476 41.4155L59.9376 35.2555L64.1976 17.0055C64.6876 13.7955 62.8176 10.6855 59.7476 9.61545C56.2376 8.40545 52.3976 10.2755 51.1776 13.7755L50.7276 15.0755L49.0976 11.5055C47.0276 6.96546 43.8876 3.43545 40.2676 1.56545C36.2776 -0.484545 31.8776 -0.524545 27.5176 1.46545C26.3376 2.00545 25.2476 2.67545 24.2676 3.44545C19.7876 -0.174545 14.2076 -1.03455 8.7176 1.46545C0.307601 5.31545 -2.3224 14.5055 2.1676 24.3455L15.8176 54.2455C15.8176 54.2455 15.8176 54.2455 15.8176 54.2555L19.0876 61.4255C19.2576 61.7855 19.6176 62.0055 19.9976 62.0055C20.1376 62.0055 20.2776 61.9755 20.4076 61.9155L35.0576 55.2255L37.8876 61.4155C38.0576 61.7855 38.4176 62.0055 38.7976 62.0055C38.9376 62.0055 39.0776 61.9755 39.2076 61.9155L65.5276 49.9055C65.7676 49.7955 65.9576 49.5955 66.0476 49.3455C66.1376 49.0955 66.1276 48.8255 66.0176 48.5855ZM9.5476 3.28545C11.4176 2.43545 13.2876 2.01545 15.1076 2.01545C18.1176 2.01545 20.9876 3.15545 23.4576 5.31545C23.4776 5.33545 23.4776 5.36546 23.4976 5.38546C23.5676 5.45546 23.6476 5.50546 23.7276 5.55546C25.5776 7.24546 27.1976 9.51546 28.4776 12.3255L31.1476 18.1655C31.3176 18.5355 31.6776 18.7855 32.1076 18.7455C32.5176 18.7255 32.8676 18.4555 33.0076 18.0755L34.2776 14.4155C34.6876 13.2155 35.5476 12.2555 36.6776 11.7055C37.8176 11.1555 39.0976 11.0755 40.2876 11.4855C42.4476 12.2355 43.7676 14.4255 43.4376 16.6055L39.1176 35.1155C39.0676 35.3355 39.0876 35.5555 39.1776 35.7555L41.7076 41.3155L19.6776 51.3855L17.2176 52.5055L3.9876 23.5155C-0.0723991 14.6255 2.1076 6.68545 9.5476 3.28545ZM18.0476 54.3255L40.0776 44.2755L42.5376 43.1555L44.9876 48.5155L35.5076 52.8455C35.3776 52.8455 35.2376 52.8755 35.1176 52.9355C34.9876 52.9955 34.8776 53.0755 34.7876 53.1755L20.4976 59.6855L18.0476 54.3255ZM39.2976 59.6855L36.8876 54.4055L46.7276 49.9155C46.9676 49.8055 47.1576 49.6055 47.2476 49.3555C47.3376 49.1055 47.3276 48.8355 47.2176 48.5955L43.9376 41.4155L41.1276 35.2555L45.3876 17.0055C45.8876 13.7955 44.0176 10.6855 40.9376 9.61545C39.2376 9.02545 37.4076 9.13546 35.7976 9.92546C34.1776 10.7155 32.9676 12.0855 32.3776 13.7855L31.9276 15.0855L30.2976 11.5055C29.0676 8.81545 27.5276 6.58545 25.7676 4.80546C26.5576 4.22546 27.4176 3.71545 28.3476 3.28545C32.1276 1.56545 35.9276 1.58545 39.3476 3.34545C42.5676 5.00545 45.3876 8.19546 47.2676 12.3355L49.9376 18.1755C50.1076 18.5455 50.4776 18.7955 50.8976 18.7555C51.3076 18.7355 51.6576 18.4655 51.7976 18.0855L53.0676 14.4255C53.9176 11.9555 56.6176 10.6455 59.0876 11.4955C61.2476 12.2455 62.5676 14.4355 62.2376 16.6155L57.9176 35.1255C57.8676 35.3455 57.8876 35.5655 57.9776 35.7655L60.5176 41.3255L50.8676 45.7255C50.3676 45.9555 50.1476 46.5455 50.3676 47.0555C50.5376 47.4255 50.8976 47.6355 51.2776 47.6355C51.4176 47.6355 51.5576 47.6055 51.6876 47.5455L61.3376 43.1455L63.7876 48.5055L39.2976 59.6855Z" fill="url(#paint0_linear)"/>
<defs>
<linearGradient id="paint0_linear" x1="52.4459" y1="25.9151" x2="54.8951" y2="50.1011" gradientUnits="userSpaceOnUse">
<stop stop-color="#9253BE"/>
<stop offset="1" stop-color="#F0954D"/>
</linearGradient>
</defs>
</svg>
