<svg width="1006" height="232" viewBox="0 0 1006 232" fill="none" xmlns="http://www.w3.org/2000/svg">
<g filter="url(#filter0_d)">
<path d="M273.572 63.6823L272.714 54.0579L280.493 57.8535L289.057 52.1689L287.229 63.4737L294.794 73.2526L283.697 71.055L280.558 85.4225L276.394 71.2995L267.029 69.6514L273.572 63.6823Z" fill="url(#paint0_linear)"/>
<path d="M274.781 64.1916C274.781 64.1916 274.708 60.0757 273.947 55.9786C273.947 55.9786 276.793 57.6318 281.034 59.6338C281.034 59.6338 284.318 56.4491 287.448 54.1336C287.448 54.1336 285.851 61.249 285.048 64.3033L287.229 63.4737C287.229 63.4737 289.65 54.1286 290.547 49.981C290.547 49.981 285.185 53.2436 280.455 56.4581C280.455 56.4581 277.754 55.4056 271.494 51.5096C271.494 51.5096 272.281 59.2267 272.511 63.0959C272.511 63.0959 267.126 66.9538 263.874 70.7219C263.874 70.7219 270.504 71.5426 276.399 71.2978L276.497 69.0098C276.497 69.0098 272.256 69.2111 268.615 68.9114C268.61 68.9131 272.438 65.8331 274.781 64.1916Z" fill="#2F214F"/>
<path d="M274.173 69.2798C274.173 69.2798 277.691 80.9612 282.025 88.4798C282.025 88.4798 284.544 75.9203 284.998 72.651C284.998 72.651 288.752 73.8766 299.601 75.8746C299.601 75.8746 289.909 65.4415 287.188 62.8276L285.048 64.3033C285.048 64.3033 290.657 69.7209 292.793 71.6431C292.793 71.6431 286.199 70.7102 283.145 69.9076C283.145 69.9076 281.24 77.6919 280.883 80.8765C280.883 80.8765 277.731 72.8781 276.488 69.0186L274.173 69.2798Z" fill="#2F214F"/>
</g>
<g filter="url(#filter1_d)">
<path d="M356.159 92.0413L360.045 87.1498L361.998 92.394L368.544 93.5467L362.65 98.0287L361.837 105.981L357.617 100.007L349.745 105.34L354.087 96.8674L350.434 91.9225L356.159 92.0413Z" fill="#FDFCF9"/>
</g>
<g filter="url(#filter2_d)">
<path d="M12.8532 118.166L11.871 114.441L15.1823 115.412L18.1671 112.604L18.2064 117.169L21.8346 120.505L17.3263 120.385L17.0558 126.242L14.4726 120.971L10.6818 120.951L12.8532 118.166Z" fill="#FDFCF9"/>
</g>
<g opacity="0.2" filter="url(#filter3_d)">
<path d="M71.4688 56.1577L73.8311 51.1465L76.5814 55.2772L82.4657 54.944L78.2876 60.009L79.1994 67.0387L74.3444 62.738L68.6309 68.9392L70.6595 60.7443L66.5024 57.217L71.4688 56.1577Z" fill="#FDFCF9"/>
</g>
<g opacity="0.4" filter="url(#filter4_d)">
<path d="M324.745 57.4533L324.208 54.6955L326.572 55.5603L328.878 53.6597L328.688 56.9839L331.169 59.5855L327.894 59.2823L327.416 63.5316L325.789 59.5718L323.031 59.3756L324.745 57.4533Z" fill="#FDFCF9"/>
</g>
<g filter="url(#filter5_d)">
<path d="M479.863 200.149L480.267 193.692L485.032 196.99L491.274 194.094L488.922 201.391L492.94 208.627L485.818 206.051L482.289 215.243L480.96 205.475L474.929 203.438L479.863 200.149Z" fill="url(#paint1_linear)"/>
<path d="M480.611 200.608C480.611 200.608 480.979 197.877 480.889 195.088C480.889 195.088 482.606 196.47 485.21 198.223C485.21 198.223 487.706 196.448 490.011 195.231C490.011 195.231 488.235 199.779 487.395 201.719L488.922 201.391C488.922 201.391 491.468 195.451 492.481 192.796C492.481 192.796 488.603 194.414 485.148 196.063C485.148 196.063 483.467 195.094 479.717 191.882C479.717 191.882 479.458 197.069 479.22 199.653C479.22 199.653 475.266 201.663 472.733 203.828C472.733 203.828 477.037 205.041 480.964 205.475L481.26 203.97C481.26 203.97 478.433 203.675 476.053 203.109C476.05 203.109 478.895 201.458 480.611 200.608Z" fill="#2F214F"/>
<path d="M479.694 203.914C479.694 203.914 480.843 212.001 482.951 217.414C482.951 217.414 485.887 209.357 486.518 207.239C486.518 207.239 488.879 208.43 495.857 210.848C495.857 210.848 490.497 202.964 488.96 200.959L487.395 201.719C487.395 201.719 490.559 205.872 491.779 207.36C491.779 207.36 487.509 206.076 485.569 205.236C485.569 205.236 483.521 210.195 482.963 212.267C482.963 212.267 481.686 206.655 481.253 203.975L479.694 203.914Z" fill="#2F214F"/>
</g>
<g filter="url(#filter6_d)">
<path d="M974.713 15.561L980.664 8.71523L983.161 16.4471L992.581 18.5388L983.745 24.6619L982.056 36.1441L976.318 27.2084L964.558 34.439L971.398 22.4282L966.417 15.0216L974.713 15.561Z" fill="url(#paint2_linear)"/>
<path d="M975.156 16.7099C975.156 16.7099 977.892 13.9816 980.168 10.7997C980.168 10.7997 980.903 13.8007 982.309 17.972C982.309 17.972 986.601 18.1202 990.205 18.7295C990.205 18.7295 984.353 22.2815 981.764 23.7271L983.745 24.6619C983.745 24.6619 991.641 20.2153 995.031 18.1222C995.031 18.1222 989.334 16.6198 984.08 15.5133C984.08 15.5133 983.034 13.0015 981.593 6.23072C981.593 6.23072 976.886 11.7869 974.419 14.4618C974.419 14.4618 968.305 13.3313 963.639 13.5849C963.639 13.5849 967.4 18.6026 971.403 22.4307L973.014 21.0075C973.014 21.0075 970.117 18.2703 967.95 15.6125C967.945 15.61 972.521 16.1944 975.156 16.7099Z" fill="#2F214F"/>
<path d="M971.319 19.6111C971.319 19.6111 965.709 29.5955 963.445 37.4213C963.445 37.4213 973.579 30.9485 976.086 29.1276C976.086 29.1276 977.701 32.4644 983.412 41.1024C983.412 41.1024 984.159 27.7552 984.156 24.2137L981.764 23.7271C981.764 23.7271 981.751 31.0471 981.842 33.7433C981.842 33.7433 978.181 28.6764 976.735 26.0882C976.735 26.0882 970.23 29.8672 967.844 31.6989C967.844 31.6989 971.201 24.3603 973.003 21.0071L971.319 19.6111Z" fill="#2F214F"/>
</g>
<g filter="url(#filter7_d)">
<path d="M902.996 165.32L906.882 160.428L908.835 165.673L915.381 166.825L909.487 171.307L908.674 179.26L904.454 173.286L896.582 178.619L900.924 170.146L897.271 165.201L902.996 165.32Z" fill="#FDFCF9"/>
</g>
<g filter="url(#filter8_d)">
<path d="M860.292 95.9923L859.793 92.5009L862.702 93.734L865.714 91.4964L865.266 95.6522L868.212 99.0702L864.125 98.4838L863.259 103.781L861.468 98.7141L858.023 98.2945L860.292 95.9923Z" fill="#FDFCF9"/>
</g>
<g opacity="0.4" filter="url(#filter9_d)">
<path d="M765.459 59.7158L764.923 56.958L767.286 57.8228L769.593 55.9222L769.403 59.2464L771.883 61.848L768.608 61.5448L768.131 65.7941L766.503 61.8343L763.746 61.6381L765.459 59.7158Z" fill="#FDFCF9"/>
</g>
<defs>
<filter id="filter0_d" x="249" y="39.6098" width="62.6273" height="66.4913" filterUnits="userSpaceOnUse" color-interpolation-filters="sRGB">
<feFlood flood-opacity="0" result="BackgroundImageFix"/>
<feColorMatrix in="SourceAlpha" type="matrix" values="0 0 0 0 0 0 0 0 0 0 0 0 0 0 0 0 0 0 127 0"/>
<feOffset dy="4"/>
<feGaussianBlur stdDeviation="5"/>
<feColorMatrix type="matrix" values="0 0 0 0 0 0 0 0 0 0 0 0 0 0 0 0 0 0 0.45 0"/>
<feBlend mode="normal" in2="BackgroundImageFix" result="effect1_dropShadow"/>
<feBlend mode="normal" in="SourceGraphic" in2="effect1_dropShadow" result="shape"/>
</filter>
<filter id="filter1_d" x="332.163" y="75.7213" width="49.6984" height="51.495" filterUnits="userSpaceOnUse" color-interpolation-filters="sRGB">
<feFlood flood-opacity="0" result="BackgroundImageFix"/>
<feColorMatrix in="SourceAlpha" type="matrix" values="0 0 0 0 0 0 0 0 0 0 0 0 0 0 0 0 0 0 127 0"/>
<feOffset dy="4"/>
<feGaussianBlur stdDeviation="5"/>
<feColorMatrix type="matrix" values="0 0 0 0 0 0 0 0 0 0 0 0 0 0 0 0 0 0 0.45 0"/>
<feBlend mode="normal" in2="BackgroundImageFix" result="effect1_dropShadow"/>
<feBlend mode="normal" in="SourceGraphic" in2="effect1_dropShadow" result="shape"/>
</filter>
<filter id="filter2_d" x="-3.42114" y="103.97" width="38.5408" height="39.5561" filterUnits="userSpaceOnUse" color-interpolation-filters="sRGB">
<feFlood flood-opacity="0" result="BackgroundImageFix"/>
<feColorMatrix in="SourceAlpha" type="matrix" values="0 0 0 0 0 0 0 0 0 0 0 0 0 0 0 0 0 0 127 0"/>
<feOffset dy="4"/>
<feGaussianBlur stdDeviation="5"/>
<feColorMatrix type="matrix" values="0 0 0 0 0 0 0 0 0 0 0 0 0 0 0 0 0 0 0.45 0"/>
<feBlend mode="normal" in2="BackgroundImageFix" result="effect1_dropShadow"/>
<feBlend mode="normal" in="SourceGraphic" in2="effect1_dropShadow" result="shape"/>
</filter>
<filter id="filter3_d" x="51.832" y="41.896" width="42.9503" height="45.5476" filterUnits="userSpaceOnUse" color-interpolation-filters="sRGB">
<feFlood flood-opacity="0" result="BackgroundImageFix"/>
<feColorMatrix in="SourceAlpha" type="matrix" values="0 0 0 0 0 0 0 0 0 0 0 0 0 0 0 0 0 0 127 0"/>
<feOffset dy="4"/>
<feGaussianBlur stdDeviation="5"/>
<feColorMatrix type="matrix" values="0 0 0 0 0 0 0 0 0 0 0 0 0 0 0 0 0 0 0.45 0"/>
<feBlend mode="normal" in2="BackgroundImageFix" result="effect1_dropShadow"/>
<feBlend mode="normal" in="SourceGraphic" in2="effect1_dropShadow" result="shape"/>
</filter>
<filter id="filter4_d" x="310.286" y="45.7375" width="33.1274" height="34.02" filterUnits="userSpaceOnUse" color-interpolation-filters="sRGB">
<feFlood flood-opacity="0" result="BackgroundImageFix"/>
<feColorMatrix in="SourceAlpha" type="matrix" values="0 0 0 0 0 0 0 0 0 0 0 0 0 0 0 0 0 0 127 0"/>
<feOffset dy="4"/>
<feGaussianBlur stdDeviation="5"/>
<feColorMatrix type="matrix" values="0 0 0 0 0 0 0 0 0 0 0 0 0 0 0 0 0 0 0.45 0"/>
<feBlend mode="normal" in2="BackgroundImageFix" result="effect1_dropShadow"/>
<feBlend mode="normal" in="SourceGraphic" in2="effect1_dropShadow" result="shape"/>
</filter>
<filter id="filter5_d" x="461.044" y="183.838" width="45.5154" height="48.8316" filterUnits="userSpaceOnUse" color-interpolation-filters="sRGB">
<feFlood flood-opacity="0" result="BackgroundImageFix"/>
<feColorMatrix in="SourceAlpha" type="matrix" values="0 0 0 0 0 0 0 0 0 0 0 0 0 0 0 0 0 0 127 0"/>
<feOffset dy="4"/>
<feGaussianBlur stdDeviation="5"/>
<feColorMatrix type="matrix" values="0 0 0 0 0 0 0 0 0 0 0 0 0 0 0 0 0 0 0.45 0"/>
<feBlend mode="normal" in2="BackgroundImageFix" result="effect1_dropShadow"/>
<feBlend mode="normal" in="SourceGraphic" in2="effect1_dropShadow" result="shape"/>
</filter>
<filter id="filter6_d" x="943.641" y="-5.61224" width="63.9256" height="66.201" filterUnits="userSpaceOnUse" color-interpolation-filters="sRGB">
<feFlood flood-opacity="0" result="BackgroundImageFix"/>
<feColorMatrix in="SourceAlpha" type="matrix" values="0 0 0 0 0 0 0 0 0 0 0 0 0 0 0 0 0 0 127 0"/>
<feOffset dy="4"/>
<feGaussianBlur stdDeviation="5"/>
<feColorMatrix type="matrix" values="0 0 0 0 0 0 0 0 0 0 0 0 0 0 0 0 0 0 0.45 0"/>
<feBlend mode="normal" in2="BackgroundImageFix" result="effect1_dropShadow"/>
<feBlend mode="normal" in="SourceGraphic" in2="effect1_dropShadow" result="shape"/>
</filter>
<filter id="filter7_d" x="879" y="149" width="49.6984" height="51.495" filterUnits="userSpaceOnUse" color-interpolation-filters="sRGB">
<feFlood flood-opacity="0" result="BackgroundImageFix"/>
<feColorMatrix in="SourceAlpha" type="matrix" values="0 0 0 0 0 0 0 0 0 0 0 0 0 0 0 0 0 0 127 0"/>
<feOffset dy="4"/>
<feGaussianBlur stdDeviation="5"/>
<feColorMatrix type="matrix" values="0 0 0 0 0 0 0 0 0 0 0 0 0 0 0 0 0 0 0.45 0"/>
<feBlend mode="normal" in2="BackgroundImageFix" result="effect1_dropShadow"/>
<feBlend mode="normal" in="SourceGraphic" in2="effect1_dropShadow" result="shape"/>
</filter>
<filter id="filter8_d" x="844.823" y="83.0894" width="36.053" height="37.3162" filterUnits="userSpaceOnUse" color-interpolation-filters="sRGB">
<feFlood flood-opacity="0" result="BackgroundImageFix"/>
<feColorMatrix in="SourceAlpha" type="matrix" values="0 0 0 0 0 0 0 0 0 0 0 0 0 0 0 0 0 0 127 0"/>
<feOffset dy="4"/>
<feGaussianBlur stdDeviation="5"/>
<feColorMatrix type="matrix" values="0 0 0 0 0 0 0 0 0 0 0 0 0 0 0 0 0 0 0.45 0"/>
<feBlend mode="normal" in2="BackgroundImageFix" result="effect1_dropShadow"/>
<feBlend mode="normal" in="SourceGraphic" in2="effect1_dropShadow" result="shape"/>
</filter>
<filter id="filter9_d" x="751" y="48" width="33.1274" height="34.02" filterUnits="userSpaceOnUse" color-interpolation-filters="sRGB">
<feFlood flood-opacity="0" result="BackgroundImageFix"/>
<feColorMatrix in="SourceAlpha" type="matrix" values="0 0 0 0 0 0 0 0 0 0 0 0 0 0 0 0 0 0 127 0"/>
<feOffset dy="4"/>
<feGaussianBlur stdDeviation="5"/>
<feColorMatrix type="matrix" values="0 0 0 0 0 0 0 0 0 0 0 0 0 0 0 0 0 0 0.45 0"/>
<feBlend mode="normal" in2="BackgroundImageFix" result="effect1_dropShadow"/>
<feBlend mode="normal" in="SourceGraphic" in2="effect1_dropShadow" result="shape"/>
</filter>
<linearGradient id="paint0_linear" x1="289.707" y1="77.6416" x2="265.275" y2="62.62" gradientUnits="userSpaceOnUse">
<stop stop-color="#FFB700"/>
<stop offset="1" stop-color="#773FDE"/>
</linearGradient>
<linearGradient id="paint1_linear" x1="489.13" y1="211.018" x2="474.478" y2="198.607" gradientUnits="userSpaceOnUse">
<stop stop-color="#FFB700"/>
<stop offset="1" stop-color="#773FDE"/>
</linearGradient>
<linearGradient id="paint2_linear" x1="975.776" y1="35.5612" x2="970.03" y2="9.25742" gradientUnits="userSpaceOnUse">
<stop stop-color="#FFB700"/>
<stop offset="1" stop-color="#773FDE"/>
</linearGradient>
</defs>
</svg>
