<svg version="1.1" id="Layer_1" xmlns="http://www.w3.org/2000/svg" xmlns:xlink="http://www.w3.org/1999/xlink" x="0px" y="0px"
	 viewBox="0 0 42.5 35.5" style="enable-background:new 0 0 42.5 35.5;" xml:space="preserve">
<style type="text/css">
	.st0{fill:#FCB400;}
	.st1{fill:#18BFFF;}
	.st2{fill:#F82B60;}
</style>
<g>
	<path class="st0" d="M19,0.4L3.1,7c-0.9,0.4-0.9,1.6,0,2L19,15.3c1.4,0.6,3,0.6,4.3,0L39.3,9c0.9-0.4,0.9-1.6,0-2L23.5,0.4
		C22-0.1,20.4-0.1,19,0.4"/>
	<path class="st1" d="M22.6,18.7v15.7c0,0.7,0.8,1.3,1.5,1l17.7-6.9c0.4-0.2,0.7-0.6,0.7-1V11.8c0-0.7-0.8-1.3-1.5-1l-17.7,6.9
		C22.9,17.9,22.6,18.3,22.6,18.7"/>
	<path class="st2" d="M18.5,19.5l-5.3,2.5l-0.5,0.3L1.6,27.6C0.9,28,0,27.5,0,26.7V11.9c0-0.3,0.1-0.5,0.3-0.7
		C0.4,11.1,0.5,11,0.6,11c0.3-0.2,0.6-0.2,1-0.1l16.8,6.7C19.3,17.9,19.3,19.1,18.5,19.5"/>
	<path d="M18.5,19.5l-5.3,2.5L0.3,11.2C0.4,11.1,0.5,11,0.6,11c0.3-0.2,0.6-0.2,1-0.1l16.8,6.7C19.3,17.9,19.3,19.1,18.5,19.5"/>
</g>
</svg>
