<svg version="1.1" id="Layer_1" xmlns="http://www.w3.org/2000/svg" xmlns:xlink="http://www.w3.org/1999/xlink" x="0px" y="0px"
	 viewBox="0 0 47.3 47.3" style="enable-background:new 0 0 47.3 47.3;" xml:space="preserve">
<g>
	<path d="M23.6,0C10.6,0,0,10.6,0,23.6s10.6,23.6,23.6,23.6s23.6-10.6,23.6-23.6S36.7,0,23.6,0z M39.8,34.6
		c-3.7,5.4-9.7,8.6-16.2,8.6c-6.5,0-12.5-3.2-16.2-8.6l16.2-15.8L39.8,34.6z M43.2,23.6c0,2.5-0.5,5-1.4,7.3L25.6,15.3
		c-1.1-1.1-2.9-1.1-4,0L5.5,31c-1-2.4-1.5-4.9-1.5-7.4C4,12.8,12.8,4,23.6,4S43.2,12.8,43.2,23.6z"/>
</g>
</svg>
