<svg id="e3a2a2a5-18b4-4c3a-98b5-3b1ac43a2f14" data-name="Capa 1" xmlns="http://www.w3.org/2000/svg" viewBox="0 0 874.4 211.76"><title>arengu-2</title><path d="M648.56,6.62c2.63.46,5.29.72,7.9,1.34a47,47,0,0,1,27.61,18.28c.24.32.5.62.76.92,0,0,.14,0,.33.06q.52-3.91,1-7.8c.41-3.09.83-6.18,1.21-9.27.1-.81.58-.93,1.25-.93,3,0,5.92,0,8.88,0,3.92,0,7.84,0,11.76,0,1,0,1.51.32,1.41,1.37,0,.28,0,.56,0,.84q0,72.3,0,144.6c0,9.32-1.13,18.52-4.56,27.29q-9.66,24.75-35.19,32.17a76.82,76.82,0,0,1-25.52,2.79A103.54,103.54,0,0,1,604.75,208c-1.53-.75-1.52-.76-1-2.43l6.06-18.21c.48-1.43.48-1.42,1.8-.78a87.32,87.32,0,0,0,28.7,8.15,57.64,57.64,0,0,0,19.31-.74c10.28-2.33,16.95-8.69,20.58-18.43a50.82,50.82,0,0,0,2.89-14.89c.33-5.64.1-11.27.19-16.91,0-.32,0-.63,0-.95-.47-.1-.56.3-.74.52-8.6,10.33-19.65,16-33,17.4a63.31,63.31,0,0,1-24.69-2.06,49.43,49.43,0,0,1-25-16.84c-8.16-10-12.62-21.68-14.76-34.32a129.77,129.77,0,0,1-1.37-25.71,113.37,113.37,0,0,1,5.49-33.12,73.85,73.85,0,0,1,13.16-24.07A48.86,48.86,0,0,1,634.32,7l3-.43Zm34.76,76.83c0-10-.12-19.92.07-29.87a13.09,13.09,0,0,0-2.63-8.42C676.34,39.08,671,34.1,664,31.31a39.36,39.36,0,0,0-18.38-2.36A30.58,30.58,0,0,0,627,37c-4.67,4.34-7.69,9.77-10.09,15.58-3.84,9.29-5.36,19.06-5.72,29a113.76,113.76,0,0,0,.67,19.87c1.14,8.09,3.44,15.76,7.89,22.7A30.12,30.12,0,0,0,636.5,137a45,45,0,0,0,18.75,1.47A32,32,0,0,0,667,134.94c7.06-3.82,12.06-9.62,15.9-16.54a4.3,4.3,0,0,0,.43-2.2Q683.32,99.82,683.32,83.45Z" transform="translate(-12.8 -6.62)" style="fill:#20c997"/><path d="M505,6.62c2.83.47,5.7.71,8.51,1.36,15.71,3.64,26.53,12.83,31.94,28.15a74.3,74.3,0,0,1,3.78,19.12c.4,5.07.4,10.14.4,15.22q0,32.22,0,64.43c0,2,0,1.94,1.88,2.26,6.46,1.11,12.92,2.24,19.38,3.33.86.14,1.12.56,1.12,1.37q0,7.62,0,15.24c0,.89-.36,1.25-1.21,1.2-.28,0-.56,0-.84,0H502c-.24,0-.48,0-.72,0-1.08.1-1.5-.35-1.49-1.45,0-3.2,0-6.4,0-9.6,0-1.76,0-3.52,0-5.28,0-.91.29-1.34,1.26-1.5,6.59-1.08,13.16-2.24,19.74-3.35,1-.16,1.55-.38,1.55-1.6,0-24.44,0-48.88-.08-73.31a52.35,52.35,0,0,0-2.39-15.83c-2.61-8.17-8-13.58-16.23-15.9-9.42-2.65-18.84-2.56-28,1.19C467.26,35.07,461,41,456.5,48.79a3.52,3.52,0,0,0-.43,1.84q0,42.42,0,84.83c0,1.17.51,1.49,1.52,1.66,6.5,1.09,13,2.26,19.5,3.32,1.09.18,1.38.63,1.37,1.65,0,4.8,0,9.6,0,14.4,0,1.75-.05,1.8-1.83,1.8H407.83c-1.55,0-1.65-.1-1.65-1.62,0-4.84,0-9.68,0-14.52,0-1.07.3-1.53,1.43-1.72,6.51-1.06,13-2.24,19.5-3.31,1.21-.2,1.61-.64,1.6-1.92q-.06-51.24,0-102.47c0-2,0-1.95-2-2.29-6.38-1.09-12.76-2.22-19.15-3.27a1.39,1.39,0,0,1-1.38-1.65q.05-7.44,0-14.88c0-1.1.38-1.44,1.47-1.44q22.08,0,44.16,0c1,0,1.38.33,1.46,1.36.53,6.65,1.12,13.29,1.7,19.94,0,.07.07.13.14.25,1.29-1.73,2.5-3.5,3.85-5.15,7.75-9.51,17.47-15.84,29.63-18.17,1.72-.33,3.46-.55,5.19-.82Z" transform="translate(-12.8 -6.62)" style="fill:#20c997"/><path d="M81.92,6.62c2.33.31,4.67.54,7,.93a56.94,56.94,0,0,1,26.36,11.09c8.55,6.68,13.57,15.46,15.65,26A65.33,65.33,0,0,1,132,57.18q.06,37.07,0,74.14a56.58,56.58,0,0,0,.22,6.71c.11.91.48,1.2,1.34,1.31,2.85.35,5.7.81,8.55,1.15.91.11,1.22.5,1.22,1.39,0,5,0,10.08,0,15.12,0,1-.42,1.3-1.36,1.3q-16.5,0-33,0c-1.16,0-1.5-.54-1.69-1.53a132.43,132.43,0,0,1-2.47-17.67c0-.23,0-.49-.34-.7-1,1.07-1.91,2.18-2.92,3.24-9.38,9.83-20.36,16.83-34,19a60.79,60.79,0,0,1-15.42.15,55.78,55.78,0,0,1-14.81-3.3C24.25,152.36,16.52,142.75,13.73,129c-.39-1.91-.62-3.86-.93-5.79q0-5.28,0-10.56c.07-.35.17-.69.22-1A35.89,35.89,0,0,1,23.52,90.07C29.93,83.78,37.75,80,46.23,77.38c10.08-3.07,20.47-3.89,30.92-4,8.68-.1,17.36,0,26,0,.81,0,1.51,0,1.49-1.15-.13-6.35.21-12.71-.2-19.07-.77-11.73-8.16-20.69-19.6-23.69-7.78-2-15.61-1.73-23.42-.28a38.08,38.08,0,0,0-16.79,7.27,4.45,4.45,0,0,0-1.82,2.94c-.71,4.26-1.59,8.49-2.3,12.74-.18,1.08-.64,1.35-1.65,1.35-6,0-12.08,0-18.12,0-1.7,0-1.72,0-1.72-1.76,0-8.52,0-17,0-25.56a3,3,0,0,1,1.34-2.7c11.89-8.76,25.27-13.77,39.8-15.9,2.52-.37,5.06-.62,7.6-.92ZM87.44,92c-4.12,0-8.24,0-12.36,0a50.7,50.7,0,0,0-11.77,1.27,32.56,32.56,0,0,0-17.52,10c-5.14,5.77-6.71,12.5-5.29,20a16.46,16.46,0,0,0,10.62,12.79,29.41,29.41,0,0,0,9.35,2c10.84.68,21-1.57,30.21-7.48a40.79,40.79,0,0,0,13-12.68,5.86,5.86,0,0,0,1-3.26c0-7,0-14,0-21,0-1.57,0-1.59-1.62-1.59Z" transform="translate(-12.8 -6.62)" style="fill:#20c997"/><path d="M334.88,6.62c2.72.43,5.46.63,8.18,1.13,11.45,2.12,21.53,6.86,29.49,15.55a60.58,60.58,0,0,1,13.77,25.78,85.23,85.23,0,0,1,2.87,22.41c0,5.64,0,11.28,0,16.92,0,1.76,0,1.77-1.82,1.77H295c-.4,0-.8,0-1.2,0-1.06-.09-1.39.42-1.38,1.43a68.63,68.63,0,0,0,1.77,14.61,50.36,50.36,0,0,0,10.52,21.57A31.87,31.87,0,0,0,326,139.22a64.74,64.74,0,0,0,32.89-4.46,53.39,53.39,0,0,0,14.6-9.09c.72-.63,1-.57,1.52.23q4.72,7.94,9.52,15.83c.52.85.29,1.34-.37,1.93a65.91,65.91,0,0,1-16.51,10.57,73.55,73.55,0,0,1-24.35,6.41c-12,1.15-23.8.67-35.3-3.29A59.52,59.52,0,0,1,280.3,137.4c-8.32-10.53-12.89-22.61-14.85-35.8-1.33-9-1.19-18-.82-26.93A73.49,73.49,0,0,1,275,39.1c7.91-13.07,18.47-23.24,32.9-28.94A51.25,51.25,0,0,1,322.07,6.8a6,6,0,0,0,.81-.19Zm-7.32,62.12h32.88c.76,0,1.52.15,1.53-1.08,0-6.27-.49-12.46-2.69-18.4-2-5.52-5-10.5-9.56-14.3-7.51-6.25-16.39-7.62-25.74-6.54-7.89.91-14,5.2-19,11.17-6.68,8-10.07,17.34-11.58,27.49-.22,1.47,0,1.66,1.49,1.67Z" transform="translate(-12.8 -6.62)" style="fill:#20c997"/><path d="M253.28,6.62c2,.42,4,.59,6,1,1.08.25,1.33.78,1.18,1.78q-1.66,11.39-3.27,22.78c-.13.93-.45,1.18-1.38,1.12-4.51-.29-9-.61-13.52-.72-12.63-.32-22.24,4.82-28.49,16a12.28,12.28,0,0,0-1.56,6.27q.09,40.07,0,80.15c0,1.82,0,1.81,1.75,2.11,6.54,1.12,13.07,2.26,19.62,3.36.83.14,1.17.5,1.16,1.33q0,7.62,0,15.24c0,.86-.34,1.27-1.2,1.24-.32,0-.64,0-1,0H164.75c-.28,0-.56,0-.84,0-1,.08-1.36-.37-1.34-1.34,0-2.64,0-5.28,0-7.92,0-2.36,0-4.72,0-7.08,0-.92.3-1.33,1.27-1.49,6.51-1.08,13-2.22,19.5-3.34,1.74-.3,1.74-.31,1.74-2q0-51.29,0-102.59c0-1.73,0-1.75-1.7-2l-18.91-3.22c-1.88-.32-1.89-.31-1.89-2.18,0-4.76,0-9.52,0-14.28,0-1.15.28-1.62,1.54-1.62q22,.06,43.91,0c1.08,0,1.53.31,1.66,1.46.68,6.15,1.44,12.3,2.18,18.45a1.37,1.37,0,0,0,.41,1,65.73,65.73,0,0,1,3.85-5.92c5.1-6.83,11.26-12.32,19.34-15.4a35.42,35.42,0,0,1,8-2c.31,0,.62-.13.93-.2Z" transform="translate(-12.8 -6.62)" style="fill:#20c997"/><path d="M843.82,136.8a64.58,64.58,0,0,1-4.52,6.41A47,47,0,0,1,807,160.77a59,59,0,0,1-24.3-2.17,42.61,42.61,0,0,1-25.12-20.12c-4.21-7.37-6.32-15.43-7.51-23.76a141.71,141.71,0,0,1-1.19-20.33q0-30.9,0-61.79c0-1.81,0-1.82-1.82-2.23-4.6-1-9.2-2.1-13.81-3.09a1.51,1.51,0,0,1-1.44-1.76q.08-7.38,0-14.76c0-1.23.42-1.56,1.6-1.56q20.58.05,41.16,0c1.69,0,1.7,0,1.7,1.78q0,42.54,0,85.07A102,102,0,0,0,778,117.3c.9,4.25,2.14,8.39,4.72,12a21.73,21.73,0,0,0,14.7,8.89c10,1.6,19.81.77,29-3.82a34.89,34.89,0,0,0,16.24-17.2,3.77,3.77,0,0,0,.27-1.64q0-41.64,0-83.27c0-1.1-.35-1.54-1.42-1.74-5.62-1-11.23-2.14-16.84-3.21C823,27,823,27,823,25.29q0-7.2,0-14.4c0-1.66,0-1.67,1.67-1.67h43.8c1.86,0,1.86,0,1.86,1.85q0,41,0,82.07c0,14,0,28,0,42,0,1.28.35,1.82,1.63,2.09,4.58,1,9.12,2.06,13.7,3,1.13.24,1.58.66,1.57,1.89-.07,4.88-.06,9.76,0,14.64,0,1.18-.41,1.51-1.53,1.5q-19.26,0-38.52,0c-1.22,0-1.53-.47-1.61-1.62-.44-6.18-1-12.35-1.47-18.52C844,137.81,843.94,137.46,843.82,136.8Z" transform="translate(-12.8 -6.62)" style="fill:#20c997"/></svg>