<svg xmlns="http://www.w3.org/2000/svg" width="149" height="150" xmlns:v="https://vecta.io/nano"><path d="M105.95 0C129.727 0 149 19.273 149 43.05v.235c0 20.28-13.343 26.983-13.343 31.716S149 86.435 149 106.716v.235c0 23.775-19.273 43.05-43.05 43.05H28.204C12.627 150 0 137.373 0 121.796V28.204C0 12.627 12.627 0 28.204 0h77.747zm1.367 30.804H37.29c-3.697 0-6.693 2.997-6.693 6.693h0v75.006c0 3.697 2.997 6.693 6.693 6.693h70.027c3.697 0 6.693-2.997 6.693-6.693h0V37.497c0-3.697-2.997-6.693-6.693-6.693h0zM83.12 89.732a4.02 4.02 0 0 1 4.018 4.018 4.02 4.02 0 0 1-4.018 4.018H62.554a4.02 4.02 0 0 1-4.018-4.018 4.02 4.02 0 0 1 4.018-4.018H83.12zm10.842-18.75A4.02 4.02 0 0 1 97.981 75a4.02 4.02 0 0 1-4.018 4.018H50.58A4.02 4.02 0 0 1 46.563 75a4.02 4.02 0 0 1 4.018-4.018h43.383zm0-18.75a4.02 4.02 0 0 1 4.018 4.018 4.02 4.02 0 0 1-4.018 4.018H50.58a4.02 4.02 0 0 1-4.018-4.018 4.02 4.02 0 0 1 4.018-4.018h43.383z" fill="#20c98b" fill-rule="evenodd"/></svg>