<svg xmlns:sketch="http://www.bohemiancoding.com/sketch/ns" 
    xmlns="http://www.w3.org/2000/svg" version="1.1" 
    xmlns:xlink="http://www.w3.org/1999/xlink" viewBox="0 0 581 180">    <!-- Generator: Sketch 3.4.2 (15855) - http://www.bohemiancoding.com/sketch -->

    <defs>
        <path id="path-1" d="m0 0.78562h580.24v179.21h-580.24"/>
    </defs>
    <g id="Page-1" fill-rule="evenodd" sketch:type="MSPage" fill="none">
        <g id="Desktop-HD-Copy-26" transform="translate(-349 -2646)" sketch:type="MSArtboardGroup">
            <g id="Page-1" transform="translate(349 2646)" sketch:type="MSLayerGroup">
                <mask id="mask-2" sketch:name="Clip 2" fill="white">
                    <use xlink:href="#path-1"/>
                </mask>
                <path id="Fill-1" sketch:type="MSShapeGroup" fill="#000" mask="url(#mask-2)" d="m547.97 59.319c1.94 0 3.12 1.35 3.6 3.167 1.03 3.847-3.99 13.222-21.54 23.992 0.39-12.483 7.94-27.159 17.94-27.159m-53.72 0c2.93 0 3.12 2.884 3.26 3.917 0.74 5.445-4.29 15.092-20.75 20.625 1.76-11.535 9.34-24.542 17.49-24.542m-70.99-45.397c5.56 0 1 18.946-16.68 45.481 4.05-35.165 9.9-45.481 16.68-45.481m-61.03 45.397c1.65 0 2.06 1.309 2.28 2.051 0.71 2.425-1.84 11.976-20.92 25.328 1.09-12.739 8.85-27.379 18.64-27.379m-79.05 107.55c-1.98 0-3.33-1.26-3.33-3.74 0-11.41 17.82-27 18.01-27.05-2.43 15.34-8.65 30.79-14.68 30.79m294.12-75.286c-3.01-1.995-7.07-1.178-9.09 1.821-0.33 0.491-8.27 12.065-22.11 12.065-5.44 0-9.56-1.68-12.24-5-0.18-0.22-0.35-0.46-0.53-0.696 0.07-0.03 0.12-0.064 0.18-0.098 32.53-18.712 32.34-34.61 30.75-40.576-1.91-7.14-8.3-11.753-16.29-11.753-18.59 0-31.08 20.756-31.08 40.14 0 2.464 0.23 4.823 0.62 7.082-6.59 4.873-16.83 10.901-25.82 10.901-5.24 0-9.18-1.55-11.7-4.63-0.9-1.092-1.59-2.315-2.1-3.582 24.91-7.225 34.35-23.125 32.62-35.798-1.13-8.31-7.33-14.113-15.07-14.113-17.33 0-29.86 18.203-31.89 36.263-3.31-0.345-6.32-1.32-8.98-2.963 0.44-2.865 0.66-5.679 0.66-8.353 0-5.886-1.12-11.014-3.25-14.837-2.9-5.229-7.61-8.109-13.26-8.109-3.03 0-5.75 1.668-7.28 4.466-3.22 5.886-1.16 17.31 4.77 26.574 1.15 1.793 2.41 3.448 3.76 4.962-3.24 10.449-9.95 20.28-18.73 20.28-3.94 0-6.89-1.22-9.29-3.83-3.45-3.757-5.66-10.441-6.38-18.892 24.44-30.536 36.31-60.406 29.56-74.552-2.3-4.8108-6.6-7.5708-11.8-7.5708-16.9 0.00005-26.96 21.874-30.76 66.868-0.24 2.753-0.41 6.075-0.38 9.69-9.03 12.222-23.82 28.127-37.18 28.127-3.81 0-6.6-1.29-8.5-3.94-0.17-0.22-0.32-0.46-0.47-0.7 0.15-0.09 0.31-0.18 0.46-0.28 32.79-21.197 32.32-37.059 30.6-42.898-1.88-6.354-7.58-10.305-14.87-10.305-19.08 0-31.9 21.913-31.9 42.381 0 1.852 0.12 3.647 0.34 5.377-6.02 4.333-11.01 8.195-15.8 11.935 0.72-5.6 1.78-12.674 2.97-23.29v-0.004c0.28-2.143 0.52-3.9 0.64-4.762 1.07-7.757-11.65-9.362-13.03-0.705-1.42 8.912-5.26 27.351-15.72 27.351-6.32 0-9.64-7.028-9.03-17.248 0.97-16.073 9.64-29.179 20.39-29.179 3.69 0 5.61 3.947 5.61 3.947 3.39 6.17 13.93 0.962 11.7-5.564-0.99-2.915-4.54-10.154-16.79-10.154-25.17 0-32.95 25.479-34.07 42.296-0.19 2.767-0.13 5.441 0.12 7.985-3.51 4.277-7.69 7.917-11.75 7.917-3.99 0-6.51-4.44-5.02-14.698 1.42-9.782 2.42-17.867 3.09-22.6 3.05-21.397-23.72-20.809-23.72-20.809s-0.29-12.48-10.6-12.48c-5.28 0-9.96 4.101-9.96 11.835 0 7.15 5.86 10.665 5.86 10.665l0.03 0.006c-1.3 11.074-6.5 48.081-18.04 48.081-5.18 0-5.53-5.6-5.08-9.533 0.63-5.465 1.62-14.721 1.95-17.113 1.07-7.757-11.66-9.362-13.03-0.705-1.42 8.912-5.26 27.351-15.72 27.351-6.32 0-9.65-7.95-9.14-17.517 0.87-16.393 9.75-28.91 20.5-28.91 3.69 0 5.61 3.947 5.61 3.947 2.8 6.112 13.87 1.717 11.7-5.564-0.95-3.215-4.54-10.154-16.79-10.154-25.18 0-32.96 25.479-34.07 42.296-0.18 2.602-0.13 5.117 0.08 7.522-3.6 4.89-7.94 8.38-12.03 8.38-3.73 0-6.59-1.92-5.9-10.384 0.32-3.953 4.92-30.975 4.62-35.904-0.51-8.196-4.23-11.809-13.37-11.809-9.61 0-16.87 4.94-19.918 8.096 0 0 4.548-34.099 5.408-40.646 0.91-6.8609-12.281-6.9302-13.142-0.057-0.373 2.98-3.894 29.997-7.157 54.938-7.352 16.286-22.252 41.386-44.31 41.386-41.79 0-22.505-91.09 16.586-91.09 9.162 0 5.07 14.632-1.074 23.555-4.387 6.373 6.668 13.703 12.774 3.398 16.875-28.476 2.654-39.124-10.713-39.124-58.097 0-79.66 115.85-19.142 115.85 19.924 0 33.257-11.2 41.848-23.24-0.9 6.84-1.517 11.5-1.643 12.37-1.025 7.15 12.334 6.56 13.037 0.59 0.448-3.81 2.432-19.797 4.131-31.994 0.971-6.973 9.495-19.804 19.255-19.804 2.31 0 3.81 2.286 3.52 4.245-0.35 2.275-4.5 32.603-4.22 37.123 0.79 12.65 9.83 15.59 18.45 15.59 6.82 0 12.28-3.23 16.87-8.3 3.05 5.1 7.77 8.27 14.13 8.27 14.55 0 19.57-10.48 19.57-10.48s1.74 10.38 14.28 10.38c25.41 0 31.34-44.327 32.6-59.106 1.49 0.058 10.47 0.609 11.95 5.636 1.42 4.819-3.09 20.276-3.46 36.19-0.19 8.38 2.89 17.38 16.16 17.38 8.1 0 14.45-3.72 19.06-7.93 3.05 4.89 7.69 7.93 13.9 7.93 7.16 0 12.01-2.3 15.09-4.63-0.2 1.37-0.4 2.72-0.59 4.08-0.01 0.09-0.02 0.17-0.03 0.26 0.03-0.26-33.51 23.95-33.51 46.83 0 8.92 4.14 14.77 14.71 14.77 21.03 0 27.53-28.06 30.63-51.29 0.15-1.1 0.29-2.14 0.43-3.14 3.29-2.49 6.35-4.88 9.32-7.2 4.37-3.41 8.59-6.7 13.45-10.28 0.24 0.37 0.47 0.75 0.72 1.11 4.43 6.15 11.05 9.4 19.16 9.4 15.22 0 29.3-11.68 39.45-23.101 1.53 5.641 3.97 10.991 7.83 15.181 4.85 5.28 11.4 8.07 18.95 8.07 14.54 0 24.63-11.6 29.85-25.081 3.98 1.847 8.35 2.91 13.01 3.157 1.02 4.744 2.95 8.944 5.75 12.354 3.53 4.29 10.19 9.42 21.84 9.42 11.58 0 23.07-6.19 30.79-11.49 0.38 0.55 0.75 1.09 1.16 1.6 3.64 4.51 10.49 9.89 22.46 9.89 21.04 0 32.59-17.23 33.07-17.97 1.98-3.012 1.14-7.049-1.87-9.046"/>
            </g>
        </g>
    </g>
</svg>