<svg width="220" height="55" viewBox="0 0 220 55" fill="none" xmlns="http://www.w3.org/2000/svg">
<path d="M76.1875 33.1621C72.5625 33.1621 70.5625 30.8496 71.0625 27.5371C71.625 24.1621 74.375 21.9121 77.9375 21.9121C79.8125 21.9121 81.5 22.7871 82.5 24.0996L86 21.2246C84.125 19.0996 81.4375 18.0371 78.5625 18.0371C72.6875 18.0371 67.5625 21.9746 66.6875 27.5371C65.8125 33.1621 69.5625 37.0371 75.5 37.0371C78.5 37.0371 81.5 35.7871 84.125 33.7246L81.625 30.8496C79.8125 32.4746 77.9375 33.1621 76.1875 33.1621ZM99.6875 18.2246C99.6875 18.2246 98.9375 18.0996 98.875 18.0996C98.0625 17.9746 97.1875 18.0371 96.375 18.0996C95.625 18.1621 94.875 18.2871 94.125 18.5371C93.5 18.7246 92.8125 18.9746 92.25 19.3496L92.375 18.4746H88.125L85.25 36.5996H89.5L91.1875 26.0371C91.25 25.4121 91.5 24.8496 91.8125 24.3496C92.125 23.8496 92.5625 23.4121 93.0625 23.0996C93.5625 22.7246 94.0625 22.4746 94.625 22.2871C95.1875 22.0996 95.75 21.9746 96.375 21.9121C97.1875 21.8496 98.0625 21.9121 98.875 22.0996H98.9375C99.0625 22.0996 99.6875 18.2246 99.6875 18.2246ZM114.562 19.5996C113.375 18.5996 111.562 18.0371 109.438 18.0371C104.125 18.0371 99.3125 21.8496 98.375 27.4746C97.5 33.0996 101.188 36.9121 106.312 36.9121C108.625 36.9121 110.562 36.5996 112.188 35.4746L112.062 36.4746H115.938L118.75 18.4746H114.75L114.562 19.5996ZM113.688 27.4746C113.125 30.9121 110.562 33.2871 107.25 33.2871C103.875 33.2871 101.938 30.7871 102.5 27.4121C103.062 24.0371 105.75 21.6621 109.062 21.6621C112.375 21.7246 114.188 24.0371 113.688 27.4746ZM138.375 18.4746L139.188 13.3496L134.312 16.8496L134.062 18.5371H128.562L129.125 15.0996C129.438 13.4746 131.188 13.5371 131.188 13.5371H133.25L133.875 9.78711H131.5H130.938C125.125 9.78711 124.938 14.2871 124.938 14.2871L124.562 16.4121L124.25 18.5371H123.875L119.125 22.2871H123.625L120.75 40.5996H125.125L128 22.2246H133.5L131.25 36.5996H135.562L137.812 22.2246H143.188L143.812 18.4746H138.375ZM149.938 27.5371C150.812 21.9746 155.875 18.0371 161.812 18.0371C164.688 18.0371 167.375 19.1621 169.25 21.2246L165.75 24.0996C164.75 22.7871 163.062 21.9121 161.188 21.9121C157.625 21.9121 154.875 24.2246 154.312 27.5371C153.812 30.8496 155.812 33.1621 159.438 33.1621C161.188 33.1621 163.062 32.4746 164.875 30.8496L167.375 33.7246C164.75 35.8496 161.75 37.0371 158.75 37.0371C152.812 37.0371 149.062 33.1621 149.938 27.5371ZM200.562 25.5996L198.875 36.5996H194.625L196.312 25.9121C196.75 23.4121 195.375 21.9121 192.938 21.9121C190.375 21.9121 187.812 23.4746 187.438 26.0371L185.75 36.5996H181.5L183.188 25.9121C183.562 23.4746 182.125 21.9746 179.812 21.9121C177.438 22.0371 174.688 23.5371 174.312 26.0371L172.625 36.5996H168.375L171.25 18.4746H175.5L175.375 19.3496C176.812 18.4746 178.438 18.0996 180.5 18.0371H180.875C183.5 18.0371 185.625 19.0996 186.75 20.9121C188.5 19.0996 191.188 18.0371 193.875 18.0371C198.5 18.0371 201.312 21.0996 200.562 25.5996ZM200.375 34.4121L203 31.1621C204.438 32.2871 207.188 33.1621 209.5 33.1621C211.625 33.1621 213.75 32.7246 214 31.2871C214.188 30.1621 212.125 29.7871 209.812 29.4121C205 28.5996 202.562 27.5996 203.062 23.9746C203.812 19.4121 208.5 18.0996 212.375 18.0996C215.125 18.0996 218 19.0371 219.938 20.3496L217.312 23.5996C215.812 22.6621 213.875 21.9746 211.688 21.9746C209.125 21.9746 207.625 22.7246 207.438 23.9121C207.312 24.7246 208 25.0371 211 25.5371C215.375 26.2871 219 26.9746 218.312 31.1621C217.75 34.9746 213.875 37.0996 208.812 37.0996C206 37.0371 202.375 36.0371 200.375 34.4121ZM47.8125 0.599609H5.625C2.5 0.599609 0 3.09961 0 6.22461V48.4121C0 51.5371 2.5 54.0371 5.625 54.0371H47.8125C50.875 54.0371 53.4375 51.5371 53.4375 48.4121V6.22461C53.4375 3.09961 50.9375 0.599609 47.8125 0.599609ZM26.625 33.1621C28.375 33.1621 30.25 32.4746 32.0625 30.8496L34.5625 33.7246C31.9375 35.8496 28.9375 37.0371 25.9375 37.0371C20 37.0371 16.25 33.0996 17.125 27.5371C18 21.9746 23.0625 18.0371 29 18.0371C31.875 18.0371 34.5625 19.1621 36.4375 21.2246L32.9375 24.0996C31.9375 22.7871 30.25 21.9121 28.375 21.9121C24.8125 21.9121 22.0625 24.2246 21.5 27.5371C21 30.8496 23 33.1621 26.625 33.1621Z" fill="#E5422B"/>
</svg>
