<svg xmlns="http://www.w3.org/2000/svg" viewBox="0 0 100 100"><ellipse rx="50" ry="50" fill="#3f83f8" transform="translate(50 50)"/><path d="M80.14 19.904a2.264 2.264 0 0 0-.595.123L18.72 41.609A3.221 3.221 0 0 0 16.58 44.3a3.222 3.222 0 0 0 1.48 3.105l14.623 9.304 5.004 18.349a2.138 2.138 0 0 0 2.086 1.597.115.115 0 0 0 .025-.003 2.13 2.13 0 0 0 1.807-1.018c.054-.047.116-.073.16-.132l7.297-9.663 12.656 7.984a3.22 3.22 0 0 0 2.84.303 3.215 3.215 0 0 0 1.98-2.059L82.332 22.72a2.143 2.143 0 0 0-.556-2.21 2.155 2.155 0 0 0-1.635-.604zm-3.912 3.593l-42.93 31.038-14.076-8.956a1.056 1.056 0 0 1-.492-1.036c.047-.42.31-.754.709-.895zm3.214 1.154L66.144 66.208c-.022-.018-.037-.041-.062-.057a1.08 1.08 0 0 0-1.485.37l-1.113 1.855a1.082 1.082 0 0 0 .927 1.638c.204 0 .4-.062.571-.168l-.499 1.562c-.101.32-.345.574-.66.687-.318.117-.662.08-.948-.1L45.823 61.24zm-6.548 3.928l-29.543 32.15c-.01.011-.013.03-.023.043-.059.07-.1.156-.141.242-.024.053-.057.099-.07.153-.005.012-.014.02-.017.033l-3.324 13.293-5.006-18.35zM25.344 42.64a1.083 1.083 0 0 0-1.08.514L23.15 45.01a1.08 1.08 0 0 0 .372 1.484 1.075 1.075 0 0 0 1.484-.371l1.114-1.855a1.083 1.083 0 0 0-.775-1.628zm4.636 2.785c-.43-.06-.856.142-1.08.516l-1.115 1.855a1.081 1.081 0 1 0 1.857 1.112l1.114-1.855a1.083 1.083 0 0 0-.776-1.628zm4.636 2.784a1.08 1.08 0 0 0-1.08.516l-1.113 1.855a1.082 1.082 0 0 0 1.855 1.115l1.112-1.855a1.082 1.082 0 0 0-.774-1.631zm17.152 9.44a1.083 1.083 0 0 0-1.08.516l-1.114 1.854a1.082 1.082 0 0 0 1.855 1.114l1.113-1.855a1.081 1.081 0 0 0-.774-1.629zm-22.594 1.887a1.081 1.081 0 0 0-.805.195l-2.705 1.97a1.081 1.081 0 1 0 .638 1.955c.22 0 .444-.066.637-.204l2.703-1.974a1.081 1.081 0 0 0-.468-1.942zm27.23.898a1.078 1.078 0 0 0-1.08.516l-1.114 1.853a1.084 1.084 0 0 0 .928 1.64c.368 0 .726-.188.927-.526l1.117-1.855a1.082 1.082 0 0 0-.778-1.628zm-11.569 2.737l2.392 1.509-4.142 5.487zm16.204.048a1.084 1.084 0 0 0-1.079.517l-1.113 1.855a1.081 1.081 0 1 0 1.855 1.112l1.113-1.854a1.082 1.082 0 0 0-.776-1.63zm-38.474 1.135a1.084 1.084 0 0 0-.805.195l-5.419 3.95a1.082 1.082 0 0 0 1.275 1.748l5.418-3.95a1.08 1.08 0 0 0-.47-1.943zm8.64 1.788a1.076 1.076 0 0 0-.803.195L14.174 78.166a1.08 1.08 0 0 0-.236 1.51 1.077 1.077 0 0 0 1.51.237l16.227-11.828a1.08 1.08 0 0 0-.47-1.943z" fill="#fff"/></svg>