<svg width="138" height="50" viewBox="0 0 138 50" fill="none" xmlns="http://www.w3.org/2000/svg">
<g id="graphcms">
<g id="Group 2">
<g id="graphcms_logo_square">
<path id="BG" d="M27.696 4.75154L40.603 12.2642C42.5682 13.4081 43.778 15.5159 43.778 17.7963V32.8701C43.778 35.1504 42.5682 37.2582 40.603 38.4021L27.696 45.9148C25.7196 47.0652 23.2808 47.0652 21.3043 45.9148L8.39737 38.4021C6.43212 37.2582 5.22241 35.1504 5.22241 32.8701V17.7963C5.22241 15.5159 6.43212 13.4081 8.39737 12.2642L21.3043 4.75154C23.2808 3.60113 25.7196 3.60113 27.696 4.75154Z" fill="#4A1357"/>
<path id="Path" fill-rule="evenodd" clip-rule="evenodd" d="M42.4443 17.938C42.4443 15.9557 41.3942 14.1234 39.6881 13.129L27.2187 5.86107C25.5029 4.86101 23.3857 4.86101 21.67 5.86107L9.20058 13.129C7.49451 14.1234 6.44434 15.9557 6.44434 17.938V32.5063C6.44434 34.4886 7.49451 36.3209 9.20058 37.3153L21.67 44.5832C23.3857 45.5833 25.5029 45.5833 27.2187 44.5832L39.6881 37.3153C41.3942 36.3209 42.4443 34.4886 42.4443 32.5063V17.938ZM9.84055 14.2389L22.3099 6.97098C23.6298 6.2017 25.2584 6.2017 26.5782 6.97098L39.0476 14.2389C40.3599 15.0038 41.1678 16.4133 41.1678 17.9381V32.5064C41.1678 34.0312 40.3599 35.4407 39.0476 36.2056L26.5782 43.4736C25.2584 44.2428 23.6298 44.2428 22.3099 43.4736L9.84055 36.2056C8.52819 35.4407 7.72036 34.0312 7.72036 32.5064V17.9381C7.72036 16.4133 8.52819 15.0038 9.84055 14.2389Z" fill="white"/>
<g id="Group-Clipped">
<g id="Group Clipped">
<mask id="mask0" mask-type="alpha" maskUnits="userSpaceOnUse" x="8" y="7" width="33" height="34">
<path id="path-4" fill-rule="evenodd" clip-rule="evenodd" d="M8.89941 18.5827C8.89941 17.0546 9.70793 15.6422 11.0215 14.8755L22.3678 8.25264C23.6872 7.48249 25.3152 7.48113 26.6359 8.24907L30.7419 10.6366C30.8066 10.6742 30.8602 10.7282 30.8976 10.7932C31.0153 10.9981 30.9457 11.2602 30.742 11.3787L15.9469 19.9862C15.8153 20.0628 15.7342 20.2042 15.7342 20.3572V23.9097C15.7342 23.9853 15.7143 24.0595 15.6766 24.1249C15.5586 24.3296 15.2979 24.3992 15.0945 24.2804L12.4513 22.7368C12.3864 22.6988 12.3126 22.6788 12.2375 22.6788C12.0023 22.6788 11.8116 22.8707 11.8116 23.1074V32.2428C11.8116 32.3961 11.893 32.5377 12.025 32.6142L15.5208 34.6399C15.6528 34.7164 15.7342 34.858 15.7342 35.0113V37.5139C15.7342 37.5895 15.7143 37.6638 15.6766 37.7292C15.5584 37.9339 15.2977 38.0034 15.0943 37.8845L11.0192 35.5024C9.70693 34.7353 8.89941 33.3236 8.89941 31.7965V18.5827ZM17.6632 39.1419V21.4858C17.6632 21.3325 17.7446 21.1908 17.8767 21.1143L24.2787 17.4065C24.4108 17.33 24.5734 17.3304 24.7052 17.4074L31.1093 21.1534C31.2404 21.2301 31.3211 21.3712 31.3211 21.5239V39.1435C31.3211 39.2966 31.24 39.438 31.1082 39.5146L29.0647 40.7021C28.861 40.8205 28.6005 40.7503 28.4828 40.5453C28.4454 40.4801 28.4258 40.4062 28.4258 40.331V31.6334C28.4258 31.3967 28.2351 31.2048 27.9998 31.2048C27.9246 31.2048 27.8506 31.2249 27.7856 31.263L24.7153 33.061C24.5826 33.1388 24.4186 33.1386 24.2861 33.0606L21.2355 31.2653C21.0325 31.1458 20.7716 31.2145 20.6529 31.4189C20.6147 31.4845 20.5946 31.5592 20.5946 31.6352V40.3355C20.5946 40.5722 20.4039 40.7641 20.1687 40.7641C20.0947 40.7641 20.0219 40.7447 19.9576 40.7078L17.8781 39.5142C17.7453 39.438 17.6632 39.2959 17.6632 39.1419ZM40.0958 18.3525V20.3753C40.0958 20.5273 40.0157 20.668 39.8855 20.7449L36.4015 22.803C36.2712 22.88 36.1912 23.0206 36.1912 23.1726V25.5549C36.1912 25.7916 36.3819 25.9834 36.6171 25.9834C36.6918 25.9834 36.7651 25.9637 36.8298 25.9262L39.4571 24.4021C39.6609 24.2839 39.9214 24.3543 40.0388 24.5593C40.0761 24.6244 40.0958 24.6983 40.0958 24.7734V31.7923C40.0958 33.3205 39.287 34.7332 37.9731 35.4998L33.9227 37.8633C33.7192 37.982 33.4586 37.9123 33.3406 37.7075C33.3029 37.6422 33.2831 37.568 33.2831 37.4925V35.0809C33.2831 34.9278 33.3643 34.7864 33.496 34.7098L36.9687 32.6914C37.1005 32.6148 37.1816 32.4734 37.1816 32.3203V29.8992C37.1816 29.6625 36.9909 29.4706 36.7557 29.4706C36.6807 29.4706 36.607 29.4906 36.5421 29.5284L33.9226 31.0558C33.719 31.1744 33.4584 31.1046 33.3405 30.8998C33.3029 30.8345 33.2831 30.7604 33.2831 30.6849V20.3842C33.2831 20.2315 33.2023 20.0903 33.071 20.0136L27.0458 16.4941C26.8423 16.3752 26.7731 16.1129 26.8912 15.9082C26.9285 15.8437 26.9818 15.79 27.046 15.7526L33.0696 12.2394C33.2017 12.1624 33.3646 12.1624 33.4966 12.2393L38.1451 14.9478C39.3524 15.6512 40.0958 16.9487 40.0958 18.3525Z" fill="white"/>
</mask>
<g mask="url(#mask0)">
<g id="Group">
<g id="Group_2">
<g id="Group_3">
<path id="Polygon-2-Copy" d="M42.2151 14.795V35.8744L24.1134 46.4142L24.0748 25.2841L42.2151 14.795Z" fill="#E6E6E6"/>
<path id="Polygon-2-Copy-2" d="M24.5341 25.1634V43.369L8.91174 34.2729V16.0807L24.5341 25.1634Z" fill="#D2D2D2"/>
<path id="Polygon-2" d="M24.5339 6.98474L40.3596 16.1993L24.5002 25.4138L8.70825 16.1993L24.5339 6.98474Z" fill="white"/>
</g>
</g>
</g>
</g>
</g>
</g>
</g>
<path id="Combined Shape" fill-rule="evenodd" clip-rule="evenodd" d="M121.414 32V21.3267L119.852 27.1479H117.962L116.327 21.3267V32H114.111V18.6666H117.89L118.962 23.7904L120.052 18.6666H123.667V32H121.414ZM108.619 31.9996H108.619C108.939 31.9998 110.686 32.0009 110.778 31.9769V29.8079C110.68 29.8079 110.321 29.8051 109.915 29.8019L109.915 29.8019C109.39 29.7977 108.789 29.793 108.577 29.793C108.315 29.793 108.062 29.7391 107.868 29.6314C107.674 29.5236 107.52 29.305 107.404 28.9754C107.289 28.6458 107.204 28.2207 107.15 27.625C107.095 27.0292 107.098 23.4737 107.159 22.8907C107.219 22.3076 107.31 21.9015 107.432 21.5973C107.553 21.2931 107.73 21.1696 107.895 21.0734C108.061 20.9771 108.311 20.8933 108.577 20.8933C108.745 20.8933 109.242 20.8893 109.726 20.8855L109.726 20.8855C110.186 20.8819 110.634 20.8783 110.778 20.8783V18.6903C110.536 18.675 109.287 18.6777 109.287 18.6777C109.093 18.6587 107.51 18.647 106.977 18.7928C106.444 18.9386 105.995 19.2021 105.631 19.6584C105.268 20.1147 104.995 20.777 104.813 21.6453C104.631 22.5136 104.619 27.7359 104.776 28.6422C104.934 29.5485 105.18 30.2583 105.513 30.7716C105.846 31.285 106.268 31.6367 106.777 31.8269C107.246 32.0021 107.793 32.001 108.416 31.9998L108.577 31.9995L108.619 31.9996ZM50.8889 28.5904C50.8889 29.6158 51.1685 30.3849 51.7276 30.8976C52.2867 31.4103 53.0892 31.6666 54.1353 31.6666H57.1111V25.0076H54.0992V26.3647H55.6142V30.2914H53.9549C53.5101 30.2914 53.1494 30.1587 52.8728 29.8933C52.5963 29.6279 52.458 29.3082 52.458 28.9342V21.7323C52.458 21.3584 52.5963 21.0387 52.8728 20.7733C53.1494 20.5079 53.5101 20.3752 53.9549 20.3752H56.5701V19H54.1353C53.0892 19 52.2867 19.2563 51.7276 19.769C51.1685 20.2817 50.8889 21.0507 50.8889 22.0761V28.5904ZM63.0154 26.4189H64.6223L66.9515 31.6665H68.6668L66.1571 26.1113C67.2404 25.7735 67.7821 24.923 67.7821 23.5598V21.8227C67.7821 20.8455 67.5203 20.1308 66.9966 19.6784C66.473 19.226 65.6997 18.9998 64.6765 18.9998H61.4446V31.6665H63.0154V26.4189ZM65.0045 20.3331C65.4657 20.3331 65.8024 20.4397 66.0148 20.6528C66.2272 20.8659 66.3334 21.2106 66.3334 21.687V23.8494C66.3334 24.3257 66.2272 24.6736 66.0148 24.893C65.8024 25.1123 65.4657 25.222 65.0045 25.222H63.1112V20.3331H65.0045ZM77.1554 28.4636L77.8403 31.6665H79.4445L76.4524 18.9998H74.3796L71.3334 31.6665H72.9376L73.6406 28.4636H77.1554ZM73.7778 26.8887L75.2686 19.9998L76.7778 26.8887H73.7778ZM86.3234 26.7446C87.3515 26.7446 88.1288 26.5124 88.6551 26.0479C89.1814 25.5835 89.4446 24.8627 89.4446 23.8855V21.8227C89.4446 20.8455 89.1784 20.1308 88.6459 19.6784C88.1135 19.226 87.3271 18.9998 86.2867 18.9998H83.0002V31.6665H84.5975V26.7446H86.3234ZM86.5601 20.3331C87.0213 20.3331 87.358 20.4373 87.5704 20.6457C87.7828 20.8541 87.889 21.1911 87.889 21.6569V24.1021C87.889 24.5679 87.7828 24.908 87.5704 25.1225C87.358 25.337 87.0213 25.4442 86.5601 25.4442H84.6668V20.3331H86.5601ZM98.6706 25.8398V31.6665H100.222V18.9998H98.6706V24.5008H94.9963V18.9998H93.4445V31.6665H94.9963V25.8398H98.6706ZM133.354 30.1585C133.562 29.6198 133.667 28.9068 133.667 28.0194C133.667 27.3096 133.598 26.7138 133.461 26.2322C133.324 25.7505 133.127 25.3512 132.871 25.0343C132.615 24.7174 132.311 24.4671 131.959 24.2833C131.607 24.0995 131.217 23.9632 130.788 23.8745C130.501 23.8111 130.269 23.7414 130.09 23.6653C129.911 23.5893 129.768 23.491 129.661 23.3706C129.554 23.2502 129.479 23.0917 129.437 22.8953C129.396 22.6988 129.375 22.4484 129.375 22.1442C129.375 21.6625 129.512 21.314 129.786 21.0985C130.06 20.883 130.454 20.7752 130.966 20.7752C131.041 20.7752 131.56 20.7721 132.098 20.7689C132.674 20.7654 133.271 20.7619 133.363 20.7619V18.6668C133.306 18.6659 132.924 18.6692 132.491 18.673C131.924 18.678 131.27 18.6837 131.145 18.6817C130.466 18.6706 129.861 18.6732 129.33 18.8063C128.799 18.9394 128.352 19.083 127.989 19.3872C127.625 19.6915 127.351 20.0844 127.166 20.5661C126.981 21.0478 126.889 21.6435 126.889 22.3534C126.889 23.4688 127.101 24.3308 127.524 24.9392C127.947 25.5477 128.659 25.9596 129.661 26.1751C129.899 26.2258 130.114 26.2955 130.305 26.3843C130.495 26.473 130.656 26.5934 130.788 26.7455C130.919 26.8976 131.017 27.0941 131.083 27.335C131.148 27.5758 131.181 27.8673 131.181 28.2096C131.181 28.818 131.017 29.2458 130.689 29.493C130.361 29.7402 129.917 29.8638 129.357 29.8638C129.266 29.8638 128.706 29.8627 128.152 29.8617C127.613 29.8607 127.08 29.8597 126.996 29.8597V31.9722C127.222 31.9881 129.345 31.9948 129.536 31.9948C129.659 31.9948 129.781 31.9962 129.901 31.9975C130.359 32.0024 130.788 32.0071 131.19 31.9368C131.697 31.848 132.132 31.6954 132.495 31.4039C132.859 31.1123 133.145 30.6972 133.354 30.1585Z" fill="#4A1357"/>
</g>
</g>
</svg>
