<?xml version="1.0" encoding="utf-8"?>
<!-- Generator: Adobe Illustrator 18.1.0, SVG Export Plug-In . SVG Version: 6.00 Build 0)  -->
<svg version="1.1" id="Layer_1" xmlns="http://www.w3.org/2000/svg" xmlns:xlink="http://www.w3.org/1999/xlink" x="0px" y="0px"
	 viewBox="0 0 180 190.5" enable-background="new 0 0 180 190.5" xml:space="preserve">
<g>
	<defs>
		<path id="SVGID_1_" d="M25,27.4h123.6c2.7,5.2,8.2,8.8,14.5,8.8c9,0,16.3-7.3,16.3-16.3S172.1,3.6,163,3.6
			c-6.8,0-12.7,4.2-15.1,10.2H25c-11.9,0-21.3,9.1-21.3,20.6V166c0,11.7,9.8,21.7,21.3,21.7h131.5c11.6,0,21-9.7,21-21.7v-78
			c0-11.7-9.4-21.3-21-21.3h-78c-11.9,0-22,9.8-22,21.3v24.5c0,11.4,9.9,20.6,22,20.6h27.2c2.4,6,8.3,10.2,15.1,10.2
			c9,0,16.3-7.3,16.3-16.3c0-9-7.3-16.3-16.3-16.3c-6.3,0-11.8,3.6-14.5,8.8H78.5c-4,0-8.3-2.7-8.3-7V87.9c0-4,4-7.7,8.3-7.7h78
			c4.1,0,7.4,3.4,7.4,7.7v78c0,4.3-3.4,8-7.4,8H25c-4.1,0-7.7-3.8-7.7-8V34.4C17.3,30.5,20.6,27.4,25,27.4z M163,12.1
			c4.3,0,7.8,3.5,7.8,7.8c0,4.3-3.5,7.8-7.8,7.8c-4.3,0-7.8-3.5-7.8-7.8C155.2,15.6,158.7,12.1,163,12.1z M120.9,119.2
			c4.3,0,7.8,3.5,7.8,7.8c0,4.3-3.5,7.8-7.8,7.8c-4.3,0-7.8-3.5-7.8-7.8C113.1,122.6,116.6,119.2,120.9,119.2z"/>
	</defs>
	<clipPath id="SVGID_2_">
		<use xlink:href="#SVGID_1_"  overflow="visible"/>
	</clipPath>
	<rect x="-1.6" y="7.4" clip-path="url(#SVGID_2_)" fill="#3EB8BC" width="26.1" height="27.8"/>
	<rect x="-1.6" y="165.4" clip-path="url(#SVGID_2_)" fill="#0A968E" width="26.1" height="27.8"/>
	<rect x="156" y="165.4" clip-path="url(#SVGID_2_)" fill="#EB5B28" width="26.1" height="27.8"/>
	<rect x="156" y="60.7" clip-path="url(#SVGID_2_)" fill="#C22C2E" width="26.1" height="27.8"/>
	<rect x="52.9" y="60.7" clip-path="url(#SVGID_2_)" fill="#CA4C30" width="26.1" height="27.8"/>
	<rect x="52.9" y="111.9" clip-path="url(#SVGID_2_)" fill="#E94E1B" width="26.1" height="27.8"/>
	<linearGradient id="SVGID_3_" gradientUnits="userSpaceOnUse" x1="11.1637" y1="164.1582" x2="11.1637" y2="38.4497">
		<stop  offset="0" style="stop-color:#0A968E"/>
		<stop  offset="1" style="stop-color:#3EB8BC"/>
	</linearGradient>
	<rect x="-1.6" y="34.7" clip-path="url(#SVGID_2_)" fill="url(#SVGID_3_)" width="25.6" height="131.3"/>
	<linearGradient id="SVGID_4_" gradientUnits="userSpaceOnUse" x1="23.944" y1="179.5983" x2="156.5329" y2="179.5983">
		<stop  offset="0" style="stop-color:#0A968E"/>
		<stop  offset="1" style="stop-color:#EB5B28"/>
	</linearGradient>
	<rect x="23.9" y="166" clip-path="url(#SVGID_2_)" fill="url(#SVGID_4_)" width="132.6" height="27.3"/>
	<linearGradient id="SVGID_5_" gradientUnits="userSpaceOnUse" x1="169.3134" y1="88.2534" x2="169.3134" y2="165.1953">
		<stop  offset="0" style="stop-color:#C22C2E"/>
		<stop  offset="1" style="stop-color:#EB5B28"/>
	</linearGradient>
	<rect x="156.5" y="87.9" clip-path="url(#SVGID_2_)" fill="url(#SVGID_5_)" width="25.6" height="78"/>
	<linearGradient id="SVGID_6_" gradientUnits="userSpaceOnUse" x1="155.3823" y1="74.3098" x2="79.9453" y2="74.3098">
		<stop  offset="0" style="stop-color:#C22C2E"/>
		<stop  offset="1" style="stop-color:#CA4C30"/>
	</linearGradient>
	<rect x="78.5" y="60.7" clip-path="url(#SVGID_2_)" fill="url(#SVGID_6_)" width="78" height="27.3"/>
	<linearGradient id="SVGID_7_" gradientUnits="userSpaceOnUse" x1="65.7285" y1="88.5009" x2="65.7285" y2="111.6351">
		<stop  offset="0" style="stop-color:#CA4C30"/>
		<stop  offset="1" style="stop-color:#E94E1B"/>
	</linearGradient>
	<rect x="52.9" y="87.9" clip-path="url(#SVGID_2_)" fill="url(#SVGID_7_)" width="25.6" height="24.5"/>
	<linearGradient id="SVGID_8_" gradientUnits="userSpaceOnUse" x1="182.0939" y1="21.0185" x2="26.5977" y2="21.0185">
		<stop  offset="0" style="stop-color:#0D77BA"/>
		<stop  offset="1" style="stop-color:#3EB8BC"/>
	</linearGradient>
	<polygon clip-path="url(#SVGID_2_)" fill="url(#SVGID_8_)" points="143.6,1.7 143.6,7.4 23.9,7.4 23.9,34.7 143.6,34.7 143.6,40.3 
		182.1,40.3 182.1,1.7 	"/>
	<linearGradient id="SVGID_9_" gradientUnits="userSpaceOnUse" x1="78.509" y1="126.9538" x2="140.2458" y2="126.9538">
		<stop  offset="0" style="stop-color:#E94E1B"/>
		<stop  offset="1" style="stop-color:#F8AE3B"/>
	</linearGradient>
	<polygon clip-path="url(#SVGID_2_)" fill="url(#SVGID_9_)" points="101.9,107.8 101.9,112.5 78.5,112.5 78.5,139.7 101.9,139.7 
		101.9,146.1 140.2,146.1 140.2,107.8 	"/>
</g>
</svg>
