
<svg version="1.1" id="Layer_1" xmlns="http://www.w3.org/2000/svg" xmlns:xlink="http://www.w3.org/1999/xlink" x="0px" y="0px"
	 viewBox="0 0 150 56.5" style="enable-background:new 0 0 150 56.5;" xml:space="preserve">
<style type="text/css">
	.st0{fill:#678D98;}
</style>
<path class="st0" d="M50.9,38.6c-1.1-1.2-1.7-2.9-1.7-5.1c0-2.1,0.3-4.1,0.8-6.1c0.5-2,1.3-3.7,2.3-5.3s2.1-2.8,3.4-3.7
	c1.3-0.9,2.7-1.4,4.2-1.4c1.8,0,3.3,0.6,4.4,1.8c1.1,1.2,1.7,2.8,1.7,4.8c0,2-0.3,4-0.8,6c-0.6,2-1.3,3.8-2.3,5.3
	c-1,1.6-2.1,2.9-3.4,3.8c-1.3,1-2.7,1.5-4.2,1.5C53.5,40.4,52.1,39.8,50.9,38.6 M51.1,13.5c-2.2,1.2-4.1,2.9-5.7,4.9s-2.8,4.4-3.7,7
	c-0.9,2.6-1.3,5.4-1.3,8.2c0,1.8,0.3,3.4,0.8,4.9c0.5,1.5,1.3,2.8,2.3,3.9s2.2,1.9,3.6,2.5c1.4,0.6,3,0.9,4.7,0.9
	c2.2,0,4.2-0.5,6.1-1.6s3.4-2.5,4.7-4.1c0,3.8,2.4,5.7,7.1,5.7c1,0,2-0.1,2.8-0.3c0.9-0.2,1.8-0.4,2.6-0.6l1.3-4.9
	c-0.5,0.2-0.9,0.3-1.3,0.4c-0.4,0.1-0.8,0.1-1.2,0.1c-1.4,0-2.1-0.7-2.1-2.1c0-0.7,0.2-1.7,0.5-3c0.4-1.3,0.8-2.7,1.2-4.4l5.1-19.2
	c-0.7,0.2-1.5,0.4-2.4,0.5c-0.9,0.1-2,0.2-3.2,0.2h-3.3L68,18.8c-0.6-2.3-1.7-4-3.3-5.3c-1.6-1.2-3.7-1.9-6.3-1.9
	C55.8,11.6,53.3,12.2,51.1,13.5 M128.2,39.8c-0.8-0.4-1.4-0.9-1.9-1.5c-0.5-0.6-0.9-1.3-1.2-2.1s-0.4-1.6-0.4-2.5c0-2,0.3-4,0.8-6
	c0.5-2,1.2-3.8,2.2-5.3c0.9-1.6,2-2.9,3.3-3.8s2.7-1.5,4.2-1.5c1.8,0,3.3,0.6,4.4,1.8c1.1,1.2,1.7,2.9,1.7,5.1
	c0,2.1-0.3,4.1-0.8,6.1c-0.5,2-1.3,3.7-2.2,5.2s-2.1,2.7-3.3,3.6c-1.3,0.9-2.6,1.4-4,1.4C129.8,40.3,128.9,40.1,128.2,39.8 M133,13
	c-1.7,0.9-3.1,2.2-4.4,3.7l1.3-4.9c-0.8,0.2-1.9,0.3-3.3,0.5c-1.4,0.1-3,0.2-4.6,0.2h-6l-1.3,5h3.8c0.4,0,0.7,0.1,0.8,0.4
	c0.1,0.3,0.1,0.8-0.2,1.6l-8.3,30.2c-0.2,0.8-0.4,1.2-0.7,1.4c-0.2,0.2-0.6,0.3-0.9,0.3h-2.9l-1.3,5h17.6l1.3-5h-3.4
	c-0.4,0-0.6-0.1-0.8-0.3c-0.2-0.2-0.1-0.7,0.1-1.4l2.9-11c0.6,2.1,1.7,3.8,3.4,5.1c1.7,1.3,3.9,1.9,6.5,1.9c2.7,0,5.1-0.6,7.3-1.8
	s4-2.8,5.5-4.8c1.5-2,2.7-4.3,3.5-6.9s1.2-5.3,1.2-8.2c0-1.8-0.3-3.4-0.8-5c-0.5-1.5-1.3-2.9-2.3-4c-1-1.1-2.2-2-3.7-2.6
	c-1.4-0.6-3.1-0.9-4.9-0.9C136.5,11.6,134.7,12.1,133,13 M99.5,13.2c-1.6,1.2-3,2.7-4.2,4.7l1.7-6.1c-0.8,0.2-1.9,0.3-3.3,0.5
	c-1.4,0.1-3,0.2-4.6,0.2h-6.2l-1.3,5h4c0.4,0,0.7,0.1,0.8,0.4c0.1,0.3,0.1,0.8-0.2,1.6l-7,25.5h8.9L91,34.3c0.8-2.9,1.5-5.4,2.3-7.5
	c0.8-2.2,1.6-4,2.4-5.5c0.9-1.5,1.8-2.6,2.9-3.3c1.1-0.8,2.2-1.1,3.6-1.1c0.5,0,1,0.1,1.4,0.3c0.4,0.2,0.8,0.4,1,0.7
	c-1.2,0.2-2.1,0.7-2.8,1.6c-0.7,0.9-1.1,1.8-1,2.9c0,1.2,0.5,2.1,1.3,2.9c0.8,0.8,1.9,1.1,3.3,1.1c1,0,1.9-0.2,2.7-0.7
	c0.8-0.5,1.5-1.1,2.1-1.9s1.1-1.7,1.4-2.7c0.3-1,0.4-2.1,0.4-3.3c-0.1-1.9-0.7-3.4-1.9-4.6c-1.2-1.2-2.8-1.8-4.9-1.8
	C103,11.4,101.2,12,99.5,13.2 M17.9,0.5c-1.5,0.1-3,0.2-4.6,0.2H7.4L6,5.7h3.5c0.4,0,0.7,0.2,0.8,0.4s0,0.8-0.2,1.6L0,45h8.9
	c1.2-4.9,2.5-9.2,3.7-12.6s2.5-6.4,3.7-8.6c1.2-2.2,2.5-3.9,3.8-4.9s2.6-1.5,4-1.5c1,0,1.9,0.3,2.6,0.9c0.7,0.6,1.1,1.5,1.1,2.6
	c0,0.5-0.1,1.3-0.4,2.3c-0.3,1-0.6,2.1-1,3.3c-0.4,1.2-0.8,2.5-1.2,3.8c-0.4,1.3-0.9,2.6-1.2,3.9c-0.4,1.2-0.7,2.4-1,3.4
	c-0.3,1-0.4,1.9-0.4,2.5c0,2,0.6,3.5,1.8,4.4c1.2,0.9,2.9,1.3,5.1,1.3c1,0,2-0.1,2.9-0.2c1-0.1,1.9-0.4,2.8-0.7l1.3-4.9
	c-0.9,0.3-1.7,0.5-2.5,0.5c-1.3,0-2-0.7-2-1.9c0-0.6,0.3-1.8,0.8-3.5c0.5-1.7,1.2-3.5,1.8-5.6c0.7-2,1.3-4,1.8-6
	c0.5-2,0.8-3.5,0.8-4.6c0-2.4-0.8-4.2-2.5-5.5c-1.7-1.2-3.7-1.9-6.1-1.9c-2.8,0-5.2,0.7-7.3,2.1c-2.1,1.4-4,3.4-5.7,6L21.2,0
	C20.4,0.2,19.3,0.3,17.9,0.5"/>
</svg>
