<svg xmlns="http://www.w3.org/2000/svg" viewBox="0 0 4472 2726"><path fill="none" d="M-631 4544h5734v-5733H-631z"/><path fill="#f9f7ed" d="M2206 2726h-2a4174 4174 0 00884-87 605 605 0 0077-17c-24 12-56 14-89 19-285 61-578 85-870 85"/><path fill="#f4f0de" d="M1033 1712a310 310 0 00-79-68l-59-23a585 585 0 00-534 97c32-35 56-78 70-124a496 496 0 0028-140l6-42c4-27 11-54 20-79 7-17 28-11 51-5 14 4 29 7 41 6 14 1 27 1 41-2 13-3 26-9 39-18 13-10 23-25 28-45 3-7 4-14 5-21 11-79-52-163-135-145a449 449 0 00-203 100 1680 1680 0 00-118 116l-35 50A1004 1004 0 002 1821c-20 113 100 168 186 202l50 21 66 21a1054 1054 0 00412 23 1656 1656 0 00107-18 878 878 0 00103-33c76-27 143-91 153-176 5-43-4-87-31-121-8-6-16-13-15-28"/><path fill="#f1ecd9" d="M571 1334c-11 0-23-3-35-6s-23-6-32-6l-9 1 9-1c9 0 20 3 32 6a146 146 0 0035 6m95-29"/><path fill="#ede8cf" d="M590 1335l-13-1h-6c-11 0-23-3-35-6s-23-6-32-6l-9 1 12-39c3-8 9-10 17-10 9 0 20 3 32 6a137 137 0 0053 6c9 0 18 0 26-2 13-3 26-9 38-18 7-5 13-12 18-21l-1 3a134 134 0 01-11 38 85 85 0 01-22 28c-13 9-26 15-39 18-9 2-18 3-28 3"/><path fill="#f1ecd9" d="M650 2095a1137 1137 0 00225-39 669 669 0 005 0 578 578 0 01-215 39h-15m-254-11h-1 1m-63-12l-1-1 1 1m-1-1h-1 1m-1 0h-1 1m-1 0l-3-1 3 1m-4-1h-1 1m-1 0h-1 1m-1-1h-1 1m-3 0l-1-1 1 1m-3-1h-1 1m-1 0h-1 1m-1 0l-1-1 1 1m-7-2h-1 1M2 1821l1-1-1 1m1-6h1-1m1 0v-1 1m1-6v-1 1m888-188"/><path fill="#ede8cf" d="M571 2096a1196 1196 0 01-171-12 13 13 0 00-1 0h-2-2l-62-12-1-1h-1-1a241 241 0 00-4-1h-1-1v-1h-2a7 7 0 01-1 0l-1-1h-1-2-1l-1-1h-1a10 10 0 01-1 0l-2-1h-2-1v-1h-1-1-1-1l-66-21-48-20-2-1c-79-32-188-81-188-177l2-25 1-1v-1-1-1-1-1h1v-1-1-1-1-1l1-1v-1c26-141 79-276 160-393-63 109-105 230-126 357-20 112 98 167 181 202l48 20 32 12c101 27 206 45 311 45a873 873 0 00196-25c50-18 69-78 40-122a57 57 0 00-49-25 169 169 0 00-44 10l-22 6a601 601 0 01-84 7c-51 0-101-8-149-22-6-3-12-8-10-15 0-3 3-6 6-6 38 4 77 8 115 8a340 340 0 00140-27c14-7 28-14 39-25a213 213 0 0050-56c19-46 30-108-6-149l-1-1v-1l33 7a582 582 0 0128 6l17 215 21 198-20 9a669 669 0 01-140 37 1656 1656 0 01-121 15l-79 1"/><path fill="#eae2c5" d="M1680 481c-40 92-42 189-33 288 9 87 25 173 33 261 34 357 44 705 90 1059a5162 5162 0 0033 214c29 109 8 268 125 315 366 150 772 78 1152 22 60-8 117-26 173-49a1703 1703 0 00196-101c57-34 112-72 163-115l20-28c34-60 31-138 39-207l12-121a11670 11670 0 0027-1377c-6-150-1-299-32-446-5-17-5-36-17-50-21-30-72 2-99 22l-22 18c-21 19-41 40-60 55l-30 27-63 52c-71 55-150 95-238 95-234 1-466-8-701-19l-143-6c-144-6-288-9-432 3-79 10-153 33-192 87l-1 1"/><path fill="#eae2c5" d="M1680 481c-40 92-42 189-33 288 9 87 25 173 33 261 34 357 44 705 90 1059a5162 5162 0 0033 214c29 109 8 268 125 315 366 150 772 78 1152 22 60-8 117-26 173-49a1703 1703 0 00196-101c57-34 112-72 163-115l20-28c34-60 31-138 39-207l12-121a11670 11670 0 0027-1377c-6-150-1-299-32-446-5-17-5-36-17-50-21-30-72 2-99 22l-22 18c-21 19-41 40-60 55l-30 27-63 52c-71 55-150 95-238 95-234 1-466-8-701-19l-143-6c-144-6-288-9-432 3-79 10-153 33-192 87l-1 1"/><path fill="#f3eee0" d="M3366 2537a3664 3664 0 0083-47c57-34 112-72 163-115l20-28c34-60 31-138 39-207l6-59-6 59c-8 69-5 147-39 207l-20 28a1243 1243 0 01-246 162m343-941l6-182-1 9-5 173m6-193v-1 1m0-2l1-44v1l-1 43m2-163a13705 13705 0 00-3-432c7 144 5 288 3 432"/><path fill="#e7dec1" d="M3184 2603c7-10 12-22 13-40 3-14 6-46 9-72l3-27c20-176 34-353 41-530 28 34 60 65 98 86 24 14 50 23 76 23l23-2c19-5 36-15 51-27a638 638 0 00179 67l-6 59c-8 69-5 147-39 207l-20 28a1249 1249 0 01-246 162c-24 11-49 20-74 29l-108 37m472-1001a1342 1342 0 00-12-194c-32-226-47-454-72-683-3-25-5-50-10-75-4-25-11-50-22-73-11-22-26-43-47-58a96 96 0 00-53-16h-3a142 142 0 00-63 14c-90 61-74 183-109 275-2 6-8 18-10 18l-17-35-12-258a608 608 0 0141-37c125-89 244-165 347-272l30-30a169 169 0 0018-29l-1-3c12 14 12 33 17 50a1137 1137 0 0116 133 16027 16027 0 0113 260c2 43 2 87 3 130a30995 30995 0 004 87 17288 17288 0 011 595v13l-6 182a594 594 0 00-53 6"/><path fill="#f6f4e5" d="M907 586c4-14 10-28 16-42 61-107 165-180 251-266l43-35 36-31 72-64c64-50 118-114 200-137 21-4 41-10 62-10 498-4 995 13 1491 45a5515 5515 0 01437 55l32 7 98 25c4 1 10 4 13 8 4 4 6 9 3 12-33 49-78 82-126 118-112 88-222 163-324 256-13 13-25 27-36 41-82 100-153 216-286 243-14 4-29 4-43 1-15-4-28-11-38-21l-64-29c-43-20-85-39-128-57-90-40-185-62-280-75-32-4-64-7-97-9-158-11-316-11-475-22l-97-5c-91-4-181-6-272-6l-55-1-156-1a6215 6215 0 00-277 0"/><path fill="#e7e0c3" d="M3226 517v-4c98-87 202-159 309-242 48-36 93-69 126-118l-17 25-30 30c-103 107-222 183-347 272a608 608 0 00-40 37"/><path fill="#fbfaf4" d="M3078 46h-6 6m-23-1l-4-1 4 1M1729 0"/><path fill="#f4f0de" d="M3226 513v-1a6821 6821 0 00-619-51 9657 9657 0 00-511-11c-345 0-690 12-1033 16-44 1-86 17-119 46 61-90 153-157 230-234l43-35 36-31 72-64c64-50 118-114 200-137 21-4 41-10 62-10l142-1c442 0 883 16 1322 44l4 1 17 1h6a5515 5515 0 01437 55l32 7 98 25c4 1 10 4 13 8 3 3 4 6 4 8l-1 4c-33 49-78 82-126 118-107 83-211 155-309 242M1689 35h-19c-26 0-52 0-78 8-44 9-85 27-123 60-85 75-164 148-252 218-18 18-36 37-53 58a37 37 0 006 53l18-3 148-10a67578 67578 0 01195-13c40-2 80-4 120-4a20980 20980 0 01629-5 7030 7030 0 01718 30c93 0 191-24 246-104 9-17 16-34 22-52 5-18 8-36 10-53 6-36-43-72-84-87a416 416 0 00-135-30l-60-4c-354-30-710-36-1065-46-82-1-162-16-243-16"/><path fill="#f4f0de" d="M907 553c-18 52-29 104-35 158-9 374 6 750 38 1125a4363 4363 0 0061 446c26 114 22 264 140 324 51 26 108 33 163 45a2103 2103 0 00231 35l140 14c475 42 961 41 1428-59 60-9 120-12 124-78 4-21 9-78 12-99a7297 7297 0 0047-732c10-406-12-814-30-1220a6821 6821 0 00-619-51c-514-24-1031-1-1544 5-62 1-120 34-155 86l-1 1"/><path fill="#f1ecd7" d="M3103 1105l-4 104c2 235 5 474-39 705a1590 1590 0 01-98 325 466 466 0 01-239 247c-359 145-748 70-1121 53a1656 1656 0 01-266-52c-48-15-93-38-132-69-39-30-72-69-95-114-16-31-28-67-36-107-6-29-12-59-20-88a4378 4378 0 01-78-427c-21-169-31-341-42-511l-3-106-3-105c-2-50 2-100 12-149 10-47 25-92 48-137l1-1c33-39 79-70 129-73 174-8 347-4 521 1a9644 9644 0 00495 5 9373 9373 0 01466 13c129 8 266 0 380 85 96 72 122 188 125 298 1 34 0 69-1 103m123-593a6821 6821 0 00-619-51c-514-24-1031-1-1544 5-62 1-120 34-155 86l-1 1c-18 52-29 104-35 158-9 374 6 750 38 1125a4363 4363 0 0061 446c26 114 22 264 140 324 51 26 108 33 163 45a2103 2103 0 00231 35l140 14c475 42 961 41 1428-59 60-9 120-12 124-78 4-21 9-78 12-99a7297 7297 0 0047-732c10-406-12-814-30-1220"/><path fill="#eee7cf" d="M2841 816c-6 0-13-1-19-3-13-6-20-20-20-34 1-11 5-23 14-32a45 45 0 0146-16c14 4 27 16 29 32 1 16-5 30-16 41-10 8-21 12-34 12M2816 986c-4 0-8 0-13-2-8-4-13-13-13-21 0-7 3-14 8-20 5-7 13-10 21-10l7 1c9 3 18 10 19 20s-2 19-9 25c-6 5-13 7-20 7M2994 982c-10 0-20-3-30-7-15-9-26-26-27-42-1-13 4-26 13-36 7-11 21-17 35-17l18 3c18 6 34 21 38 40s-1 36-14 48c-10 7-21 11-33 11M1243 2247l-7-1c-11-3-20-12-22-25-1-9 4-17 11-22a28 28 0 0121-4c10 0 20 9 23 19 2 9 1 20-7 26-6 5-12 7-19 7M1805 2354c-11 0-23-7-28-18s-2-23 8-30a28 28 0 0120-5c13 1 19 10 24 19 2 8 1 16-4 24-5 7-12 10-20 10"/><path fill="#efe9d2" d="M2029 286c-7 0-14-2-19-7-8-9-11-21-7-33a24 24 0 0122-14c6 0 13 2 18 6 9 5 13 17 11 27s-8 18-18 21h-7"/><path fill="#e4dabb" d="M3409 1511c-7 0-13-1-20-3-12-6-20-20-19-34 0-11 4-22 13-32a45 45 0 0146-16c14 4 27 16 29 32s-4 30-16 41c-10 8-21 12-33 12M3508 1327l-13-3c-8-4-13-13-13-21 0-7 3-14 8-20 5-7 13-10 21-10l7 1c9 3 18 10 19 20s-2 19-9 26c-6 4-12 7-20 7"/><path fill="#f8f5ea" d="M1073 1357c-7 0-13-1-20-3-40-11-44-72-52-116a667 667 0 01-6-93c1-48 13-96 42-134 14-17 31-29 51-29l12 2c40 11 59 57 64 101a880 880 0 014 103c2 69-32 169-95 169M1067 906c-22 0-44-16-48-42a168 168 0 0113-119c11-20 29-32 48-32 12 0 24 5 34 15 14 16 22 35 26 55 9 54-18 116-67 123h-6"/><path fill="#faf8ee" d="M1358 346c-19 0-36-8-45-28-9-22 13-43 29-59a286 286 0 0135-32 105 105 0 0169-21c14 2 27 8 33 22 10 22-2 45-17 61a374 374 0 01-40 33c-17 13-41 24-64 24M1533 204c-11 0-23-4-32-13-9-10-12-27-2-38 4-6 9-12 16-16a75 75 0 0139-14c18 0 35 14 33 34-1 11-6 20-13 28a56 56 0 01-41 19"/><path fill="#260f0f" d="M1545 1733c0-85 62-154 140-154 77 0 140 69 140 154s-63 154-140 154-140-69-140-154"/><path fill="#fff" d="M1612 1685c0-22 16-39 36-39s36 17 36 39-16 39-36 39-36-17-36-39"/><path fill="#260f0f" d="M2366 1733c0-85 63-154 140-154 77-1 140 68 140 153s-62 154-140 154c-77 0-140-68-140-153"/><path fill="#fff" d="M2434 1684c0-21 16-39 35-39 20 0 36 18 36 39 0 22-16 39-35 39-20 0-36-17-36-39"/><path fill="#301111" d="M1867 2008a206 206 0 00233 236 206 206 0 00172-237l-405 1"/><path fill="#fff" d="M2012 2092c22-3 46-2 70-1 52 1 105 2 144-32 9-16 6-35 5-52l-319 1c-2 0 4 38 5 42 4 12 11 21 21 28 15 10 34 11 51 13l23 1"/><path fill="#665454" d="M2231 2010v-3 3m-319-2"/><path fill="#e0ecef" d="M1913 2028l-1-13v-7l319-1v3l1 18h-319"/><path fill="#f03b4d" d="M2084 2160c-53-25-114-6-157 27 57 57 145 74 220 48 41-15 72-49 95-85-61-24-105-26-158 10"/><path fill="#f4f0de" d="M3434 1724c53-65 130-106 211-120l35-5c151-19 310 23 431 119-32-35-56-78-70-124l-13-46c-7-31-12-62-15-94l-6-42c-4-27-11-54-20-79-7-17-28-11-51-5-14 4-29 7-41 6-14 1-27 1-41-2-13-3-26-9-39-18a87 87 0 01-28-45c-3-7-4-14-5-21-11-79 52-163 135-145a449 449 0 01202 100 1679 1679 0 01119 116l35 50c103 131 168 287 197 452 20 113-101 168-186 202l-50 21-66 21a1054 1054 0 01-412 23 1656 1656 0 01-107-18 878 878 0 01-103-33c-66-24-126-76-147-145a182 182 0 017-125 113 113 0 0128-43"/><path fill="#f1ecd9" d="M3882 1335l13-1-13 1m19-1c11 0 23-3 35-6s23-6 32-6l9 1-9-1c-9 0-20 3-32 6s-24 6-35 6m-84-18v-1 1m0-1l-2-1a72 72 0 012 1"/><path fill="#ede8cf" d="M3882 1335c-10 0-19-1-28-3-12-3-25-8-37-16v-1l-2-1-2-2a88 88 0 01-26-43 132 132 0 01-5-21l-1-3a79 79 0 0056 39 122 122 0 0040 2h5c11 0 23-3 34-6 12-3 23-6 32-6 8 0 14 2 17 10l12 39-9-1c-9 0-20 3-32 6a146 146 0 01-39 6h-2l-13 1"/><path fill="#f1ecd9" d="M3822 2095h-15a1306 1306 0 01-130-14v-5a875 875 0 0079 12 4046 4046 0 0066 7"/><path fill="#e9e1c4" d="M3677 2081a638 638 0 01-131-44 632 632 0 00131 39v5"/><path fill="#f1ecd9" d="M4068 2085h0m1 0h0m80-16l5-1-5 1m5-1h0m1 0h0m1 0l1-1-1 1m3-1l2-1-2 1m3-1h0m1 0h1-1m1 0v-1 1m3-1"/><path fill="#eae2c5" d="M3484 2005l-26-19a261 261 0 01-54-74c-6-12-10-24-12-37l-2-26c-4-54 17-102 50-141a269 269 0 0194-70c34-16 70-28 107-33a348 348 0 00-210 122c-11 12-19 25-25 40l-7 23a205 205 0 000 102c14 46 46 85 85 113"/><path fill="#f1ecd9" d="M4470 1821l-1-1 1 1m-1-6h-1 1m-1 0v-1 1m-1-6v-1 1"/><path fill="#ede8cf" d="M3901 2096l-79-1a1143 1143 0 01-145-19 827 827 0 01-131-39 262 262 0 01-62-32 215 215 0 01-91-144 205 205 0 0113-94 113 113 0 0128-43 348 348 0 01224-121c-80 46-55 146 6 195l19 17c51 41 114 52 179 52a1029 1029 0 00115-8c3 0 6 3 6 6 2 7-4 12-10 15a542 542 0 01-255 10c-26-6-51-15-78-17a126 126 0 00-27 1c-10 2-19 5-28 10a55 55 0 00-29 53c3 48 36 71 77 84l43 10c61 14 123 20 185 20a1180 1180 0 00343-57l48-20c83-35 201-90 181-202-21-127-63-248-126-357 81 117 134 252 160 393v1l1 1v4a16 16 0 010 1h1v5l1 1 2 25c0 96-109 145-188 177l-2 1-48 20-66 21h-2-1-1v1h-1-2l-2 1h-1-1l-1 1h-1-1l-5 1c-26 7-53 12-79 16h-1-3a996 996 0 01-165 11"/></svg>