<?xml version="1.0" encoding="UTF-8"?>
<svg width="542px" height="510px" viewBox="0 0 542 510" version="1.1" xmlns="http://www.w3.org/2000/svg" xmlns:xlink="http://www.w3.org/1999/xlink">
    <title>favicon</title>
    <g id="Page-1" stroke="none" stroke-width="1" fill="none" fill-rule="evenodd">
        <g id="Desktop-HD" transform="translate(0.000000, -380.000000)">
            <g id="favicon" transform="translate(0.000000, 380.000000)">
                <rect id="Rectangle" fill-opacity="0" fill="#FFFFFF" x="0" y="0" width="542" height="510"></rect>
                <g id="Group" transform="translate(47.000000, 0.000000)" fill-rule="nonzero">
                    <g id="logo" transform="translate(0.000000, 0.000000)">
                        <path d="M224.941908,7.42136731 C234.625635,14.2699568 240.005157,23.6036032 241.080474,35.4223065 L241.249194,35.3316133 L241.249119,38.1046002 C241.271011,38.7192878 241.281958,39.3402955 241.281958,39.9676231 L241.248929,39.9845433 L241.249028,279.868673 C241.475514,292.382158 246.449547,302.290972 256.171129,309.595115 C270.743497,319.37995 285.93863,320.289373 301.756527,312.323386 L94.9042211,424.327561 C79.5489114,431.762551 64.8619956,431.117508 50.8434743,422.392431 C41.1805668,415.558566 35.8033766,406.250317 34.7119037,394.467686 L34.503424,394.580006 L34.5039459,148.845233 C34.0124766,136.849685 29.0492458,127.307502 19.6142535,120.218683 C14.9591802,117.092964 10.2405568,114.872939 5.4583832,113.558608 C-1.33391157,111.868716 -1.33391157,103.903575 3.67296169,101.439038 C15.0829102,95.2609011 74.1523097,63.2766343 180.881161,5.48623735 C196.236471,-1.94875351 210.923387,-1.30371019 224.941908,7.42136731 Z" id="合并形状" fill="#9DE8FF"></path>
                        <path d="M241.248436,279.835098 C241.103319,255.676038 220.127886,220.550786 177.63511,220.550786 C165.827373,220.550786 154.821177,223.451425 144.616523,229.252704 L334.261783,126.593069 C343.662767,121.458477 354.597039,118.516793 366.265007,118.516793 C401.255947,118.516793 429.648515,144.972343 429.877693,177.688955 C429.877738,177.695466 429.877783,177.828702 429.877826,178.088663 L429.879089,359.292421 C430.107815,371.80162 435.081794,381.707408 444.801024,389.009785 C449.509843,392.171591 454.283687,394.40667 459.122557,395.715021 C466.098364,397.842576 465.29748,405.510842 460.774458,407.772042 C434.417603,422.044149 381.376114,450.813546 301.649991,494.080235 C286.294681,501.515225 271.607765,500.870182 257.589244,492.145104 C247.902099,485.294098 242.522198,475.95628 241.449541,464.13165 L241.249194,464.23987 L241.249194,419.425916 C241.249025,372.861386 241.248773,279.891204 241.248436,279.835098 Z" id="路径" fill="#106BF3"></path>
                        <path d="M177.63511,220.550786 C212.768199,220.550786 241.249194,247.221718 241.249194,280.12198 C241.249194,313.14673 241.249194,334.811551 241.249194,345.116441 C241.249194,345.116441 131.793458,404.340782 115.928787,412.924843 C114.689231,413.595542 94.1982472,424.652961 94.1982472,424.652961 C112.397171,413.595542 114.021028,398.762751 114.021028,392.176569 C114.021028,373.078808 114.021028,335.727278 114.021028,280.12198 C114.021028,247.221718 142.502023,220.550786 177.63511,220.550786 Z" id="矩形-copy-10" fill="#57AAF9"></path>
                    </g>
                </g>
            </g>
        </g>
    </g>
</svg>