<svg id="Layer_1" data-name="Layer 1" xmlns="http://www.w3.org/2000/svg" xmlns:xlink="http://www.w3.org/1999/xlink" viewBox="0 0 508.09 335.5"><defs><style>.cls-1{fill:#fff;}.cls-1,.cls-3{fill-rule:evenodd;}.cls-2{mask:url(#mask);}.cls-3{fill:#e67533;}</style><mask id="mask" x="0" y="0" width="508.09" height="335.5" maskUnits="userSpaceOnUse"><g transform="translate(0 -0.5)"><g id="mask-2"><polygon id="path-1" class="cls-1" points="0.06 0.5 508.09 0.5 508.09 335.94 0.06 335.94 0.06 0.5"/></g></g></mask></defs><g id="Artboard"><g id="Group-3"><g class="cls-2"><path id="Fill-1" class="cls-3" d="M159,275.77c-52.35-4.16-94.61-46.41-98.76-98.76A107.94,107.94,0,0,1,164.34,60.48L119.42,218.6h63.79l21.22-75.82h80.44l-9.64,34.1-6.34,22.33c-8.17,28.75-27.67,53.38-54.6,66.33A107.54,107.54,0,0,1,159,275.77Zm334-222,15-52.86H325.21L300.06,89.29H219.48L240.16,16.9A166.58,166.58,0,0,0,181.21,1.09C176.76.73,172.28.5,167.75.5a167.75,167.75,0,1,0,164,202.88l17.66-62.52h107.6L471.12,90.8H363.6l10.45-37Z" transform="translate(0 -0.5)"/></g></g></g></svg>