<svg width="90" height="90" viewBox="0 0 30 30" xmlns="http://www.w3.org/2000/svg">
  <defs>
    <linearGradient x1="50%" y1="0%" x2="50%" y2="100%" id="a">
      <stop stop-color="#FFF" offset="0%"/>
      <stop offset="100%"/>
    </linearGradient>
  </defs>
  <g fill="none" fill-rule="evenodd">
    <path d="M4.5 0h21A4.5 4.5 0 0 1 30 4.5v21a4.5 4.5 0 0 1-4.5 4.5h-21A4.5 4.5 0 0 1 0 25.5v-21A4.5 4.5 0 0 1 4.5 0z" fill="#309ACD"/>
    <path d="M4.5 0A4.5 4.5 0 0 0 0 4.5V15h5.161c.514 0 .984.29 1.214.75.224.448.136.989-.218 1.343l-.468.468a1.5 1.5 0 0 0-.439 1.06v.129a2.25 2.25 0 1 0 4.5 0v-.129a1.5 1.5 0 0 0-.44-1.06l-.467-.468a1.163 1.163 0 0 1-.218-1.343c.23-.46.7-.75 1.214-.75H15V9.839c0-.514-.29-.984-.75-1.214a1.163 1.163 0 0 0-1.343.218l-.468.468a1.5 1.5 0 0 1-1.06.439h-.129a2.25 2.25 0 1 1 0-4.5h.129a1.5 1.5 0 0 1 1.06.44l.468.467c.354.354.895.442 1.343.218.46-.23.75-.7.75-1.214V0H4.5z" fill="#FFC24B"/>
    <path d="M30 4.5A4.5 4.5 0 0 0 25.5 0H15v5.161c0 .514-.29.984-.75 1.214a1.163 1.163 0 0 1-1.343-.218l-.468-.468a1.5 1.5 0 0 0-1.06-.439h-.129a2.25 2.25 0 1 0 0 4.5h.129a1.5 1.5 0 0 0 1.06-.44l.468-.467a1.163 1.163 0 0 1 1.343-.218c.46.23.75.7.75 1.214V15h5.161c.514 0 .984-.29 1.214-.75a1.163 1.163 0 0 0-.218-1.343l-.468-.468a1.5 1.5 0 0 1-.439-1.06v-.129a2.25 2.25 0 1 1 4.5 0v.129a1.5 1.5 0 0 1-.44 1.06l-.467.468a1.163 1.163 0 0 0-.218 1.343c.23.46.7.75 1.214.75H30V4.5z" fill="#96539F"/>
    <path d="M25.5 30a4.5 4.5 0 0 0 4.5-4.5V15h-5.161c-.514 0-.984-.29-1.214-.75a1.163 1.163 0 0 1 .218-1.343l.468-.468a1.5 1.5 0 0 0 .439-1.06v-.129a2.25 2.25 0 1 0-4.5 0v.129c0 .398.158.779.44 1.06l.467.468c.354.354.442.895.218 1.343-.23.46-.7.75-1.214.75H15v5.161c0 .514.29.984.75 1.214.448.224.989.136 1.343-.218l.468-.468a1.5 1.5 0 0 1 1.06-.439h.129a2.25 2.25 0 1 1 0 4.5h-.129a1.5 1.5 0 0 1-1.06-.44l-.468-.467a1.163 1.163 0 0 0-1.343-.218c-.46.23-.75.7-.75 1.214V30h10.5z" fill="#80B644"/>
    <path d="M0 25.5A4.5 4.5 0 0 0 4.5 30H15v-5.161c0-.514.29-.984.75-1.214a1.163 1.163 0 0 1 1.343.218l.468.468a1.5 1.5 0 0 0 1.06.439h.129a2.25 2.25 0 1 0 0-4.5h-.129a1.5 1.5 0 0 0-1.06.44l-.468.467a1.163 1.163 0 0 1-1.343.218c-.46-.23-.75-.7-.75-1.214V15H9.839c-.514 0-.984.29-1.214.75-.224.448-.136.989.218 1.343l.468.468a1.5 1.5 0 0 1 .439 1.06v.129a2.25 2.25 0 1 1-4.5 0v-.129c0-.398.158-.779.44-1.06l.467-.468c.354-.354.442-.895.218-1.343-.23-.46-.7-.75-1.214-.75H0v10.5z" fill="#2293CA"/>
    <path d="M4.5 0h21A4.5 4.5 0 0 1 30 4.5v21a4.5 4.5 0 0 1-4.5 4.5h-21A4.5 4.5 0 0 1 0 25.5v-21A4.5 4.5 0 0 1 4.5 0z" fill-opacity=".3"/>
  </g>
</svg>