<svg version="1.1" id="Layer_1" xmlns="http://www.w3.org/2000/svg" xmlns:xlink="http://www.w3.org/1999/xlink" x="0px" y="0px" viewBox="0 0 512.001 452.001" style="enable-background:new 0 0 512.001 512.001;" xml:space="preserve">
<path d="M285.792,265.773 C285.792,207.056 333.391,159.457 392.108,159.457 C399.232,159.457 406.189,160.171 412.92,161.507 C415.884,151.288 417.499,140.495 417.499,129.32 C417.499,65.581 365.828,13.91 302.088,13.91 C256.675,13.91 217.417,40.158 198.581,78.295 C184.05,64.869 164.631,56.655 143.287,56.655 C98.269,56.655 61.774,93.15 61.774,138.168 C61.774,182.73 97.537,218.916 141.925,219.645 C141.469,219.653 141.018,219.679 140.561,219.679 C104.415,219.679 73.785,196.144 63.107,163.569 C33.829,177.451 13.577,207.269 13.577,241.823 L13.577,241.823 C13.577,289.634 52.336,328.393 100.147,328.393 L306.211,328.393 C293.38,310.827 285.792,289.191 285.792,265.773 Z" id="Shape" fill="#CEE8FA"></path>
<g id="Group" fill="#2D527C">
<path d="M484.618,189.504 C479.846,183.722 471.288,182.902 465.505,187.674 C459.721,192.448 458.903,201.004 463.675,206.787 C477.328,223.33 484.847,244.278 484.847,265.772 C484.847,316.909 443.244,358.511 392.108,358.511 C345.769,358.511 307.258,324.346 300.441,279.883 C300.44,279.871 300.438,279.86 300.436,279.848 C300.226,278.474 300.056,277.088 299.906,275.694 C299.868,275.34 299.835,274.985 299.801,274.63 C299.696,273.529 299.614,272.422 299.547,271.31 C299.524,270.915 299.495,270.521 299.478,270.126 C299.411,268.683 299.368,267.233 299.368,265.772 C299.368,214.635 340.971,173.033 392.107,173.033 C398.179,173.033 404.291,173.636 410.276,174.824 C417.185,176.194 423.997,172.054 425.96,165.289 C429.356,153.58 431.077,141.479 431.077,129.321 C431.077,58.197 373.214,0.334 302.089,0.334 C258.167,0.334 218.278,22.099 194.552,58.08 C179.35,48.325 161.631,43.078 143.286,43.078 C90.855,43.078 48.198,85.735 48.198,138.167 C48.198,143.97 48.717,149.698 49.731,155.294 C19.266,173.107 0,206.199 0,241.825 C0,297.046 44.926,341.972 100.147,341.972 L299.611,341.972 C321.619,368.641 354.912,385.668 392.109,385.668 C458.217,385.668 512.002,331.885 512.002,265.775 C512,237.987 502.276,210.9 484.618,189.504 Z M282.674,314.817 L100.147,314.817 C59.898,314.817 27.154,282.074 27.154,241.825 C27.154,218.556 38.434,196.768 56.761,183.146 C73.088,213.669 105.001,233.257 140.561,233.257 C140.986,233.257 141.408,233.245 141.83,233.23 L142.163,233.221 C149.569,233.092 155.506,227.048 155.502,219.64 C155.498,212.231 149.555,206.193 142.148,206.071 C105.315,205.464 75.351,175.003 75.351,138.168 C75.351,100.708 105.826,70.232 143.285,70.232 C160.414,70.232 176.779,76.638 189.366,88.267 C192.51,91.172 196.844,92.428 201.05,91.645 C205.26,90.866 208.855,88.146 210.752,84.307 C228.064,49.26 263.059,27.487 302.086,27.487 C358.237,27.487 403.92,73.169 403.92,129.32 C403.92,135.024 403.439,140.712 402.486,146.33 C399.028,146.03 395.562,145.878 392.105,145.878 C325.997,145.878 272.212,199.661 272.212,265.771 C272.212,266.819 272.226,267.865 272.253,268.906 C272.268,269.482 272.296,270.055 272.318,270.629 C272.336,271.082 272.348,271.537 272.371,271.989 C272.413,272.816 272.47,273.64 272.529,274.463 C272.543,274.65 272.552,274.839 272.566,275.026 C272.641,276.016 272.73,277.003 272.829,277.987 C272.83,277.997 272.83,278.007 272.832,278.017 C274.128,290.807 277.443,303.192 282.674,314.817 Z" id="Shape"></path>
<path d="M354.5,256.670106 C354.5,262.22612 341,267.087633 341,267.087633 L341,274.03265 C341,274.03265 354.5,278.894163 354.5,284.450177 C354.5,293.4787 352.7,295.562205 350.9,304.590728 C348.2,319.175266 358.1,326.120283 367.1,326.120283 L386,326.120283 L386,312.230248 C386,312.230248 369.8,313.619251 369.8,305.28523 C369.8,299.034714 371.599999,299.034714 373.4,285.144679 C374.3,278.894163 368.9,274.03265 363.499999,270.560141 C368.9,267.087633 374.3,262.920622 373.4,256.670106 C370.7,242.780071 369.8,242.780071 369.8,236.529555 C369.8,228.195533 386,228.890035 386,228.890035 L386,215 L367.1,215 C357.2,215 348.2,221.945017 350.9,236.529555 C352.7,245.558078 354.5,247.641583 354.5,256.670106 Z" id="Shape"></path>
<path d="M436.1,236.529555 C434.3,245.558078 432.5,247.641583 432.5,256.670106 C432.5,262.22612 446,267.087633 446,267.087633 L446,274.03265 C446,274.03265 432.5,278.894163 432.5,284.450177 C432.5,293.4787 434.3,295.562205 436.1,304.590728 C438.8,319.175266 428.9,326.120283 419.9,326.120283 L401,326.120283 L401,312.230248 C401,312.230248 417.2,313.619251 417.2,305.28523 C417.2,299.034714 415.400001,299.034714 413.6,285.144679 C412.7,278.894163 418.1,274.03265 423.500001,270.560141 C418.1,267.087633 412.7,262.920622 413.6,256.670106 C415.400001,242.780071 417.2,242.780071 417.2,236.529555 C417.2,228.195533 401,228.890035 401,228.890035 L401,215 L419.9,215 C429.8,215 438.8,221.945017 436.1,236.529555 Z" id="Shape"></path>
</g>
</svg>