<svg viewBox="0 0 753.02715 337.8195" xmlns="http://www.w3.org/2000/svg" xmlns:xlink="http://www.w3.org/1999/xlink"><linearGradient id="a" gradientUnits="userSpaceOnUse" x1="141.10109" x2="161.99985" y1="121.8941" y2="204.71512"><stop offset=".01093" stop-color="#e67417"/><stop offset=".99952" stop-color="#e62f17"/></linearGradient><linearGradient id="b" gradientUnits="userSpaceOnUse" x1="157.53505" x2="157.53505" y1="146.08203" y2="244.7615"><stop offset="0" stop-color="#f2bb30"/><stop offset=".30905" stop-color="#e67417"/><stop offset="1" stop-color="#e62f17"/></linearGradient><linearGradient id="c" gradientUnits="userSpaceOnUse" x1="195.59505" x2="202.97741" y1="189.53948" y2="155.26425"><stop offset="0" stop-color="#fff"/><stop offset="1" stop-color="#fff" stop-opacity="0"/></linearGradient><g fill="#3d3d3d"><path d="m298.54406 141.21921c7.52284-7.52283 15.04541-12.16428 24.649-12.16428 11.204 0 18.8868 4.16131 22.248 14.08485 9.92354-10.24373 17.76657-14.08485 26.88978-14.08485 16.00569 0 24.00867 9.12321 24.00867 29.61066v47.85741h-18.24662v-43.0557c0-12.00433-2.08051-17.44638-10.72386-17.44638-6.08215 0-12.48448 3.68144-19.84708 11.52419v48.97789h-18.08676v-43.0557c0-12.00433-2.56093-17.44638-11.044-17.44638-6.72224 0-13.44475 4.32154-19.84708 11.68442v48.81766h-18.08652v-76.02765h18.08647z"/><path d="m481.06065 168.90932c0 23.84871-15.04568 39.05407-38.73443 39.05407s-38.57393-15.20536-38.57393-39.05407c0-24.4888 15.04513-40.01462 38.57393-39.85439 23.68878-.16023 38.73443 15.36559 38.73443 39.85439zm-17.76656 0c0-16.006-8.16266-24.96922-20.96787-24.96922-12.64415 0-20.80736 8.96326-20.80736 24.96922 0 15.36559 8.00325 24.00866 20.80736 24.00866 12.80521.00002 20.96787-8.64307 20.96787-24.00866z"/><path d="m488.21229 206.523v-104.03794h18.08648v104.03794z"/><path d="m568.65516 203.32194a52.946 52.946 0 0 1 -19.20671 4.00135c-16.80628 0-23.68875-7.68279-23.68875-26.56959v-35.213h-11.20345v-15.20558h11.20345v-18.24643h18.247v18.24643h21.1273v15.20563h-21.12732v34.41262c0 9.12322 3.2013 11.68415 11.84438 11.68415a74.03094 74.03094 0 0 0 10.88354-.6401z"/><path d="m586.35328 98.48371c5.60173 0 10.56364 3.36125 10.56364 9.76358s-4.96191 9.60336-10.56364 9.60336-10.56363-3.201-10.56363-9.60336 4.96191-9.76358 10.56363-9.76358zm-8.96298 108.03929v-76.02765h18.08592v76.02765z"/><path d="m622.39838 141.05926c8.32317-7.36288 16.32642-12.00433 27.05-12.00433 16.80629 0 24.80954 8.963 24.80954 29.61066v47.85741h-18.087v-43.0557c0-12.32451-1.92056-17.44638-12.00433-17.44638-8.16321 0-15.36559 4.48177-21.7682 11.84438v48.6577h-18.08593v-76.02765h18.08592z"/></g><path d="m233.68028 121.9147-73.51423-42.443a5.26427 5.26427 0 0 0 -5.25526 0l-73.51422 42.443a5.25932 5.25932 0 0 0 -2.62736 4.55313v84.886a5.25574 5.25574 0 0 0 2.62736 4.55092l73.51422 42.443a5.26421 5.26421 0 0 0 5.25526 0l73.51423-42.443a5.25575 5.25575 0 0 0 2.62735-4.55092v-84.886a5.25933 5.25933 0 0 0 -2.62735-4.55313z" fill="#fff"/><path d="m235.93922 118.00919-73.51753-42.44519a9.77885 9.77885 0 0 0 -9.76544 0l-73.51532 42.443a9.80461 9.80461 0 0 0 -4.883 8.46085v84.886a9.79579 9.79579 0 0 0 4.88355 8.45864l73.51367 42.443a9.76461 9.76461 0 0 0 9.76544 0l73.51533-42.443a9.79643 9.79643 0 0 0 4.883-8.45864v-84.886a9.80221 9.80221 0 0 0 -4.8797-8.45866zm.36841 93.34468a5.25575 5.25575 0 0 1 -2.62735 4.55092l-73.51423 42.443a5.26421 5.26421 0 0 1 -5.25526 0l-73.51422-42.443a5.25574 5.25574 0 0 1 -2.62736-4.55092v-84.886a5.25932 5.25932 0 0 1 2.62736-4.55313l73.51422-42.443a5.26427 5.26427 0 0 1 5.25526 0l73.51423 42.443a5.25933 5.25933 0 0 1 2.62735 4.55313z" fill="#999"/><path d="m91.62543 210.41271a5.97283 5.97283 0 0 1 -2.98643-5.17261v-43.096a42.65112 42.65112 0 0 1 2.15134-14.58677c2.5067-6.76608 7.46437-13.38529 17.29164-17.28905 18.82967-7.47985 37.44026 2.63328 47.95411 17.62525 8.82827 12.58845 13.98071 17.59354 25.0818 26.092 9.82978 7.52517 40.6576 21.059 45.32012-5.898v37.1526a5.97282 5.97282 0 0 1 -2.98642 5.17261l-62.92668 36.33074a5.97283 5.97283 0 0 1 -5.97282 0z" fill="url(#a)"/><path d="m91.62543 210.41271 62.92668 36.33074a5.97283 5.97283 0 0 0 5.97282 0l62.92668-36.33074a5.97282 5.97282 0 0 0 2.98642-5.17261v-37.1526c0-27.51959-30.69537-29.79159-46.515-7.92007-12.53865 17.33535-18.09249 23.542-34.8771 29.64554-19.64344 7.14307-37.27489 3.26972-47.30206-6.53946a29.86883 29.86883 0 0 1 -9.10487-21.12942v43.096a5.97283 5.97283 0 0 0 2.98643 5.17262z" fill="url(#b)"/><path d="m226.438 168.0875c0-27.51956-30.69537-29.79161-46.51508-7.92007-2.17681 3.00961-4.14032 5.67712-5.99144 8.07353 2.1361 1.81448 4.48411 3.67581 7.18638 5.74454 9.82981 7.52516 40.65761 21.05901 45.32014-5.898z" fill="url(#c)" opacity=".3"/></svg>