<svg version="1.1" id="Layer_1" xmlns="http://www.w3.org/2000/svg" xmlns:xlink="http://www.w3.org/1999/xlink" x="0px" y="0px"
	 viewBox="0 0 96 71.3" style="enable-background:new 0 0 96 71.3;" xml:space="preserve">
<style type="text/css">
	.st0{fill:#00C58E;}
	.st1{fill:#2F495E;}
</style>
<g id="Calque_2">
	<g id="Calque_1-2">
		<path class="st0" d="M29.2,68.9c-0.1-0.1-0.1-0.3-0.2-0.4c-0.4-0.9-0.5-1.9-0.3-2.8H6L39.7,6.3l11.1,19.5l3.2-5.7l-9.7-17
			C44.1,2.6,42.4,0,39.6,0c-1.3,0-3.1,0.6-4.6,3.2L0.9,63.2c-0.3,0.5-1.7,3.2-0.3,5.7c0.6,1.1,2,2.4,5,2.4h28.6
			C31.2,71.3,29.9,70,29.2,68.9z"/>
		<path d="M95,63.2L66.9,13.8c-0.3-0.5-1.9-3.1-4.7-3.1c-1.3,0-3.1,0.5-4.6,3.1L54,20.1l3.2,5.7l5-8.9L90,65.7H79.4
			c0.1,0.8,0.1,1.6-0.2,2.4c-0.1,0.2-0.1,0.3-0.2,0.5l-0.1,0.2c-1.4,2.4-4.5,2.6-5.1,2.6h16.5c0.6,0,3.7-0.1,5.1-2.6
			C96.1,67.6,96.5,65.8,95,63.2z"/>
		<path class="st1" d="M78.9,68.7l0.1-0.2c0.1-0.2,0.2-0.3,0.2-0.5c0.3-0.8,0.4-1.6,0.2-2.4c-0.2-0.9-0.5-1.7-0.9-2.5L57.2,25.8
			L54,20.1l-3.2,5.7L29.5,63.2c-0.4,0.8-0.7,1.6-0.8,2.5c-0.2,1-0.1,1.9,0.3,2.8c0.1,0.1,0.1,0.3,0.2,0.4c0.6,1.1,2,2.4,5,2.4h39.6
			C74.4,71.3,77.5,71.2,78.9,68.7z M54,31.5l19.4,34.2H34.6L54,31.5z"/>
	</g>
</g>
</svg>
