<svg version="1.1" id="Layer_1" xmlns="http://www.w3.org/2000/svg" xmlns:xlink="http://www.w3.org/1999/xlink" x="0px" y="0px"
	 viewBox="0 0 760.8 875.3" style="enable-background:new 0 0 760.8 875.3;" xml:space="preserve">
<style type="text/css">
	.st0{fill-rule:evenodd;clip-rule:evenodd;fill:#31C7FF;}
</style>
<path class="st0" d="M760.7,515.1c0,198.4-194.7,193.5-194.7,193.5v166.6L222,704.6c0,0-222,40.8-222-189.5
	C0,174.9,0,89.9,198.4,89.9c20,20,28.3,34.7,28.3,34.7s-12.2-51.7,56.7-92c77.7-45.4,195.9-42.1,288.4,2.3
	c98,47,100.1,108,100.1,281.6C765.4,345,760.7,355.3,760.7,515.1z M337,273.1c0-32.6-16.3-48.9-48.8-48.9h-54.8
	c-32.5,0-48.8,16.3-48.8,48.9v54.8c0,32.6,16.3,48.9,48.8,48.9h54.8c32.5,0,48.8-16.3,48.8-48.9V273.1z M337,486.5
	c0-32.6-16.3-48.9-48.8-48.9h-54.8c-32.5,0-48.8,16.3-48.8,48.9v54.8c0,32.6,16.3,48.9,48.8,48.9h54.8c32.5,0,48.8-16.3,48.8-48.9
	V486.5z M550.7,273.1c0-32.6-16.3-48.9-48.8-48.9h-54.8c-32.5,0-48.8,16.3-48.8,48.9v54.8c0,32.6,16.3,48.9,48.8,48.9h54.8
	c32.5,0,48.8-16.3,48.8-48.9V273.1z M550.7,486.5c0-32.6-16.3-48.9-48.8-48.9h-54.8c-32.5,0-48.8,16.3-48.8,48.9v54.8
	c0,32.6,16.3,48.9,48.8,48.9h54.8c32.5,0,48.8-16.3,48.8-48.9V486.5z"/>
</svg>
