<svg xmlns="http://www.w3.org/2000/svg" id="logo" viewBox="0 0 513 205">
    <path d="M449.193,133.1l.06.01a11.32,11.32,0,0,0,1.48.1,10.291,10.291,0,0,0,10.321-8.838c.444-3.112.471-7.489-1.929-10.668a9.363,9.363,0,0,0-6.487-3.587,9.194,9.194,0,0,0-7.515,2.259,14.232,14.232,0,0,0-4.633,9.361C440.047,126.489,442.573,132.051,449.193,133.1Z"></path>
    <path d="M391.322,133.1l.06.01a11.32,11.32,0,0,0,1.48.1,10.294,10.294,0,0,0,10.323-8.84c.442-3.113.466-7.491-1.933-10.668a9.375,9.375,0,0,0-6.487-3.586,9.207,9.207,0,0,0-7.513,2.259,14.239,14.239,0,0,0-4.632,9.362C382.179,126.489,384.705,132.051,391.322,133.1Z"></path>
    <path d="M510.16,145.475c-1.731-.892-4.2-.429-5.8,2.6-6.28,11.5-20.987,38.43-35.716,38.988-3.683.192-6.333-.788-8.3-3.078-4.547-5.293-5.042-17.371-1.431-34.929a12.323,12.323,0,0,0,.366-2.194c0-3.335-2.432-6.03-6.05-6.708-3.777-.705-8.486.849-10.177,5.2l-.128.457c-.01.049-1.087,6.143-1.966,12.045-11.313,19.049-21.463,28.875-30.187,29.205-3.693.194-6.333-.788-8.3-3.078-4.548-5.293-5.043-17.371-1.431-34.929a12.323,12.323,0,0,0,.366-2.194c0-3.335-2.432-6.03-6.049-6.708-3.771-.7-8.487.848-10.178,5.2l-.129.462c-.012.064-1.281,7.239-2.2,13.673-11.454,19.158-22.877,28.472-34.916,28.472-6.947,0-13.472-3.852-18.468-10.876,10.113-12.626,32.411-50.825,38.031-90.286,3.222-21.108,1.443-36.578-5.145-44.739A17.129,17.129,0,0,0,349.6,35.522c-5.008-.32-9.969,1.743-14.706,6.136C317.71,57.587,306.4,101.772,306.153,125.2c-.269,29.785-.675,74.8,38.355,76.787.7.035,1.381.053,2.062.053,16.936,0,29.42-10.944,37.355-21.094,2.7,8.985,9.313,21.048,25.392,21.047l.388,0c13.177,0,24.411-11.032,32.014-21.306,2.664,9.123,9.259,21.309,25.466,21.309l.391,0c22.172,0,38.977-31.461,42.12-37.767C514.411,154.761,513.635,147.263,510.16,145.475ZM351.215,92.108l-.006.021c-10.042,39.721-14.792,52.272-27.866,71.83-2.789-11.267-3.925-28.018-3.205-37.913,3.929-40.886,20.209-74.418,28.622-74.418.081,0,.163,0,.243.01a2.759,2.759,0,0,1,2.211,1.371C356.245,59.943,353.185,84.776,351.215,92.108Z"></path>
    <path d="M150.311,124.575c27.368-10.747,61.77-31.735,70.214-70.6l.024-.1c1.784-8.351-.612-16.977-6.932-24.944C201.784,14.01,177.082,2.869,154.884,2.442,127.026,1.868,114.24,3.977,89.766,11c.835-5.876-1.1-7.782-4.613-8.9a9.4,9.4,0,0,1-.929-.325C81.568.532,78.559-.876,75.726.7c-2.366,1.318-3.7,4.257-4.321,9.527-.159.812-.31,1.869-.507,3.254-.129.907-.276,1.937-.454,3.081C51.48,22.682,38.218,28.673,18.376,40.043l-.852.474C9.468,44.993.337,50.066,0,60.268,0,61.638.967,71.2,5.186,73.3a4.156,4.156,0,0,0,4.4-.434c2.673-1.786,2.228-4.3,1.989-5.65a2.882,2.882,0,0,1,.407-2.727c6.2-8.107,31.323-21.957,55.681-30.813-2.612,15-7.68,46.151-7.991,63.572,0,6.585-.256,14.982-.707,23.321a7.788,7.788,0,0,1-2.22-1.632,3.932,3.932,0,0,0-4.427-1.148c-2.071.856-2.825,3.257-2.843,5.242-.178,2.341.763,6.82,8.628,11.428-.4,8.666-.855,17.794-1.231,25.357l-.012.245c-.474,9.548-.787,15.855-.786,16.808l-.03.332c-1.1,11.608,2.291,19.3,9.533,21.646a18.216,18.216,0,0,0,5.595,1.156,5.11,5.11,0,0,0,3.481-1.146c2.027-1.779,1.482-4.559,1.085-6.591-.118-.6-.229-1.172-.272-1.579,0-.776-.088-2.806-.242-6.521-.384-9.285-1.171-28.3-1.25-45.142C88.7,139.751,119.772,136.566,150.311,124.575Zm-3.665-13.207c-26.182,10.918-54.989,14.122-72.6,12.513.328-9.01.915-17.36,1.7-24.2,1.365-9.923,2.554-20.508,3.711-30.8,1.789-15.916,3.482-30.973,5.551-40.968,24.732-8.1,42.515-11.992,70.032-10.854,12.751.465,35.546,3.01,44.944,14.832,3.816,4.8,5.051,10.849,3.671,17.971C197.007,83.822,168.984,102.053,146.646,111.368Z"></path>
    <path d="M285.9,123.641l-.015,0c-6.416-.807-12.47,1.257-18,6.135-5.67,5-10,12.319-13.152,19.319a644.134,644.134,0,0,1,15.8-96.083c.388-1.621.578-2.421.669-2.963,1.316-4.981-2.523-11.578-7.931-13.6-1.7-.639-7.538-2.138-11.138,5.292l-.2.409-.041.449c-6.813,72.47-13.405,113.08-13.472,113.484s-.31,1.847-.605,4.053c-6.472,11.533-15.592,24.468-29.024,23.041-6.944-.8-7.983-10.434-7.987-16.02.229-4.116.371-7.677.486-10.548.193-4.815.333-8.295.644-10.035.223-.895.525-1.745.818-2.567.765-2.146,1.555-4.365.418-6.545-.852-1.632-2.574-2.754-5.452-3.54a7.764,7.764,0,0,0-6.135.752c-2.118,1.291-3.6,3.681-4.4,7.081-.614,2.464-1.172,4.941-1.67,7.155-.511,2.268-1.039,4.612-1.629,6.979-2.4,9.639-10.972,25.732-15.539,25.188a3.561,3.561,0,0,1-2.678-1.77c-3.92-6.02-.743-23.891,2.347-34.426.309-1.032.661-2.043,1.014-3.058,1.186-3.4,2.305-6.62.905-9.3a6.343,6.343,0,0,0-4.156-3.073c-3.057-.972-5.637-.837-7.67.4a8.211,8.211,0,0,0-3.623,5.913c-.11.362-.257.83-.435,1.393a168.057,168.057,0,0,0-6.2,25.583c-1.392,9.537,1.072,20.286,6.132,26.749a16.852,16.852,0,0,0,11.736,6.773c11.3.915,18.619-9.727,22.242-16.949,2.785,7.129,9.24,17.561,23.151,17.561h0l.432,0c9.849-.19,18.7-7.289,25.028-14.227a38.754,38.754,0,0,0,2.29,12.365c3.026,7.484,7.357,7.838,9.674,7.387a9.706,9.706,0,0,0,4.051-2c3.167,1.99,9.053,4.391,13.979,4.6.138.006.278.009.423.009,9.343,0,29.463-11.9,33.637-39.4,2.584-16.427,1.213-28.77-3.965-35.693A15.5,15.5,0,0,0,285.9,123.641Zm-3.466,15.2a4.4,4.4,0,0,1,4.356,2.135c3.889,5.881,1.9,21.343-4.346,33.765-4.734,9.416-10.854,15.006-16.76,15.336a8.067,8.067,0,0,1-8.13-5.974C260.938,168.493,270.366,139.452,282.43,138.837Z"></path>
</svg>
