<svg viewBox="0 0 943 300" version="1.1" 
    xmlns="http://www.w3.org/2000/svg" 
    xmlns:xlink="http://www.w3.org/1999/xlink">

    <defs/>
    <g id="logo-ratio-&amp;-clearance" stroke="none" stroke-width="1" fill="none" fill-rule="evenodd">
        <g id="logoWordmarkH" transform="translate(-25.000000, -25.000000)">
            <g id="Page-1-Copy-15" transform="translate(25.000000, 25.000000)">
                <g id="Logo" transform="translate(0.770000, 0.000000)">
                    <path d="M214.314991,14.4488651 C194.823505,5.18428345 173.01718,0 150,0 C109.846784,0 73.3784911,15.7770277 46.4560691,41.470134 C17.8330899,68.7861475 264.976651,38.5290758 214.314991,14.4488651 Z" id="Melon" fill="#FCC397"/>
                    <path d="M267.184919,56.3551493 C267.356272,56.5692972 254.950736,73.14983 217.666247,77.8569514 C142.410047,87.357955 13.2076983,88.3624948 13.4024343,87.9345926 C21.3950437,70.3720741 32.6750991,54.6217501 46.4564643,41.4697568 C62.694217,46.5395391 80.3683401,47.8028951 97.0860518,44.7221069 C124.690045,39.6721069 149.249113,23.7221069 176.553606,17.2221069 C188.673205,14.3105291 201.877181,13.4600632 214.312978,14.4479084 C234.977085,24.2694719 253.039549,38.6770326 267.184919,56.3551493 Z" id="Peach" fill="#FC9F95"/>
                    <path d="M298.170332,126.502977 C298.265397,127.107254 128.467702,143.067908 45.737916,138.415831 C18.783714,136.900138 2.87650848,120.603539 3.05893919,119.713759 C5.33236012,108.625465 8.8293322,97.9832075 13.4025896,87.9342513 C37.3035354,74.8519641 65.4228952,67.3020518 92.6893669,67.6 C126.882379,67.95 160.426472,79.35 194.619483,78.5 C220.012733,77.8541749 245.607775,69.7494779 267.18465,56.3548125 C283.086079,76.22744 294.037526,100.233047 298.170332,126.502977 Z" id="Sexy-Salmon" fill="#F77C88"/>
                    <path d="M300,150 C300,150.831128 299.979773,152.488595 299.979773,152.488595 C299.979773,152.488595 252.818334,164.383893 192.080363,163.674209 C107.007657,162.680189 0.00333776824,148.957901 0.00546015999,148.706611 C0.0895193637,138.754053 1.14285203,129.032674 3.07567272,119.632259 C23.4578026,132.208475 48.1761821,138.367786 71.9674146,135.775305 C90.8858838,133.725305 108.855934,126.725305 126.376732,119.275305 C143.897531,111.825305 161.318496,103.825305 179.837631,99.5253053 C207.04229,93.2253053 236.143787,95.4253053 262.150443,105.675305 C274.802224,110.664623 287.35566,117.837598 298.167855,126.487238 C299.373838,134.147675 300,142.000713 300,150 Z" id="Flamingo" fill="#F25192"/>
                    <path d="M129.886396,198.70373 C84.8829168,207.014498 7.65146215,197.428843 7.45683674,196.836157 C2.61764281,182.099549 0,166.355466 0,150 C0,149.568081 0.00182552912,149.136589 0.00546929256,148.70553 C6.8373527,143.288188 14.8174542,138.457692 22.6077133,134.704234 C41.8756001,125.354234 63.7391609,121.454234 85.0536367,123.554234 C106.118529,125.654234 126.235001,133.454234 145.702555,141.854234 C162.103915,148.93121 178.398982,156.576028 195.423571,161.858458 C197.091257,162.375912 179.42485,189.555492 129.886396,198.70373 Z" id="Mulberry" fill="#D34CA3"/>
                    <path d="M294.588488,190.069445 C291.446074,195.376484 261.559128,213.25467 221.045758,216.316533 C167.404115,220.370587 104.034932,204.155955 125.055741,195.904341 C158.150583,182.904341 186.852746,159.554341 221.045757,149.804341 C246.589295,142.486912 274.904279,143.643873 299.979819,152.485812 C299.768646,165.482565 297.904513,178.077466 294.588488,190.069445 Z" id="Grape-Jelly" fill="#9A50A5"/>
                    <path d="M280.072008,224.758554 C254.170842,269.726773 66.3173889,281.003768 38.8747051,250.754698 C24.9054374,235.356883 14.0922541,217.043279 7.45650024,196.835231 C30.5257581,183.65 57.5307498,178.05 83.4874886,181.6 C117.081499,186.2 147.181332,204.95 180.326091,212.25 C207.081499,218.15 235.434244,216.3 261.191316,207 C272.834897,202.763445 284.380102,197.086049 294.589169,190.066867 C291.197488,202.333304 286.286705,213.968929 280.072008,224.758554 Z" id="Indigo" fill="#59569E"/>
                    <path d="M280.287757,224.382775 C254.441043,269.558039 205.77557,300 149.999995,300 C105.93255,300 66.3034741,280.997083 38.860249,250.738731 C43.4143765,252.479795 48.5079076,253.984807 53.1763681,255.3 C79.2828573,262.5 107.386019,262.3 133.342757,254.65 C149.965054,249.75 165.589014,241.95 181.911809,236.05 C213.05918,224.818258 247.341939,220.86284 280.287757,224.382775 L280.287757,224.382775 Z" id="East-Bay" fill="#39477F"/>
                </g>
                <path d="M707.708313,47.0413678 L745.181308,47.0413678 L745.181308,223.288481 L707.708313,223.288481 L707.708313,47.0413678 Z M370.775647,223.192861 L407.745451,223.192861 L407.745451,150.500785 C407.745451,138.496318 410.701644,123.607407 422.909792,123.607407 C428.510713,123.607407 433.361282,125.094248 437.859362,128.894929 C438.003573,129.039195 451.3304,97.9124978 451.186189,98.0567639 C442.900073,90.4473475 434.255845,88.6394362 427.952086,88.6394362 C414.265485,88.6394362 402.839368,96.9722563 398.261382,109.434084 L390.998913,92.3349281 L370.775647,92.3349281 L370.775647,223.192861 Z M766.173194,223.192861 L803.133574,223.192861 L803.133574,150.500785 C803.133574,138.496318 810.212157,124.250423 822.421096,124.250423 C834.661713,124.250423 835.700487,141.26034 835.700487,149.375685 C835.763842,149.60911 835.740084,223.192064 835.740084,223.192064 L872.725726,223.192064 L872.725726,151.046587 C872.725726,134.623863 881.841626,124.403462 891.749457,124.403462 C903.814503,124.403462 905.651779,137.838149 905.651779,150.500785 L905.731764,223.192064 L942.565197,223.192064 L942.565197,138.906627 C942.565197,122.064821 936.80391,88.3342365 900.41079,88.3342365 C883.121385,88.3342365 873.085262,94.0791198 864.960065,108.614184 C857.369421,94.9388945 843.49933,88.2784919 829.80481,88.2784919 C816.118209,88.2784919 801.296931,95.5252893 793.658929,110.486692 L786.395748,92.3437005 L766.173986,92.3437005 L766.173194,223.192861 Z M489.345392,141.356757 L532.850277,141.356757 C531.811582,123.785167 521.448789,117.565378 511.357706,117.565378 C501.274622,117.565378 490.575813,125.77714 489.345392,141.356757 L489.345392,141.356757 Z M523.478663,194.170495 C539.634183,194.170495 552.098203,186.561158 552.098203,186.561158 L562.54898,215.719752 C557.291914,218.596173 539.913892,225.908325 519.244532,225.908325 C471.688373,225.908325 452.584658,194.250164 452.584658,156.381879 C452.584658,120.610676 473.981405,88.0848612 512.093013,88.0848612 C549.53346,88.0848612 575.045549,119.333415 568.365465,169.470774 L488.8422,169.470774 C490.575813,187.324516 505.996027,194.170495 523.478663,194.170495 L523.478663,194.170495 Z M612.565268,183.877602 C612.565268,192.755427 626.851676,201.241286 638.795953,194.820689 C650.444682,188.55951 649.478053,178.758988 649.478053,164.906735 C627.418144,164.907533 612.565268,172.918486 612.565268,183.877602 L612.565268,183.877602 Z M665.81738,223.256605 L657.987652,207.97414 C654.247844,213.502282 642.061079,227.041368 619.620093,227.041368 C594.787084,227.041368 575.978917,209.339843 575.978917,188.642369 C575.978917,167.622988 590.529117,139.862818 649.566036,139.862818 C649.566036,125.914148 637.540903,120.723043 624.83677,120.723043 C615.11338,120.723043 601.282569,124.84567 589.482503,136.04539 L578.248903,104.250953 C586.006566,99.4065168 603.904331,87.0004335 630.558144,87.0004335 C670.276577,87.0004335 686.503371,111.112962 686.503371,149.970134 L686.503371,223.264572 L665.818172,223.264572 L665.818172,223.256605 L665.81738,223.256605 Z" id="Fill-10" fill="#1C233F"/>
            </g>
        </g>
    </g>
</svg>