<svg version="1.1" id="Layer_1" 
	xmlns="http://www.w3.org/2000/svg" 
	xmlns:xlink="http://www.w3.org/1999/xlink" viewBox="0 0 309.4 93.6" xml:space="preserve">
	<g>
		<g>
			<path fill="#723080" d="M46.5,52.4c-3.3-5.2-5.8-8.6-7.5-9.9c8.6-2.2,17.1-9.4,17.1-21.2C56.1,6.9,46.2,0,30.5,0h0l0,0    C16.7,0,8.7,6.5,6.9,17.8H0l13.7,11.7l14.5-11.7h-7.8c0,0,0.1-8.1,10.3-8.1c8.7,0,11.7,6.4,11.7,11.7c0,7.7-4.1,13.6-13.9,13.6    H6.8l0,37.6h13.7V44.3h0c3,0,5.9,1.1,11,8.6l12.2,19.7H59L46.5,52.4z"/>
			<path fill="#723080" d="M30.1,0l0.4,0v0C30.5,0,30.1,0,30.1,0z"/>
			<line fill="#723080" x1="30.1" y1="0" x2="30.1" y2="0"/>
		</g>
		<path fill="#723080" d="M241.8,72.6V4.1h12.7v68.4H241.8z"/>
		<path fill="#723080" d="M84.5,63.9c6.3,0,9.9-2,12.2-3.2l4.1,8.2c-3.1,1.7-7.9,4.5-17.4,4.5c-15.6,0-24.4-9.9-24.4-24.7   c0-14.7,10.2-24.2,23.1-24.2c14.6,0,21.6,10.4,20.1,27.6H72.5C73.1,59.2,76.7,63.9,84.5,63.9z M89.8,43.2c-0.1-5.3-2.2-9.5-8-9.5   c-5.4,0-8.4,3.3-9.3,9.5H89.8z"/>
		<path fill="#723080" d="M131.9,73.4c-14.9,0-24.1-10-24.1-24.4c0-15.7,10.4-24.5,24.5-24.5c7.6,0,12.1,2.3,14.3,3.7l-4.1,8.3   c-2.1-1.3-5.1-2.8-9.8-2.8c-7.5,0-11.4,6.3-11.4,14.9s3.7,15.3,11.7,15.3c5.4,0,8.3-2.2,9.7-3.1l3.9,8.2   C144.5,70.4,140.5,73.4,131.9,73.4z"/>
		<path fill="#723080" d="M166.3,25.9v28.8c0,4.7,1.6,7.1,6.2,7.1c4.9,0,8.6-4.7,9.6-5.8v-30h12.7v33.2c0,5.9,0.7,10.6,1.2,13.4   h-12.5c-0.4-1.2-0.9-4.3-1-6.2c-2.5,3.2-7.3,7.4-15,7.4c-10.2,0-14-6.6-14-15.1V25.9H166.3z"/>
		<path fill="#723080" d="M231.9,37.1c-0.8-0.5-2.2-1.1-4.9-1.1c-5.6,0-9,5-10.2,7.1v29.4h-12.7V25.9h12.7v6.3   c2-3.4,5.8-7.5,11.8-7.5c3.4,0,5.3,0.7,6.3,1.2L231.9,37.1z"/>
		<path fill="#723080" d="M295.3,25.9l-9,30.7l-10.9-30.7h-14l17.9,43c-3,11.7-6,15.2-12.7,15.2c-2.9,0-4.5-0.4-5.2-0.6l-1.7,9   c1,0.3,3.7,1.2,7.7,1.2c13.1,0,18.9-8.6,23.1-19.9l14.3-36l4.6-11.8L295.3,25.9z"/>
	</g>
</svg>