<svg xmlns="http://www.w3.org/2000/svg" 
    xmlns:xlink="http://www.w3.org/1999/xlink" enable-background="new 0 0 691.8 106" viewBox="0 0 691.8 106">
    <clipPath id="a">
        <path d="m115.6 61-50.1 27.9-51.1-27.9c-1.9-1.1-4.4-.3-5.4 1.6-1.1 1.9-.3 4.4 1.6 5.4l53 29c1.2.7 2.7.7 3.9 0l52-29c1.9-1.1 2.6-3.5 1.5-5.4-1.1-2-3.5-2.7-5.4-1.6zm-95-18.5 44.9-25.4 50 28.9c1.9 1.1 4.4.4 5.5-1.5s.4-4.4-1.5-5.5l-52-30c-1.2-.7-2.7-.7-4 0l-53 30c-2.7 1.5-2.7 5.4 0 7l53 30c1.9 1.1 4.4.4 5.5-1.5s.4-4.4-1.5-5.5zm-20.6 21v-20c-.4-4.6 1.7-9.3 6.3-11.9l53-30c3.9-2.2 8.6-2.2 12.4.1l52 30c4.3 2.5 6.6 7.2 6.2 11.8v20c.4 4.7-2 9.5-6.4 11.9l-52 29c-3.8 2.1-8.3 2.1-12.1 0l-53-29c-4.4-2.4-6.7-7.1-6.4-11.9z"/>
    </clipPath>
    <clipPath id="b">
        <path d="m-53.5-294.5h720v512h-720z"/>
    </clipPath>
    <clipPath>
        <path d="m115.6 190-50.1 27.9-51.1-27.9c-1.9-1.1-4.4-.3-5.4 1.6-1.1 1.9-.3 4.4 1.6 5.4l53 29c1.2.7 2.7.7 3.9 0l52-29c1.9-1.1 2.6-3.5 1.5-5.4-1.1-2-3.5-2.7-5.4-1.6zm-95-18.5 44.9-25.4 50 28.9c1.9 1.1 4.4.4 5.5-1.5s.4-4.4-1.5-5.5l-52-30c-1.2-.7-2.7-.7-4 0l-53 30c-2.7 1.5-2.7 5.4 0 7l53 30c1.9 1.1 4.4.4 5.5-1.5s.4-4.4-1.5-5.5zm-20.6 21v-20c-.4-4.6 1.7-9.3 6.3-11.9l53-30c3.9-2.2 8.6-2.2 12.4.1l52 30c4.3 2.5 6.6 7.2 6.2 11.8v20c.4 4.7-2 9.5-6.4 11.9l-52 29c-3.8 2.1-8.3 2.1-12.1 0l-53-29c-4.4-2.4-6.7-7.1-6.4-11.9z"/>
    </clipPath>
    <g fill="#031e34">
        <path d="m185.4 59.6c-2.7-.8-7.9-2.1-12.7-5.5-6.7-4.7-10.4-11.5-10.8-19.9-.4-7.1 1.8-13.2 6.1-18 6.2-6.8 15.2-8.7 19.5-8.7 12.2 0 19 4.7 25.1 8.8l2.7 1.9-8.7 15-3-2c-5.4-3.7-8.8-6-16.1-6-1.1 0-5.3.9-7.4 3.3-.7.8-1.6 2.1-1.4 5 .1 4.5 3.1 7.1 10.8 9.1 1 .3 1.7.5 2.4.8 8 2.9 14.2 6.8 18.5 11.7 4.3 5 6.6 11 6.6 17.3 0 6.2-2.5 12.6-6.7 17.5-4.9 5.8-11.7 9.1-19.2 9.1-3.7 0-8.7-.3-14.7-2.1-7.5-2.5-14.2-6.9-20-13.4l12.2-12.1c8.8 10 18.8 10 22.5 10 6.9 0 9.2-6.7 9.2-8.9 0-4.8-5.1-9.2-13.9-12.3l-.4-.1z"/>
        <path d="m289.1 8.6v17.6h-23.2v70.8h-16.7v-70.7h-23.3v-17.7z"/>
        <path d="m346.8 80.6h-34.7l-7.8 16.4h-18.8l42.7-88.3h4.9l39.6 88.3h-18.5zm-7.9-17.6-8.7-19.7-9.4 19.7z"/>
        <path d="m434.8 30.1c-16.2-11.1-40.7-.8-40.7 22.9 0 24.8 25.9 34.8 41.7 22.2l10.8 13c-7.5 6.6-17.2 10.6-27.7 10.6-23.9 0-43.4-20.5-43.4-45.7s19.5-45.7 43.4-45.7c10 0 19.4 3.7 26.8 9.7z"/>
        <path d="m481.8 56.5-6.5 6.9v33.4h-16.7v-88.2h16.7v28.5l24.5-28.5h22.6l-29.3 34.5 30 53.7h-20z"/>
        <path d="m561 81.9c5.6 0 10.3-4.7 10.3-10.6s-4.7-10.7-10.3-10.7h-27.4v-52h22.8c13.5 0 24.5 11.6 24.5 25.8 0 5.4-1.6 10.3-4.3 14.5 6.1 4.9 9.9 12.6 9.9 21.2 0 14.9-11.4 26.7-25.3 26.7h-6v-15h5.8zm-5.3-38.4c4.7 0 9.7-4 9.7-10.2s-5-10-9.7-10h-7.3v20.2z"/>
        <path d="m601.1 96.9v-88.3h16.7v88.2h-16.7z"/>
        <path d="m691.8 8.6v17.6h-23.2v70.8h-16.7v-70.7h-23.3v-17.7z"/>
    </g>
    <path d="m549.1 96.9h-15.5v-15h15.5z" fill="#3eb2fd"/>
    <g clip-path="url(#a)">
        <path clip-path="url(#b)" d="m-2.5-2.5h135v111h-135z" fill="#3eb0fd"/>
    </g>
</svg>