<svg xmlns="http://www.w3.org/2000/svg" 
    xmlns:xlink="http://www.w3.org/1999/xlink" viewBox="0 0 290.64 62.92">
    <defs>
        <style>.cls-1{fill:none;}.cls-2{fill:#000;}.cls-3{clip-path:url(#clip-path);}.cls-4{fill:#24e4d9;}.cls-5{fill:#25e4d9;}.cls-6{fill:#26e5d8;}.cls-7{fill:#27e5d7;}.cls-8{fill:#28e6d6;}.cls-9{fill:#29e6d5;}.cls-10{fill:#2ae6d4;}.cls-11{fill:#2be7d3;}.cls-12{fill:#2ce7d3;}.cls-13{fill:#2de8d2;}.cls-14{fill:#2ee8d1;}.cls-15{fill:#2fe8d0;}.cls-16{fill:#30e9cf;}.cls-17{fill:#31e9ce;}.cls-18{fill:#33eace;}.cls-19{fill:#34eacd;}.cls-20{fill:#35ebcc;}.cls-21{fill:#36ebcb;}.cls-22{fill:#37ebca;}.cls-23{fill:#38ecc9;}.cls-24{fill:#39ecc9;}.cls-25{fill:#3aedc8;}.cls-26{fill:#3bedc7;}.cls-27{fill:#3cedc6;}.cls-28{fill:#3deec5;}.cls-29{fill:#3eeec4;}.cls-30{fill:#3fefc3;}.cls-31{fill:#40efc3;}.cls-32{fill:#41f0c2;}.cls-33{fill:#42f0c1;}.cls-34{fill:#43f0c0;}.cls-35{fill:#44f1bf;}.cls-36{fill:#45f1be;}.cls-37{fill:#46f2be;}.cls-38{fill:#47f2bd;}.cls-39{fill:#48f3bc;}.cls-40{fill:#49f3bb;}.cls-41{fill:#4af3ba;}.cls-42{fill:#4bf4b9;}.cls-43{fill:#4cf4b9;}.cls-44{fill:#4df5b8;}.cls-45{fill:#4ef5b7;}.cls-46{fill:#4ff5b6;}.cls-47{fill:#50f6b5;}.cls-48{fill:#51f6b4;}.cls-49{fill:#52f7b4;}.cls-50{fill:#53f7b3;}.cls-51{fill:#54f8b2;}.cls-52{fill:#55f8b1;}.cls-53{clip-path:url(#clip-path-2);}.cls-54{fill:#0fdbeb;}.cls-55{fill:#10dbea;}.cls-56{fill:#11dce9;}.cls-57{fill:#12dce8;}.cls-58{fill:#13dde8;}.cls-59{fill:#14dde7;}.cls-60{fill:#15dee6;}.cls-61{fill:#16dee5;}.cls-62{fill:#17dee4;}.cls-63{fill:#18dfe3;}.cls-64{fill:#19dfe3;}.cls-65{fill:#1ae0e2;}.cls-66{fill:#1be0e1;}.cls-67{fill:#1ce0e0;}.cls-68{fill:#1de1df;}.cls-69{fill:#1ee1de;}.cls-70{fill:#1fe2de;}.cls-71{fill:#20e2dd;}.cls-72{fill:#21e3dc;}.cls-73{fill:#22e3db;}.cls-74{fill:#23e3da;}.cls-75{clip-path:url(#clip-path-3);}.cls-76{clip-path:url(#clip-path-4);}.cls-77{fill:#294ea1;}.cls-78{fill:#284fa2;}.cls-79{fill:#2851a3;}.cls-80{fill:#2853a4;}.cls-81{fill:#2854a4;}.cls-82{fill:#2756a5;}.cls-83{fill:#2757a6;}.cls-84{fill:#2759a7;}.cls-85{fill:#265aa8;}.cls-86{fill:#265ca9;}.cls-87{fill:#265ea9;}.cls-88{fill:#265faa;}.cls-89{fill:#2561ab;}.cls-90{fill:#2562ac;}.cls-91{fill:#2564ad;}.cls-92{fill:#2465ad;}.cls-93{fill:#2467ae;}.cls-94{fill:#2468af;}.cls-95{fill:#246ab0;}.cls-96{fill:#236bb0;}.cls-97{fill:#236db1;}.cls-98{fill:#236eb2;}.cls-99{fill:#236fb3;}.cls-100{fill:#2271b3;}.cls-101{fill:#2272b4;}.cls-102{fill:#2274b5;}.cls-103{fill:#2275b6;}.cls-104{fill:#2177b6;}.cls-105{fill:#2178b7;}.cls-106{fill:#2179b8;}.cls-107{fill:#217bb9;}.cls-108{fill:#207cb9;}.cls-109{fill:#207dba;}.cls-110{fill:#207fbb;}.cls-111{fill:#2080bb;}.cls-112{fill:#1f82bc;}.cls-113{fill:#1f83bd;}.cls-114{fill:#1f84be;}.cls-115{fill:#1f85be;}.cls-116{fill:#1e87bf;}.cls-117{fill:#1e88c0;}.cls-118{fill:#1e89c0;}.cls-119{fill:#1e8bc1;}.cls-120{fill:#1d8cc2;}.cls-121{fill:#1d8dc2;}.cls-122{fill:#1d8ec3;}.cls-123{fill:#1d90c4;}.cls-124{fill:#1d91c4;}.cls-125{fill:#1c92c5;}.cls-126{fill:#1c93c5;}.cls-127{fill:#1c95c6;}.cls-128{fill:#1c96c7;}.cls-129{fill:#1b97c7;}.cls-130{fill:#1b98c8;}.cls-131{fill:#1b99c9;}.cls-132{fill:#1b9ac9;}.cls-133{fill:#1b9cca;}.cls-134{fill:#1a9dca;}.cls-135{fill:#1a9ecb;}.cls-136{fill:#1a9fcc;}.cls-137{fill:#1aa0cc;}.cls-138{fill:#1aa1cd;}.cls-139{fill:#19a2cd;}.cls-140{fill:#19a3ce;}.cls-141{fill:#19a5cf;}.cls-142{fill:#19a6cf;}.cls-143{fill:#19a7d0;}.cls-144{fill:#18a8d0;}.cls-145{fill:#18a9d1;}.cls-146{fill:#18aad1;}.cls-147{fill:#18abd2;}.cls-148{fill:#18acd2;}.cls-149{fill:#17add3;}.cls-150{fill:#17aed3;}.cls-151{fill:#17afd4;}.cls-152{fill:#17b0d4;}.cls-153{fill:#17b1d5;}.cls-154{fill:#17b2d5;}.cls-155{fill:#16b3d6;}.cls-156{fill:#16b4d6;}.cls-157{fill:#16b5d7;}.cls-158{fill:#16b6d7;}.cls-159{fill:#16b6d8;}.cls-160{fill:#15b7d8;}.cls-161{fill:#15b8d9;}.cls-162{fill:#15b9d9;}.cls-163{fill:#15bada;}.cls-164{fill:#15bbda;}.cls-165{fill:#15bcdb;}.cls-166{fill:#15bddb;}.cls-167{fill:#14bddc;}.cls-168{fill:#14bedc;}.cls-169{fill:#14bfdc;}.cls-170{fill:#14c0dd;}.cls-171{fill:#14c1dd;}.cls-172{fill:#14c1de;}.cls-173{fill:#14c2de;}.cls-174{fill:#13c3de;}.cls-175{fill:#13c4df;}.cls-176{fill:#13c5df;}.cls-177{fill:#13c5e0;}.cls-178{fill:#13c6e0;}.cls-179{fill:#13c7e0;}.cls-180{fill:#13c7e1;}.cls-181{fill:#12c8e1;}.cls-182{fill:#12c9e1;}.cls-183{fill:#12c9e2;}.cls-184{fill:#12cae2;}.cls-185{fill:#12cbe3;}.cls-186{fill:#12cce3;}.cls-187{fill:#12cde3;}.cls-188{fill:#12cde4;}.cls-189{fill:#11cee4;}.cls-190{fill:#11cfe5;}.cls-191{fill:#11d0e5;}.cls-192{fill:#11d1e6;}.cls-193{fill:#11d2e6;}.cls-194{fill:#11d3e7;}.cls-195{fill:#10d3e7;}.cls-196{fill:#10d4e7;}.cls-197{fill:#10d5e8;}.cls-198{fill:#10d6e8;}.cls-199{fill:#10d7e9;}.cls-200{fill:#10d8e9;}.cls-201{fill:#10d8ea;}.cls-202{fill:#0fd9ea;}.cls-203{fill:#0fdaea;}.cls-204{clip-path:url(#clip-path-5);}.cls-205{fill:#0fdaeb;}.cls-206{clip-path:url(#clip-path-6);}</style>
        <clipPath id="clip-path" transform="translate(0 0)">
            <path class="cls-1" d="M62.92,31.46A31.51,31.51,0,0,1,37.14,62.4a31.14,31.14,0,0,0,5.67.52A31.46,31.46,0,0,0,42.81,0a32.06,32.06,0,0,0-5.67.52A31.51,31.51,0,0,1,62.92,31.46Z"/>
        </clipPath>
        <clipPath id="clip-path-2" transform="translate(0 0)">
            <path class="cls-1" d="M11.41,31.46A20.08,20.08,0,0,0,31.46,51.52a19.81,19.81,0,0,0,5.68-.83,20,20,0,0,1,0-38.46A20.05,20.05,0,0,0,11.41,31.46Z"/>
        </clipPath>
        <clipPath id="clip-path-3" transform="translate(0 0)">
            <path class="cls-1" d="M74.27,31.46V31.4H62.86v.06a20.06,20.06,0,1,1-40.11,0V31.4H11.35v.06a31.46,31.46,0,0,0,62.92,0Z"/>
        </clipPath>
        <clipPath id="clip-path-4" transform="translate(0 0)">
            <path class="cls-1" d="M11.35,31.46A31.51,31.51,0,0,1,37.14.52,32.26,32.26,0,0,0,31.46,0a31.46,31.46,0,1,0,5.68,62.4A31.51,31.51,0,0,1,11.35,31.46Z"/>
        </clipPath>
        <clipPath id="clip-path-5" transform="translate(0 0)">
            <path class="cls-1" d="M62.86,31.46A20,20,0,0,0,37.14,12.23a20,20,0,0,1,0,38.46,19.69,19.69,0,0,0,5.67.83A20.08,20.08,0,0,0,62.86,31.46Z"/>
        </clipPath>
        <clipPath id="clip-path-6" transform="translate(0 0)">
            <path class="cls-1" d="M0,31.46v.06H11.41v-.06a20.06,20.06,0,0,1,40.11,0v.06h11.4v-.06A31.46,31.46,0,0,0,0,31.46Z"/>
        </clipPath>
    </defs>
    <title>Asset 5</title>
    <g id="Layer_2" data-name="Layer 2">
        <g id="Layer_1-2" data-name="Layer 1">
            <path class="cls-2" d="M92,52.14v-8L108,26.2H92.41V18.29h27.31v7.64L103.21,44.16H120v8Z" transform="translate(0 0)"/>
            <path class="cls-2" d="M154.11,42.44c-1.72,5.84-7.09,10.73-15.41,10.73-9.29,0-17.47-6.67-17.47-18.09,0-10.8,8-17.82,16.65-17.82,10.45,0,16.71,6.67,16.71,17.54,0,1.31-.14,2.68-.14,2.82H130.24a8.25,8.25,0,0,0,8.53,7.71c4.26,0,6.6-2.14,7.7-5.16Zm-8.53-11.08c-.14-3.37-2.34-6.67-7.57-6.67a7.32,7.32,0,0,0-7.56,6.67Z" transform="translate(0 0)"/>
            <path class="cls-2" d="M179,27.37a14.33,14.33,0,0,0-2.76-.27c-4.67,0-8.73,2.27-8.73,9.56V52.14h-9.15V18.29h8.87v5C169.31,18.84,174,18,176.87,18a20.6,20.6,0,0,1,2.14.14Z" transform="translate(0 0)"/>
            <path class="cls-2" d="M214.64,35.21c0,10.39-7.64,18-17.75,18s-17.75-7.57-17.75-18,7.64-17.95,17.75-17.95S214.64,24.76,214.64,35.21Zm-9.15,0c0-6.39-4.13-9.63-8.6-9.63s-8.6,3.24-8.6,9.63,4.13,9.63,8.6,9.63S205.49,41.61,205.49,35.21Z" transform="translate(0 0)"/>
            <path class="cls-2" d="M218.42,52.14V2.33h9V22c1.51-2.41,5.22-4.61,10.25-4.61,9.9,0,15.61,7.63,15.61,17.68,0,10.25-6.33,17.88-16,17.88-4.68,0-8.25-2.06-10-5v4.13Zm17.33-26.56c-4.61,0-8.46,3.37-8.46,9.57s3.85,9.63,8.46,9.63,8.39-3.44,8.39-9.63S240.43,25.58,235.75,25.58Z" transform="translate(0 0)"/>
            <path class="cls-2" d="M261.61,1.51A5.64,5.64,0,1,1,256,7.22,5.64,5.64,0,0,1,261.61,1.51Zm-4.54,50.63V18.29h9.15V52.14Z" transform="translate(0 0)"/>
            <path class="cls-2" d="M283.83,18.29h6.81v8.12h-6.81V40.58c0,3,1.37,3.92,4,3.92a13.12,13.12,0,0,0,2.82-.28v7.57a13.46,13.46,0,0,1-5.16.83c-6.61,0-10.73-3.92-10.73-10.46V26.41h-6.13V18.29h1.72c3.58,0,5.23-2.34,5.23-5.36V8.18h8.26Z" transform="translate(0 0)"/>
            <g class="cls-3">
                <polygon class="cls-4" points="37.17 0 37.13 0.06 37.13 0 37.17 0"/>
                <polygon class="cls-5" points="37.64 0 37.13 0.98 37.13 0.06 37.17 0 37.64 0"/>
                <polygon class="cls-6" points="38.1 0 37.13 1.89 37.13 0.98 37.64 0 38.1 0"/>
                <polygon class="cls-7" points="38.57 0 37.13 2.81 37.13 1.89 38.1 0 38.57 0"/>
                <polygon class="cls-8" points="39.04 0 37.13 3.72 37.13 2.81 38.57 0 39.04 0"/>
                <polygon class="cls-9" points="39.51 0 37.13 4.63 37.13 3.72 39.04 0 39.51 0"/>
                <polygon class="cls-10" points="39.98 0 37.13 5.55 37.13 4.63 39.51 0 39.98 0"/>
                <polygon class="cls-11" points="40.45 0 37.13 6.46 37.13 5.55 39.98 0 40.45 0"/>
                <polygon class="cls-12" points="40.92 0 37.13 7.37 37.13 6.46 40.45 0 40.92 0"/>
                <polygon class="cls-13" points="41.38 0 37.13 8.29 37.13 7.37 40.92 0 41.38 0"/>
                <polygon class="cls-14" points="41.85 0 37.13 9.2 37.13 8.29 41.38 0 41.85 0"/>
                <polygon class="cls-15" points="42.32 0 37.13 10.12 37.13 9.2 41.85 0 42.32 0"/>
                <polygon class="cls-16" points="42.79 0 37.13 11.03 37.13 10.12 42.32 0 42.79 0"/>
                <polygon class="cls-17" points="43.26 0 37.13 11.94 37.13 11.03 42.79 0 43.26 0"/>
                <polygon class="cls-18" points="43.73 0 37.13 12.86 37.13 11.94 43.26 0 43.73 0"/>
                <polygon class="cls-19" points="44.2 0 37.13 13.77 37.13 12.86 43.73 0 44.2 0"/>
                <polygon class="cls-20" points="44.66 0 37.13 14.68 37.13 13.77 44.2 0 44.66 0"/>
                <polygon class="cls-21" points="45.13 0 37.13 15.6 37.13 14.68 44.66 0 45.13 0"/>
                <polygon class="cls-22" points="45.6 0 37.13 16.51 37.13 15.6 45.13 0 45.6 0"/>
                <polygon class="cls-23" points="46.07 0 37.13 17.43 37.13 16.51 45.6 0 46.07 0"/>
                <polygon class="cls-24" points="46.54 0 37.13 18.34 37.13 17.43 46.07 0 46.54 0"/>
                <polygon class="cls-25" points="47.01 0 37.13 19.25 37.13 18.34 46.54 0 47.01 0"/>
                <polygon class="cls-26" points="47.48 0 37.13 20.17 37.13 19.25 47.01 0 47.48 0"/>
                <polygon class="cls-27" points="47.95 0 37.13 21.08 37.13 20.17 47.48 0 47.95 0"/>
                <polygon class="cls-28" points="48.41 0 37.13 21.99 37.13 21.08 47.95 0 48.41 0"/>
                <polygon class="cls-29" points="48.88 0 37.13 22.91 37.13 21.99 48.41 0 48.88 0"/>
                <polygon class="cls-30" points="49.35 0 37.13 23.82 37.13 22.91 48.88 0 49.35 0"/>
                <polygon class="cls-31" points="49.82 0 37.13 24.74 37.13 23.82 49.35 0 49.82 0"/>
                <polygon class="cls-32" points="50.29 0 37.13 25.65 37.13 24.74 49.82 0 50.29 0"/>
                <polygon class="cls-33" points="50.76 0 37.13 26.56 37.13 25.65 50.29 0 50.76 0"/>
                <polygon class="cls-34" points="51.23 0 37.13 27.48 37.13 26.56 50.76 0 51.23 0"/>
                <polygon class="cls-35" points="51.69 0 37.13 28.39 37.13 27.48 51.23 0 51.69 0"/>
                <polygon class="cls-36" points="52.16 0 37.13 29.3 37.13 28.39 51.69 0 52.16 0"/>
                <polygon class="cls-37" points="52.63 0 37.13 30.22 37.13 29.3 52.16 0 52.63 0"/>
                <polygon class="cls-38" points="53.1 0 37.13 31.13 37.13 30.22 52.63 0 53.1 0"/>
                <polygon class="cls-39" points="53.57 0 37.13 32.05 37.13 31.13 53.1 0 53.57 0"/>
                <polygon class="cls-40" points="54.04 0 37.13 32.96 37.13 32.05 53.57 0 54.04 0"/>
                <polygon class="cls-41" points="54.51 0 37.13 33.87 37.13 32.96 54.04 0 54.51 0"/>
                <polygon class="cls-42" points="54.98 0 37.13 34.79 37.13 33.87 54.51 0 54.98 0"/>
                <polygon class="cls-43" points="55.44 0 37.13 35.7 37.13 34.79 54.98 0 55.44 0"/>
                <polygon class="cls-44" points="55.91 0 37.13 36.62 37.13 35.7 55.44 0 55.91 0"/>
                <polygon class="cls-45" points="56.38 0 37.13 37.53 37.13 36.62 55.91 0 56.38 0"/>
                <polygon class="cls-46" points="56.85 0 37.13 38.44 37.13 37.53 56.38 0 56.85 0"/>
                <polygon class="cls-47" points="57.32 0 37.13 39.36 37.13 38.44 56.85 0 57.32 0"/>
                <polygon class="cls-48" points="57.79 0 37.13 40.27 37.13 39.36 57.32 0 57.79 0"/>
                <polygon class="cls-49" points="58.26 0 37.13 41.18 37.13 40.27 57.79 0 58.26 0"/>
                <polygon class="cls-50" points="58.72 0 37.13 42.1 37.13 41.18 58.26 0 58.72 0"/>
                <polygon class="cls-51" points="59.19 0 37.13 43.01 37.13 42.1 58.72 0 59.19 0"/>
                <polygon class="cls-52" points="59.66 0 37.13 43.92 37.13 43.01 59.19 0 59.66 0"/>
                <polygon class="cls-52" points="64.54 0 74.27 4.99 74.27 62.92 37.13 62.92 37.13 43.92 59.66 0 64.54 0"/>
            </g>
            <g class="cls-53">
                <polygon class="cls-54" points="21.01 11.41 11.41 30.13 11.41 11.41 21.01 11.41"/>
                <polygon class="cls-54" points="21.48 11.41 11.41 31.04 11.41 30.13 21.01 11.41 21.48 11.41"/>
                <polygon class="cls-55" points="21.95 11.41 11.41 31.96 11.41 31.04 21.48 11.41 21.95 11.41"/>
                <polygon class="cls-56" points="22.41 11.41 11.41 32.87 11.41 31.96 21.95 11.41 22.41 11.41"/>
                <polygon class="cls-57" points="22.88 11.41 11.41 33.78 11.41 32.87 22.41 11.41 22.88 11.41"/>
                <polygon class="cls-58" points="23.35 11.41 11.41 34.7 11.41 33.78 22.88 11.41 23.35 11.41"/>
                <polygon class="cls-59" points="23.82 11.41 11.41 35.61 11.41 34.7 23.35 11.41 23.82 11.41"/>
                <polygon class="cls-60" points="24.29 11.41 11.41 36.53 11.41 35.61 23.82 11.41 24.29 11.41"/>
                <polygon class="cls-61" points="24.76 11.41 11.41 37.44 11.41 36.53 24.29 11.41 24.76 11.41"/>
                <polygon class="cls-62" points="25.23 11.41 11.41 38.35 11.41 37.44 24.76 11.41 25.23 11.41"/>
                <polygon class="cls-63" points="25.69 11.41 11.41 39.27 11.41 38.35 25.23 11.41 25.69 11.41"/>
                <polygon class="cls-64" points="26.16 11.41 11.41 40.18 11.41 39.27 25.69 11.41 26.16 11.41"/>
                <polygon class="cls-65" points="26.63 11.41 11.41 41.09 11.41 40.18 26.16 11.41 26.63 11.41"/>
                <polygon class="cls-66" points="27.1 11.41 11.41 42.01 11.41 41.09 26.63 11.41 27.1 11.41"/>
                <polygon class="cls-67" points="27.57 11.41 11.41 42.92 11.41 42.01 27.1 11.41 27.57 11.41"/>
                <polygon class="cls-68" points="28.04 11.41 11.41 43.84 11.41 42.92 27.57 11.41 28.04 11.41"/>
                <polygon class="cls-69" points="28.51 11.41 11.41 44.75 11.41 43.84 28.04 11.41 28.51 11.41"/>
                <polygon class="cls-70" points="28.98 11.41 11.41 45.66 11.41 44.75 28.51 11.41 28.98 11.41"/>
                <polygon class="cls-71" points="29.44 11.41 11.41 46.58 11.41 45.66 28.98 11.41 29.44 11.41"/>
                <polygon class="cls-72" points="29.91 11.41 11.41 47.49 11.41 46.58 29.44 11.41 29.91 11.41"/>
                <polygon class="cls-73" points="30.38 11.41 11.41 48.41 11.41 47.49 29.91 11.41 30.38 11.41"/>
                <polygon class="cls-74" points="30.85 11.41 11.47 49.19 11.41 49.15 11.41 48.41 30.38 11.41 30.85 11.41"/>
                <polygon class="cls-4" points="31.32 11.41 11.85 49.38 11.47 49.19 30.85 11.41 31.32 11.41"/>
                <polygon class="cls-5" points="31.79 11.41 12.22 49.57 11.85 49.38 31.32 11.41 31.79 11.41"/>
                <polygon class="cls-6" points="32.26 11.41 12.59 49.76 12.22 49.57 31.79 11.41 32.26 11.41"/>
                <polygon class="cls-7" points="32.72 11.41 12.96 49.95 12.59 49.76 32.26 11.41 32.72 11.41"/>
                <polygon class="cls-8" points="33.19 11.41 13.33 50.14 12.96 49.95 32.72 11.41 33.19 11.41"/>
                <polygon class="cls-9" points="33.66 11.41 13.7 50.33 13.33 50.14 33.19 11.41 33.66 11.41"/>
                <polygon class="cls-10" points="34.13 11.41 14.07 50.52 13.7 50.33 33.66 11.41 34.13 11.41"/>
                <polygon class="cls-11" points="34.6 11.41 14.44 50.71 14.07 50.52 34.13 11.41 34.6 11.41"/>
                <polygon class="cls-12" points="35.07 11.41 14.81 50.9 14.44 50.71 34.6 11.41 35.07 11.41"/>
                <polygon class="cls-13" points="35.53 11.41 15.19 51.09 14.81 50.9 35.07 11.41 35.53 11.41"/>
                <polygon class="cls-14" points="36 11.41 15.56 51.28 15.19 51.09 35.53 11.41 36 11.41"/>
                <polygon class="cls-15" points="36.47 11.41 15.93 51.47 15.56 51.28 36 11.41 36.47 11.41"/>
                <polygon class="cls-16" points="36.94 11.41 16.37 51.52 16.02 51.52 15.93 51.47 36.47 11.41 36.94 11.41"/>
                <polygon class="cls-17" points="37.13 11.94 16.84 51.52 16.37 51.52 36.94 11.41 37.13 11.41 37.13 11.94"/>
                <polygon class="cls-18" points="37.13 12.86 17.31 51.52 16.84 51.52 37.13 11.94 37.13 12.86"/>
                <polygon class="cls-19" points="37.13 13.77 17.78 51.52 17.31 51.52 37.13 12.86 37.13 13.77"/>
                <polygon class="cls-20" points="37.13 14.68 18.25 51.52 17.78 51.52 37.13 13.77 37.13 14.68"/>
                <polygon class="cls-21" points="37.13 15.6 18.71 51.52 18.25 51.52 37.13 14.68 37.13 15.6"/>
                <polygon class="cls-22" points="37.13 16.51 19.18 51.52 18.71 51.52 37.13 15.6 37.13 16.51"/>
                <polygon class="cls-23" points="37.13 17.43 19.65 51.52 19.18 51.52 37.13 16.51 37.13 17.43"/>
                <polygon class="cls-24" points="37.13 18.34 20.12 51.52 19.65 51.52 37.13 17.43 37.13 18.34"/>
                <polygon class="cls-25" points="37.13 19.25 20.59 51.52 20.12 51.52 37.13 18.34 37.13 19.25"/>
                <polygon class="cls-26" points="37.13 20.17 21.06 51.52 20.59 51.52 37.13 19.25 37.13 20.17"/>
                <polygon class="cls-27" points="37.13 21.08 21.53 51.52 21.06 51.52 37.13 20.17 37.13 21.08"/>
                <polygon class="cls-28" points="37.13 21.99 22 51.52 21.53 51.52 37.13 21.08 37.13 21.99"/>
                <polygon class="cls-29" points="37.13 22.91 22.46 51.52 22 51.52 37.13 21.99 37.13 22.91"/>
                <polygon class="cls-30" points="37.13 23.82 22.93 51.52 22.46 51.52 37.13 22.91 37.13 23.82"/>
                <polygon class="cls-31" points="37.13 24.74 23.4 51.52 22.93 51.52 37.13 23.82 37.13 24.74"/>
                <polygon class="cls-32" points="37.13 25.65 23.87 51.52 23.4 51.52 37.13 24.74 37.13 25.65"/>
                <polygon class="cls-33" points="37.13 26.56 24.34 51.52 23.87 51.52 37.13 25.65 37.13 26.56"/>
                <polygon class="cls-34" points="37.13 27.48 24.81 51.52 24.34 51.52 37.13 26.56 37.13 27.48"/>
                <polygon class="cls-35" points="37.13 28.39 25.28 51.52 24.81 51.52 37.13 27.48 37.13 28.39"/>
                <polygon class="cls-36" points="37.13 29.3 25.74 51.52 25.28 51.52 37.13 28.39 37.13 29.3"/>
                <polygon class="cls-37" points="37.13 30.22 26.21 51.52 25.74 51.52 37.13 29.3 37.13 30.22"/>
                <polygon class="cls-38" points="37.13 31.13 26.68 51.52 26.21 51.52 37.13 30.22 37.13 31.13"/>
                <polygon class="cls-39" points="37.13 32.05 27.15 51.52 26.68 51.52 37.13 31.13 37.13 32.05"/>
                <polygon class="cls-40" points="37.13 32.96 27.62 51.52 27.15 51.52 37.13 32.05 37.13 32.96"/>
                <polygon class="cls-41" points="37.13 33.87 28.09 51.52 27.62 51.52 37.13 32.96 37.13 33.87"/>
                <polygon class="cls-42" points="37.13 34.79 28.56 51.52 28.09 51.52 37.13 33.87 37.13 34.79"/>
                <polygon class="cls-43" points="37.13 35.7 29.02 51.52 28.56 51.52 37.13 34.79 37.13 35.7"/>
                <polygon class="cls-44" points="37.13 36.62 29.49 51.52 29.02 51.52 37.13 35.7 37.13 36.62"/>
                <polygon class="cls-45" points="37.13 37.53 29.96 51.52 29.49 51.52 37.13 36.62 37.13 37.53"/>
                <polygon class="cls-46" points="37.13 38.44 30.43 51.52 29.96 51.52 37.13 37.53 37.13 38.44"/>
                <polygon class="cls-47" points="37.13 39.36 30.9 51.52 30.43 51.52 37.13 38.44 37.13 39.36"/>
                <polygon class="cls-48" points="37.13 40.27 31.37 51.52 30.9 51.52 37.13 39.36 37.13 40.27"/>
                <polygon class="cls-49" points="37.13 41.18 31.84 51.52 31.37 51.52 37.13 40.27 37.13 41.18"/>
                <polygon class="cls-50" points="37.13 42.1 32.3 51.52 31.84 51.52 37.13 41.18 37.13 42.1"/>
                <polygon class="cls-51" points="37.13 43.01 32.77 51.52 32.3 51.52 37.13 42.1 37.13 43.01"/>
                <polygon class="cls-52" points="37.13 43.92 33.24 51.52 32.77 51.52 37.13 43.01 37.13 43.92"/>
                <polygon class="cls-52" points="33.24 51.52 37.13 43.92 37.13 51.52 33.24 51.52"/>
            </g>
            <g class="cls-75">
                <polygon class="cls-55" points="11.69 31.4 11.35 32.08 11.35 31.4 11.69 31.4"/>
                <polygon class="cls-56" points="12.16 31.4 11.35 32.99 11.35 32.08 11.69 31.4 12.16 31.4"/>
                <polygon class="cls-57" points="12.63 31.4 11.35 33.9 11.35 32.99 12.16 31.4 12.63 31.4"/>
                <polygon class="cls-58" points="13.1 31.4 11.35 34.82 11.35 33.9 12.63 31.4 13.1 31.4"/>
                <polygon class="cls-59" points="13.57 31.4 11.35 35.73 11.35 34.82 13.1 31.4 13.57 31.4"/>
                <polygon class="cls-60" points="14.04 31.4 11.35 36.65 11.35 35.73 13.57 31.4 14.04 31.4"/>
                <polygon class="cls-61" points="14.5 31.4 11.35 37.56 11.35 36.65 14.04 31.4 14.5 31.4"/>
                <polygon class="cls-62" points="14.97 31.4 11.35 38.47 11.35 37.56 14.5 31.4 14.97 31.4"/>
                <polygon class="cls-63" points="15.44 31.4 11.35 39.39 11.35 38.47 14.97 31.4 15.44 31.4"/>
                <polygon class="cls-64" points="15.91 31.4 11.35 40.3 11.35 39.39 15.44 31.4 15.91 31.4"/>
                <polygon class="cls-65" points="16.38 31.4 11.35 41.21 11.35 40.3 15.91 31.4 16.38 31.4"/>
                <polygon class="cls-66" points="16.85 31.4 11.35 42.13 11.35 41.21 16.38 31.4 16.85 31.4"/>
                <polygon class="cls-67" points="17.32 31.4 11.35 43.04 11.35 42.13 16.85 31.4 17.32 31.4"/>
                <polygon class="cls-68" points="17.78 31.4 11.35 43.95 11.35 43.04 17.32 31.4 17.78 31.4"/>
                <polygon class="cls-69" points="18.25 31.4 11.35 44.87 11.35 43.95 17.78 31.4 18.25 31.4"/>
                <polygon class="cls-70" points="18.72 31.4 11.35 45.78 11.35 44.87 18.25 31.4 18.72 31.4"/>
                <polygon class="cls-71" points="19.19 31.4 11.35 46.7 11.35 45.78 18.72 31.4 19.19 31.4"/>
                <polygon class="cls-72" points="19.66 31.4 11.35 47.61 11.35 46.7 19.19 31.4 19.66 31.4"/>
                <polygon class="cls-73" points="20.13 31.4 11.35 48.52 11.35 47.61 19.66 31.4 20.13 31.4"/>
                <polygon class="cls-74" points="20.6 31.4 11.35 49.44 11.35 48.52 20.13 31.4 20.6 31.4"/>
                <polygon class="cls-4" points="21.07 31.4 11.35 50.35 11.35 49.44 20.6 31.4 21.07 31.4"/>
                <polygon class="cls-5" points="21.53 31.4 11.35 51.27 11.35 50.35 21.07 31.4 21.53 31.4"/>
                <polygon class="cls-6" points="22 31.4 11.35 52.18 11.35 51.27 21.53 31.4 22 31.4"/>
                <polygon class="cls-7" points="22.47 31.4 11.35 53.09 11.35 52.18 22 31.4 22.47 31.4"/>
                <polygon class="cls-8" points="22.94 31.4 11.35 54.01 11.35 53.09 22.47 31.4 22.94 31.4"/>
                <polygon class="cls-9" points="23.41 31.4 11.35 54.92 11.35 54.01 22.94 31.4 23.41 31.4"/>
                <polygon class="cls-10" points="23.88 31.4 11.35 55.83 11.35 54.92 23.41 31.4 23.88 31.4"/>
                <polygon class="cls-11" points="24.34 31.4 11.35 56.75 11.35 55.83 23.88 31.4 24.34 31.4"/>
                <polygon class="cls-12" points="24.81 31.4 11.35 57.66 11.35 56.75 24.34 31.4 24.81 31.4"/>
                <polygon class="cls-13" points="25.28 31.4 11.61 58.07 11.35 57.93 11.35 57.66 24.81 31.4 25.28 31.4"/>
                <polygon class="cls-14" points="25.75 31.4 11.98 58.26 11.61 58.07 25.28 31.4 25.75 31.4"/>
                <polygon class="cls-15" points="26.22 31.4 12.35 58.45 11.98 58.26 25.75 31.4 26.22 31.4"/>
                <polygon class="cls-16" points="26.69 31.4 12.72 58.64 12.35 58.45 26.22 31.4 26.69 31.4"/>
                <polygon class="cls-17" points="27.16 31.4 13.09 58.83 12.72 58.64 26.69 31.4 27.16 31.4"/>
                <polygon class="cls-18" points="27.63 31.4 13.46 59.02 13.09 58.83 27.16 31.4 27.63 31.4"/>
                <polygon class="cls-19" points="28.09 31.4 13.83 59.21 13.46 59.02 27.63 31.4 28.09 31.4"/>
                <polygon class="cls-20" points="28.56 31.4 14.2 59.4 13.83 59.21 28.09 31.4 28.56 31.4"/>
                <polygon class="cls-21" points="29.03 31.4 14.57 59.59 14.2 59.4 28.56 31.4 29.03 31.4"/>
                <polygon class="cls-22" points="29.5 31.4 14.95 59.78 14.57 59.59 29.03 31.4 29.5 31.4"/>
                <polygon class="cls-23" points="29.97 31.4 15.32 59.97 14.95 59.78 29.5 31.4 29.97 31.4"/>
                <polygon class="cls-24" points="30.44 31.4 15.69 60.16 15.32 59.97 29.97 31.4 30.44 31.4"/>
                <polygon class="cls-25" points="30.91 31.4 16.06 60.35 15.69 60.16 30.44 31.4 30.91 31.4"/>
                <polygon class="cls-26" points="31.37 31.4 16.43 60.54 16.06 60.35 30.91 31.4 31.37 31.4"/>
                <polygon class="cls-27" points="31.84 31.4 16.8 60.73 16.43 60.54 31.37 31.4 31.84 31.4"/>
                <polygon class="cls-28" points="32.31 31.4 17.17 60.92 16.8 60.73 31.84 31.4 32.31 31.4"/>
                <polygon class="cls-29" points="32.78 31.4 17.54 61.11 17.17 60.92 32.31 31.4 32.78 31.4"/>
                <polygon class="cls-30" points="33.25 31.4 17.91 61.3 17.54 61.11 32.78 31.4 33.25 31.4"/>
                <polygon class="cls-31" points="33.72 31.4 18.29 61.49 17.91 61.3 33.25 31.4 33.72 31.4"/>
                <polygon class="cls-32" points="34.19 31.4 18.66 61.68 18.29 61.49 33.72 31.4 34.19 31.4"/>
                <polygon class="cls-33" points="34.65 31.4 19.03 61.87 18.66 61.68 34.19 31.4 34.65 31.4"/>
                <polygon class="cls-34" points="35.12 31.4 19.4 62.06 19.03 61.87 34.65 31.4 35.12 31.4"/>
                <polygon class="cls-35" points="35.59 31.4 19.77 62.25 19.4 62.06 35.12 31.4 35.59 31.4"/>
                <polygon class="cls-36" points="36.06 31.4 20.14 62.44 19.77 62.25 35.59 31.4 36.06 31.4"/>
                <polygon class="cls-37" points="36.53 31.4 20.51 62.63 20.14 62.44 36.06 31.4 36.53 31.4"/>
                <polygon class="cls-38" points="37 31.4 20.88 62.82 20.51 62.63 36.53 31.4 37 31.4"/>
                <polygon class="cls-39" points="37.47 31.4 21.3 62.92 21.08 62.92 20.88 62.82 37 31.4 37.47 31.4"/>
                <polygon class="cls-40" points="37.94 31.4 21.77 62.92 21.3 62.92 37.47 31.4 37.94 31.4"/>
                <polygon class="cls-41" points="38.4 31.4 22.24 62.92 21.77 62.92 37.94 31.4 38.4 31.4"/>
                <polygon class="cls-42" points="38.87 31.4 22.71 62.92 22.24 62.92 38.4 31.4 38.87 31.4"/>
                <polygon class="cls-43" points="39.34 31.4 23.18 62.92 22.71 62.92 38.87 31.4 39.34 31.4"/>
                <polygon class="cls-44" points="39.81 31.4 23.64 62.92 23.18 62.92 39.34 31.4 39.81 31.4"/>
                <polygon class="cls-45" points="40.28 31.4 24.11 62.92 23.64 62.92 39.81 31.4 40.28 31.4"/>
                <polygon class="cls-46" points="40.75 31.4 24.58 62.92 24.11 62.92 40.28 31.4 40.75 31.4"/>
                <polygon class="cls-47" points="41.22 31.4 25.05 62.92 24.58 62.92 40.75 31.4 41.22 31.4"/>
                <polygon class="cls-48" points="41.68 31.4 25.52 62.92 25.05 62.92 41.22 31.4 41.68 31.4"/>
                <polygon class="cls-49" points="42.15 31.4 25.99 62.92 25.52 62.92 41.68 31.4 42.15 31.4"/>
                <polygon class="cls-50" points="42.62 31.4 26.45 62.92 25.99 62.92 42.15 31.4 42.62 31.4"/>
                <polygon class="cls-51" points="43.09 31.4 26.92 62.92 26.45 62.92 42.62 31.4 43.09 31.4"/>
                <polygon class="cls-52" points="43.56 31.4 27.39 62.92 26.92 62.92 43.09 31.4 43.56 31.4"/>
                <polygon class="cls-52" points="27.39 62.92 43.56 31.4 74.27 31.4 74.27 62.92 27.39 62.92"/>
            </g>
            <g class="cls-76">
                <polygon class="cls-77" points="0 62.28 0.52 62.92 0 62.92 0 62.28"/>
                <polygon class="cls-78" points="0 61.52 1.13 62.92 0.52 62.92 0 62.28 0 61.52"/>
                <polygon class="cls-79" points="0 60.75 1.74 62.92 1.13 62.92 0 61.52 0 60.75"/>
                <polygon class="cls-80" points="0 59.99 2.36 62.92 1.74 62.92 0 60.75 0 59.99"/>
                <polygon class="cls-81" points="0 59.23 2.97 62.92 2.36 62.92 0 59.99 0 59.23"/>
                <polygon class="cls-82" points="0 58.46 3.58 62.92 2.97 62.92 0 59.23 0 58.46"/>
                <polygon class="cls-83" points="0 57.7 4.2 62.92 3.58 62.92 0 58.46 0 57.7"/>
                <polygon class="cls-84" points="0 56.93 4.81 62.92 4.2 62.92 0 57.7 0 56.93"/>
                <polygon class="cls-85" points="0 56.17 5.43 62.92 4.81 62.92 0 56.93 0 56.17"/>
                <polygon class="cls-86" points="0 55.4 6.04 62.92 5.43 62.92 0 56.17 0 55.4"/>
                <polygon class="cls-87" points="0 54.64 6.65 62.92 6.04 62.92 0 55.4 0 54.64"/>
                <polygon class="cls-88" points="0 53.88 7.27 62.92 6.65 62.92 0 54.64 0 53.88"/>
                <polygon class="cls-89" points="0 53.11 7.88 62.92 7.27 62.92 0 53.88 0 53.11"/>
                <polygon class="cls-90" points="0 52.35 8.49 62.92 7.88 62.92 0 53.11 0 52.35"/>
                <polygon class="cls-91" points="0 51.58 9.11 62.92 8.49 62.92 0 52.35 0 51.58"/>
                <polygon class="cls-92" points="0 50.82 9.72 62.92 9.11 62.92 0 51.58 0 50.82"/>
                <polygon class="cls-93" points="0 50.05 10.34 62.92 9.72 62.92 0 50.82 0 50.05"/>
                <polygon class="cls-94" points="0 49.29 10.95 62.92 10.34 62.92 0 50.05 0 49.29"/>
                <polygon class="cls-95" points="0 48.52 11.56 62.92 10.95 62.92 0 49.29 0 48.52"/>
                <polygon class="cls-96" points="0 47.76 12.18 62.92 11.56 62.92 0 48.52 0 47.76"/>
                <polygon class="cls-97" points="0 47 12.79 62.92 12.18 62.92 0 47.76 0 47"/>
                <polygon class="cls-98" points="0 46.23 13.41 62.92 12.79 62.92 0 47 0 46.23"/>
                <polygon class="cls-99" points="0 45.47 14.02 62.92 13.41 62.92 0 46.23 0 45.47"/>
                <polygon class="cls-100" points="0 44.7 14.63 62.92 14.02 62.92 0 45.47 0 44.7"/>
                <polygon class="cls-101" points="0 43.94 15.25 62.92 14.63 62.92 0 44.7 0 43.94"/>
                <polygon class="cls-102" points="0 43.17 15.86 62.92 15.25 62.92 0 43.94 0 43.17"/>
                <polygon class="cls-103" points="0 42.41 16.48 62.92 15.86 62.92 0 43.17 0 42.41"/>
                <polygon class="cls-104" points="0 41.65 17.09 62.92 16.48 62.92 0 42.41 0 41.65"/>
                <polygon class="cls-105" points="0 40.88 17.7 62.92 17.09 62.92 0 41.65 0 40.88"/>
                <polygon class="cls-106" points="0 40.12 18.32 62.92 17.7 62.92 0 40.88 0 40.12"/>
                <polygon class="cls-107" points="0 39.35 18.93 62.92 18.32 62.92 0 40.12 0 39.35"/>
                <polygon class="cls-108" points="0 38.59 19.54 62.92 18.93 62.92 0 39.35 0 38.59"/>
                <polygon class="cls-109" points="0 37.83 20.16 62.92 19.54 62.92 0 38.59 0 37.83"/>
                <polygon class="cls-110" points="0 37.06 20.77 62.92 20.16 62.92 0 37.83 0 37.06"/>
                <polygon class="cls-111" points="0 36.3 21.39 62.92 20.77 62.92 0 37.06 0 36.3"/>
                <polygon class="cls-112" points="0 35.53 22 62.92 21.39 62.92 0 36.3 0 35.53"/>
                <polygon class="cls-113" points="0 34.77 22.61 62.92 22 62.92 0 35.53 0 34.77"/>
                <polygon class="cls-114" points="0 34 23.23 62.92 22.61 62.92 0 34.77 0 34"/>
                <polygon class="cls-115" points="0 33.24 23.84 62.92 23.23 62.92 0 34 0 33.24"/>
                <polygon class="cls-116" points="0 32.48 24.45 62.92 23.84 62.92 0 33.24 0 32.48"/>
                <polygon class="cls-117" points="0 31.71 25.07 62.92 24.45 62.92 0 32.48 0 31.71"/>
                <polygon class="cls-118" points="0 30.95 25.68 62.92 25.07 62.92 0 31.71 0 30.95"/>
                <polygon class="cls-119" points="0 30.18 26.3 62.92 25.68 62.92 0 30.95 0 30.18"/>
                <polygon class="cls-120" points="0 29.42 26.91 62.92 26.3 62.92 0 30.18 0 29.42"/>
                <polygon class="cls-121" points="0 28.65 27.52 62.92 26.91 62.92 0 29.42 0 28.65"/>
                <polygon class="cls-122" points="0 27.89 28.14 62.92 27.52 62.92 0 28.65 0 27.89"/>
                <polygon class="cls-123" points="0 27.13 28.75 62.92 28.14 62.92 0 27.89 0 27.13"/>
                <polygon class="cls-124" points="0 26.36 29.36 62.92 28.75 62.92 0 27.13 0 26.36"/>
                <polygon class="cls-125" points="0 25.6 29.98 62.92 29.36 62.92 0 26.36 0 25.6"/>
                <polygon class="cls-126" points="0 24.83 30.59 62.92 29.98 62.92 0 25.6 0 24.83"/>
                <polygon class="cls-127" points="0 24.07 31.21 62.92 30.59 62.92 0 24.83 0 24.07"/>
                <polygon class="cls-128" points="0 23.3 31.82 62.92 31.21 62.92 0 24.07 0 23.3"/>
                <polygon class="cls-129" points="0 22.54 32.44 62.92 31.82 62.92 0 23.3 0 22.54"/>
                <polygon class="cls-130" points="0 21.77 33.05 62.92 32.44 62.92 0 22.54 0 21.77"/>
                <polygon class="cls-131" points="0 21.01 33.66 62.92 33.05 62.92 0 21.77 0 21.01"/>
                <polygon class="cls-132" points="0 20.25 34.28 62.92 33.66 62.92 0 21.01 0 20.25"/>
                <polygon class="cls-133" points="0 19.48 34.89 62.92 34.28 62.92 0 20.25 0 19.48"/>
                <polygon class="cls-134" points="0 18.72 35.5 62.92 34.89 62.92 0 19.48 0 18.72"/>
                <polygon class="cls-135" points="0 17.95 36.12 62.92 35.5 62.92 0 18.72 0 17.95"/>
                <polygon class="cls-136" points="0 17.19 36.73 62.92 36.12 62.92 0 17.95 0 17.19"/>
                <polygon class="cls-137" points="0 16.43 37.13 62.66 37.13 62.92 36.73 62.92 0 17.19 0 16.43"/>
                <polygon class="cls-138" points="0 15.66 37.13 61.9 37.13 62.66 0 16.43 0 15.66"/>
                <polygon class="cls-139" points="0 14.9 37.13 61.13 37.13 61.9 0 15.66 0 14.9"/>
                <polygon class="cls-140" points="0 14.13 37.13 60.37 37.13 61.13 0 14.9 0 14.13"/>
                <polygon class="cls-141" points="0 13.37 37.13 59.6 37.13 60.37 0 14.13 0 13.37"/>
                <polygon class="cls-142" points="0 12.6 37.13 58.84 37.13 59.6 0 13.37 0 12.6"/>
                <polygon class="cls-143" points="0 11.84 37.13 58.08 37.13 58.84 0 12.6 0 11.84"/>
                <polygon class="cls-144" points="0 11.08 37.13 57.31 37.13 58.08 0 11.84 0 11.08"/>
                <polygon class="cls-145" points="0 10.31 37.13 56.55 37.13 57.31 0 11.08 0 10.31"/>
                <polygon class="cls-146" points="0 9.55 37.13 55.78 37.13 56.55 0 10.31 0 9.55"/>
                <polygon class="cls-147" points="0 8.78 37.13 55.02 37.13 55.78 0 9.55 0 8.78"/>
                <polygon class="cls-148" points="0 8.77 0.37 8.48 37.13 54.26 37.13 55.02 0 8.78 0 8.77"/>
                <polygon class="cls-149" points="0.37 8.48 0.74 8.18 37.13 53.49 37.13 54.26 0.37 8.48"/>
                <polygon class="cls-150" points="0.74 8.18 1.11 7.88 37.13 52.73 37.13 53.49 0.74 8.18"/>
                <polygon class="cls-151" points="1.11 7.88 1.49 7.58 37.13 51.96 37.13 52.73 1.11 7.88"/>
                <polygon class="cls-152" points="1.49 7.58 1.86 7.28 37.13 51.2 37.13 51.96 1.49 7.58"/>
                <polygon class="cls-153" points="1.86 7.28 2.23 6.98 37.13 50.43 37.13 51.2 1.86 7.28"/>
                <polygon class="cls-154" points="2.23 6.98 2.61 6.68 37.13 49.67 37.13 50.43 2.23 6.98"/>
                <polygon class="cls-155" points="2.61 6.68 2.98 6.38 37.13 48.91 37.13 49.67 2.61 6.68"/>
                <polygon class="cls-156" points="2.98 6.38 3.35 6.08 37.13 48.14 37.13 48.91 2.98 6.38"/>
                <polygon class="cls-157" points="3.35 6.08 3.73 5.78 37.13 47.38 37.13 48.14 3.35 6.08"/>
                <polygon class="cls-158" points="3.73 5.78 4.1 5.48 37.13 46.61 37.13 47.38 3.73 5.78"/>
                <polygon class="cls-159" points="4.1 5.48 4.47 5.18 37.13 45.85 37.13 46.61 4.1 5.48"/>
                <polygon class="cls-160" points="4.47 5.18 4.84 4.88 37.13 45.08 37.13 45.85 4.47 5.18"/>
                <polygon class="cls-161" points="4.84 4.88 5.22 4.58 37.13 44.32 37.13 45.08 4.84 4.88"/>
                <polygon class="cls-162" points="5.22 4.58 5.59 4.28 37.13 43.56 37.13 44.32 5.22 4.58"/>
                <polygon class="cls-163" points="5.59 4.28 5.96 3.98 37.13 42.79 37.13 43.56 5.59 4.28"/>
                <polygon class="cls-164" points="5.96 3.98 6.34 3.68 37.13 42.03 37.13 42.79 5.96 3.98"/>
                <polygon class="cls-165" points="6.34 3.68 6.71 3.38 37.13 41.26 37.13 42.03 6.34 3.68"/>
                <polygon class="cls-166" points="6.71 3.38 7.08 3.08 37.13 40.5 37.13 41.26 6.71 3.38"/>
                <polygon class="cls-167" points="7.08 3.08 7.46 2.78 37.13 39.73 37.13 40.5 7.08 3.08"/>
                <polygon class="cls-168" points="7.46 2.78 7.83 2.48 37.13 38.97 37.13 39.73 7.46 2.78"/>
                <polygon class="cls-169" points="7.83 2.48 8.2 2.18 37.13 38.21 37.13 38.97 7.83 2.48"/>
                <polygon class="cls-170" points="8.2 2.18 8.58 1.88 37.13 37.44 37.13 38.21 8.2 2.18"/>
                <polygon class="cls-171" points="8.58 1.88 8.95 1.58 37.13 36.68 37.13 37.44 8.58 1.88"/>
                <polygon class="cls-172" points="8.95 1.58 9.32 1.28 37.13 35.91 37.13 36.68 8.95 1.58"/>
                <polygon class="cls-173" points="9.32 1.28 9.7 0.98 37.13 35.15 37.13 35.91 9.32 1.28"/>
                <polygon class="cls-174" points="9.7 0.98 10.07 0.68 37.13 34.38 37.13 35.15 9.7 0.98"/>
                <polygon class="cls-175" points="10.07 0.68 10.44 0.38 37.13 33.62 37.13 34.38 10.07 0.68"/>
                <polygon class="cls-176" points="10.44 0.38 10.81 0.09 37.13 32.86 37.13 33.62 10.44 0.38"/>
                <polygon class="cls-177" points="10.81 0.09 10.92 0 11.36 0 37.13 32.09 37.13 32.86 10.81 0.09"/>
                <polygon class="cls-178" points="11.97 0 37.13 31.33 37.13 32.09 11.36 0 11.97 0"/>
                <polygon class="cls-179" points="12.59 0 37.13 30.56 37.13 31.33 11.97 0 12.59 0"/>
                <polygon class="cls-180" points="13.2 0 37.13 29.8 37.13 30.56 12.59 0 13.2 0"/>
                <polygon class="cls-181" points="13.82 0 37.13 29.04 37.13 29.8 13.2 0 13.82 0"/>
                <polygon class="cls-182" points="14.43 0 37.13 28.27 37.13 29.04 13.82 0 14.43 0"/>
                <polygon class="cls-183" points="15.04 0 37.13 27.51 37.13 28.27 14.43 0 15.04 0"/>
                <polygon class="cls-184" points="15.66 0 37.13 26.74 37.13 27.51 15.04 0 15.66 0"/>
                <polygon class="cls-185" points="16.27 0 37.13 25.98 37.13 26.74 15.66 0 16.27 0"/>
                <polygon class="cls-185" points="16.89 0 37.13 25.21 37.13 25.98 16.27 0 16.89 0"/>
                <polygon class="cls-186" points="17.5 0 37.13 24.45 37.13 25.21 16.89 0 17.5 0"/>
                <polygon class="cls-187" points="18.11 0 37.13 23.68 37.13 24.45 17.5 0 18.11 0"/>
                <polygon class="cls-188" points="18.73 0 37.13 22.92 37.13 23.68 18.11 0 18.73 0"/>
                <polygon class="cls-189" points="19.34 0 37.13 22.16 37.13 22.92 18.73 0 19.34 0"/>
                <polygon class="cls-189" points="19.95 0 37.13 21.39 37.13 22.16 19.34 0 19.95 0"/>
                <polygon class="cls-190" points="20.57 0 37.13 20.63 37.13 21.39 19.95 0 20.57 0"/>
                <polygon class="cls-191" points="21.18 0 37.13 19.86 37.13 20.63 20.57 0 21.18 0"/>
                <polygon class="cls-191" points="21.8 0 37.13 19.1 37.13 19.86 21.18 0 21.8 0"/>
                <polygon class="cls-192" points="22.41 0 37.13 18.34 37.13 19.1 21.8 0 22.41 0"/>
                <polygon class="cls-192" points="23.02 0 37.13 17.57 37.13 18.34 22.41 0 23.02 0"/>
                <polygon class="cls-193" points="23.64 0 37.13 16.81 37.13 17.57 23.02 0 23.64 0"/>
                <polygon class="cls-193" points="24.25 0 37.13 16.04 37.13 16.81 23.64 0 24.25 0"/>
                <polygon class="cls-194" points="24.86 0 37.13 15.28 37.13 16.04 24.25 0 24.86 0"/>
                <polygon class="cls-195" points="25.48 0 37.13 14.51 37.13 15.28 24.86 0 25.48 0"/>
                <polygon class="cls-196" points="26.09 0 37.13 13.75 37.13 14.51 25.48 0 26.09 0"/>
                <polygon class="cls-196" points="26.71 0 37.13 12.98 37.13 13.75 26.09 0 26.71 0"/>
                <polygon class="cls-197" points="27.32 0 37.13 12.22 37.13 12.98 26.71 0 27.32 0"/>
                <polygon class="cls-197" points="27.93 0 37.13 11.46 37.13 12.22 27.32 0 27.93 0"/>
                <polygon class="cls-197" points="28.55 0 37.13 10.69 37.13 11.46 27.93 0 28.55 0"/>
                <polygon class="cls-198" points="29.16 0 37.13 9.93 37.13 10.69 28.55 0 29.16 0"/>
                <polygon class="cls-198" points="29.77 0 37.13 9.16 37.13 9.93 29.16 0 29.77 0"/>
                <polygon class="cls-199" points="30.39 0 37.13 8.4 37.13 9.16 29.77 0 30.39 0"/>
                <polygon class="cls-199" points="31 0 37.13 7.63 37.13 8.4 30.39 0 31 0"/>
                <polygon class="cls-199" points="31.62 0 37.13 6.87 37.13 7.63 31 0 31.62 0"/>
                <polygon class="cls-200" points="32.23 0 37.13 6.11 37.13 6.87 31.62 0 32.23 0"/>
                <polygon class="cls-200" points="32.84 0 37.13 5.34 37.13 6.11 32.23 0 32.84 0"/>
                <polygon class="cls-201" points="33.46 0 37.13 4.58 37.13 5.34 32.84 0 33.46 0"/>
                <polygon class="cls-202" points="34.07 0 37.13 3.81 37.13 4.58 33.46 0 34.07 0"/>
                <polygon class="cls-202" points="34.69 0 37.13 3.05 37.13 3.81 34.07 0 34.69 0"/>
                <polygon class="cls-202" points="35.3 0 37.13 2.29 37.13 3.05 34.69 0 35.3 0"/>
                <polygon class="cls-202" points="35.91 0 37.13 1.52 37.13 2.29 35.3 0 35.91 0"/>
                <polygon class="cls-203" points="36.53 0 37.13 0.76 37.13 1.52 35.91 0 36.53 0"/>
                <polygon class="cls-203" points="37.13 0.76 36.53 0 37.13 0 37.13 0.76"/>
            </g>
            <g class="cls-204">
                <polygon class="cls-152" points="37.13 51.2 37.39 51.52 37.13 51.52 37.13 51.2"/>
                <polygon class="cls-153" points="37.13 50.43 38.01 51.52 37.39 51.52 37.13 51.2 37.13 50.43"/>
                <polygon class="cls-154" points="37.13 49.67 38.62 51.52 38.01 51.52 37.13 50.43 37.13 49.67"/>
                <polygon class="cls-155" points="37.13 48.91 39.23 51.52 38.62 51.52 37.13 49.67 37.13 48.91"/>
                <polygon class="cls-156" points="37.13 48.14 39.85 51.52 39.23 51.52 37.13 48.91 37.13 48.14"/>
                <polygon class="cls-157" points="37.13 47.38 40.46 51.52 39.85 51.52 37.13 48.14 37.13 47.38"/>
                <polygon class="cls-158" points="37.13 46.61 41.07 51.52 40.46 51.52 37.13 47.38 37.13 46.61"/>
                <polygon class="cls-159" points="37.13 45.85 41.69 51.52 41.07 51.52 37.13 46.61 37.13 45.85"/>
                <polygon class="cls-160" points="37.13 45.08 42.3 51.52 41.69 51.52 37.13 45.85 37.13 45.08"/>
                <polygon class="cls-161" points="37.13 44.32 42.91 51.52 42.3 51.52 37.13 45.08 37.13 44.32"/>
                <polygon class="cls-162" points="37.13 43.56 43.53 51.52 42.91 51.52 37.13 44.32 37.13 43.56"/>
                <polygon class="cls-163" points="37.13 42.79 44.14 51.52 43.53 51.52 37.13 43.56 37.13 42.79"/>
                <polygon class="cls-164" points="37.13 42.03 44.76 51.52 44.14 51.52 37.13 42.79 37.13 42.03"/>
                <polygon class="cls-165" points="37.13 41.26 45.37 51.52 44.76 51.52 37.13 42.03 37.13 41.26"/>
                <polygon class="cls-166" points="37.13 40.5 45.98 51.52 45.37 51.52 37.13 41.26 37.13 40.5"/>
                <polygon class="cls-167" points="37.13 39.73 46.6 51.52 45.98 51.52 37.13 40.5 37.13 39.73"/>
                <polygon class="cls-168" points="37.13 38.97 47.21 51.52 46.6 51.52 37.13 39.73 37.13 38.97"/>
                <polygon class="cls-169" points="37.13 38.21 47.83 51.52 47.21 51.52 37.13 38.97 37.13 38.21"/>
                <polygon class="cls-170" points="37.13 37.44 48.44 51.52 47.83 51.52 37.13 38.21 37.13 37.44"/>
                <polygon class="cls-171" points="37.13 36.68 49.05 51.52 48.44 51.52 37.13 37.44 37.13 36.68"/>
                <polygon class="cls-172" points="37.13 35.91 49.67 51.52 49.05 51.52 37.13 36.68 37.13 35.91"/>
                <polygon class="cls-173" points="37.13 35.15 50.28 51.52 49.67 51.52 37.13 35.91 37.13 35.15"/>
                <polygon class="cls-174" points="37.13 34.38 50.9 51.52 50.28 51.52 37.13 35.15 37.13 34.38"/>
                <polygon class="cls-175" points="37.13 33.62 51.51 51.52 50.9 51.52 37.13 34.38 37.13 33.62"/>
                <polygon class="cls-176" points="37.13 32.86 52.12 51.52 51.51 51.52 37.13 33.62 37.13 32.86"/>
                <polygon class="cls-177" points="37.13 32.09 52.74 51.52 52.12 51.52 37.13 32.86 37.13 32.09"/>
                <polygon class="cls-178" points="37.13 31.33 53.35 51.52 52.74 51.52 37.13 32.09 37.13 31.33"/>
                <polygon class="cls-179" points="37.13 30.56 53.96 51.52 53.35 51.52 37.13 31.33 37.13 30.56"/>
                <polygon class="cls-180" points="37.13 29.8 54.58 51.52 53.96 51.52 37.13 30.56 37.13 29.8"/>
                <polygon class="cls-181" points="37.13 29.04 55.19 51.52 54.58 51.52 37.13 29.8 37.13 29.04"/>
                <polygon class="cls-182" points="37.13 28.27 55.8 51.52 55.19 51.52 37.13 29.04 37.13 28.27"/>
                <polygon class="cls-183" points="37.13 27.51 56.42 51.52 55.8 51.52 37.13 28.27 37.13 27.51"/>
                <polygon class="cls-184" points="37.13 26.74 57.03 51.52 56.42 51.52 37.13 27.51 37.13 26.74"/>
                <polygon class="cls-185" points="37.13 25.98 57.42 51.23 57.06 51.52 57.03 51.52 37.13 26.74 37.13 25.98"/>
                <polygon class="cls-185" points="37.13 25.21 57.79 50.93 57.42 51.23 37.13 25.98 37.13 25.21"/>
                <polygon class="cls-186" points="37.13 24.45 58.16 50.63 57.79 50.93 37.13 25.21 37.13 24.45"/>
                <polygon class="cls-187" points="37.13 23.68 58.54 50.33 58.16 50.63 37.13 24.45 37.13 23.68"/>
                <polygon class="cls-188" points="37.13 22.92 58.91 50.03 58.54 50.33 37.13 23.68 37.13 22.92"/>
                <polygon class="cls-189" points="37.13 22.16 59.28 49.73 58.91 50.03 37.13 22.92 37.13 22.16"/>
                <polygon class="cls-189" points="37.13 21.39 59.66 49.43 59.28 49.73 37.13 22.16 37.13 21.39"/>
                <polygon class="cls-190" points="37.13 20.63 60.03 49.13 59.66 49.43 37.13 21.39 37.13 20.63"/>
                <polygon class="cls-191" points="37.13 19.86 60.4 48.83 60.03 49.13 37.13 20.63 37.13 19.86"/>
                <polygon class="cls-191" points="37.13 19.1 60.77 48.53 60.4 48.83 37.13 19.86 37.13 19.1"/>
                <polygon class="cls-192" points="37.13 18.34 61.15 48.23 60.77 48.53 37.13 19.1 37.13 18.34"/>
                <polygon class="cls-192" points="37.13 17.57 61.52 47.93 61.15 48.23 37.13 18.34 37.13 17.57"/>
                <polygon class="cls-193" points="37.13 16.81 61.89 47.63 61.52 47.93 37.13 17.57 37.13 16.81"/>
                <polygon class="cls-193" points="37.13 16.04 62.27 47.33 61.89 47.63 37.13 16.81 37.13 16.04"/>
                <polygon class="cls-194" points="37.13 15.28 62.64 47.03 62.27 47.33 37.13 16.04 37.13 15.28"/>
                <polygon class="cls-195" points="37.13 14.51 62.86 46.55 62.86 46.86 62.64 47.03 37.13 15.28 37.13 14.51"/>
                <polygon class="cls-196" points="37.13 13.75 62.86 45.78 62.86 46.55 37.13 14.51 37.13 13.75"/>
                <polygon class="cls-196" points="37.13 12.98 62.86 45.02 62.86 45.78 37.13 13.75 37.13 12.98"/>
                <polygon class="cls-197" points="37.13 12.22 62.86 44.25 62.86 45.02 37.13 12.98 37.13 12.22"/>
                <polygon class="cls-197" points="37.13 11.46 62.86 43.49 62.86 44.25 37.13 12.22 37.13 11.46"/>
                <polygon class="cls-197" points="37.71 11.41 62.86 42.73 62.86 43.49 37.13 11.46 37.13 11.41 37.71 11.41"/>
                <polygon class="cls-198" points="38.32 11.41 62.86 41.96 62.86 42.73 37.71 11.41 38.32 11.41"/>
                <polygon class="cls-198" points="38.94 11.41 62.86 41.2 62.86 41.96 38.32 11.41 38.94 11.41"/>
                <polygon class="cls-199" points="39.55 11.41 62.86 40.43 62.86 41.2 38.94 11.41 39.55 11.41"/>
                <polygon class="cls-199" points="40.16 11.41 62.86 39.67 62.86 40.43 39.55 11.41 40.16 11.41"/>
                <polygon class="cls-199" points="40.78 11.41 62.86 38.9 62.86 39.67 40.16 11.41 40.78 11.41"/>
                <polygon class="cls-200" points="41.39 11.41 62.86 38.14 62.86 38.9 40.78 11.41 41.39 11.41"/>
                <polygon class="cls-200" points="42.01 11.41 62.86 37.38 62.86 38.14 41.39 11.41 42.01 11.41"/>
                <polygon class="cls-201" points="42.62 11.41 62.86 36.61 62.86 37.38 42.01 11.41 42.62 11.41"/>
                <polygon class="cls-202" points="43.23 11.41 62.86 35.85 62.86 36.61 42.62 11.41 43.23 11.41"/>
                <polygon class="cls-202" points="43.85 11.41 62.86 35.08 62.86 35.85 43.23 11.41 43.85 11.41"/>
                <polygon class="cls-202" points="44.46 11.41 62.86 34.32 62.86 35.08 43.85 11.41 44.46 11.41"/>
                <polygon class="cls-202" points="45.08 11.41 62.86 33.55 62.86 34.32 44.46 11.41 45.08 11.41"/>
                <polygon class="cls-203" points="45.69 11.41 62.86 32.79 62.86 33.55 45.08 11.41 45.69 11.41"/>
                <polygon class="cls-203" points="46.3 11.41 62.86 32.03 62.86 32.79 45.69 11.41 46.3 11.41"/>
                <polygon class="cls-203" points="46.92 11.41 62.86 31.26 62.86 32.03 46.3 11.41 46.92 11.41"/>
                <polygon class="cls-205" points="47.53 11.41 62.86 30.5 62.86 31.26 46.92 11.41 47.53 11.41"/>
                <polygon class="cls-205" points="48.14 11.41 62.86 29.73 62.86 30.5 47.53 11.41 48.14 11.41"/>
                <polygon class="cls-205" points="48.76 11.41 62.86 28.97 62.86 29.73 48.14 11.41 48.76 11.41"/>
                <polygon class="cls-54" points="49.37 11.41 62.86 28.2 62.86 28.97 48.76 11.41 49.37 11.41"/>
                <polygon class="cls-54" points="49.99 11.41 62.86 27.44 62.86 28.2 49.37 11.41 49.99 11.41"/>
                <polygon class="cls-54" points="50.6 11.41 62.86 26.68 62.86 27.44 49.99 11.41 50.6 11.41"/>
                <polygon class="cls-54" points="51.21 11.41 62.86 25.91 62.86 26.68 50.6 11.41 51.21 11.41"/>
                <polygon class="cls-54" points="51.83 11.41 62.86 25.15 62.86 25.91 51.21 11.41 51.83 11.41"/>
                <polygon class="cls-54" points="52.44 11.41 62.86 24.38 62.86 25.15 51.83 11.41 52.44 11.41"/>
                <polygon class="cls-54" points="62.86 24.38 52.44 11.41 62.86 11.41 62.86 24.38"/>
            </g>
            <g class="cls-206">
                <polygon class="cls-118" points="0 30.95 0.46 31.52 0 31.52 0 30.95"/>
                <polygon class="cls-119" points="0 30.18 1.08 31.52 0.46 31.52 0 30.95 0 30.18"/>
                <polygon class="cls-120" points="0 29.42 1.69 31.52 1.08 31.52 0 30.18 0 29.42"/>
                <polygon class="cls-121" points="0 28.65 2.31 31.52 1.69 31.52 0 29.42 0 28.65"/>
                <polygon class="cls-122" points="0 27.89 2.92 31.52 2.31 31.52 0 28.65 0 27.89"/>
                <polygon class="cls-123" points="0 27.13 3.53 31.52 2.92 31.52 0 27.89 0 27.13"/>
                <polygon class="cls-124" points="0 26.36 4.15 31.52 3.53 31.52 0 27.13 0 26.36"/>
                <polygon class="cls-125" points="0 25.6 4.76 31.52 4.15 31.52 0 26.36 0 25.6"/>
                <polygon class="cls-126" points="0 24.83 5.37 31.52 4.76 31.52 0 25.6 0 24.83"/>
                <polygon class="cls-127" points="0 24.07 5.99 31.52 5.37 31.52 0 24.83 0 24.07"/>
                <polygon class="cls-128" points="0 23.3 6.6 31.52 5.99 31.52 0 24.07 0 23.3"/>
                <polygon class="cls-129" points="0 22.54 7.21 31.52 6.6 31.52 0 23.3 0 22.54"/>
                <polygon class="cls-130" points="0 21.77 7.83 31.52 7.21 31.52 0 22.54 0 21.77"/>
                <polygon class="cls-131" points="0 21.01 8.44 31.52 7.83 31.52 0 21.77 0 21.01"/>
                <polygon class="cls-132" points="0 20.25 9.06 31.52 8.44 31.52 0 21.01 0 20.25"/>
                <polygon class="cls-133" points="0 19.48 9.67 31.52 9.06 31.52 0 20.25 0 19.48"/>
                <polygon class="cls-134" points="0 18.72 10.28 31.52 9.67 31.52 0 19.48 0 18.72"/>
                <polygon class="cls-135" points="0 17.95 10.9 31.52 10.28 31.52 0 18.72 0 17.95"/>
                <polygon class="cls-136" points="0 17.19 11.51 31.52 10.9 31.52 0 17.95 0 17.19"/>
                <polygon class="cls-137" points="0 16.43 12.13 31.52 11.51 31.52 0 17.19 0 16.43"/>
                <polygon class="cls-138" points="0 15.66 12.74 31.52 12.13 31.52 0 16.43 0 15.66"/>
                <polygon class="cls-139" points="0 14.9 13.35 31.52 12.74 31.52 0 15.66 0 14.9"/>
                <polygon class="cls-140" points="0 14.13 13.97 31.52 13.35 31.52 0 14.9 0 14.13"/>
                <polygon class="cls-141" points="0 13.37 14.58 31.52 13.97 31.52 0 14.13 0 13.37"/>
                <polygon class="cls-142" points="0 12.6 15.2 31.52 14.58 31.52 0 13.37 0 12.6"/>
                <polygon class="cls-143" points="0 11.84 15.81 31.52 15.2 31.52 0 12.6 0 11.84"/>
                <polygon class="cls-144" points="0 11.08 16.42 31.52 15.81 31.52 0 11.84 0 11.08"/>
                <polygon class="cls-145" points="0 10.31 17.04 31.52 16.42 31.52 0 11.08 0 10.31"/>
                <polygon class="cls-146" points="0 9.55 17.65 31.52 17.04 31.52 0 10.31 0 9.55"/>
                <polygon class="cls-147" points="0 8.78 18.26 31.52 17.65 31.52 0 9.55 0 8.78"/>
                <polygon class="cls-148" points="0 8.77 0.37 8.48 18.88 31.52 18.26 31.52 0 8.78 0 8.77"/>
                <polygon class="cls-149" points="0.37 8.48 0.74 8.18 19.49 31.52 18.88 31.52 0.37 8.48"/>
                <polygon class="cls-150" points="0.74 8.18 1.11 7.88 20.11 31.52 19.49 31.52 0.74 8.18"/>
                <polygon class="cls-151" points="1.11 7.88 1.49 7.58 20.72 31.52 20.11 31.52 1.11 7.88"/>
                <polygon class="cls-152" points="1.49 7.58 1.86 7.28 21.33 31.52 20.72 31.52 1.49 7.58"/>
                <polygon class="cls-153" points="1.86 7.28 2.23 6.98 21.95 31.52 21.33 31.52 1.86 7.28"/>
                <polygon class="cls-154" points="2.23 6.98 2.61 6.68 22.56 31.52 21.95 31.52 2.23 6.98"/>
                <polygon class="cls-155" points="2.61 6.68 2.98 6.38 23.18 31.52 22.56 31.52 2.61 6.68"/>
                <polygon class="cls-156" points="2.98 6.38 3.35 6.08 23.79 31.52 23.18 31.52 2.98 6.38"/>
                <polygon class="cls-157" points="3.35 6.08 3.73 5.78 24.4 31.52 23.79 31.52 3.35 6.08"/>
                <polygon class="cls-158" points="3.73 5.78 4.1 5.48 25.02 31.52 24.4 31.52 3.73 5.78"/>
                <polygon class="cls-159" points="4.1 5.48 4.47 5.18 25.63 31.52 25.02 31.52 4.1 5.48"/>
                <polygon class="cls-160" points="4.47 5.18 4.84 4.88 26.24 31.52 25.63 31.52 4.47 5.18"/>
                <polygon class="cls-161" points="4.84 4.88 5.22 4.58 26.86 31.52 26.24 31.52 4.84 4.88"/>
                <polygon class="cls-162" points="5.22 4.58 5.59 4.28 27.47 31.52 26.86 31.52 5.22 4.58"/>
                <polygon class="cls-163" points="5.59 4.28 5.96 3.98 28.09 31.52 27.47 31.52 5.59 4.28"/>
                <polygon class="cls-164" points="5.96 3.98 6.34 3.68 28.7 31.52 28.09 31.52 5.96 3.98"/>
                <polygon class="cls-165" points="6.34 3.68 6.71 3.38 29.31 31.52 28.7 31.52 6.34 3.68"/>
                <polygon class="cls-166" points="6.71 3.38 7.08 3.08 29.93 31.52 29.31 31.52 6.71 3.38"/>
                <polygon class="cls-167" points="7.08 3.08 7.46 2.78 30.54 31.52 29.93 31.52 7.08 3.08"/>
                <polygon class="cls-168" points="7.46 2.78 7.83 2.48 31.15 31.52 30.54 31.52 7.46 2.78"/>
                <polygon class="cls-169" points="7.83 2.48 8.2 2.18 31.77 31.52 31.15 31.52 7.83 2.48"/>
                <polygon class="cls-170" points="8.2 2.18 8.58 1.88 32.38 31.52 31.77 31.52 8.2 2.18"/>
                <polygon class="cls-171" points="8.58 1.88 8.95 1.58 33 31.52 32.38 31.52 8.58 1.88"/>
                <polygon class="cls-172" points="8.95 1.58 9.32 1.28 33.61 31.52 33 31.52 8.95 1.58"/>
                <polygon class="cls-173" points="9.32 1.28 9.7 0.98 34.22 31.52 33.61 31.52 9.32 1.28"/>
                <polygon class="cls-174" points="9.7 0.98 10.07 0.68 34.84 31.52 34.22 31.52 9.7 0.98"/>
                <polygon class="cls-175" points="10.07 0.68 10.44 0.38 35.45 31.52 34.84 31.52 10.07 0.68"/>
                <polygon class="cls-176" points="10.44 0.38 10.81 0.09 36.06 31.52 35.45 31.52 10.44 0.38"/>
                <polygon class="cls-177" points="10.81 0.09 10.92 0 11.36 0 36.68 31.52 36.06 31.52 10.81 0.09"/>
                <polygon class="cls-178" points="11.97 0 37.29 31.52 36.68 31.52 11.36 0 11.97 0"/>
                <polygon class="cls-179" points="12.59 0 37.91 31.52 37.29 31.52 11.97 0 12.59 0"/>
                <polygon class="cls-180" points="13.2 0 38.52 31.52 37.91 31.52 12.59 0 13.2 0"/>
                <polygon class="cls-181" points="13.82 0 39.13 31.52 38.52 31.52 13.2 0 13.82 0"/>
                <polygon class="cls-182" points="14.43 0 39.75 31.52 39.13 31.52 13.82 0 14.43 0"/>
                <polygon class="cls-183" points="15.04 0 40.36 31.52 39.75 31.52 14.43 0 15.04 0"/>
                <polygon class="cls-184" points="15.66 0 40.98 31.52 40.36 31.52 15.04 0 15.66 0"/>
                <polygon class="cls-185" points="16.27 0 41.59 31.52 40.98 31.52 15.66 0 16.27 0"/>
                <polygon class="cls-185" points="16.89 0 42.2 31.52 41.59 31.52 16.27 0 16.89 0"/>
                <polygon class="cls-186" points="17.5 0 42.82 31.52 42.2 31.52 16.89 0 17.5 0"/>
                <polygon class="cls-187" points="18.11 0 43.43 31.52 42.82 31.52 17.5 0 18.11 0"/>
                <polygon class="cls-188" points="18.73 0 44.05 31.52 43.43 31.52 18.11 0 18.73 0"/>
                <polygon class="cls-189" points="19.34 0 44.66 31.52 44.05 31.52 18.73 0 19.34 0"/>
                <polygon class="cls-189" points="19.95 0 45.27 31.52 44.66 31.52 19.34 0 19.95 0"/>
                <polygon class="cls-190" points="20.57 0 45.89 31.52 45.27 31.52 19.95 0 20.57 0"/>
                <polygon class="cls-191" points="21.18 0 46.5 31.52 45.89 31.52 20.57 0 21.18 0"/>
                <polygon class="cls-191" points="21.8 0 47.11 31.52 46.5 31.52 21.18 0 21.8 0"/>
                <polygon class="cls-192" points="22.41 0 47.73 31.52 47.11 31.52 21.8 0 22.41 0"/>
                <polygon class="cls-192" points="23.02 0 48.34 31.52 47.73 31.52 22.41 0 23.02 0"/>
                <polygon class="cls-193" points="23.64 0 48.95 31.52 48.34 31.52 23.02 0 23.64 0"/>
                <polygon class="cls-193" points="24.25 0 49.57 31.52 48.95 31.52 23.64 0 24.25 0"/>
                <polygon class="cls-194" points="24.86 0 50.18 31.52 49.57 31.52 24.25 0 24.86 0"/>
                <polygon class="cls-195" points="25.48 0 50.8 31.52 50.18 31.52 24.86 0 25.48 0"/>
                <polygon class="cls-196" points="26.09 0 51.41 31.52 50.8 31.52 25.48 0 26.09 0"/>
                <polygon class="cls-196" points="26.71 0 52.02 31.52 51.41 31.52 26.09 0 26.71 0"/>
                <polygon class="cls-197" points="27.32 0 52.64 31.52 52.02 31.52 26.71 0 27.32 0"/>
                <polygon class="cls-197" points="27.93 0 53.25 31.52 52.64 31.52 27.32 0 27.93 0"/>
                <polygon class="cls-197" points="28.55 0 53.87 31.52 53.25 31.52 27.93 0 28.55 0"/>
                <polygon class="cls-198" points="29.16 0 54.48 31.52 53.87 31.52 28.55 0 29.16 0"/>
                <polygon class="cls-198" points="29.77 0 55.09 31.52 54.48 31.52 29.16 0 29.77 0"/>
                <polygon class="cls-199" points="30.39 0 55.71 31.52 55.09 31.52 29.77 0 30.39 0"/>
                <polygon class="cls-199" points="31 0 56.32 31.52 55.71 31.52 30.39 0 31 0"/>
                <polygon class="cls-199" points="31.62 0 56.94 31.52 56.32 31.52 31 0 31.62 0"/>
                <polygon class="cls-200" points="32.23 0 57.55 31.52 56.94 31.52 31.62 0 32.23 0"/>
                <polygon class="cls-200" points="32.84 0 58.16 31.52 57.55 31.52 32.23 0 32.84 0"/>
                <polygon class="cls-201" points="33.46 0 58.78 31.52 58.16 31.52 32.84 0 33.46 0"/>
                <polygon class="cls-202" points="34.07 0 59.39 31.52 58.78 31.52 33.46 0 34.07 0"/>
                <polygon class="cls-202" points="34.69 0 60 31.52 59.39 31.52 34.07 0 34.69 0"/>
                <polygon class="cls-202" points="35.3 0 60.62 31.52 60 31.52 34.69 0 35.3 0"/>
                <polygon class="cls-202" points="35.91 0 61.23 31.52 60.62 31.52 35.3 0 35.91 0"/>
                <polygon class="cls-203" points="36.53 0 61.84 31.52 61.23 31.52 35.91 0 36.53 0"/>
                <polygon class="cls-203" points="37.14 0 62.46 31.52 61.84 31.52 36.53 0 37.14 0"/>
                <polygon class="cls-203" points="37.76 0 62.92 31.34 62.92 31.52 62.46 31.52 37.14 0 37.76 0"/>
                <polygon class="cls-205" points="38.37 0 62.92 30.57 62.92 31.34 37.76 0 38.37 0"/>
                <polygon class="cls-205" points="38.98 0 62.92 29.81 62.92 30.57 38.37 0 38.98 0"/>
                <polygon class="cls-205" points="39.6 0 62.92 29.05 62.92 29.81 38.98 0 39.6 0"/>
                <polygon class="cls-54" points="40.21 0 62.92 28.28 62.92 29.05 39.6 0 40.21 0"/>
                <polygon class="cls-54" points="40.82 0 62.92 27.52 62.92 28.28 40.21 0 40.82 0"/>
                <polygon class="cls-54" points="41.44 0 62.92 26.75 62.92 27.52 40.82 0 41.44 0"/>
                <polygon class="cls-54" points="42.05 0 62.92 25.99 62.92 26.75 41.44 0 42.05 0"/>
                <polygon class="cls-54" points="42.67 0 62.92 25.22 62.92 25.99 42.05 0 42.67 0"/>
                <polygon class="cls-54" points="43.28 0 62.92 24.46 62.92 25.22 42.67 0 43.28 0"/>
                <polygon class="cls-54" points="62.92 24.46 43.28 0 62.92 0 62.92 24.46"/>
            </g>
        </g>
    </g>
</svg>