<svg width="14" height="14" viewBox="0 0 14 14" fill="none" xmlns="http://www.w3.org/2000/svg">
<path fill-rule="evenodd" clip-rule="evenodd" d="M0.25 7C0.25 10.7279 3.27208 13.75 7 13.75C10.7236 13.75 13.743 10.7349 13.75 7.01294L13.7501 7L13.75 6.98706C13.743 3.26509 10.7236 0.25 7 0.25C3.27208 0.25 0.25 3.27208 0.25 7ZM12.1968 6.25C11.8679 3.95073 10.0493 2.13205 7.75 1.80317V3.4C7.75 3.81421 7.41421 4.15 7 4.15C6.58579 4.15 6.25 3.81421 6.25 3.4V1.80317C3.95073 2.13205 2.13205 3.95073 1.80317 6.25H3.4C3.81421 6.25 4.15 6.58579 4.15 7C4.15 7.41421 3.81421 7.75 3.4 7.75H1.80317C2.13205 10.0493 3.95073 11.8679 6.25 12.1968V10.6C6.25 10.1858 6.58579 9.84998 7 9.84998C7.41421 9.84998 7.75 10.1858 7.75 10.6V12.1968C10.0493 11.8679 11.8679 10.0493 12.1968 7.75H10.6001C10.1859 7.75 9.8501 7.41421 9.8501 7C9.8501 6.58579 10.1859 6.25 10.6001 6.25H12.1968Z" fill="url(#paint0_linear)"/>
<defs>
<linearGradient id="paint0_linear" x1="6.5" y1="0.5" x2="10.2463" y2="14.1062" gradientUnits="userSpaceOnUse">
<stop stop-color="#9253BE"/>
<stop offset="1" stop-color="#F0954D"/>
</linearGradient>
</defs>
</svg>
