<svg width="15" height="14" viewBox="0 0 15 14" fill="none" xmlns="http://www.w3.org/2000/svg">
<path fill-rule="evenodd" clip-rule="evenodd" d="M1.33541 0.261065C1.10292 0.14482 0.826814 0.157242 0.605702 0.293897C0.384589 0.430552 0.25 0.671952 0.25 0.931886V9.43461C0.25 9.71869 0.410502 9.97839 0.66459 10.1054L6.79538 13.1708C7.00653 13.2764 7.25506 13.2764 7.4662 13.1708L13.597 10.1054C13.8511 9.97839 14.0116 9.71869 14.0116 9.43461V0.931886C14.0116 0.671952 13.877 0.430552 13.6559 0.293897C13.4348 0.157242 13.1587 0.14482 12.9262 0.261065L7.13079 3.15876L1.33541 0.261065ZM1.75 8.97109V2.14541L6.63074 4.58578V11.4115L1.75 8.97109ZM7.63074 11.4115L12.5116 8.97109V2.14541L7.63074 4.58583V11.4115Z" fill="url(#paint0_linear)"/>
<defs>
<linearGradient id="paint0_linear" x1="6.39683" y1="5.16713" x2="7.21292" y2="12.5149" gradientUnits="userSpaceOnUse">
<stop stop-color="#9253BE"/>
<stop offset="1" stop-color="#F0954D"/>
</linearGradient>
</defs>
</svg>
